<svg id="Capa_1" data-name="Capa 1" xmlns="http://www.w3.org/2000/svg" xmlns:xlink="http://www.w3.org/1999/xlink" viewBox="0 0 2001 2001"><defs><style>.cls-1{fill:none;}.cls-2{fill:#1d1d1b;}.cls-3{fill:#060606;}.cls-4{fill:#080808;}.cls-5{fill:#010101;}.cls-6{fill:#363636;}.cls-7{fill:#0b0b0b;}.cls-8{stroke:#1d1d1b;stroke-miterlimit:10;fill:url(#Motivo_nuevo);}</style><pattern id="Motivo_nuevo" data-name="Motivo nuevo" width="200" height="200" patternTransform="translate(0.5 0.5)" patternUnits="userSpaceOnUse" viewBox="0 0 200 200"><rect class="cls-1" width="200" height="200"/><path class="cls-2" d="M125,82.8c0,.18,0,.28.23.2l-.19.19c0-.19-.15-.16-.27-.07s-.32.39-.57.48A1.49,1.49,0,0,1,125,82.8Z"/><path class="cls-2" d="M125,82.8a1.49,1.49,0,0,0-.8.8,9.15,9.15,0,0,1-1.26,1.15.65.65,0,0,0-.58.51l-.41.32a.32.32,0,0,0-.41.32l-.21.15a2.45,2.45,0,0,0-1.25.78l-.24.12a1.33,1.33,0,0,0-1,.41,1.38,1.38,0,0,1-.83,0c-1.59-.36-3.19-.7-4.82-.91-1.41-.18-2.82-.65-4.27-.18a1.55,1.55,0,0,0-1,.66c-.44.27-.67.81-1.18,1a1,1,0,0,0-.71.82,2.15,2.15,0,0,1-1,1.35c-.28.19-.68.15-.92.42a1,1,0,0,1-.65,0c-.3-.31-.72-.25-1.08-.38a30.64,30.64,0,0,1-2.85-1.19c-.29-.14-.58-.25-.62.27a3.11,3.11,0,0,1-2,2.57c-.4.2-.91.08-1.22.5a.06.06,0,0,1-.09,0,3.93,3.93,0,0,0-2.38.64l-.28.28a2.12,2.12,0,0,0-.48.51A5.56,5.56,0,0,1,91.32,95a12.42,12.42,0,0,0-2.17,2c-1.7,1.9-3.48,3.71-5.2,5.58-2.07,2.23-4.32,4.29-6.37,6.54-1.39,1.53-2.9,2.94-4.37,4.39q-2,2-4,3.88c-2.39,2.25-4.67,4.61-7,6.93-.16.17-.4.28-.41.56l-7.55,7.48a.28.28,0,0,0-.34.11l-2.75,2.74c-.1.11-.21.22-.12.39l-.44.45c-.34-.08-.47,0-.38.38l-1.37,1.36c-.31-.13-.42.16-.57.31-2.13,2.11-4.26,4.24-6.38,6.36-.14.15-.36.26-.36.51l-3.31,3.3c-.21,0-.3.15-.42.27-2.55,2.58-5.12,5.12-7.76,7.6-.55.51-1.09,1-1.67,1.51s-.67,0-.87-.2-.57-.47-.29-.87a6.29,6.29,0,0,1,.67-.87c1.92-2,3.86-4,5.8-6,.87-.9,1.77-1.77,2.65-2.66.15-.14.36-.25.36-.51l3.21-3.22c.23,0,.34-.18.47-.31l16.15-16.17c.15-.15.38-.25.31-.52,1-1.12,2.07-2.21,3.17-3.25.64,0,.72-.61,1-.93q9-9,18-18c.73-.72,1.52-1.41,2.25-2.12,2.56-2.51,5.19-4.93,7.78-7.4.56-.54,1.06-1.18,1.61-1.76.32-.34.83-.48,1.07-.92l.28-.27a.82.82,0,0,0,.39-.56c.13-.65.34-1.29.45-2a4.65,4.65,0,0,1,.79-2,2.34,2.34,0,0,1,1.88-1.21c.73,0,.77-.11.46-.79a16.3,16.3,0,0,1-1.33-3.63A2.15,2.15,0,0,1,95.91,79c.59-.21,1.1-.36,1.25-1.07a1.11,1.11,0,0,1,.63-.63c.17-.09.35-.17.36-.4a3.19,3.19,0,0,0,.68-2.49,54.55,54.55,0,0,0-1.19-7A3.13,3.13,0,0,1,98,65a23.37,23.37,0,0,1,4.61-5.49,104.18,104.18,0,0,1,10.7-8.5C125,42.65,136.5,34,147.79,25c3.22-2.55,6.5-5,10-7.23,1-.66,2.13-1.24,3.19-1.86a.84.84,0,0,1,.29-.13.76.76,0,0,1,.72.35c.12.19-.16.31-.28.43a112.83,112.83,0,0,1-10.29,9c-6.65,5.17-13.27,10.38-20,15.46-6.14,4.64-12.44,9-18.64,13.6a90.1,90.1,0,0,0-8.41,6.82,22.8,22.8,0,0,0-3.74,4.28,4.7,4.7,0,0,0-.65,3.83c.64,2.54,1.11,5.11,1.55,7.68.25,1.52,1,2.88,1.28,4.4.06.37.41.47.72.54,1.74.38,3.37,1.19,5.16,1.43a17.53,17.53,0,0,1,2.86.52.22.22,0,0,0,.36.07l1.28.28c.1.15.22.19.37.08a.06.06,0,0,1,.09,0,.23.23,0,0,0,.37.07.06.06,0,0,1,.09,0c.1.14.22.18.36.07l.37.08a.23.23,0,0,0,.38.09.05.05,0,0,1,.08,0c.1.15.22.19.37.08a7.68,7.68,0,0,0,1.59.09.22.22,0,0,0,.36-.08l.48-.17a2.11,2.11,0,0,0,1.55-.84l.22-.14c.31,0,.44-.15.51-.41l.21-.15a2.22,2.22,0,0,0,1.26-1.13l1.76-1.76a2.34,2.34,0,0,0,1.13-1.25l.34-.4a1.2,1.2,0,0,0,.77-.88l.32-.4c.32-.14.59-.31.59-.71l.15-.21c.31-.14.59-.3.57-.71l.16-.21c.29-.1.52-.26.49-.62l.15-.2c.26-.08.45-.2.41-.52l.23-.31c.26-.08.46-.2.4-.53l.15-.21c.26-.08.47-.19.39-.52l.16-.21a1.73,1.73,0,0,0,.86-1.16l.15-.22c.25,0,.38-.15.31-.42l.15-.21a4.64,4.64,0,0,0,1.32-1.81l.15-.21c.24,0,.38-.16.31-.43l.15-.21c.42-.08.5-.5.69-.78a5.18,5.18,0,0,0,1.07-1.67l.16-.22c.25,0,.38-.15.31-.42l.15-.22c.25,0,.37-.16.31-.42l.15-.22c.24,0,.38-.16.31-.42l.15-.22c.24,0,.37-.16.31-.42l.15-.22A1.76,1.76,0,0,0,138,61.5l.15-.21c.25,0,.38-.15.31-.42l.15-.22a1.55,1.55,0,0,0,.78-1.06l.23-.31a1.72,1.72,0,0,0,.85-1.17l.16-.21c.25,0,.37-.16.32-.42l.15-.21c.25-.09.45-.21.39-.53l.15-.21c.25-.08.46-.2.4-.52l.15-.21a2.08,2.08,0,0,0,.95-1.26l.15-.21c.26-.08.46-.2.4-.53l.15-.21a2.06,2.06,0,0,0,.95-1.25l.16-.21c.28-.11.52-.26.47-.62l.16-.21c.26-.08.46-.2.4-.52l.16-.21c.29-.11.52-.26.47-.62l.16-.21c.26-.08.46-.19.4-.52l.15-.21c.26-.08.46-.2.41-.52l.15-.21c.26-.08.45-.21.4-.52l.24-.31c.25-.08.45-.2.4-.51l.16-.22a2.81,2.81,0,0,0,1.12-1.44l.16-.21c.28-.11.51-.26.48-.62l.16-.21a2.4,2.4,0,0,0,1-1.34l.24-.31c.26-.07.45-.2.4-.51l.24-.31c.26-.08.45-.2.41-.52l.23-.31c.3-.1.52-.26.49-.61l.16-.21c.29-.1.51-.26.49-.61l.15-.21c.3-.16.6-.31.57-.72l.16-.21c.29-.1.52-.25.48-.62l.16-.2c.29-.1.52-.26.49-.62l.15-.21c.3-.1.52-.26.49-.61l.16-.21a2.76,2.76,0,0,0,1.12-1.44l.16-.21c.26-.08.45-.2.41-.51l.23-.32c.29-.1.52-.26.49-.61l.15-.21c.29-.11.52-.26.49-.62l.16-.21a4.82,4.82,0,0,0,1.5-1.79l.42-.5a1.56,1.56,0,0,0,.87-1l.5-.6c.36-.21.75-.4.76-.9l.25-.29c.26,0,.36-.23.5-.37.85-.84,1.68-1.68,2.52-2.52.18-.18.4-.45.65-.29s0,.44-.12.62a36.11,36.11,0,0,1-1.95,3.49c-.16.25-.47.46-.42.83l-.15.22c-.21,0-.28.11-.23.32l-.22.32c-.22,0-.29.12-.23.32l-.14.23c-.22,0-.29.12-.23.33l-.13.22c-.23,0-.3.12-.23.33l-.15.22c-.24,0-.37.16-.31.42l-.14.22c-.22,0-.29.12-.24.32l-.22.32c-.25,0-.38.16-.32.43l-.15.21a.32.32,0,0,0-.32.41l-.31.42c-.26.07-.45.2-.41.51l-.24.31a.33.33,0,0,0-.33.41l-.31.42a.33.33,0,0,0-.33.41l-.31.41a.33.33,0,0,0-.33.41l-.31.42c-.26.07-.45.2-.41.51l-.24.31a.32.32,0,0,0-.32.41l-.32.42c-.25.07-.44.2-.41.51l-.23.31c-.26.07-.44.2-.41.51l-.24.31c-.25.08-.44.21-.41.51l-.23.32a.47.47,0,0,0-.41.51l-.32.41c-.25.07-.44.2-.4.51l-.24.31c-.26.08-.44.21-.41.51l-.23.32a.33.33,0,0,0-.33.41l-.31.41c-.26.08-.45.21-.41.52l-.23.31c-.26.08-.45.2-.41.51l-.23.32a.32.32,0,0,0-.33.41l-.31.41c-.26.08-.46.2-.41.52l-.16.21c-.28.11-.5.27-.48.62l-.16.21a.32.32,0,0,0-.32.41l-.31.42c-.25,0-.36.15-.33.41l-.23.31c-.24,0-.36.17-.32.41l-.31.42c-.25,0-.37.16-.33.42l-.23.31c-.24,0-.36.17-.32.42l-.31.41c-.25,0-.37.16-.33.42l-.23.31c-.24,0-.36.16-.32.42l-.23.32a.32.32,0,0,0-.32.41l-.31.42c-.22,0-.29.11-.25.31l-.3.42c-.25,0-.38.16-.32.42l-.23.31c-.25,0-.38.16-.33.42l-.22.32c-.22,0-.29.11-.25.31l-.3.42c-.22,0-.29.12-.25.32l-.22.32c-.25.08-.46.2-.4.52l-.15.21c-.24,0-.37.16-.32.42l-.22.32c-.22,0-.29.11-.24.31l-.23.33a.32.32,0,0,0-.32.41l-.22.33c-.22,0-.29.11-.24.31l-.23.32c-.24,0-.37.17-.31.42l-.23.32c-.22,0-.29.12-.24.32l-.22.32c-.22,0-.29.12-.24.32l-.22.32c-.22,0-.29.12-.24.32l-.22.32c-.25,0-.37.16-.32.43l-.14.21c-.25,0-.37.17-.32.43l-.14.21c-.24,0-.37.17-.32.43l-.14.22c-.24,0-.37.16-.32.42l-.22.32c-.25,0-.38.15-.31.42l-.15.22c-.22,0-.29.11-.24.31l-.22.33c-.25,0-.38.16-.32.42l-.14.22c-.25,0-.38.16-.32.42l-.14.22c-.25,0-.37.16-.32.42l-.15.22c-.24,0-.36.16-.31.42l-.22.32c-.25,0-.39.15-.32.42l-.15.22c-.24,0-.37.16-.31.42l-.15.22c-.24,0-.37.16-.31.42l-.15.22a.32.32,0,0,0-.32.41l-.23.32c-.24,0-.36.16-.32.42l-.22.32c-.25,0-.37.16-.33.41l-.23.32c-.25.08-.45.2-.4.52l-.15.21c-.25.08-.45.21-.41.51l-.23.32c-.26.07-.45.2-.41.51l-.23.31c-.26.08-.45.21-.41.51l-.32.41a.61.61,0,0,0-.51.6l-.32.41a.81.81,0,0,0-.6.67l-.59.71a1.23,1.23,0,0,0-.78.86A5.4,5.4,0,0,1,125,82.8ZM95.83,90.51l.48-.24c.24.14.36.08.35-.22A1.56,1.56,0,0,0,97,88.13c-.28-.49-.81-.4-1.27-.42s-.66.28-.92.54a2.44,2.44,0,0,0-.95,1.81.67.67,0,0,1-.22.46c-.38.47.67.39.33.85.08,0,.15.1.22.09s.28-.11.23-.3l.38-.16A.86.86,0,0,0,95.83,90.51Zm5.69-7.3c-.86-.68-1.75-1.41-2.66-2.09a3.49,3.49,0,0,0-1.77-.74c-.77-.07-1,.24-.88,1s.65,1.56.91,2.35a5.87,5.87,0,0,0,4,4c.84.26,1.6.76,2.47.94.66.14.94-.12.91-.79a3.16,3.16,0,0,0-.48-1.46A30.59,30.59,0,0,0,101.52,83.21Z"/><path class="cls-2" d="M91.74,92c-.24.44-.75.58-1.07.92-.55.58-1,1.22-1.61,1.76-2.59,2.47-5.22,4.89-7.78,7.4-.73.71-1.52,1.4-2.25,2.12q-9,9-18,18c-.33.32-.41,1-1,.93,1.69-1.76,3.36-3.53,5.06-5.27,7.06-7.21,14.19-14.34,21.56-21.23.53-.5,1.09-1,1.63-1.48a3.71,3.71,0,0,0,1.24-1.66C89.83,92.46,90.83,92.25,91.74,92Z"/><path class="cls-2" d="M61.81,124.89c0-.28.25-.39.41-.56,2.32-2.32,4.6-4.68,7-6.93q2-1.92,4-3.88c1.47-1.45,3-2.86,4.37-4.39,2-2.25,4.3-4.31,6.37-6.54,1.72-1.87,3.5-3.68,5.2-5.58a12.42,12.42,0,0,1,2.17-2,5.56,5.56,0,0,0,1.09-1.34,2.12,2.12,0,0,1,.48-.51c-.28,1.15-.66,2.21-2,2.44-.24,0-.38.27-.54.45-9,9.89-18.56,19.22-28.15,28.55C62.05,124.71,61.92,124.79,61.81,124.89Z"/><path class="cls-2" d="M36.71,146.57c0,.26-.21.37-.36.51-.88.89-1.78,1.76-2.65,2.66-1.94,2-3.88,4-5.8,6a6.29,6.29,0,0,0-.67.87c-.28.4.07.68.29.87s.42.57.87.2,1.12-1,1.67-1.51c2.64-2.48,5.21-5,7.76-7.6.12-.12.21-.28.42-.27-1.89,2.07-3.91,4-5.89,6-1.12,1.11-2.25,2.2-3.39,3.29a5,5,0,0,1-.82.63c-.24.14-.61.13-.69-.12-.16-.52-1.22-.61-.68-1.43a6.48,6.48,0,0,1,.56-.71c3-3.15,6.1-6.22,9.22-9.26Z"/><path class="cls-2" d="M56.85,126.35c.07.27-.16.37-.31.52L40.39,143c-.13.13-.24.32-.47.31,1.82-1.87,3.62-3.75,5.46-5.6Q51,132.13,56.6,126.54A1.5,1.5,0,0,1,56.85,126.35Z"/><path class="cls-2" d="M98.15,76.89c0,.23-.19.31-.36.4a1.11,1.11,0,0,0-.63.63c-.15.71-.66.86-1.25,1.07a2.15,2.15,0,0,0-1.25,2.66A16.3,16.3,0,0,0,96,85.28c.31.68.27.78-.46.79a2.34,2.34,0,0,0-1.88,1.21,4.65,4.65,0,0,0-.79,2c-.11.66-.32,1.3-.45,2a.82.82,0,0,1-.39.56c.28-1.13.49-2.27.85-3.38.54-1.68,1.2-2.19,3.08-2.65-.36-.87-.74-1.73-1.09-2.61a6,6,0,0,1-.5-2,2.22,2.22,0,0,1,1.79-2.42,1,1,0,0,0,.73-.62A1.71,1.71,0,0,1,98.15,76.89Z"/><path class="cls-2" d="M166.19,28.49c-.05-.37.26-.58.42-.83a36.11,36.11,0,0,0,1.95-3.49c.09-.18.38-.43.12-.62s-.47.11-.65.29c-.84.84-1.67,1.68-2.52,2.52-.14.14-.24.36-.5.37,1.11-1.41,2.47-2.58,3.66-3.91a1,1,0,0,1,.19,1.41A42.77,42.77,0,0,1,166.19,28.49Z"/><path class="cls-2" d="M41.55,145c0-.25.22-.36.36-.51,2.12-2.12,4.25-4.25,6.38-6.36.15-.15.26-.44.57-.31-1.47,1.47-2.94,2.95-4.43,4.41C43.49,143.15,42.51,144.06,41.55,145Z"/><path class="cls-2" d="M95.64,92.23c.31-.42.82-.3,1.22-.5a3.11,3.11,0,0,0,2-2.57c0-.52.33-.41.62-.27a30.64,30.64,0,0,0,2.85,1.19c.36.13.78.07,1.08.38a11.44,11.44,0,0,1-3.52-1.19L99.47,89c-.23-.13-.31-.09-.37.2A3.59,3.59,0,0,1,95.64,92.23Z"/><path class="cls-2" d="M104.11,90.49c.24-.27.64-.23.92-.42a2.15,2.15,0,0,0,1-1.35,1,1,0,0,1,.71-.82c.51-.16.74-.7,1.18-1a1.61,1.61,0,0,1-1.13,1.12.85.85,0,0,0-.56.69A2.09,2.09,0,0,1,104.11,90.49Z"/><path class="cls-2" d="M51.05,135.61c-.09-.17,0-.28.12-.39l2.75-2.74a.28.28,0,0,1,.34-.11C53.25,133.51,52.16,134.57,51.05,135.61Z"/><path class="cls-2" d="M135.14,65.45a5.18,5.18,0,0,1-1.07,1.67c-.19.28-.27.7-.69.78A19.5,19.5,0,0,1,135.14,65.45Z"/><path class="cls-2" d="M162.21,30a4.82,4.82,0,0,1-1.5,1.79A9.14,9.14,0,0,1,162.21,30Z"/><path class="cls-2" d="M93.17,92.89a3.93,3.93,0,0,1,2.38-.64Z"/><path class="cls-2" d="M132.77,68.75a4.64,4.64,0,0,1-1.32,1.81A10.23,10.23,0,0,1,132.77,68.75Z"/><path class="cls-2" d="M150.19,45.28a2.81,2.81,0,0,1-1.12,1.44A6.79,6.79,0,0,1,150.19,45.28Z"/><path class="cls-2" d="M158.62,34.46a2.76,2.76,0,0,1-1.12,1.44A7.14,7.14,0,0,1,158.62,34.46Z"/><path class="cls-2" d="M124.7,79.21a2.34,2.34,0,0,1-1.13,1.25A7.06,7.06,0,0,1,124.7,79.21Z"/><path class="cls-2" d="M121.81,82.22a2.22,2.22,0,0,1-1.26,1.13Z"/><path class="cls-2" d="M152,42.9a2.4,2.4,0,0,1-1,1.34A6.1,6.1,0,0,1,152,42.9Z"/><path class="cls-2" d="M119.61,84.05a2.11,2.11,0,0,1-1.55.84Z"/><path class="cls-2" d="M144.78,52.34a2.06,2.06,0,0,1-.95,1.25A5.23,5.23,0,0,1,144.78,52.34Z"/><path class="cls-2" d="M143.13,54.54a2.08,2.08,0,0,1-.95,1.26A5.09,5.09,0,0,1,143.13,54.54Z"/><path class="cls-2" d="M140.46,58.11a1.72,1.72,0,0,1-.85,1.17A4.28,4.28,0,0,1,140.46,58.11Z"/><path class="cls-2" d="M130.84,71.41a1.73,1.73,0,0,1-.86,1.16A4.43,4.43,0,0,1,130.84,71.41Z"/><path class="cls-2" d="M138,61.5a1.76,1.76,0,0,1-.85,1.17A4.61,4.61,0,0,1,138,61.5Z"/><path class="cls-2" d="M163.5,28.52a1.56,1.56,0,0,1-.87,1A3.47,3.47,0,0,1,163.5,28.52Z"/><path class="cls-2" d="M120,86.83a2.45,2.45,0,0,1,1.25-.78A3.22,3.22,0,0,1,120,86.83Z"/><path class="cls-2" d="M139.38,59.59a1.55,1.55,0,0,1-.78,1.06A3.68,3.68,0,0,1,139.38,59.59Z"/><path class="cls-2" d="M164.76,27c0,.5-.4.69-.76.9A3.28,3.28,0,0,1,164.76,27Z"/><path class="cls-2" d="M125.81,77.93a1.2,1.2,0,0,1-.77.88A3,3,0,0,1,125.81,77.93Z"/><path class="cls-2" d="M125.83,81.83a1.23,1.23,0,0,1,.78-.86A2.91,2.91,0,0,1,125.83,81.83Z"/><path class="cls-2" d="M126.72,76.82c0,.4-.27.57-.59.71A2,2,0,0,1,126.72,76.82Z"/><path class="cls-2" d="M127.44,75.9c0,.41-.26.57-.57.71A2.08,2.08,0,0,1,127.44,75.9Z"/><path class="cls-2" d="M155.41,38.58c0,.41-.27.56-.57.72A1.83,1.83,0,0,1,155.41,38.58Z"/><path class="cls-2" d="M127.2,80.26a.81.81,0,0,1,.6-.67A1.69,1.69,0,0,1,127.2,80.26Z"/><path class="cls-2" d="M118.84,87.36a1.33,1.33,0,0,1,1-.41A1.47,1.47,0,0,1,118.84,87.36Z"/><path class="cls-2" d="M160.55,32c0,.36-.2.51-.49.62A1.49,1.49,0,0,1,160.55,32Z"/><path class="cls-2" d="M159.91,32.81c0,.35-.2.51-.49.61A1.46,1.46,0,0,1,159.91,32.81Z"/><path class="cls-2" d="M156.05,37.75c0,.37-.19.52-.48.62A1.45,1.45,0,0,1,156.05,37.75Z"/><path class="cls-2" d="M154.69,39.51c0,.35-.2.51-.49.61A1.28,1.28,0,0,1,154.69,39.51Z"/><path class="cls-2" d="M150.83,44.45c0,.36-.2.51-.48.62A1.39,1.39,0,0,1,150.83,44.45Z"/><path class="cls-2" d="M154,40.33c0,.35-.19.51-.49.61A1.39,1.39,0,0,1,154,40.33Z"/><path class="cls-2" d="M151.06,48.39c0-.35.2-.51.48-.62A1.39,1.39,0,0,1,151.06,48.39Z"/><path class="cls-2" d="M128.12,79.18a.61.61,0,0,1,.51-.6A1.25,1.25,0,0,1,128.12,79.18Z"/><path class="cls-2" d="M122.31,85.26a.65.65,0,0,1,.58-.51A1.16,1.16,0,0,1,122.31,85.26Z"/><path class="cls-2" d="M157.34,36.11c0,.35-.19.51-.49.61A1.53,1.53,0,0,1,157.34,36.11Z"/><path class="cls-2" d="M156.7,36.93c0,.36-.2.52-.49.62A1.42,1.42,0,0,1,156.7,36.93Z"/><path class="cls-2" d="M146.6,50c.05.36-.18.51-.47.62A1.45,1.45,0,0,1,146.6,50Z"/><path class="cls-2" d="M145.41,51.51c.05.36-.19.51-.47.62A1.37,1.37,0,0,1,145.41,51.51Z"/><path class="cls-2" d="M128.09,75.07c0,.36-.2.52-.49.62A1.42,1.42,0,0,1,128.09,75.07Z"/><path class="cls-2" d="M159.49,37.56c0-.31.15-.44.41-.51A1,1,0,0,1,159.49,37.56Z"/><path class="cls-2" d="M158.2,39.21c0-.31.16-.44.41-.51A1,1,0,0,1,158.2,39.21Z"/><path class="cls-2" d="M157.56,40c0-.31.15-.44.41-.51A1,1,0,0,1,157.56,40Z"/><path class="cls-2" d="M156.91,40.85c0-.3.16-.43.41-.51A.94.94,0,0,1,156.91,40.85Z"/><path class="cls-2" d="M156.27,41.68a.47.47,0,0,1,.41-.51A1,1,0,0,1,156.27,41.68Z"/><path class="cls-2" d="M155.55,42.6c0-.31.15-.44.4-.51A.93.93,0,0,1,155.55,42.6Z"/><path class="cls-2" d="M154.9,43.42c0-.3.15-.43.41-.51A1,1,0,0,1,154.9,43.42Z"/><path class="cls-2" d="M153.32,41.25c0,.32-.15.44-.41.52A1,1,0,0,1,153.32,41.25Z"/><path class="cls-2" d="M152.67,42.08c.05.31-.14.44-.4.51A1,1,0,0,1,152.67,42.08Z"/><path class="cls-2" d="M153,45.9c0-.31.15-.43.41-.51A1,1,0,0,1,153,45.9Z"/><path class="cls-2" d="M151.7,47.56c0-.32.15-.44.41-.52A1,1,0,0,1,151.7,47.56Z"/><path class="cls-2" d="M148.91,46.94c.05.31-.15.43-.4.51A1,1,0,0,1,148.91,46.94Z"/><path class="cls-2" d="M148.27,47.76c0,.31-.14.44-.4.52A1,1,0,0,1,148.27,47.76Z"/><path class="cls-2" d="M147.72,48.49c.05.32-.15.44-.41.52A1.1,1.1,0,0,1,147.72,48.49Z"/><path class="cls-2" d="M147.16,49.22c.06.33-.14.44-.4.52A1,1,0,0,1,147.16,49.22Z"/><path class="cls-2" d="M146,50.78c.06.32-.14.44-.4.52A1,1,0,0,1,146,50.78Z"/><path class="cls-2" d="M143.68,53.8c.06.33-.14.45-.4.53A1,1,0,0,1,143.68,53.8Z"/><path class="cls-2" d="M142,56c.06.32-.15.44-.4.52A1,1,0,0,1,142,56Z"/><path class="cls-2" d="M143.08,58.93c-.06-.32.15-.44.4-.52A1,1,0,0,1,143.08,58.93Z"/><path class="cls-2" d="M141.48,56.74c.06.32-.14.44-.39.53A1,1,0,0,1,141.48,56.74Z"/><path class="cls-2" d="M153.62,45.08c0-.31.15-.44.41-.52A1,1,0,0,1,153.62,45.08Z"/><path class="cls-2" d="M129.82,72.78c.08.33-.13.44-.39.52A1.06,1.06,0,0,1,129.82,72.78Z"/><path class="cls-2" d="M130.79,75.8c0-.32.15-.44.4-.52A.94.94,0,0,1,130.79,75.8Z"/><path class="cls-2" d="M129.28,73.51c.06.33-.14.45-.4.53A1,1,0,0,1,129.28,73.51Z"/><path class="cls-2" d="M130.23,76.52c0-.3.16-.43.41-.51A.94.94,0,0,1,130.23,76.52Z"/><path class="cls-2" d="M128.65,74.35c0,.32-.15.44-.41.52A1,1,0,0,1,128.65,74.35Z"/><path class="cls-2" d="M129.59,77.35c0-.31.15-.44.41-.51A1,1,0,0,1,129.59,77.35Z"/><path class="cls-2" d="M129,78.17c0-.3.15-.43.41-.51A1,1,0,0,1,129,78.17Z"/><path class="cls-2" d="M120.34,83.5c-.07.26-.2.45-.51.41A1.08,1.08,0,0,1,120.34,83.5Z"/><path class="cls-2" d="M162.06,34.26c0-.31.15-.44.41-.51A1.09,1.09,0,0,1,162.06,34.26Z"/><path class="cls-2" d="M159.19,33.74c0,.31-.15.43-.41.51A.94.94,0,0,1,159.19,33.74Z"/><path class="cls-2" d="M136.07,64.17c.06.26-.06.39-.31.42A.63.63,0,0,1,136.07,64.17Z"/><path class="cls-2" d="M137.29,66.9c0-.26.08-.39.32-.42A.67.67,0,0,1,137.29,66.9Z"/><path class="cls-2" d="M135.61,64.81c.07.27-.06.39-.31.42A.63.63,0,0,1,135.61,64.81Z"/><path class="cls-2" d="M136.76,67.64c-.07-.27.06-.39.31-.42A.69.69,0,0,1,136.76,67.64Z"/><path class="cls-2" d="M141.6,60.93a.32.32,0,0,1,.32-.41A.63.63,0,0,1,141.6,60.93Z"/><path class="cls-2" d="M158.93,38.28a.32.32,0,0,1,.32-.41A.66.66,0,0,1,158.93,38.28Z"/><path class="cls-2" d="M135.83,68.92c-.06-.26.07-.39.32-.42A.65.65,0,0,1,135.83,68.92Z"/><path class="cls-2" d="M135.37,69.56c-.06-.26.07-.39.32-.42A.71.71,0,0,1,135.37,69.56Z"/><path class="cls-2" d="M134.91,70.2c0-.26.07-.39.32-.42A.71.71,0,0,1,134.91,70.2Z"/><path class="cls-2" d="M133.23,68.11c.07.27-.07.39-.31.43A.65.65,0,0,1,133.23,68.11Z"/><path class="cls-2" d="M134.45,70.84c0-.26.07-.38.31-.42A.66.66,0,0,1,134.45,70.84Z"/><path class="cls-2" d="M160.85,35.81a.33.33,0,0,1,.33-.41A.67.67,0,0,1,160.85,35.81Z"/><path class="cls-2" d="M133.91,71.58c-.07-.27.07-.39.32-.42A.68.68,0,0,1,133.91,71.58Z"/><path class="cls-2" d="M133.45,72.22c-.06-.26.07-.39.31-.42A.63.63,0,0,1,133.45,72.22Z"/><path class="cls-2" d="M133,72.86c-.06-.26.07-.39.31-.42A.69.69,0,0,1,133,72.86Z"/><path class="cls-2" d="M131.3,70.77c.07.27-.06.39-.31.42A.66.66,0,0,1,131.3,70.77Z"/><path class="cls-2" d="M132.52,73.49a.32.32,0,0,1,.32-.41A.66.66,0,0,1,132.52,73.49Z"/><path class="cls-2" d="M140.94,57.48c.05.26-.07.39-.32.42A.65.65,0,0,1,140.94,57.48Z"/><path class="cls-2" d="M132,74.23c0-.26.08-.38.32-.42A.65.65,0,0,1,132,74.23Z"/><path class="cls-2" d="M131.42,75c0-.25.08-.38.33-.41A.68.68,0,0,1,131.42,75Z"/><path class="cls-2" d="M161.49,35a.33.33,0,0,1,.33-.41A.64.64,0,0,1,161.49,35Z"/><path class="cls-2" d="M138.45,60.87c.07.27-.06.39-.31.42A.63.63,0,0,1,138.45,60.87Z"/><path class="cls-2" d="M162.78,33.33a.32.32,0,0,1,.32-.41A.66.66,0,0,1,162.78,33.33Z"/><path class="cls-2" d="M163.25,32.71c-.06-.27.07-.39.32-.43A.73.73,0,0,1,163.25,32.71Z"/><path class="cls-2" d="M164.17,31.42c-.06-.26.07-.39.31-.42A.68.68,0,0,1,164.17,31.42Z"/><path class="cls-2" d="M138.67,65c0-.27.07-.39.32-.43A.69.69,0,0,1,138.67,65Z"/><path class="cls-2" d="M142.61,59.56c-.05-.26.08-.38.32-.42A.65.65,0,0,1,142.61,59.56Z"/><path class="cls-2" d="M137,62.89c.06.26-.07.39-.31.42A.63.63,0,0,1,137,62.89Z"/><path class="cls-2" d="M136.53,63.53c.07.26-.07.39-.31.42A.63.63,0,0,1,136.53,63.53Z"/><path class="cls-2" d="M50.23,136.44c-.09-.34,0-.46.38-.38A.78.78,0,0,1,50.23,136.44Z"/><path class="cls-2" d="M144.72,56.72c-.05-.26.08-.38.33-.42A.7.7,0,0,1,144.72,56.72Z"/><path class="cls-2" d="M145.28,56c-.06-.26.07-.39.32-.42A.72.72,0,0,1,145.28,56Z"/><path class="cls-2" d="M137.75,66.26c-.05-.26.08-.39.32-.43A.69.69,0,0,1,137.75,66.26Z"/><path class="cls-2" d="M146.46,54.42a.32.32,0,0,1,.32-.41A.69.69,0,0,1,146.46,54.42Z"/><path class="cls-2" d="M147,53.69c0-.26.08-.38.32-.42A.62.62,0,0,1,147,53.69Z"/><path class="cls-2" d="M147.56,53c0-.26.08-.39.33-.42A.67.67,0,0,1,147.56,53Z"/><path class="cls-2" d="M148.2,52.13c0-.25.08-.38.32-.42A.68.68,0,0,1,148.2,52.13Z"/><path class="cls-2" d="M148.75,51.4c0-.26.08-.39.33-.42A.64.64,0,0,1,148.75,51.4Z"/><path class="cls-2" d="M149.39,50.56c0-.24.08-.37.32-.41A.64.64,0,0,1,149.39,50.56Z"/><path class="cls-2" d="M138.21,65.62c-.05-.26.07-.39.32-.43A.69.69,0,0,1,138.21,65.62Z"/><path class="cls-2" d="M121.49,85.9a.32.32,0,0,1,.41-.32A.66.66,0,0,1,121.49,85.9Z"/><path class="cls-2" d="M149.94,49.84c0-.26.08-.38.33-.41A.64.64,0,0,1,149.94,49.84Z"/><path class="cls-2" d="M150.58,49a.32.32,0,0,1,.32-.41A.65.65,0,0,1,150.58,49Z"/><path class="cls-2" d="M152.42,46.63a.32.32,0,0,1,.33-.41A.68.68,0,0,1,152.42,46.63Z"/><path class="cls-2" d="M140.6,62.31c-.06-.25.07-.38.31-.42A.67.67,0,0,1,140.6,62.31Z"/><path class="cls-2" d="M160.21,36.63a.33.33,0,0,1,.33-.41A.64.64,0,0,1,160.21,36.63Z"/><path class="cls-2" d="M154.34,44.15a.33.33,0,0,1,.33-.41A.71.71,0,0,1,154.34,44.15Z"/><path class="cls-2" d="M136.37,68.17c-.05-.2,0-.31.24-.31A.4.4,0,0,1,136.37,68.17Z"/><path class="cls-2" d="M142.15,60.19c-.05-.2,0-.31.24-.31A.42.42,0,0,1,142.15,60.19Z"/><path class="cls-2" d="M140.13,63c0-.2,0-.32.24-.32A.4.4,0,0,1,140.13,63Z"/><path class="cls-2" d="M139.67,63.59c0-.2,0-.32.24-.32A.4.4,0,0,1,139.67,63.59Z"/><path class="cls-2" d="M141.14,61.57c0-.2,0-.31.24-.31A.42.42,0,0,1,141.14,61.57Z"/><path class="cls-2" d="M139.21,64.23c-.05-.2,0-.31.24-.32A.4.4,0,0,1,139.21,64.23Z"/><path class="cls-2" d="M143.7,58.09c0-.2,0-.32.25-.32A.43.43,0,0,1,143.7,58.09Z"/><path class="cls-2" d="M144.25,57.35c0-.2,0-.31.25-.31A.41.41,0,0,1,144.25,57.35Z"/><path class="cls-2" d="M145.9,55.15c0-.2,0-.31.25-.31A.41.41,0,0,1,145.9,55.15Z"/><path class="cls-2" d="M163.79,32c0-.2,0-.32.24-.32A.46.46,0,0,1,163.79,32Z"/><path class="cls-2" d="M164.63,30.78c-.07-.21,0-.32.23-.33A.44.44,0,0,1,164.63,30.78Z"/><path class="cls-2" d="M165,30.23c-.06-.21,0-.32.23-.33A.44.44,0,0,1,165,30.23Z"/><path class="cls-2" d="M165.36,29.67c-.06-.2,0-.32.23-.32A.43.43,0,0,1,165.36,29.67Z"/><path class="cls-2" d="M165.81,29c-.05-.21,0-.32.23-.32A.42.42,0,0,1,165.81,29Z"/><path class="cls-2" d="M111.87,84.23a.22.22,0,0,1-.36-.07A.34.34,0,0,1,111.87,84.23Z"/><path class="cls-2" d="M115.63,85.05c-.15.11-.27.07-.37-.08A.34.34,0,0,1,115.63,85.05Z"/><path class="cls-2" d="M115.18,85a.23.23,0,0,1-.38-.09A.41.41,0,0,1,115.18,85Z"/><path class="cls-2" d="M114.43,84.78c-.14.11-.26.07-.36-.07A.34.34,0,0,1,114.43,84.78Z"/><path class="cls-2" d="M114,84.68a.23.23,0,0,1-.37-.07A.38.38,0,0,1,114,84.68Z"/><path class="cls-2" d="M117.58,85.06a.22.22,0,0,1-.36.08A.37.37,0,0,1,117.58,85.06Z"/><path class="cls-2" d="M113.52,84.59c-.15.11-.27.07-.37-.08A.38.38,0,0,1,113.52,84.59Z"/><path class="cls-2" d="M93.68,90.52c.28.22.38-.08.51-.19a3.1,3.1,0,0,1,1-.67,2.5,2.5,0,0,1-.57.94c-.13.15-.47.26-.21.56.05.19-.06.28-.23.3s-.14-.06-.22-.09C94.35,90.91,93.3,91,93.68,90.52Z"/><path class="cls-2" d="M94.85,88.25a12.48,12.48,0,0,1-.95,1.81A2.44,2.44,0,0,1,94.85,88.25Z"/><path class="cls-2" d="M94.84,91a2.63,2.63,0,0,1,1-.49A.86.86,0,0,1,94.84,91Z"/><path class="cls-2" d="M96.31,90.27a.4.4,0,0,1,.35-.22C96.67,90.35,96.55,90.41,96.31,90.27Z"/><path class="cls-3" d="M62.2,75.15c-.34-.33-.77-.14-1.15-.2-2.49-.39-4.85-1.23-7.28-1.84a46.53,46.53,0,0,1-6.17-2,13.68,13.68,0,0,1-8.32-8.93,7.79,7.79,0,0,0-3.07-4.3,17.17,17.17,0,0,1-5-5.74,11.43,11.43,0,0,1-1.37-7.13c0-.29.11-.52-.32-.6s-.66-.6-.77-1a21.81,21.81,0,0,1-.6-4.1A27.4,27.4,0,0,1,29.72,27,29.92,29.92,0,0,1,40.49,13.14a37.83,37.83,0,0,1,13.14-6,23.18,23.18,0,0,1,4.24-.52.93.93,0,0,1,.5.08c1.21.79,2.66.83,4,1.34A2.25,2.25,0,0,0,63.8,8c.91-.28,1.82-.53,2.74-.79.12,0,.27,0,.36-.12a3,3,0,0,1,2.47-.38,27.55,27.55,0,0,1,9.25,2.57,33.78,33.78,0,0,1,9.75,6.19c7.08,6.69,10.39,14.81,9.32,24.59a21.7,21.7,0,0,1-.49,3.2c-.15.54-.28,1.11-1,1.21-.27,0-.18.26-.16.42.58,4.24-1.09,7.67-3.86,10.71a18.44,18.44,0,0,1-4.27,3.65,1.18,1.18,0,0,0-.47.74,27.43,27.43,0,0,1-2.26,5.43,12.64,12.64,0,0,1-4.92,4.76,29.71,29.71,0,0,1-6.52,2.48C71.4,73.35,69,74,66.68,74.62a13.47,13.47,0,0,1-2.62.39c-.19,0-.44-.13-.57.14ZM42.42,40l-.61.21a9.22,9.22,0,0,1-4.49.7c-.38-.06-.78-.17-.78-.63s.43-.52.8-.56a14.42,14.42,0,0,0,3.76-1,38.59,38.59,0,0,0,9.53-6.18,14.58,14.58,0,0,1,3.15-2.25c.26-.12.25-.31.25-.53,0-.8,0-1.6,0-2.4,0-.52.14-1,.21-1.56.3,1.59,1.05,3,1.33,4.57A61.87,61.87,0,0,0,59.06,42.9a26.8,26.8,0,0,0,3.5,6.33c.3.39.5.43.82,0a21.26,21.26,0,0,0,2.21-3.5A51.66,51.66,0,0,0,70.11,31.6c.34-2,1.14-3.76,1.55-5.71a21.46,21.46,0,0,1,.21,3.19c0,.75,0,1.34.88,1.57a1.88,1.88,0,0,1,.53.37c2.22,1.65,4.25,3.55,6.58,5.05,2.74,1.76,5.53,3.38,8.87,3.69.35,0,.68.15.68.55s-.31.53-.65.61a5.56,5.56,0,0,1-1.68,0A16.17,16.17,0,0,1,83.53,40c-.06,0-.12-.1-.19,0s0,.14,0,.2a28.69,28.69,0,0,0,.83,2.92,26,26,0,0,1,1.66,7.23,16.27,16.27,0,0,1-1.28,8.54.18.18,0,0,0,.06.26,5.47,5.47,0,0,0,1.44-.61,20.77,20.77,0,0,0,6.27-5.9,10.75,10.75,0,0,0,2.15-7,21.33,21.33,0,0,0-.2-3.1c0-.22,0-.38.24-.42s.36-.06.47.19a1,1,0,0,0,.36.59l.08.12c.08-.06.06-.13,0-.2,0-.76,0-1.51,0-2.26a41.52,41.52,0,0,0-.33-8.34A25.93,25.93,0,0,0,89,19.61a27.24,27.24,0,0,0-6.41-5.51A41.9,41.9,0,0,0,69.89,9,6.57,6.57,0,0,0,66,9.08a8.2,8.2,0,0,1-5.95,0,5.72,5.72,0,0,0-3.81-.15c-.74.24-1.51.37-2.26.58-7.6,2.14-14.21,5.8-18.85,12.44a25.09,25.09,0,0,0-4.44,10.93c-.48,3.23-.18,6.47-.2,9.71a.18.18,0,0,0,.13.2c.2,0,.26-.23.31-.35.1-.28.21-.44.55-.34s.2.38.16.58a22.06,22.06,0,0,0-.14,4.14,8.92,8.92,0,0,0,1.07,4.11A20.17,20.17,0,0,0,40,58.64a3,3,0,0,0,1.42.5,15.58,15.58,0,0,1-1-2.79,23,23,0,0,1,1.13-12.73c.4-1.12.71-2.26,1-3.41,0-.06.1-.12,0-.2S42.48,40,42.42,40Zm29.35-8.8c-.07.28-.11.39-.13.51a53.76,53.76,0,0,1-4.3,13.68,15.45,15.45,0,0,1-3.72,5.16.85.85,0,0,1-1.3,0,12.79,12.79,0,0,1-2.83-3.51,44.72,44.72,0,0,1-4.4-11.72c-.32-1.31-.59-2.64-.91-4.09a21.72,21.72,0,0,1-2.11,2.31,44.85,44.85,0,0,1-7.35,5.28A1.78,1.78,0,0,0,43.84,40c-.51,1.74-.91,3.51-1.31,5.28a28.41,28.41,0,0,0-1,7.62,12.49,12.49,0,0,0,1.89,6.83.52.52,0,0,1,.1.6.55.55,0,0,1-.55.25,9.47,9.47,0,0,1-2.06-.12c-.37-.09-.41.06-.3.37a12.7,12.7,0,0,0,8,8.65,110.58,110.58,0,0,0,12,3.33,10.34,10.34,0,0,0,4.43.07c1.11-.2,2.19-.51,3.27-.77,2.94-.71,5.85-1.51,8.71-2.5a12.81,12.81,0,0,0,8.33-8.74c.1-.33.11-.51-.32-.41a8.38,8.38,0,0,1-2,.12c-.25,0-.48,0-.61-.27a.54.54,0,0,1,.13-.59,7.14,7.14,0,0,0,1.08-2.13,16.43,16.43,0,0,0,.71-7.36,69.75,69.75,0,0,0-2.23-10.3,1.59,1.59,0,0,0-.81-1,39.92,39.92,0,0,1-3.75-2.42A26.65,26.65,0,0,1,71.77,31.23ZM30.54,42.91l0,0s0,.05,0,.08l0,0Z"/><path class="cls-3" d="M46.85,25.06c-.45,3.22-1.21,6.33-3.37,8.89a2.93,2.93,0,0,1-2.79,1.32,2.33,2.33,0,0,1-2.19-2.38,9.39,9.39,0,0,1,.69-3.67,14.43,14.43,0,0,1,3.64-5.74,4.61,4.61,0,0,1,1.32-.92,1.73,1.73,0,0,1,2.58,1.27A4.22,4.22,0,0,1,46.85,25.06Zm-7.3,7.79a2.67,2.67,0,0,0,.16.84c.13.31.31.61.65.66s.56-.2.7-.51a1.59,1.59,0,0,1,.4-.42,9.37,9.37,0,0,0,2.29-3.55c.07-.15.19-.34,0-.49a2,2,0,0,0-1.68-.67c-.7.09-1.47.16-1.8.91A8.47,8.47,0,0,0,39.55,32.85Zm4.75-4.5a15.21,15.21,0,0,0,.87-3.75c0-.23,0-.51-.16-.66s-.5,0-.71.15a9.24,9.24,0,0,0-2.83,3.07,1.31,1.31,0,0,0-.26.67A2.88,2.88,0,0,1,44.3,28.35Z"/><path class="cls-3" d="M79.12,25.09c0-1,0-2,1-2.55a2.25,2.25,0,0,1,2.65.67,14.37,14.37,0,0,1,4.65,8.86,3.93,3.93,0,0,1,0,.84,2.26,2.26,0,0,1-1.64,2.23,2.57,2.57,0,0,1-2.73-.62c-2.13-2-2.93-4.54-3.61-7.19A10.65,10.65,0,0,1,79.12,25.09Zm7.28,7.65a8.38,8.38,0,0,0-.55-2.58,2.19,2.19,0,0,0-3.46-1,.52.52,0,0,0-.21.7,9.85,9.85,0,0,0,2.3,3.55,2.22,2.22,0,0,1,.43.55c.28.49.68.55,1.06.15A1.92,1.92,0,0,0,86.4,32.74Zm-1.56-4.9a9.54,9.54,0,0,0-3.21-3.76c-.19-.13-.42-.29-.65-.17s-.22.45-.2.7a16.35,16.35,0,0,0,.73,3.4c.06.17.12.36.35.17A3,3,0,0,1,84.84,27.84Z"/><path class="cls-3" d="M52.56,49.82a9,9,0,0,1-.74,4,1.9,1.9,0,0,1-2.06,1.24,2,2,0,0,1-1.57-1.38,7.9,7.9,0,0,1-.58-2.38,13,13,0,0,1,.33-4.88c.33-1.22,1.1-2,2-2s1.6.58,2.06,1.84A10.83,10.83,0,0,1,52.56,49.82Z"/><path class="cls-3" d="M73.39,49.93a12,12,0,0,1,.37-3.1,4.5,4.5,0,0,1,.69-1.59,1.74,1.74,0,0,1,3,0,3.29,3.29,0,0,1,.53,1.1,12.83,12.83,0,0,1,0,6.71c-.37,1.33-1.08,2-2.06,2s-1.6-.61-2.08-1.91A10.8,10.8,0,0,1,73.39,49.93Z"/><path class="cls-3" d="M63,65.63c-.54,0-1.07,0-1.61,0-.19,0-.42,0-.45-.27s.17-.3.34-.33a10.05,10.05,0,0,1,3.46,0,.35.35,0,0,1,.33.34c0,.21-.22.25-.39.25-.56,0-1.12,0-1.68,0Z"/><path class="cls-4" d="M190.38,54.48a28.07,28.07,0,0,1,7.54.5,24.08,24.08,0,0,1,16.24,12.66,30.7,30.7,0,0,1,3.38,20.45,25.72,25.72,0,0,1-12.4,18c-1,.61-2,1.24-3,1.79a.76.76,0,0,0-.49.62,139.06,139.06,0,0,1-3.4,15.89c-1.74,6.78-3.53,13.54-5.31,20.31-.13.52-.35,1-.51,1.53-.26.82-1.05,1-1.67,1.32a.09.09,0,0,1-.14-.05c-.14-.5-.32-.5-.57-.07-.07.12-.19,0-.28,0a2.33,2.33,0,0,1-1.76-1.88c-.85-2.76-1.53-5.58-2.24-8.38-1.65-6.45-3.44-12.85-4.92-19.34a88.8,88.8,0,0,1-1.78-9.28.79.79,0,0,0-.54-.66,45,45,0,0,1-4.28-2.67A25.14,25.14,0,0,1,163,86.89a30.08,30.08,0,0,1,6.14-23.17,23,23,0,0,1,19.68-9.24C189.34,54.49,189.86,54.48,190.38,54.48Zm-25,27.19A26.56,26.56,0,0,0,167.85,94c2.4,5.1,6.51,8.45,11.27,11.16a.62.62,0,0,0,.43.11c1-.17,1.16-.06,1.35.88,1.16,5.94,2.69,11.79,4.15,17.65,1.64,6.56,3.36,13.09,5,19.64,0,.11.08.23.17.24s.23-.1.27-.22.15-.45.21-.68c1-3.77,1.94-7.53,2.93-11.29,2-7.49,3.83-15,5.59-22.57.23-1,.38-2,.6-3,.11-.5.38-1,1-.78a1.15,1.15,0,0,0,1.12-.2c.57-.36,1.14-.72,1.71-1.06a23.08,23.08,0,0,0,11.29-16.37,28,28,0,0,0-4.15-20.35,20.75,20.75,0,0,0-14.93-9.85,11.45,11.45,0,0,0-3.65,0,31,31,0,0,1-3.74.05.6.6,0,0,1-.31-.08,2.47,2.47,0,0,0-1.14-.16,20.74,20.74,0,0,0-15.88,8.33A28,28,0,0,0,165.36,81.67Z"/><path class="cls-5" d="M208.25,88.37a1.2,1.2,0,0,1-.42.5c-.25,0-.37.21-.52.36-2.09,2-4.86,1.41-6.25-1.11a9.28,9.28,0,0,1,.75-8.67,3.54,3.54,0,0,1,5.09-.67,5.5,5.5,0,0,1,2.15,3,8,8,0,0,1,.08,4.44C208.93,87,208.43,87.62,208.25,88.37Z"/><path class="cls-5" d="M172.78,88.74l-.19-.23c0-.08,0-.18-.06-.24-1.16-1.53-1.11-3.38-1-5.08a5.17,5.17,0,0,1,3.38-4.89,3.37,3.37,0,0,1,2.57,0,4.19,4.19,0,0,1,2,2,8,8,0,0,1,.86,3,8.32,8.32,0,0,1-.82,5.17,3.81,3.81,0,0,1-6.06.81C173.23,89.06,173.09,88.79,172.78,88.74Z"/><path class="cls-4" d="M172.78,88.74c.31.05.45.32.64.51a3.81,3.81,0,0,0,6.06-.81,8.32,8.32,0,0,0,.82-5.17,8,8,0,0,0-.86-3,4.19,4.19,0,0,0-2-2,3.37,3.37,0,0,0-2.57,0,5.17,5.17,0,0,0-3.38,4.89c-.08,1.7-.13,3.55,1,5.08.05.06,0,.16.06.24a4.13,4.13,0,0,1-1.45-2.73,8,8,0,0,1,1-5.66,5.35,5.35,0,0,1,1.1-1.27c2.2-1.82,4.86-1.44,6.2,1.08a8.49,8.49,0,0,1,0,8.89A3.91,3.91,0,0,1,172.78,88.74Z"/><path class="cls-4" d="M208.25,88.37c.18-.75.68-1.35.88-2.11a8,8,0,0,0-.08-4.44,5.5,5.5,0,0,0-2.15-3,3.54,3.54,0,0,0-5.09.67,9.28,9.28,0,0,0-.75,8.67c1.39,2.52,4.16,3.08,6.25,1.11.15-.15.27-.35.52-.36a3.93,3.93,0,0,1-6.44.15,6.78,6.78,0,0,1-1.28-3.62,10.52,10.52,0,0,1,.62-4.51,4.58,4.58,0,0,1,.33-.71c1.6-3,4.88-3.32,7-.67a7.66,7.66,0,0,1,1.22,7.34A2.85,2.85,0,0,1,208.25,88.37Z"/><path class="cls-6" d="M104.76,126.75c.15-.11.18-.21,0-.3H105c0,.08,0,.19.06.19.72,0,1.45,0,2.18,0,.12,0,.17-.1.1-.22h.26c-.19.09-.17.19,0,.29A8.15,8.15,0,0,1,104.76,126.75Z"/><path class="cls-6" d="M100.6,126.45c-.2.09-.17.19,0,.3a8.15,8.15,0,0,1-2.83,0c.16-.1.18-.2,0-.29H98c-.07.12,0,.22.1.22.73,0,1.46,0,2.18,0,.11,0,.1-.11.06-.19Z"/><path class="cls-7" d="M125.36,181.53l-.1-.51c.16-.11.1-.19,0-.27l-.1-.51c.16-.15.13-.28,0-.39a3,3,0,0,1-.09-1c.14-.12.16-.29,0-.33s-.26.15-.26.34l-.31.51c-.17,0-.22.13-.2.28a.09.09,0,0,1-.06.11c-.16,0-.22.11-.21.26a3.85,3.85,0,0,1-.8.91.86.86,0,0,0-.63.62,1.79,1.79,0,0,1-.64.55c-.16,0-.25.05-.27.21a7.52,7.52,0,0,1-1.51,1,3.76,3.76,0,0,0-1.61.8l-.56.26a8.09,8.09,0,0,0-1.75.55,8,8,0,0,0-2,.72l-.26.09a.53.53,0,0,0-.65.17l-.25.08c-.14-.15-.21-.08-.27.06l-.25.08a.52.52,0,0,0-.66.18l-.25.08c-.27-.14-.47,0-.66.17l-.25.07c-.12-.15-.2-.07-.26.06l-.26.07c-.12-.15-.2-.07-.26.06l-.26.07c-.12-.15-.2-.08-.26.05l-.26.08c-.12-.15-.2-.07-.26.06l-.25.07a1.71,1.71,0,0,0-1.18.31,7,7,0,0,1-1.67.49c-.21-.15-.4-.18-.53.1l-.25,0c-.29-.15-.56-.2-.79.09l-1.28.06a.51.51,0,0,0-.65,0l-1.15,0a4.54,4.54,0,0,0-2.09-.34l-.24-.07a.23.23,0,0,0-.36-.1l-.42-.14c-.1-.25-.36-.24-.55-.29-2.28-.55-4.54-1.18-6.79-1.84a27.45,27.45,0,0,1-5-2,9.45,9.45,0,0,0-2-1.12.06.06,0,0,1-.08-.05.35.35,0,0,0-.42-.35l-.26-.23c0-.39-.24-.55-.6-.57a1.39,1.39,0,0,1-.43-.47.74.74,0,0,0-.6-.7s-.06,0,0-.07,0-.29-.21-.31a.06.06,0,0,1-.05-.08c0-.18,0-.29-.21-.31a.09.09,0,0,1,0-.09c0-.27-.07-.6-.34-.59s-.15.39-.25.59c0,0,0,.12,0,.19a23.36,23.36,0,0,1-2.52,9.1c-.14.26-.36.5-.32.83,0,0,0,.06,0,.08s-.23.07-.27.14a14.78,14.78,0,0,1-2,2.74,16.22,16.22,0,0,1-5.47,4.32,1,1,0,0,1-1.29-.36l.12-.11c.31,0,.47-.21.62-.4A7.18,7.18,0,0,0,70.25,193c.07-.23.27-.47,0-.72l0-.25a2.91,2.91,0,0,0,.12-2.09,10.3,10.3,0,0,0-1.79-4.16c-.09-.12-.27-.28-.11-.45s.22,0,.31.12A9.44,9.44,0,0,1,71.17,191a15.9,15.9,0,0,1-.39,2.85.49.49,0,0,0,0,.12c-.26,0-.42.24-.3.43s.35,0,.51-.1a.52.52,0,0,0,.31-.46l.14-.12c.12,0,.28,0,.36-.1.77-.75,1.53-1.5,2.27-2.27a.57.57,0,0,0,.19-.53l.17-.21c.31,0,.39-.24.38-.52h0a.78.78,0,0,0,.6-.85s0-.06,0-.06c.2,0,.26-.14.21-.33,0,0,0-.06,0-.06a2.45,2.45,0,0,0,.86-1.62l.21-.45c.29-.07.31-.34.4-.54a28.65,28.65,0,0,0,1.88-9.14c0-.2.09-.44-.16-.59l-.07-.37c.18-.23,0-.43-.08-.6a23.06,23.06,0,0,0-.89-2.66l-.07-.24a1,1,0,0,0-.21-1l0-.25c.15-.21.17-.39-.1-.53l0-.25c.16-.16.14-.29-.06-.4l-.07-.38c.16-.2.18-.39-.09-.52l0-.26a.57.57,0,0,0-.08-.78l-.06-.64a.69.69,0,0,0-.09-.92l0-.5a4.68,4.68,0,0,0-.24-2.72l.07-.38c.17-.12.2-.25,0-.4l.06-.77c.29-.19.21-.42.07-.66V160a7.58,7.58,0,0,0,.1-2.23c0-.89,0-.88-.83-.76-.15,0-.31,0-.46,0a.73.73,0,0,1-.69-.4c-.16-.26.21-.27.25-.45s.34-.42.54-.61c.91-.89,2-1.57,2.49-2.88a.36.36,0,0,1,.55-.16c.2.14.11.35,0,.52a1.24,1.24,0,0,1-.17.27,14.14,14.14,0,0,1-2.52,2.49c-.13.1-.36.15-.27.37s.34.13.51.07a15.49,15.49,0,0,0,3.5-1.57c.29-.2.75-.14.87-.58L81,154a4.41,4.41,0,0,0,2.13-1.13s0-.05.08,0a.82.82,0,0,0,.83-.47s0,0,.08,0a2.22,2.22,0,0,0,1.48-1,.08.08,0,0,1,.08-.06c.18,0,.29,0,.31-.21,0,0,0-.06.07,0a1.13,1.13,0,0,0,1-.73l.22-.17a.52.52,0,0,0,.55-.48l.35-.3a.71.71,0,0,0,.69-.61l1-1a2.91,2.91,0,0,0,1.43-1.54l.13-.14a.51.51,0,0,0,.48-.57l.06-.48c.19-.26.06-.53,0-.8a13.92,13.92,0,0,1,0-5.82,2.14,2.14,0,0,1,.69-1.27c.15-.12.31-.2.47-.11s.05.27,0,.4a14.83,14.83,0,0,0-.25,4c0,.55-.08,1.15.33,1.63v.25c-.15.23-.18.42.13.52a30.72,30.72,0,0,0,5.59,12.72c0,.15.09.25.24.22s.17-.12.07-.23v-.65a.92.92,0,0,0,.3-1.21,1.13,1.13,0,0,1-.08-.63c0-.2.22-.29.28-.11.17.49.66.68.91,1.12a4.56,4.56,0,0,0,1.13,1.74l.18.32a1.52,1.52,0,0,0,.57,1.11l0,.12c0,.15-.06.41.13.41s.13-.26.13-.41l0-.12a1.52,1.52,0,0,0,.57-1.11.05.05,0,0,1,0-.07c.07,0,.18,0,.22-.11a12.3,12.3,0,0,1,1.74-2.56c.14-.13.14-.5.42-.36s.12.4,0,.59a1.32,1.32,0,0,0,.28,1.54v.24c-.3.08-.1.24,0,.31s.3.06.35-.15a34.71,34.71,0,0,0,2.1-3.12,3.93,3.93,0,0,0,1-2.08l.17-.38c.26-.06.27-.31.37-.49a19.38,19.38,0,0,0,1.12-2.85,5.57,5.57,0,0,0,.53-2.12l.23-1.41a2.18,2.18,0,0,0,.3-2l0-.26c.33-.11.21-.39.21-.6a15.59,15.59,0,0,0-.26-3.92c0-.12-.18-.29,0-.39a.37.37,0,0,1,.42.09,2,2,0,0,1,.62.88,10.46,10.46,0,0,1,.38,3.38c0,.31-.12.65.1.94l0,.25a4.86,4.86,0,0,0-.38,2.47l.06.48a.51.51,0,0,0,.48.57l.13.14a2.91,2.91,0,0,0,1.43,1.54l1.17,1.17a.78.78,0,0,0,.76.65l.15.14a.51.51,0,0,0,.55.48l.22.17c0,.25.17.38.43.34,0,.37.27.39.54.39,0,0,.06,0,.07,0,0,.19.13.25.31.21a.08.08,0,0,1,.08.06c0,.18.13.24.3.21s.07,0,.09,0a1.27,1.27,0,0,0,1.09.71s.07,0,.08,0a.73.73,0,0,0,.83.47.06.06,0,0,1,.08,0c0,.22.19.27.34.34,1.7.76,3.2,1.91,5,2.5.74.24,1.39.74,2.24.53a.33.33,0,0,1,.4.25c0,.21-.19.26-.34.32a2.51,2.51,0,0,1-1,.06c-.27,0-.52.07-.51.37a9.92,9.92,0,0,0,.09,2.61l0,1.3c-.13.37-.28.73.09,1.05l0,.25a20.07,20.07,0,0,0-.23,3.63V167a.33.33,0,0,0,0,.51l0,.38c-.31.28-.24.59-.09.92l0,.25c-.56.13-.38.38-.1.65l-.07.38c-.12,0-.25,0-.28.18s.07.22.22.22l0,.25c-.47.1-.38.3-.1.53l-.07.38c-.15.07-.21.15,0,.27l-.08.38c-.16,0-.22.14-.06.27l-.07.24c-.08.07-.21.12-.23.2a18.74,18.74,0,0,1-.9,3.11s.08.06.13.09l0,.23c-.22.19-.25.38,0,.55l.06.77a.7.7,0,0,0,.07.92l.06.63c-.15.25-.22.48.08.66l0,.38c-.16.16-.14.3.06.4l.07.38c-.16.17-.15.31.08.4l.06.38c-.17.12-.11.21,0,.27l.32,1.28c-.16.14-.09.22.08.27l.06.25c-.16.14-.09.22.07.27l.27.81c-.08.17-.06.3.14.36l.11.3c-.07.16,0,.29.14.34l.13.3c-.08.17-.06.3.15.35l.34.7a.49.49,0,0,0,.31.6l.09.17c-.06.18,0,.31.18.34l1.22,1.78c0,.18,0,.28.22.3l.29.36c0,.18,0,.28.24.28l2.6,2.59c0,.34.31.45.52.6s.45,0,.3-.19c-.34-.54-.29-1.24-.77-1.72l0-.25a4.51,4.51,0,0,0,0-2.19l0-.25c.05,0,.13-.06.14-.11a10.3,10.3,0,0,1,1.95-4,.53.53,0,0,0,.15-.47.58.58,0,0,1,.3-.35c.62-.13.77-1,1.45-1,.06.21-.06.29-.15.37a11.38,11.38,0,0,0-1.89,2.52,7.68,7.68,0,0,0-.88,6.54c.13.39.2.84.64,1a.06.06,0,0,1,0,.08.78.78,0,0,0,.59.83l.41.54c0,.21.14.23.31.21l.11.12c-.28.69-.89.4-1.38.45a2.61,2.61,0,0,1-1-.47c0-.19-.14-.23-.31-.19l-.34-.21c0-.17-.12-.22-.28-.2l-.24-.17c0-.18-.12-.24-.28-.21a2.78,2.78,0,0,1-.75-.56.22.22,0,0,0-.28-.23,15.19,15.19,0,0,1-2.85-3,.21.21,0,0,0-.22-.27,6,6,0,0,1-1-1.39c0-.16,0-.27-.19-.3l-.46-.74a2.63,2.63,0,0,0-.67-1.34,2.29,2.29,0,0,1-.38-.84.74.74,0,0,0-.27-.71c-.09-.27-.18-.54-.28-.81a1.68,1.68,0,0,0-.33-1.13l-.1-.39c.16-.12.09-.2,0-.26l-.07-.26c.16-.12.08-.19,0-.26l-.21-.9C125.55,181.68,125.49,181.6,125.36,181.53Zm-6.1-28.63h0c0-.27-.18-.28-.38-.26h0c0-.26-.18-.29-.38-.27h0c0-.32-.24-.4-.52-.38h0c0-.2-.12-.27-.3-.24l-.21-.16a.35.35,0,0,0-.45-.35l-.21-.16a.57.57,0,0,0-.62-.53,15,15,0,0,1-2-2,.77.77,0,0,0-.66-.76l-.12-.15A.71.71,0,0,0,113,147c-.17-.1-.28.07-.33.21a4.65,4.65,0,0,0-.43,1.76l-.12.28c-.24.11-.39.25-.24.53l-.15.38c-.27.05-.28.3-.38.48-.37.67-.73,1.35-1.1,2s-.82.92-.94,1.56a.48.48,0,0,0,.14.61c.32.28.6.61.89.92a.22.22,0,0,0,.23.25c.17,0,.29-.05.29-.25a.84.84,0,0,1,.45-.29,4,4,0,0,0,1.64-.55l.38,0a1.28,1.28,0,0,0,1.16,0l.38,0c.12.3.31.26.52.11l.64.17c.07.2.2.21.36.13l.55.24c0,.2.17.23.34.17a2.53,2.53,0,0,1,.84.56q0,.3.3.24a2.75,2.75,0,0,1,.76.76c0,.19,0,.3.24.3a1.59,1.59,0,0,1,.42.6c0,.18,0,.29.2.32a3.89,3.89,0,0,1,.61,1.2,1.36,1.36,0,0,0,.4,1.13l.16.64c-.16.18-.15.32.09.4l0,.38c-.16.25-.24.48.1.65l0,.65a.77.77,0,0,0,0,.9l0,.38c-.3.13-.26.32-.1.53v.14c0,.07,0,.11.07.12l.58.4c0,.19.14.25.32.21a3.48,3.48,0,0,1,.85.56c0,.25.19.27.38.26l1.3.9c0,.21.14.27.33.22l.7.5c0,.1.07.17.16.14s.12-.16.07-.27l.14-1.09c.19-.12.2-.25,0-.4l.06-.77a.7.7,0,0,0,.08-.92l0-.64a2.68,2.68,0,0,0,.08-1.95l.07-3a1.39,1.39,0,0,0,.06-1.31l0-.64c.42-.47.18-1,.15-1.51,0-.35-.21-.53-.62-.6a13.2,13.2,0,0,1-2.74-.73c-.31-.12-.57-.48-1-.28a3.75,3.75,0,0,1-1-.52.77.77,0,0,0-.85-.47l-.31-.19c-.08-.31-.31-.37-.59-.34,0,0-.06,0-.06,0C119.64,152.89,119.46,152.87,119.26,152.9Zm-32.41-.53h0A4.4,4.4,0,0,0,85,153.53s0,.05-.07.05a.79.79,0,0,0-.83.47s0,0-.08,0-.18,0-.25,0A17.37,17.37,0,0,1,79,155.77c-.62.11-.81.94-.41,1.54l0,.78a2.25,2.25,0,0,0,.08,1.69l.06,2.71a3.16,3.16,0,0,0,.08,2.08l0,.52a1,1,0,0,0,.08,1l.06.64a.58.58,0,0,0,.07.79l.06.51c-.16.2-.17.38.07.52l0,.39c-.14.23-.18.46.08.65l.05.38c-.15.16-.12.29.06.4l.07.38c-.15.17-.13.3.09.4l0,.25a.81.81,0,0,0,.18.91l.08.38c-.16.13-.09.21.06.27l.07.25c-.16.14-.08.21.07.27l.63,1.63a12.17,12.17,0,0,0,7.59,7.46,109.29,109.29,0,0,0,11.9,3.31,10.39,10.39,0,0,0,4.44.07c1.06-.2,2.1-.5,3.14-.75a68.08,68.08,0,0,0,9.38-2.75,11.77,11.77,0,0,0,5.52-4,17.07,17.07,0,0,0,2.88-7.15c0-.31-.12-.41-.32-.55-1.46-1-2.91-2-4.35-3.1-.33-.23-.49-.24-.73.14a6.23,6.23,0,0,1-2.72,2.51c-.16-.07-.29,0-.34.14l-.51.17c-.13-.15-.21-.08-.27.06l-.38.07a.66.66,0,0,0-.77,0,4.46,4.46,0,0,1-1.67-.48c-.46-.43-.92-.88-1.39-1.3a7.5,7.5,0,0,1-2.08-2.59c-.22-.51-.48-1-.69-1.52-1-2.29-1.44-4.58-.26-7,.32-.65.16-.92-.53-1.26-.47-.59-.47-.59-.94,0-.15.18-.32.35-.48.52-.25,0-.35.22-.52.34-.39.28-1,.44-1.25.22-.65-.51-.77-.1-1,.35-.76,1.44-1.76,1.53-2.67,1-.54-.29-.74-.88-1.07-1.35-.1-.14-.21-.46-.4-.27-.6.6-1.19.22-1.79.08h0a.36.36,0,0,0-.37-.42A6.74,6.74,0,0,1,97.2,156c0-.17,0-.28-.21-.3a.06.06,0,0,1,0-.08.24.24,0,0,0-.22-.31c-.38-.35-.46-.89-.8-1.27a1.29,1.29,0,0,0-.29-.64c-.36-.58-.75-1.15-1.08-1.75a22,22,0,0,1-1.83-4.33c-.15-.5-.35-.48-.64-.13a.58.58,0,0,0-.18.46l-.12.15c-.27,0-.4.16-.36.43a1.3,1.3,0,0,1-.43.47,3.47,3.47,0,0,0-1.42,1.42l-.41.39a.8.8,0,0,0-.76.64l-.22.17a.23.23,0,0,0-.3.23l-.21.16C87.3,151.82,87,152,86.85,152.37Z"/><path class="cls-7" d="M97.75,126.74a8.15,8.15,0,0,0,2.83,0l.26,0c.31.36.68.22,1,.11h1.58c.32.12.64.23.91-.09l.39,0a8.15,8.15,0,0,0,2.83,0,3.57,3.57,0,0,1,1,.06.58.58,0,0,0,.79.07,1.79,1.79,0,0,1,.76.07c.2.26.43.2.66.06l.38.06c.15.24.33.23.53.07l.38.08a.33.33,0,0,0,.53.06l.25,0a1.07,1.07,0,0,0,1,.21l.25.07c.07,0,.12.13.19.15a22.64,22.64,0,0,1,6.36,2.15c.2.12.43.14.48-.2l.17-.25a.87.87,0,0,0,.61-.62,1.08,1.08,0,0,1,.57-.34c.15.07.27.05.34-.12l.26-.06,1.87.31a1.71,1.71,0,0,1,.7.35c0,.18.13.23.3.19a1.15,1.15,0,0,1,.48.34c0,.16.11.22.26.2a2.77,2.77,0,0,1,.77.68.56.56,0,0,0,.49.49.08.08,0,0,1,.07.08.66.66,0,0,0,.65.79l0,0,0,0c0,.39,0,.73.51.79h0c.21.62.4,1.26.66,1.87.09.21-.13.57.28.63l0,.25a1.78,1.78,0,0,0,0,1.8l0,.25c-.59.18-.28.73-.38,1.08s.48.27.78.23a6,6,0,0,0,3.12-1.44c.5-.44,1-.85,1.53-1.28.23-.19.36-.11.52.11a1.68,1.68,0,0,1,.12,1.43c-.14.68-.34,1.36-.52,2l-.12.3a.93.93,0,0,0-.43.82l-.19.35c-.19,0-.24.14-.19.32s0,.06-.05.07c-.2,0-.26.13-.21.31s0,.07-.05.08c-.19,0-.26.12-.22.3a.06.06,0,0,1-.05.08.35.35,0,0,0-.34.44.66.66,0,0,1-.3.34c-.15,0-.25.08-.22.23s.14.19.28.15l.34.11c.06.18.18.2.33.13l.19.08c0,.37.3.47.53.57a4.64,4.64,0,0,1,1.14.71,26.73,26.73,0,0,1,2.8,2.73,7,7,0,0,1,1.77,4.54.42.42,0,0,1-.44.51h-.05l0,0a2.42,2.42,0,0,0-1.64-1.23,12.89,12.89,0,0,0-5.66-.45c-.4.06-.48.22-.18.52l.07.25c-.16.29,0,.49.2.66a12.39,12.39,0,0,0,1,1.91c.07.79.67,1.28,1.05,1.88.27.41.47.93,1,1.13h0a2.24,2.24,0,0,0,1.15,1.42h0c0,.47.27.64.65.76h0c0,.65.49.78.9,1l.27.28a.83.83,0,0,0,.32.73l2.43,2.43c.19.19.37.37.67.29l.34.29c0,.39.18.56.57.49a1.27,1.27,0,0,1,.47.42c.25.5.44,1,1.14,1l.42.38c.18.35.25.83.82.75l.34.3c.43.65.75,1.42,1.66,1.55l.93.93a4.38,4.38,0,0,0,1.62,1.92h.06l.17.21a4.86,4.86,0,0,0,1,1.95,9.54,9.54,0,0,1,1.64,4.5,11.24,11.24,0,0,1-1.49,7.13,15.27,15.27,0,0,1-3,3.62c-.18.17-.44.3-.4.63h0c-.29,0-.4.21-.58.34a4.55,4.55,0,0,1-1.49.95c.18-.23.22-.34.3-.39a18.73,18.73,0,0,0,2.31-2.23,3.68,3.68,0,0,0,1-1.53h0a.35.35,0,0,0,.34-.46.07.07,0,0,1,.05-.07c.2,0,.26-.13.22-.31a19.74,19.74,0,0,0,1.1-2c.26-.06.27-.3.35-.49a8.1,8.1,0,0,0,.53-4.41,12.75,12.75,0,0,0-1.85-5.28,21.42,21.42,0,0,0-3.47-4.13c-.18-.18-.34-.4-.65-.34l-.13-.13a2.57,2.57,0,0,0-1.56-1.43h0a1.52,1.52,0,0,0-1.17-1h0a1.53,1.53,0,0,0-1.17-1h0c0-.26-.18-.37-.33-.52q-.74-.77-1.5-1.5a47.72,47.72,0,0,1-4.06-4.35,33.48,33.48,0,0,1-3.47-4.8c-.17-.3-.29-.7-.73-.77a4.77,4.77,0,0,1-.82-1.5,1.74,1.74,0,0,0-.42-1.36l-.05-.25c.16-.14.1-.22-.07-.27l-.05-.25c.16-.17.14-.31-.1-.39l0-.26c.1-.08.1-.19,0-.24s-.27,0-.29.2l-.38.44a2.13,2.13,0,0,0-1.16,1.16.48.48,0,0,1-.29.25c-.27,0-.47.07-.49.37,0,0,0,.06-.08.06a.84.84,0,0,0-.8.32c-.38.53-.81.45-1.3.29h0c0-.28-.06-.48-.38-.5l-.16-.23c0-.18,0-.29-.23-.29h0a1.91,1.91,0,0,0-.88-1.29.07.07,0,0,1,0-.09,1.68,1.68,0,0,0-.74-1.2,1.35,1.35,0,0,1-.29-.63,2.09,2.09,0,0,0,0-.25c0-.2-.25-.47,0-.58s.28.26.42.4c.37.37.47.95,1,1.2a.08.08,0,0,1,0,.1c0,.26,0,.48.35.55a.06.06,0,0,1,.05.08c-.05.18,0,.29.21.31a.48.48,0,0,1,.18.33c-.05.19,0,.3.22.31a.73.73,0,0,1,.29.36c0,.18,0,.29.22.3h0c0,.31.11.5.42.51a.55.55,0,0,0,.63-.49s0-.06.08-.06c.28,0,.42-.08.44-.35l1-1a.34.34,0,0,0,.36-.42l.29-.36c.19,0,.26-.11.23-.29a12.55,12.55,0,0,0,1.78-3.07,1.92,1.92,0,0,0-.59-2.1.05.05,0,0,1,0-.07c0-.27,0-.5-.34-.58a.05.05,0,0,1,0-.07c0-.19,0-.3-.22-.31l-.16-.23c0-.18,0-.28-.22-.3l-.16-.22c0-.18,0-.29-.24-.29l-.17-.21c0-.34-.16-.51-.48-.57l-.29-.35a.34.34,0,0,0-.36-.43l-.8-.87a1.87,1.87,0,0,0-1.18-1.18L125,137.2a.52.52,0,0,0-.56-.5,2.1,2.1,0,0,1-.61-.54,2.81,2.81,0,0,0-1.55-1.42h0c0-.25-.2-.36-.34-.52-.49-.59-1.4-.91-1.23-1.93h-.06a2.22,2.22,0,0,1,0-.89c.31-.48.19-.84-.42-1.09a24.77,24.77,0,0,0-4.54-1.38,3.87,3.87,0,0,0-1.84-.28l-.26,0c-.12-.28-.31-.25-.52-.1l-.25,0a1.3,1.3,0,0,0-1.31-.23l-.25,0c-.22-.35-.5-.24-.78-.1l-.39,0c-.27-.34-.58-.26-.91-.11l-.64,0a1.71,1.71,0,0,0-1.57-.11l-1.16,0a1.54,1.54,0,0,0-1.43-.1H101a1.72,1.72,0,0,0-1.56.11l-1,0a1.52,1.52,0,0,0-1.43.1l-.77,0c-.33-.15-.64-.23-.91.11l-.38,0c-.25-.17-.48-.23-.66.09l-.38,0c-.21-.16-.4-.18-.53.09l-.25,0a1.28,1.28,0,0,0-1.3.23l-.26,0c-.18-.17-.31-.16-.39.09l-.25,0a.26.26,0,0,0-.29-.1,30.91,30.91,0,0,0-5.66,1.75c-.37.18-.62.55-.2,1a1.77,1.77,0,0,1,0,.76c-.36.09-.06.31-.07.46s0,.52-.21.71c-.49.41-1,.8-1.46,1.25a5.83,5.83,0,0,0-1.45,1.6,2,2,0,0,1-.61.54.52.52,0,0,0-.56.5l-1.25,1.19a2.57,2.57,0,0,0-1.45,1.44l-.67.74c-.19,0-.27.1-.24.29l-.41.49a.34.34,0,0,0-.36.43l-.18.21c-.43-.06-.53.33-.7.57-.3.42-.72.8-.7,1.39l-.14.25c-.76.43-.73,1.18-.74,1.89,0,.24-.16.65.31.72l.13.29c-.19.49.21.83.43,1.13a18,18,0,0,0,3.33,3.8c.12.1.24.22.13.37s-.25,0-.34,0c-.32-.24-.68-.43-1-.66-.51-.35-.82-.94-1.43-1.16h0a.63.63,0,0,0-.59-.72c-.27,0-.31.44-.42.7a1.35,1.35,0,0,0-.06.41c-.06.67-.52,1.26-.36,2-.3.45-.32,1.05-.73,1.44-.32,0-.39.23-.51.41-.28.41-.49.87-.8,1.25-1.35,1.67-2.53,3.46-4,5.08A72.26,72.26,0,0,1,61.71,167,70.18,70.18,0,0,0,56,172.58,13,13,0,0,0,52.64,182a4.68,4.68,0,0,0,1,2.65,10.13,10.13,0,0,0,1,1.92,12,12,0,0,0,2.7,3.52c.57.5,1.12,1,1.68,1.55-.39.07-.57-.15-.78-.32s-.59-.63-1-.7l-.12-.11c0-.29-.19-.42-.36-.57a14.07,14.07,0,0,1-3.34-4.14,8.71,8.71,0,0,1-.88-2.74,16.66,16.66,0,0,1-.46-2.52,12.58,12.58,0,0,1,2.87-7.9,35,35,0,0,1,5-5.08,89.42,89.42,0,0,0,7.45-7.12c.39-.44,1-.78,1-1.48l.12-.12c.28,0,.42-.2.57-.38a19,19,0,0,0,2.16-3c.21-.39.63-.69.52-1.21.46-.58.65-1.31,1-1.93a3.46,3.46,0,0,0,.22-.31c.36-.74.24-1-.54-1.14a8.49,8.49,0,0,0-5.36.51,2.52,2.52,0,0,0-1.58,1.21h0a1.16,1.16,0,0,1-.71-.15l0-.26a19.84,19.84,0,0,1,.7-2.7c.11-.26.33-.51.26-.83a.06.06,0,0,1,0-.08,1.41,1.41,0,0,0,.73-1.08.07.07,0,0,1,.06-.08c.3-.07.53-.19.46-.56a8.9,8.9,0,0,1,1.7-1.66A.22.22,0,0,0,69,145l.22-.17c.21,0,.43,0,.37-.29l0,0,0,0a.66.66,0,0,0,.7-.45l.33-.18a9.06,9.06,0,0,0,1.59-.55c.25-.06.24-.37-.09-.47h0a1.77,1.77,0,0,0-.9-1.15s-.05,0-.05-.07a.71.71,0,0,0-.2-.59,11,11,0,0,1-1.53-3.81,2.06,2.06,0,0,1,0-.89c.07-.27.28-.76.62-.46s.69.47,1,.77a6.73,6.73,0,0,0,3.7,1.94c.75.11.86,0,.69-.77A6.86,6.86,0,0,1,76,133c.15-.28.39-.53.34-.89,0,0,0-.06.05-.07s.25-.13.21-.31l.17-.21a.8.8,0,0,0,.65-.75,1,1,0,0,1,.41-.41,1.11,1.11,0,0,0,.88-.74,1.46,1.46,0,0,1,.61-.46c.17,0,.28,0,.3-.19a1.85,1.85,0,0,1,.7-.35l1.87-.31.26.07c.07.16.19.18.34.11a1,1,0,0,1,.57.35.87.87,0,0,0,.61.61.09.09,0,0,1,.06.09c.07.59.4.43.73.26a21.39,21.39,0,0,1,4.15-1.55,9.22,9.22,0,0,0,2.25-.65l.26-.07a1.07,1.07,0,0,0,1-.21l.26,0a.32.32,0,0,0,.52-.06l.38-.08c.2.16.38.17.53-.07l.38-.06c.24.14.46.2.65-.06a1.31,1.31,0,0,1,.65-.06.75.75,0,0,0,.91-.07A3,3,0,0,1,97.75,126.74ZM74.27,142.13c.26,0,.29-.17.27-.37l.12-.15c.33,0,.41-.23.39-.51l.11-.15c.26,0,.3-.15.29-.36a1,1,0,0,1,.37-.41c.43-.34.39-.53-.14-.76a.12.12,0,0,1-.1,0c-.07-.32-.33-.24-.53-.22A4.72,4.72,0,0,1,71.72,138c-.41-.32-.74-.72-1.13-1.06-.16-.13-.48-.21-.41,0a3.79,3.79,0,0,0,.82,2l.56,1.13c0,.21,0,.4.25.42l.39.64c0,.2,0,.37.25.4l.51.67c0,.2,0,.37.28.36.21.31.43.33.65,0,.33,0,.41-.23.38-.52Zm-.78,6.36c0-.2,0-.38-.25-.4l-.14-.25c.21-.22,0-.24-.13-.26a.87.87,0,0,1-.24-.52,6,6,0,0,1,.37-2.9.21.21,0,0,0-.14-.31c-.23,0-.36.09-.38.32l-.17.09c-.3-.06-.52,0-.6.33l-1,.67c-.27,0-.44,0-.43.34l-.29.23c-.3-.12-.35.06-.36.3l-.48.42a.57.57,0,0,0-.68.63l-.39.39c-.3,0-.42.12-.37.41l-.9,1c-.25,0-.28.14-.29.33a9.6,9.6,0,0,0-.72,1.66A10.06,10.06,0,0,1,69,149.73c1.36-.25,2.74-.47,4,.37.2.35.4.21.48-.06a2.65,2.65,0,0,1,.33-.73.55.55,0,0,0-.29-.82Zm56.17-9.07c-.53.23-.57.42-.14.76a.89.89,0,0,1,.37.42c0,.2,0,.37.29.35l.11.15c0,.28.06.49.39.51a12.38,12.38,0,0,1,.78,1c.23.39.41.31.64,0,.26,0,.29-.16.28-.36a18.93,18.93,0,0,0,2.36-4.3c.19,0,.27-.1.1-.26l.06-.25a.33.33,0,0,0,.11-.57c-.19-.17-.33.11-.44.24a5.31,5.31,0,0,1-4.51,2c-.19,0-.4,0-.41.27ZM82.45,134.1a1.86,1.86,0,0,0,1.29-.65c.29-.3.67-.75.08-1.19l-.15-.54c.08-.18,0-.31-.16-.35l-.42-.72a1.6,1.6,0,0,0-2.36-.79,9.78,9.78,0,0,0-1.49.89c-.19,0-.29,0-.29.24l-.79.77c-.41.21-.42.68-.65,1-.44.29-.55.8-.82,1.2a1,1,0,0,0-.35,1l0,.38c-.32.18-.26.41-.08.66v.39c-.18.24-.24.47.07.66l.07.5c-.18.15-.12.23.08.27l0,.26c-.25.35,0,.65.17.91s.32.15.36-.13a16.63,16.63,0,0,1,2.24-2.2.55.55,0,0,0,.6-.54l.61-.54c.28,0,.42-.08.44-.36l.29-.24c.39-.14.2-.38.08-.56a4.43,4.43,0,0,0-2.05-1.87c-.15-.05-.34-.1-.34-.34a.33.33,0,0,1,.17,0,4,4,0,0,1,2.44,1.93c.34.5.66.5,1,0Zm44.73-2.34a8.41,8.41,0,0,0-2.76-2,1.49,1.49,0,0,0-2,.67,6.66,6.66,0,0,0-.85,1.81c-.48.44-.25.85.12,1.18a5.79,5.79,0,0,0,1,.7c.86.52.83.48,1.43-.29a3.29,3.29,0,0,1,2.09-1.6c.15,0,.35-.22.43,0s-.17.2-.31.25a4.26,4.26,0,0,0-2.16,1.85c-.13.18-.38.44,0,.62l.3.24c0,.32.2.41.48.4l.56.5c0,.2.09.28.28.25a20.08,20.08,0,0,1,2.56,2.49c0,.18.11.3.27.22s.34-.26.12-.49l.06-.25c.19,0,.25-.11.08-.26l0-.26c.25-.07.26-.21.09-.39l.05-.38c.3-.19.25-.42.07-.66V136c.18-.2.2-.38-.06-.53L129,135a1,1,0,0,0-.35-1c-.27-.4-.38-.91-.82-1.2C127.6,132.44,127.6,132,127.18,131.76Zm12.2,18.79a16.85,16.85,0,0,0-6.87-6.41c.07.53.31,1,.35,1.51a4.54,4.54,0,0,1-.92,2.77c-.1.17-.35.35-.15.57s.14.87.39,1,.65-.3,1-.36h.19c.16.18.36.13.55.11a7.78,7.78,0,0,1,5.39,1.58c.15.11.32.17.47,0s0-.29-.06-.42S139.63,150.58,139.38,150.55Z"/><path class="cls-6" d="M57.13,190.63c.46.07.73.43,1,.7s.39.39.78.32c-.56-.52-1.11-1.05-1.68-1.55a12,12,0,0,1-2.7-3.52A1,1,0,0,1,55,187a41.53,41.53,0,0,0,5.52,5.73c.11.1.23.32.42.17s0-.29,0-.42a12.65,12.65,0,0,1-.56-2.26c-.29-2.08-.14-4.05,1.35-5.72a30,30,0,0,1,3.48-3.09,26.45,26.45,0,0,0,6-6.22,67.18,67.18,0,0,0,4.73-9.91c.25-.62.5-1.24.76-1.85a4.68,4.68,0,0,1,.24,2.72c-.17-.36,0-.79-.25-1.21-.09.26-.15.46-.22.66-.54,1.5-1,3-1.61,4.51-1.48,3.42-3.18,6.71-6,9.3-.92.85-1.86,1.68-2.84,2.46-.3.24-.31.38,0,.62.53.4,1.06.81,1.55,1.26a10.85,10.85,0,0,1,3.78,6.67,5,5,0,0,1-.57,3.48,15.9,15.9,0,0,0,.39-2.85,9.44,9.44,0,0,0-2.32-5.54c-.09-.1-.19-.23-.31-.12s0,.33.11.45A10.3,10.3,0,0,1,70.44,190a2.91,2.91,0,0,1-.12,2.09c.24-3.41-1.41-5.95-3.75-8.16-.35-.33-.73-.62-1.06-1s-.49-.33-.8,0c-.64.6-1.33,1.17-2,1.77-1.59,1.48-1.8,3.36-1.51,5.37a12.26,12.26,0,0,0,1.49,4.25,2.82,2.82,0,0,1,.23.46.46.46,0,0,1-.13.53.47.47,0,0,1-.6.05,1.15,1.15,0,0,1-.26-.19C60.33,193.66,58.65,192.23,57.13,190.63ZM62.27,195c.18,0,.34-.11.32-.27-.07-.47-.5-.67-.8-1a.13.13,0,0,0-.21.07,1,1,0,0,0,.18.73A.68.68,0,0,0,62.27,195Zm2.87-13.21c-.2,0-.32.12-.32.32a.28.28,0,0,0,.27.3.29.29,0,0,0,.35-.28C65.46,181.94,65.33,181.84,65.14,181.81ZM61,193s0,0,0,0-.07.05,0,.08,0,0,0,0S61,193,61,193Z"/><path class="cls-6" d="M150,187.52a3.68,3.68,0,0,1-1,1.53,18.73,18.73,0,0,1-2.31,2.23c-.08.05-.12.16-.3.39a4.55,4.55,0,0,0,1.49-.95c.18-.13.29-.38.58-.34-1.59,1.67-3.34,3.18-5,4.73-.25.23-.53.45-.86.2s-.17-.62,0-.93a11.86,11.86,0,0,0,1.66-5.65,5.14,5.14,0,0,0-1.63-4.07c-.67-.62-1.36-1.21-2-1.8-.16-.15-.31-.3-.55-.09a17.14,17.14,0,0,0-3.88,4.39,7.29,7.29,0,0,0-.29,7.23c-.44-.21-.51-.66-.64-1a7.68,7.68,0,0,1,.88-6.54,11.38,11.38,0,0,1,1.89-2.52c.09-.08.21-.16.15-.37-.68.06-.83.89-1.45,1a10.79,10.79,0,0,1,2.42-2.3c.6-.49.63-.51,0-1-4.6-3.41-7.39-8.07-9.24-13.37-.39-1.11-.76-2.22-1.19-3.47-.18.52,0,1-.32,1.3a20.07,20.07,0,0,1,.23-3.63,9.45,9.45,0,0,0,.34,1.37c.73,2,1.63,3.9,2.43,5.85a26.47,26.47,0,0,0,8.82,11.67c1,.7,1.83,1.51,2.72,2.3a6.11,6.11,0,0,1,2.17,3.79,10.1,10.1,0,0,1-.69,5.07c-.05.12-.13.25,0,.35s.28,0,.39-.09l1.21-1c.06.07,0,.21.17.22s.07,0,.07-.07-.15-.11-.22-.17C147.34,190.37,148.7,189,150,187.52Zm-7,7.5c.21,0,.88-.92.81-1.15,0-.05-.08-.12-.12-.12-.35,0-.48.32-.7.51s-.36.28-.28.54A.3.3,0,0,0,143.05,195Zm-2.83-13.21c-.2,0-.33.12-.32.32a.31.31,0,0,0,.62,0A.31.31,0,0,0,140.22,181.81Z"/><path class="cls-6" d="M68.3,159c0,.7-.66,1-1,1.48a89.42,89.42,0,0,1-7.45,7.12,35,35,0,0,0-5,5.08,12.58,12.58,0,0,0-2.87,7.9,16.66,16.66,0,0,0,.46,2.52,8.71,8.71,0,0,0,.88,2.74A14.07,14.07,0,0,0,56.65,190c.17.15.39.28.36.57a12.2,12.2,0,0,1-2.44-17.93,37.24,37.24,0,0,1,4.3-4.49c2.56-2.35,5.22-4.59,7.59-7.15A16.41,16.41,0,0,1,68.3,159Z"/><path class="cls-6" d="M148.46,190.39c0-.33.22-.46.4-.63a15.27,15.27,0,0,0,3-3.62,11.24,11.24,0,0,0,1.49-7.13,9.54,9.54,0,0,0-1.64-4.5,4.86,4.86,0,0,1-1-1.95c2.92,3.67,3.82,7.71,2.14,12.17A11.66,11.66,0,0,1,148.46,190.39Z"/><path class="cls-6" d="M76.32,132.1c.05.36-.19.61-.34.89a6.86,6.86,0,0,0-.6,4.87c.17.77.06.88-.69.77a6.73,6.73,0,0,1-3.7-1.94c-.31-.3-.68-.49-1-.77s-.55.19-.62.46a2.06,2.06,0,0,0,0,.89,11,11,0,0,0,1.53,3.81.71.71,0,0,1,.2.59,10.67,10.67,0,0,1-2-5,2.16,2.16,0,0,1,.44-1.35,5.41,5.41,0,0,1,1.77,1.27,5.74,5.74,0,0,0,3.31,1.77c.51.06.7,0,.55-.59a7,7,0,0,1,.94-5.46A2.41,2.41,0,0,1,76.32,132.1Z"/><path class="cls-6" d="M140,152.66a.42.42,0,0,0,.44-.51,7,7,0,0,0-1.77-4.54,26.73,26.73,0,0,0-2.8-2.73,4.64,4.64,0,0,0-1.14-.71c-.23-.1-.55-.2-.53-.57,3.16,1.63,5.52,4,6.44,7.51a4.09,4.09,0,0,1,0,1.48c0,.16-.08.3-.26.33S140,153,140,152.66Z"/><path class="cls-6" d="M68.16,196a1,1,0,0,0,1.29.36,16.22,16.22,0,0,0,5.47-4.32,14.78,14.78,0,0,0,2-2.74c0-.07.18-.09.27-.14a18.51,18.51,0,0,1-4.71,5.52,13,13,0,0,1-3,1.92,2.3,2.3,0,0,1-1.06.25.57.57,0,0,1-.52-.34C67.86,196.32,67.88,196.12,68.16,196Z"/><path class="cls-6" d="M83.69,182.22a9.45,9.45,0,0,1,2,1.12,27.45,27.45,0,0,0,5,2c2.25.66,4.51,1.29,6.79,1.84.19,0,.45,0,.55.29-4.07-1-8.19-1.89-12-3.73A9.28,9.28,0,0,1,83.69,182.22Z"/><path class="cls-6" d="M135.4,139.49c.18-.68.38-1.36.52-2a1.68,1.68,0,0,0-.12-1.43c-.16-.22-.29-.3-.52-.11-.51.43-1,.84-1.53,1.28a6,6,0,0,1-3.12,1.44c-.3,0-.84,0-.78-.23s-.21-.9.38-1.08a.69.69,0,0,1,0,.13c-.16,1.1-.16,1.09.94.85a5.24,5.24,0,0,0,2.17-1.09,10.81,10.81,0,0,1,2.59-2h0s0,0,0,0-.1.19-.07.24C136.72,136.92,135.91,138.19,135.4,139.49Z"/><path class="cls-6" d="M65.46,152.64A2.52,2.52,0,0,1,67,151.43a8.49,8.49,0,0,1,5.36-.51c.78.17.9.4.54,1.14a3.46,3.46,0,0,1-.22.31.07.07,0,0,1,0-.05c.19-1.13.19-1.15-1-1.22A9.71,9.71,0,0,0,65.46,152.64Z"/><path class="cls-6" d="M77.28,189.11c0-.33.18-.57.32-.83a23.36,23.36,0,0,0,2.52-9.1c0-.07,0-.14,0-.19.1-.2,0-.59.25-.59s.35.32.34.59c-.24-.23-.35-.24-.38.15a26.15,26.15,0,0,1-1.54,6.93A11,11,0,0,1,77.28,189.11Z"/><path class="cls-6" d="M132.4,151.48c-.3-.3-.22-.46.18-.52a12.89,12.89,0,0,1,5.66.45,2.42,2.42,0,0,1,1.64,1.23,10.09,10.09,0,0,0-7-1.47C132.62,151.19,132.4,151.17,132.4,151.48Z"/><path class="cls-6" d="M71.67,154.3c.11.52-.31.82-.52,1.21a19,19,0,0,1-2.16,3c-.15.18-.29.39-.57.38,0-.07,0-.15,0-.19A45.46,45.46,0,0,0,71.67,154.3Z"/><path class="cls-6" d="M91.14,127.59a9.22,9.22,0,0,1-2.25.65,21.39,21.39,0,0,0-4.15,1.55c-.33.17-.66.33-.73-.26.24.28.48.2.77.05A22.62,22.62,0,0,1,91.14,127.59Z"/><path class="cls-6" d="M142.13,164.28c-.3.08-.48-.1-.67-.29L139,161.56a.83.83,0,0,1-.32-.73Z"/><path class="cls-6" d="M121.22,129.69c0,.34-.28.32-.48.2a22.64,22.64,0,0,0-6.36-2.15c-.07,0-.12-.1-.19-.15a22.86,22.86,0,0,1,6.32,2C120.73,129.65,120.93,129.88,121.22,129.69Z"/><path class="cls-6" d="M70.29,192.31c.23.25,0,.49,0,.72a7.18,7.18,0,0,1-1.35,2.49c-.15.19-.31.43-.62.4A8.54,8.54,0,0,0,70.29,192.31Z"/><path class="cls-6" d="M65.69,148.7c.07.32-.15.57-.26.83a19.84,19.84,0,0,0-.7,2.7A5.29,5.29,0,0,1,65.69,148.7Z"/><path class="cls-6" d="M135.72,157.31c-.53-.2-.73-.72-1-1.13-.38-.6-1-1.09-1.05-1.88Z"/><path class="cls-6" d="M114.2,185.58a8,8,0,0,1,2-.72,8.09,8.09,0,0,1,1.75-.55A16.27,16.27,0,0,1,114.2,185.58Z"/><path class="cls-6" d="M150.5,172.35h-.06a4.38,4.38,0,0,1-1.62-1.92A7.72,7.72,0,0,1,150.5,172.35Z"/><path class="cls-6" d="M147.89,169.5c-.91-.13-1.23-.9-1.66-1.55A8.42,8.42,0,0,1,147.89,169.5Z"/><path class="cls-6" d="M130.26,137.07a1.78,1.78,0,0,1,0-1.8A3.15,3.15,0,0,1,130.26,137.07Z"/><path class="cls-6" d="M130.21,135c-.41-.06-.19-.42-.28-.63-.26-.61-.45-1.25-.66-1.87A4.91,4.91,0,0,1,130.21,135Z"/><path class="cls-6" d="M135.93,196.62c.49-.05,1.1.24,1.38-.45.13.41,0,.66-.43.7A1.22,1.22,0,0,1,135.93,196.62Z"/><path class="cls-6" d="M72.09,142.9c.33.1.34.41.09.47a9.06,9.06,0,0,1-1.59.55,3.28,3.28,0,0,1,1.17-.61C72,143.23,72.19,143.21,72.09,142.9Z"/><path class="cls-6" d="M99,187.75a4.54,4.54,0,0,1,2.09.34A5.31,5.31,0,0,1,99,187.75Z"/><path class="cls-6" d="M144.65,166.52c-.7,0-.89-.54-1.14-1A4.7,4.7,0,0,1,144.65,166.52Z"/><path class="cls-6" d="M136.88,158.74a2.24,2.24,0,0,1-1.15-1.42A7.53,7.53,0,0,1,136.88,158.74Z"/><path class="cls-6" d="M82.17,128.3l-1.87.31A2.29,2.29,0,0,1,82.17,128.3Z"/><path class="cls-6" d="M125,128.61l-1.87-.31A2.29,2.29,0,0,1,125,128.61Z"/><path class="cls-6" d="M118.47,184.05a3.76,3.76,0,0,1,1.61-.8A4.77,4.77,0,0,1,118.47,184.05Z"/><path class="cls-6" d="M138.44,160.55c-.41-.25-.94-.38-.9-1A3.42,3.42,0,0,1,138.44,160.55Z"/><path class="cls-6" d="M71.18,141.74a1.77,1.77,0,0,1,.9,1.15A2.89,2.89,0,0,1,71.18,141.74Z"/><path class="cls-6" d="M127.14,187.36a2.63,2.63,0,0,1,.67,1.34A3.32,3.32,0,0,1,127.14,187.36Z"/><path class="cls-6" d="M64.75,152.49a1.16,1.16,0,0,0,.71.15c-.06.29-.28.32-.51.27S64.67,152.7,64.75,152.49Z"/><path class="cls-6" d="M66.47,147.54a1.41,1.41,0,0,1-.73,1.08A2.5,2.5,0,0,1,66.47,147.54Z"/><path class="cls-6" d="M128.76,131.73a.66.66,0,0,1-.65-.79A1.78,1.78,0,0,1,128.76,131.73Z"/><path class="cls-6" d="M145.89,167.65c-.57.08-.64-.4-.82-.75A2.36,2.36,0,0,1,145.89,167.65Z"/><path class="cls-6" d="M78.69,129.61a1.11,1.11,0,0,1-.88.74A1.82,1.82,0,0,1,78.69,129.61Z"/><path class="cls-6" d="M107.45,187.39a1.71,1.71,0,0,1,1.18-.31A2.69,2.69,0,0,1,107.45,187.39Z"/><path class="cls-6" d="M137.54,159.51c-.38-.12-.69-.29-.65-.76A2,2,0,0,1,137.54,159.51Z"/><path class="cls-6" d="M92.44,127.31a1.07,1.07,0,0,1-1,.21A2.34,2.34,0,0,1,92.44,127.31Z"/><path class="cls-6" d="M113.94,127.52a1.07,1.07,0,0,1-1-.21A2.34,2.34,0,0,1,113.94,127.52Z"/><path class="cls-6" d="M129.27,132.52c-.49-.06-.53-.4-.51-.79A1.53,1.53,0,0,1,129.27,132.52Z"/><path class="cls-6" d="M136.48,195.3a.78.78,0,0,1-.59-.83A2,2,0,0,1,136.48,195.3Z"/><path class="cls-6" d="M96.72,126.81a.75.75,0,0,1-.91.07A1.76,1.76,0,0,1,96.72,126.81Z"/><path class="cls-6" d="M125.88,183.87a1.68,1.68,0,0,1,.33,1.13A2.51,2.51,0,0,1,125.88,183.87Z"/><path class="cls-6" d="M77.4,130.76a.8.8,0,0,1-.65.75A1.76,1.76,0,0,1,77.4,130.76Z"/><path class="cls-6" d="M122.5,181.51a.86.86,0,0,1,.63-.62A1.35,1.35,0,0,1,122.5,181.51Z"/><path class="cls-6" d="M84,129.44a.87.87,0,0,1-.61-.61A1,1,0,0,1,84,129.44Z"/><path class="cls-6" d="M122,128.82a.87.87,0,0,1-.61.62A1.09,1.09,0,0,1,122,128.82Z"/><path class="cls-6" d="M81.3,179.85a.74.74,0,0,1,.6.7A1.46,1.46,0,0,1,81.3,179.85Z"/><path class="cls-6" d="M109.41,126.87a.58.58,0,0,1-.79-.07A1.34,1.34,0,0,1,109.41,126.87Z"/><path class="cls-6" d="M104.21,188.09c.23-.29.5-.24.79-.09A1.26,1.26,0,0,1,104.21,188.09Z"/><path class="cls-6" d="M134.85,140.61a.93.93,0,0,1,.43-.82A1.46,1.46,0,0,1,134.85,140.61Z"/><path class="cls-6" d="M143,165.06c-.39.07-.57-.1-.57-.49A1.14,1.14,0,0,1,143,165.06Z"/><path class="cls-6" d="M70.26,144.1a.66.66,0,0,1-.7.45A1.18,1.18,0,0,1,70.26,144.1Z"/><path class="cls-6" d="M67,146.9c.07.37-.16.49-.46.56A1,1,0,0,1,67,146.9Z"/><path class="cls-6" d="M82.33,181c.36,0,.6.18.6.57A1.28,1.28,0,0,1,82.33,181Z"/><path class="cls-6" d="M95.16,126.94c-.19.26-.41.2-.65.06A.92.92,0,0,1,95.16,126.94Z"/><path class="cls-6" d="M128,130.86a.56.56,0,0,1-.49-.49A.82.82,0,0,1,128,130.86Z"/><path class="cls-6" d="M102.28,188.14a.51.51,0,0,1,.65,0A1.3,1.3,0,0,1,102.28,188.14Z"/><path class="cls-6" d="M110.83,127c-.23.14-.46.2-.66-.06A1,1,0,0,1,110.83,127Z"/><path class="cls-6" d="M113.29,185.84a.53.53,0,0,1,.65-.17A.88.88,0,0,1,113.29,185.84Z"/><path class="cls-6" d="M132.67,152.39c-.22-.17-.36-.37-.2-.66A1.19,1.19,0,0,1,132.67,152.39Z"/><path class="cls-6" d="M126.49,185.81a.74.74,0,0,1,.27.71A1,1,0,0,1,126.49,185.81Z"/><path class="cls-6" d="M111.86,186.24a.52.52,0,0,1,.66-.18A1,1,0,0,1,111.86,186.24Z"/><path class="cls-6" d="M111,186.49c.19-.18.39-.31.66-.17A1,1,0,0,1,111,186.49Z"/><path class="cls-6" d="M112.65,127.27a.33.33,0,0,1-.53-.06A.7.7,0,0,1,112.65,127.27Z"/><path class="cls-6" d="M93.22,127.21a.32.32,0,0,1-.52.06A.67.67,0,0,1,93.22,127.21Z"/><path class="cls-6" d="M111.74,127.13c-.2.16-.38.17-.53-.07A.75.75,0,0,1,111.74,127.13Z"/><path class="cls-6" d="M94.13,127.06c-.15.24-.33.23-.53.07A.7.7,0,0,1,94.13,127.06Z"/><path class="cls-6" d="M124.71,178.82c0-.19.06-.38.26-.34s.17.21,0,.33C124.9,178.68,124.81,178.81,124.71,178.82Z"/><path class="cls-6" d="M105.25,188c.13-.28.32-.25.53-.1A.63.63,0,0,1,105.25,188Z"/><path class="cls-6" d="M133.55,142.56a.35.35,0,0,1,.34-.44A.57.57,0,0,1,133.55,142.56Z"/><path class="cls-6" d="M83.19,181.82a.35.35,0,0,1,.42.35A.55.55,0,0,1,83.19,181.82Z"/><path class="cls-6" d="M125.09,179.85c.17.11.2.24,0,.39A.39.39,0,0,1,125.09,179.85Z"/><path class="cls-6" d="M133.31,143.28c-.14,0-.26,0-.28-.15s.07-.22.22-.23A.4.4,0,0,0,133.31,143.28Z"/><path class="cls-6" d="M69.56,144.55c.06.33-.16.3-.37.29A.5.5,0,0,1,69.56,144.55Z"/><path class="cls-6" d="M76.58,131.72c0,.18,0,.29-.21.31A.34.34,0,0,1,76.58,131.72Z"/><path class="cls-6" d="M134.47,141.28c-.05-.18,0-.3.19-.32A.34.34,0,0,1,134.47,141.28Z"/><path class="cls-6" d="M134.21,141.66c-.05-.18,0-.29.21-.31A.33.33,0,0,1,134.21,141.66Z"/><path class="cls-6" d="M133.94,142c0-.18,0-.29.22-.3A.32.32,0,0,1,133.94,142Z"/><path class="cls-6" d="M80.78,179.08c.19,0,.25.13.21.31A.34.34,0,0,1,80.78,179.08Z"/><path class="cls-6" d="M124.2,179.61c0-.15,0-.26.2-.28A.28.28,0,0,1,124.2,179.61Z"/><path class="cls-6" d="M81,179.47c.19,0,.25.13.21.31A.32.32,0,0,1,81,179.47Z"/><path class="cls-6" d="M123.93,180c0-.15,0-.25.21-.26A.26.26,0,0,1,123.93,180Z"/><path class="cls-6" d="M134,143.52c-.15.07-.27,0-.33-.13A.29.29,0,0,1,134,143.52Z"/><path class="cls-6" d="M69,145a.22.22,0,0,1-.28.23A.29.29,0,0,1,69,145Z"/><path class="cls-6" d="M125.23,180.75c.13.08.19.16,0,.27A.23.23,0,0,1,125.23,180.75Z"/><path class="cls-6" d="M125.36,181.53c.13.07.19.15,0,.27A.21.21,0,0,1,125.36,181.53Z"/><path class="cls-6" d="M121.59,182.27c0-.16.11-.22.27-.21A.28.28,0,0,1,121.59,182.27Z"/><path class="cls-6" d="M125.61,182.7c.13.07.21.14,0,.26A.23.23,0,0,1,125.61,182.7Z"/><path class="cls-6" d="M125.73,183.22c.14.06.21.14,0,.26A.21.21,0,0,1,125.73,183.22Z"/><path class="cls-6" d="M112.77,186c.06-.14.13-.21.27-.06A.23.23,0,0,1,112.77,186Z"/><path class="cls-6" d="M110.44,186.62c.06-.13.14-.21.26-.06A.22.22,0,0,1,110.44,186.62Z"/><path class="cls-6" d="M109.92,186.75c.06-.13.14-.21.26-.06A.22.22,0,0,1,109.92,186.75Z"/><path class="cls-6" d="M109.4,186.87c.06-.13.14-.2.26-.05A.2.2,0,0,1,109.4,186.87Z"/><path class="cls-6" d="M108.88,187c.06-.13.14-.21.26-.06A.23.23,0,0,1,108.88,187Z"/><path class="cls-6" d="M82.77,128.48c-.15.07-.27.05-.34-.11A.27.27,0,0,1,82.77,128.48Z"/><path class="cls-6" d="M122.91,128.36c-.07.17-.19.19-.34.12A.29.29,0,0,1,122.91,128.36Z"/><path class="cls-6" d="M79.6,129c0,.18-.13.23-.3.19A.28.28,0,0,1,79.6,129Z"/><path class="cls-6" d="M98.44,187.58a.23.23,0,0,1,.36.1A.42.42,0,0,1,98.44,187.58Z"/><path class="cls-6" d="M126,129.15c-.17,0-.28,0-.3-.19A.28.28,0,0,1,126,129.15Z"/><path class="cls-6" d="M126.78,129.69c-.15,0-.25,0-.26-.2A.25.25,0,0,1,126.78,129.69Z"/><path class="cls-6" d="M128.27,189.44c.17,0,.22.14.19.3A.3.3,0,0,1,128.27,189.44Z"/><path class="cls-6" d="M129.42,191.13a.21.21,0,0,1,.22.27A.28.28,0,0,1,129.42,191.13Z"/><path class="cls-6" d="M132.49,194.38a.22.22,0,0,1,.28.23A.31.31,0,0,1,132.49,194.38Z"/><path class="cls-6" d="M133.52,195.17c.16,0,.27,0,.28.21A.29.29,0,0,1,133.52,195.17Z"/><path class="cls-6" d="M134,195.55c.16,0,.26,0,.28.2A.27.27,0,0,1,134,195.55Z"/><path class="cls-6" d="M137.2,196.05c-.17,0-.3,0-.31-.21C137,195.93,137.18,195.85,137.2,196.05Z"/><path class="cls-6" d="M134.66,196c.17,0,.28,0,.31.19A.33.33,0,0,1,134.66,196Z"/><path class="cls-6" d="M101.88,126.88c-.36.11-.73.25-1-.11A2.44,2.44,0,0,1,101.88,126.88Z"/><path class="cls-6" d="M104.37,126.79c-.27.32-.59.21-.91.09A1.77,1.77,0,0,1,104.37,126.79Z"/><path class="cls-6" d="M76.89,160a12,12,0,0,1-.07-2.32c0-.42-.12-.53-.52-.43a3.35,3.35,0,0,1-.71.07c-.39,0-.87.07-1-.39a1,1,0,0,1,.45-1.13A14,14,0,0,0,77.14,154c.85-.89.84-.88-.14-1.58a7.15,7.15,0,0,1-1.94-1.86c.61.22.92.81,1.43,1.16.34.23.7.42,1,.66.09.07.24.18.34,0s0-.27-.13-.37a18,18,0,0,1-3.33-3.8c-.22-.3-.62-.64-.43-1.13a27.45,27.45,0,0,0,2.44,3.34A12.83,12.83,0,0,0,78.13,152c.34.26.52.18.77-.14,1-1.34,1.85-2.86,2.8-4.27.43-.64.81-1.3,1.26-2,0,2.25-2.79,7-6.26,10.24,1.55-.29,2.72-1.21,4.07-1.68-.12.44-.58.38-.87.58a15.49,15.49,0,0,1-3.5,1.57c-.17.06-.39.19-.51-.07s.14-.27.27-.37a14.14,14.14,0,0,0,2.52-2.49,1.24,1.24,0,0,0,.17-.27c.1-.17.19-.38,0-.52a.36.36,0,0,0-.55.16c-.44,1.31-1.58,2-2.49,2.88-.2.19-.48.3-.54.61s-.41.19-.25.45a.73.73,0,0,0,.69.4c.15,0,.31,0,.46,0,.84-.12.86-.13.83.76A7.58,7.58,0,0,1,76.89,160Z"/><path class="cls-6" d="M128.26,152.4s0,0,0,.06c-.85.66-.85.66-.09,1.47a12.19,12.19,0,0,0,1.94,1.72,1.29,1.29,0,0,1,.39.34c.18.3.43.64.26,1s-.56.35-.91.34h-.13c-1.15-.06-1.15-.06-1.17,1.08a5.26,5.26,0,0,1-.07,1.48,9.92,9.92,0,0,1-.09-2.61c0-.3.24-.36.51-.37a2.51,2.51,0,0,0,1-.06c.15-.06.37-.11.34-.32a.33.33,0,0,0-.4-.25c-.85.21-1.5-.29-2.24-.53-1.8-.59-3.3-1.74-5-2.5-.15-.07-.34-.12-.34-.34l3.74,1.85a15.53,15.53,0,0,0,2.64,1.11,18.75,18.75,0,0,1-2.47-2.86c.49.16.92.24,1.3-.29A.84.84,0,0,1,128.26,152.4Z"/><path class="cls-6" d="M113.58,170.28a1.85,1.85,0,0,1-1.36-.65,14.16,14.16,0,0,1-3.86-7.4,5.93,5.93,0,0,1,.41-4c.31-.62.41-1.11-.14-1.6.69.34.85.61.53,1.26-1.18,2.38-.69,4.67.26,7,.21.52.47,1,.69,1.52a7.5,7.5,0,0,0,2.08,2.59C112.66,169.4,113.12,169.85,113.58,170.28Z"/><path class="cls-6" d="M107.21,157.17A1.6,1.6,0,0,1,105,158c-.19,0-.22.06-.28.15a5.39,5.39,0,0,0-.59.85,1.81,1.81,0,0,1-3,0,1.4,1.4,0,0,0-1.67-.89.93.93,0,0,1-1-.53c.6.14,1.19.52,1.79-.08.19-.19.3.13.4.27.33.47.53,1.06,1.07,1.35.91.49,1.91.4,2.67-1,.24-.45.36-.86,1-.35.28.22.86.06,1.25-.22C106.86,157.39,107,157.17,107.21,157.17Z"/><path class="cls-6" d="M91.94,145a15.33,15.33,0,0,1-.26-6.67,3,3,0,0,1,.62-1.41.89.89,0,0,1,.91-.37c.26.07.55.26.36.55a4.8,4.8,0,0,0-.53,2.54,26.16,26.16,0,0,0,.13,3.43c-.41-.48-.29-1.08-.33-1.63a14.83,14.83,0,0,1,.25-4c0-.13.18-.29,0-.4s-.32,0-.47.11a2.14,2.14,0,0,0-.69,1.27,13.92,13.92,0,0,0,0,5.82C92,144.45,92.13,144.72,91.94,145Z"/><path class="cls-6" d="M112.3,141.88a21.4,21.4,0,0,0-.16-3.92,1.33,1.33,0,0,0-.25-.72c-.12-.14-.23-.26-.12-.45a.56.56,0,0,1,.54-.28,1.09,1.09,0,0,1,.88.58,4.24,4.24,0,0,1,.54,1.58,10.31,10.31,0,0,1,.07,3.59c-.22-.29-.1-.63-.1-.94a10.46,10.46,0,0,0-.38-3.38,2,2,0,0,0-.62-.88.37.37,0,0,0-.42-.09c-.21.1-.06.27,0,.39a15.59,15.59,0,0,1,.26,3.92C112.51,141.49,112.63,141.77,112.3,141.88Z"/><path class="cls-6" d="M103.45,157c.49-1.07,1.08-2.09,1.49-3.19.22-.59.76-.47,1.15-.42s.37.49.33.81c-.08.64-.2,1.27-.29,1.9a1.32,1.32,0,0,1-.28-1.54c.1-.19.18-.49,0-.59s-.28.23-.42.36a12.3,12.3,0,0,0-1.74,2.56C103.63,157,103.52,157,103.45,157Z"/><path class="cls-6" d="M99.21,155.88a7.63,7.63,0,0,1-.28-1.71c0-.3,0-.73.33-.75s.88-.16,1.12.38c.44,1,.91,2,1.37,3a4.56,4.56,0,0,1-1.13-1.74c-.25-.44-.74-.63-.91-1.12-.06-.18-.26-.09-.28.11a1.13,1.13,0,0,0,.08.63A.92.92,0,0,1,99.21,155.88Z"/><path class="cls-6" d="M76.78,186.74a25.28,25.28,0,0,0,1.69-6.09c.19-1.38.29-2.78.43-4.18.25.15.17.39.16.59a28.65,28.65,0,0,1-1.88,9.14C77.09,186.4,77.07,186.67,76.78,186.74Z"/><path class="cls-6" d="M95.92,154.08a13.42,13.42,0,0,1-2.09-3.36,21.73,21.73,0,0,1-1.32-3.47c-.33.06-.37.37-.61.44a.58.58,0,0,1,.18-.46c.29-.35.49-.37.64.13a22,22,0,0,0,1.83,4.33c.33.6.72,1.17,1.08,1.75A1.29,1.29,0,0,1,95.92,154.08Z"/><path class="cls-6" d="M84.05,154.09a14.45,14.45,0,0,1-4.13,1.74c-1.18.33-1.19.3-1.29,1.48-.4-.6-.21-1.43.41-1.54a17.37,17.37,0,0,0,4.76-1.66C83.87,154.07,84,154.1,84.05,154.09Z"/><path class="cls-6" d="M126.7,157.83a.14.14,0,0,1,0-.07c-.08-.52.23-1.16-.11-1.55s-1-.29-1.51-.47a12.27,12.27,0,0,1-2.55-1c.41-.2.67.16,1,.28a13.2,13.2,0,0,0,2.74.73c.41.07.6.25.62.6C126.88,156.82,127.12,157.36,126.7,157.83Z"/><path class="cls-6" d="M109.73,151c.79-1.77,1.4-3.62,2-5.46a5.57,5.57,0,0,1-.53,2.12,19.38,19.38,0,0,1-1.12,2.85C110,150.65,110,150.9,109.73,151Z"/><path class="cls-6" d="M134.13,189.86a8.62,8.62,0,0,1,2.24-4.58.53.53,0,0,1-.15.47,10.3,10.3,0,0,0-1.95,4C134.26,189.8,134.18,189.82,134.13,189.86Z"/><path class="cls-6" d="M111.71,150.16a12.1,12.1,0,0,1-2.42,4.05c.12-.64.64-1,.94-1.56s.73-1.34,1.1-2C111.43,150.46,111.44,150.21,111.71,150.16Z"/><path class="cls-6" d="M71.43,193.74l2.82-2.9a.57.57,0,0,1-.19.53c-.74.77-1.5,1.52-2.27,2.27C71.71,193.72,71.55,193.71,71.43,193.74Z"/><path class="cls-6" d="M127.48,172.84a16,16,0,0,1-1,3.4s-.14-.08-.13-.09a18.74,18.74,0,0,0,.9-3.11C127.27,173,127.4,172.91,127.48,172.84Z"/><path class="cls-6" d="M78.83,176.1a13.3,13.3,0,0,1-1-3.26,23.06,23.06,0,0,1,.89,2.66C78.83,175.67,79,175.87,78.83,176.1Z"/><path class="cls-6" d="M134.05,193.86l.2.06.15,0v-.15c0-.43-.33-.8-.29-1.25.48.48.43,1.18.77,1.72.15.24-.18.28-.3.19S134.06,194.2,134.05,193.86Z"/><path class="cls-6" d="M113.44,147.69c-.23-.07-.28-.38-.56-.43-.31.53-.32,1.18-.66,1.71a4.65,4.65,0,0,1,.43-1.76c0-.14.16-.31.33-.21A.71.71,0,0,1,113.44,147.69Z"/><path class="cls-6" d="M113.78,142.51a10.86,10.86,0,0,1-.38,2.47A4.86,4.86,0,0,1,113.78,142.51Z"/><path class="cls-6" d="M134.07,192.3a3.8,3.8,0,0,1,0-2.19A4.51,4.51,0,0,1,134.07,192.3Z"/><path class="cls-6" d="M81,154a13.58,13.58,0,0,1,2.13-1.13A4.41,4.41,0,0,1,81,154Z"/><path class="cls-6" d="M108.54,153.42a17.42,17.42,0,0,1,1-2.08A3.93,3.93,0,0,1,108.54,153.42Z"/><path class="cls-6" d="M89.84,147.71a11,11,0,0,1,1.43-1.54A2.91,2.91,0,0,1,89.84,147.71Z"/><path class="cls-6" d="M114.07,146.17a11,11,0,0,1,1.43,1.54A2.91,2.91,0,0,1,114.07,146.17Z"/><path class="cls-6" d="M78.79,162.49a10.35,10.35,0,0,1,.08,2.08A3.16,3.16,0,0,1,78.79,162.49Z"/><path class="cls-6" d="M91,148.74a5.8,5.8,0,0,1-1.42,1.42A3.47,3.47,0,0,1,91,148.74Z"/><path class="cls-6" d="M126.46,164.7a10.61,10.61,0,0,1,.08-1.95A2.68,2.68,0,0,1,126.46,164.7Z"/><path class="cls-6" d="M86.84,152.37A5.84,5.84,0,0,1,85,153.53,4.4,4.4,0,0,1,86.84,152.37Z"/><path class="cls-6" d="M112,144.09l.3-2A2.18,2.18,0,0,1,112,144.09Z"/><path class="cls-6" d="M78.65,158.09a6,6,0,0,1,.08,1.69A2.25,2.25,0,0,1,78.65,158.09Z"/><path class="cls-6" d="M75.71,188.81a8.39,8.39,0,0,1,.86-1.62A2.45,2.45,0,0,1,75.71,188.81Z"/><path class="cls-6" d="M84.08,152.34a7.55,7.55,0,0,1,1.48-1A2.22,2.22,0,0,1,84.08,152.34Z"/><path class="cls-6" d="M111.29,155.45a3,3,0,0,1,1.64-.55A4,4,0,0,1,111.29,155.45Z"/><path class="cls-6" d="M70.77,194l.52-.13a.52.52,0,0,1-.31.46c-.16.09-.37.31-.51.1S70.51,194,70.77,194Z"/><path class="cls-6" d="M126.61,159.78a3.4,3.4,0,0,1,.06-1.31A1.39,1.39,0,0,1,126.61,159.78Z"/><path class="cls-6" d="M113.31,154.86a1.77,1.77,0,0,1,1.16,0A1.28,1.28,0,0,1,113.31,154.86Z"/><path class="cls-6" d="M120.17,151.63a4.18,4.18,0,0,1,1.09.71A1.27,1.27,0,0,1,120.17,151.63Z"/><path class="cls-6" d="M86,151.05a3.49,3.49,0,0,1,1-.73A1.13,1.13,0,0,1,86,151.05Z"/><path class="cls-6" d="M78.91,165.09a2.29,2.29,0,0,1,.08,1A1,1,0,0,1,78.91,165.09Z"/><path class="cls-6" d="M128.47,161.19a2.33,2.33,0,0,1,.09,1.05C128.19,161.92,128.34,161.56,128.47,161.19Z"/><path class="cls-6" d="M101.93,157.11a2.62,2.62,0,0,1,.57,1.11A1.52,1.52,0,0,1,101.93,157.11Z"/><path class="cls-6" d="M102.84,158.22a2.73,2.73,0,0,1,.57-1.11A1.52,1.52,0,0,1,102.84,158.22Z"/><path class="cls-6" d="M77.79,172.6a2.13,2.13,0,0,1-.21-1A1,1,0,0,1,77.79,172.6Z"/><path class="cls-6" d="M87.67,151.75a1.93,1.93,0,0,1-.82.62C87,152,87.3,151.82,87.67,151.75Z"/><path class="cls-6" d="M126.33,166.26a1.92,1.92,0,0,1,.08-.92A.7.7,0,0,1,126.33,166.26Z"/><path class="cls-6" d="M74.8,190.11a2.23,2.23,0,0,1,.6-.85A.78.78,0,0,1,74.8,190.11Z"/><path class="cls-6" d="M116.67,148.88a2.08,2.08,0,0,1,.76.65A.78.78,0,0,1,116.67,148.88Z"/><path class="cls-6" d="M120.63,159.68a2.21,2.21,0,0,1,.4,1.13A1.36,1.36,0,0,1,120.63,159.68Z"/><path class="cls-6" d="M128.17,169.09a1,1,0,0,1-.1.65C127.79,169.47,127.61,169.22,128.17,169.09Z"/><path class="cls-6" d="M128.29,167.92a1.8,1.8,0,0,1-.09.92C128.05,168.51,128,168.2,128.29,167.92Z"/><path class="cls-6" d="M89.16,150.55a1.75,1.75,0,0,1-.76.64A.8.8,0,0,1,89.16,150.55Z"/><path class="cls-6" d="M121.46,163.53a1.33,1.33,0,0,1,0,.9A.77.77,0,0,1,121.46,163.53Z"/><path class="cls-6" d="M126.51,177.79a1.79,1.79,0,0,1,.07.92A.7.7,0,0,1,126.51,177.79Z"/><path class="cls-6" d="M77,167.54a1.91,1.91,0,0,1-.09-.92A.69.69,0,0,1,77,167.54Z"/><path class="cls-6" d="M114.22,148.6a1.8,1.8,0,0,1-.66-.76A.77.77,0,0,1,114.22,148.6Z"/><path class="cls-6" d="M88.11,149.37a1.69,1.69,0,0,1,.69-.61A.71.71,0,0,1,88.11,149.37Z"/><path class="cls-6" d="M121.34,152.39a1.91,1.91,0,0,1,.83.47A.73.73,0,0,1,121.34,152.39Z"/><path class="cls-6" d="M79.7,171.44a1.51,1.51,0,0,1,.18.91A.81.81,0,0,1,79.7,171.44Z"/><path class="cls-6" d="M77.15,169a1.3,1.3,0,0,1-.08-.78A.57.57,0,0,1,77.15,169Z"/><path class="cls-6" d="M79.05,166.77a1.52,1.52,0,0,1,.07.79A.58.58,0,0,1,79.05,166.77Z"/><path class="cls-6" d="M116,170.75a1,1,0,0,1-.77,0A.66.66,0,0,1,116,170.75Z"/><path class="cls-6" d="M121.47,154.19a2,2,0,0,1-.85-.47A.77.77,0,0,1,121.47,154.19Z"/><path class="cls-6" d="M83.17,152.86a1.86,1.86,0,0,1,.83-.47A.82.82,0,0,1,83.17,152.86Z"/><path class="cls-6" d="M85,153.58a1.77,1.77,0,0,1-.83.47A.79.79,0,0,1,85,153.58Z"/><path class="cls-6" d="M116.8,151.08a1.15,1.15,0,0,1-.62-.53A.57.57,0,0,1,116.8,151.08Z"/><path class="cls-6" d="M127.9,170.77a.76.76,0,0,1-.1.53C127.52,171.07,127.43,170.87,127.9,170.77Z"/><path class="cls-6" d="M113.46,145.46a1.12,1.12,0,0,1,.48.57A.51.51,0,0,1,113.46,145.46Z"/><path class="cls-6" d="M91.4,146a1.17,1.17,0,0,1,.48-.57A.51.51,0,0,1,91.4,146Z"/><path class="cls-6" d="M79.3,169a1,1,0,0,1,.08.65C79.12,169.44,79.16,169.21,79.3,169Z"/><path class="cls-6" d="M126.64,179.34a1,1,0,0,1,.08.66C126.42,179.82,126.49,179.59,126.64,179.34Z"/><path class="cls-6" d="M76.81,161.85a1,1,0,0,1,.07-.66C77,161.43,77.1,161.66,76.81,161.85Z"/><path class="cls-6" d="M121.33,162.23a.92.92,0,0,1,.1.65C121.09,162.71,121.17,162.48,121.33,162.23Z"/><path class="cls-6" d="M117.58,149.67a1.08,1.08,0,0,1,.55.48A.51.51,0,0,1,117.58,149.67Z"/><path class="cls-6" d="M87.21,150.15a1.08,1.08,0,0,1,.55-.48A.52.52,0,0,1,87.21,150.15Z"/><path class="cls-6" d="M128,170.12a.41.41,0,0,1-.06.4c-.15,0-.24-.06-.22-.22S127.88,170.14,128,170.12Z"/><path class="cls-6" d="M126.44,176.47a.75.75,0,0,1,0,.55C126.19,176.85,126.22,176.66,126.44,176.47Z"/><path class="cls-6" d="M118.49,152.37A.84.84,0,0,1,118,152C118.25,152,118.46,152.05,118.49,152.37Z"/><path class="cls-6" d="M120.31,153.53a.88.88,0,0,1-.59-.34C120,153.16,120.23,153.22,120.31,153.53Z"/><path class="cls-6" d="M77.27,169.74a.68.68,0,0,1-.09-.52C77.45,169.35,77.43,169.54,77.27,169.74Z"/><path class="cls-6" d="M112.1,149.25a.71.71,0,0,1-.24.53C111.71,149.5,111.86,149.36,112.1,149.25Z"/><path class="cls-6" d="M77.54,171.3a.76.76,0,0,1-.1-.53C77.71,170.91,77.69,171.09,77.54,171.3Z"/><path class="cls-6" d="M106.12,156.38c0,.17.14.25.32.16,0,.21-.16.32-.35.15S105.82,156.46,106.12,156.38Z"/><path class="cls-6" d="M93.18,143.3l.13.52C93,143.72,93,143.53,93.18,143.3Z"/><path class="cls-6" d="M79.18,168.07a.68.68,0,0,1,.07.52C79,168.45,79,168.27,79.18,168.07Z"/><path class="cls-6" d="M121.43,164.81a.7.7,0,0,1-.1.53C121.17,165.13,121.13,164.94,121.43,164.81Z"/><path class="cls-6" d="M110.32,155.74a.67.67,0,0,0,.52,0c0,.2-.12.26-.29.25A.22.22,0,0,1,110.32,155.74Z"/><path class="cls-6" d="M128.9,187.44a.93.93,0,0,1,.31.6A.49.49,0,0,1,128.9,187.44Z"/><path class="cls-6" d="M128.34,167a.49.49,0,0,1,0,.51A.33.33,0,0,1,128.34,167Z"/><path class="cls-6" d="M102.54,158.34h.26c0,.15.06.41-.13.41S102.54,158.49,102.54,158.34Z"/><path class="cls-6" d="M114.85,154.88a.55.55,0,0,1,.52.11C115.16,155.14,115,155.18,114.85,154.88Z"/><path class="cls-6" d="M118.78,150.65a1,1,0,0,1,.54.4C119.05,151.05,118.78,151,118.78,150.65Z"/><path class="cls-6" d="M74.42,190.63a.84.84,0,0,1,.38-.52C74.81,190.39,74.73,190.59,74.42,190.63Z"/><path class="cls-6" d="M118.35,150.32a.64.64,0,0,1,.43.34C118.52,150.7,118.39,150.57,118.35,150.32Z"/><path class="cls-6" d="M117.46,151.59a.67.67,0,0,1-.45-.35A.35.35,0,0,1,117.46,151.59Z"/><path class="cls-6" d="M98.5,157.59a.65.65,0,0,1-.37-.42A.36.36,0,0,1,98.5,157.59Z"/><path class="cls-6" d="M91.78,147.84a.65.65,0,0,1-.36.43C91.38,148,91.51,147.86,91.78,147.84Z"/><path class="cls-6" d="M77.4,170.52a.41.41,0,0,1-.06-.4C77.54,170.23,77.56,170.36,77.4,170.52Z"/><path class="cls-6" d="M79.43,170a.48.48,0,0,1,.06.4C79.31,170.3,79.28,170.17,79.43,170Z"/><path class="cls-6" d="M76.72,163a.51.51,0,0,1,0-.4C76.92,162.77,76.89,162.9,76.72,163Z"/><path class="cls-6" d="M121.19,161.45a.4.4,0,0,1,.09.4C121,161.77,121,161.63,121.19,161.45Z"/><path class="cls-6" d="M98.9,156.54c.1,0,.21.11.31,0,.1.11.06.2-.07.23S98.92,156.69,98.9,156.54Z"/><path class="cls-6" d="M79.56,170.79a.48.48,0,0,1,.09.4C79.43,171.09,79.41,171,79.56,170.79Z"/><path class="cls-6" d="M126.77,180.38a.48.48,0,0,1,.06.4C126.63,180.68,126.61,180.54,126.77,180.38Z"/><path class="cls-6" d="M126.9,181.16a.41.41,0,0,1,.08.4C126.75,181.47,126.74,181.33,126.9,181.16Z"/><path class="cls-6" d="M126.24,167.43a.41.41,0,0,1,0-.4C126.44,167.18,126.43,167.31,126.24,167.43Z"/><path class="cls-6" d="M119.26,152.9a.48.48,0,0,1-.38-.26C119.08,152.62,119.25,152.63,119.26,152.9Z"/><path class="cls-6" d="M118.88,152.64a.46.46,0,0,1-.38-.27C118.7,152.35,118.87,152.38,118.88,152.64Z"/><path class="cls-6" d="M119.66,153.15a.46.46,0,0,1-.4-.25C119.46,152.87,119.64,152.89,119.66,153.15Z"/><path class="cls-6" d="M123.16,166.77a.44.44,0,0,1,.38.26C123.35,167,123.18,167,123.16,166.77Z"/><path class="cls-6" d="M122,166a.35.35,0,0,1,.32.21C122.13,166.25,122,166.19,122,166Z"/><path class="cls-6" d="M124.84,167.93a.38.38,0,0,1,.33.22C125,168.2,124.86,168.14,124.84,167.93Z"/><path class="cls-6" d="M118,152a.34.34,0,0,1-.3-.24C117.85,151.72,118,151.79,118,152Z"/><path class="cls-6" d="M125.87,168.65l.23-.13c.05.11.07.22-.07.27S125.88,168.75,125.87,168.65Z"/><path class="cls-6" d="M116,155.16a.38.38,0,0,1,.36.13C116.21,155.37,116.08,155.36,116,155.16Z"/><path class="cls-6" d="M96.94,155.66a.33.33,0,0,1-.22-.31A.24.24,0,0,1,96.94,155.66Z"/><path class="cls-6" d="M127,181.94a.23.23,0,0,1,0,.27C126.93,182.15,126.87,182.06,127,181.94Z"/><path class="cls-6" d="M116.92,155.53a.34.34,0,0,1,.34.17C117.09,155.76,117,155.73,116.92,155.53Z"/><path class="cls-6" d="M97.2,156a.33.33,0,0,1-.21-.3C97.17,155.76,97.23,155.87,97.2,156Z"/><path class="cls-6" d="M127.41,183.49a.24.24,0,0,1,.08.27C127.32,183.71,127.25,183.63,127.41,183.49Z"/><path class="cls-6" d="M118.1,156.26a.33.33,0,0,1,.3.24Q118.11,156.56,118.1,156.26Z"/><path class="cls-6" d="M119.78,151.37a.34.34,0,0,1,.3.21C119.91,151.61,119.8,151.55,119.78,151.37Z"/><path class="cls-6" d="M117.52,170.31a.32.32,0,0,1-.34.14C117.23,170.27,117.36,170.24,117.52,170.31Z"/><path class="cls-6" d="M88.18,151.36a.33.33,0,0,1-.3.23A.23.23,0,0,1,88.18,151.36Z"/><path class="cls-6" d="M127.89,185.09a.43.43,0,0,1,.14.36C127.83,185.39,127.81,185.26,127.89,185.09Z"/><path class="cls-6" d="M116.67,170.62a.22.22,0,0,1-.27.06C116.46,170.54,116.54,170.47,116.67,170.62Z"/><path class="cls-6" d="M119.16,157.26a.33.33,0,0,1,.24.3C119.2,157.56,119.13,157.45,119.16,157.26Z"/><path class="cls-6" d="M119.82,158.16a.33.33,0,0,1,.2.32C119.83,158.45,119.77,158.34,119.82,158.16Z"/><path class="cls-6" d="M128.14,185.75a.37.37,0,0,1,.14.34C128.09,186,128.07,185.91,128.14,185.75Z"/><path class="cls-6" d="M128.41,186.39a.42.42,0,0,1,.15.35C128.35,186.69,128.33,186.56,128.41,186.39Z"/><path class="cls-6" d="M127.73,171.68a.21.21,0,0,1,0,.27C127.52,171.83,127.58,171.75,127.73,171.68Z"/><path class="cls-6" d="M127.61,172.33a.22.22,0,0,1-.06.27C127.39,172.47,127.45,172.38,127.61,172.33Z"/><path class="cls-6" d="M119.39,151.1a.34.34,0,0,1,.31.21C119.52,151.35,119.41,151.29,119.39,151.1Z"/><path class="cls-6" d="M80,172.73A.22.22,0,0,1,80,173C79.87,172.94,79.8,172.86,80,172.73Z"/><path class="cls-6" d="M129.3,188.21a.41.41,0,0,1,.18.34C129.28,188.52,129.24,188.39,129.3,188.21Z"/><path class="cls-6" d="M75.45,189.2a.35.35,0,0,1,.21-.33C75.71,189.06,75.65,189.18,75.45,189.2Z"/><path class="cls-6" d="M130.7,190.33a.31.31,0,0,1,.22.3C130.73,190.61,130.66,190.51,130.7,190.33Z"/><path class="cls-6" d="M80.09,173.25a.25.25,0,0,1,.07.27C80,173.46,79.93,173.39,80.09,173.25Z"/><path class="cls-6" d="M85.64,151.31a.34.34,0,0,1,.31-.21C85.93,151.29,85.82,151.35,85.64,151.31Z"/><path class="cls-6" d="M131.21,191a.32.32,0,0,1,.24.28C131.26,191.27,131.19,191.17,131.21,191Z"/><path class="cls-6" d="M127.55,184a.25.25,0,0,1,.07.27C127.46,184.23,127.39,184.15,127.55,184Z"/><path class="cls-6" d="M121.34,165.48l.07.12C121.33,165.59,121.31,165.55,121.34,165.48Z"/><path class="cls-6" d="M72.9,154.35a36,36,0,0,1-4.37,6.16A100,100,0,0,1,58.75,170a26.73,26.73,0,0,0-2.36,2.4C53.31,176,52,180,53.62,184.66a4.68,4.68,0,0,1-1-2.65A13,13,0,0,1,56,172.58,70.18,70.18,0,0,1,61.71,167a72.26,72.26,0,0,0,5.93-5.94c1.42-1.62,2.6-3.41,4-5.08.31-.38.52-.84.8-1.25C72.51,154.58,72.58,154.3,72.9,154.35Z"/><path class="cls-6" d="M151.72,184.66c1.64-4.73.26-8.76-2.91-12.37-.69-.79-1.45-1.52-2.18-2.28.31-.06.47.16.65.34a21.42,21.42,0,0,1,3.47,4.13,12.75,12.75,0,0,1,1.85,5.28,8.1,8.1,0,0,1-.53,4.41C152,184.36,152,184.6,151.72,184.66Z"/><path class="cls-6" d="M142.6,166.38a35,35,0,0,1-3.35-3.21A44.65,44.65,0,0,1,132.8,155c-.11-.18-.19-.38-.29-.57.44.07.56.47.73.77a33.48,33.48,0,0,0,3.47,4.8,47.72,47.72,0,0,0,4.06,4.35q.76.73,1.5,1.5C142.42,166,142.63,166.12,142.6,166.38Z"/><path class="cls-6" d="M121.52,132.27c.11.28-.15.65.11.86a17.11,17.11,0,0,0,1.64,1.14c.25.16.29-.18.38-.32a4.49,4.49,0,0,1,2.42-2c.37-.11.77.07,1.11-.18.42.21.42.68.65,1a3.28,3.28,0,0,0-3.67,2.26c-.42-.18-.17-.44,0-.62a4.26,4.26,0,0,1,2.16-1.85c.14-.05.36-.07.31-.25s-.28-.06-.43,0a3.29,3.29,0,0,0-2.09,1.6c-.6.77-.57.81-1.43.29a5.79,5.79,0,0,1-1-.7C121.27,133.12,121,132.71,121.52,132.27Z"/><path class="cls-6" d="M78.16,131.76s.1.1.15.1a3.59,3.59,0,0,1,3.31,2c.26.43.47.43.83.22-.31.54-.63.54-1,0A4,4,0,0,0,79,132.21a.33.33,0,0,0-.17,0c0,.24.19.29.34.34a4.43,4.43,0,0,1,2.05,1.87c.12.18.31.42-.08.56a3.28,3.28,0,0,0-3.67-2.26C77.74,132.44,77.75,132,78.16,131.76Z"/><path class="cls-6" d="M84.72,132.14c.13.36.32.15.49.05l2.1-1.32c.11-.07.2-.15.37-.08l-6.15,5.37a5.83,5.83,0,0,1,1.45-1.6c.45-.45,1-.84,1.46-1.25.23-.19.19-.45.21-.71S84.36,132.23,84.72,132.14Z"/><path class="cls-6" d="M122.26,134.73c-1.08-.76-2-1.7-3-2.53l-1.8-1.51a1.33,1.33,0,0,1,.84.4,12,12,0,0,0,2,1.21c.13.06.23.11.33,0h.06c-.17,1,.74,1.34,1.23,1.93C122.06,134.37,122.28,134.48,122.26,134.73Z"/><path class="cls-6" d="M123.41,148.76a8.13,8.13,0,0,1-1.09-3.18c.84,1.31,1.76,2.57,2.49,3.95-.52-.25-.62-.83-1-1.2-.14-.14-.18-.5-.42-.4s0,.38,0,.58A2.09,2.09,0,0,1,123.41,148.76Z"/><path class="cls-6" d="M133.4,149.66a6.87,6.87,0,0,1,3.91.3,7.45,7.45,0,0,1,1.74.81c.31.2.36.07.33-.22.25,0,.28.25.37.41s.19.28.06.42-.32.08-.47,0a7.78,7.78,0,0,0-5.39-1.58C133.76,149.79,133.56,149.84,133.4,149.66Z"/><path class="cls-6" d="M75.58,139.38c-2.06.3-3.63-.65-5-2.1,0,.7.38,1.18.47,1.75a3.79,3.79,0,0,1-.82-2c-.07-.25.25-.17.41,0,.39.34.72.74,1.13,1.06a4.72,4.72,0,0,0,3.33,1.14C75.25,139.14,75.51,139.06,75.58,139.38Z"/><path class="cls-6" d="M120.63,131.38c.07-.5-.18-.75-.63-.94a34.29,34.29,0,0,0-5.63-1.65c-.18,0-.36-.11-.54-.16a3.87,3.87,0,0,1,1.84.28,24.77,24.77,0,0,1,4.54,1.38C120.82,130.54,120.94,130.9,120.63,131.38Z"/><path class="cls-6" d="M134.9,137.48c-.25-.28-.33.05-.43.14a5.79,5.79,0,0,1-4.82,1.81c0-.29.22-.29.41-.27a5.31,5.31,0,0,0,4.51-2c.11-.13.25-.41.44-.24A.33.33,0,0,1,134.9,137.48Z"/><path class="cls-6" d="M90.87,128.76c-1.14.31-2.28.6-3.41.94-.71.21-1.4.52-2.12.75a.77.77,0,0,0-.62.93c-.42-.42-.17-.79.2-1a30.91,30.91,0,0,1,5.66-1.75A.26.26,0,0,1,90.87,128.76Z"/><path class="cls-6" d="M75.06,150.55l-.56-.48a14.64,14.64,0,0,1-.87,2.84c-.16-.71.3-1.3.36-2a1.35,1.35,0,0,1,.06-.41c.11-.26.15-.7.42-.7A.63.63,0,0,1,75.06,150.55Z"/><path class="cls-6" d="M72.73,147.06a2.84,2.84,0,0,1,0-2.48c.07-.18.28-.42-.15-.41,0-.23.15-.36.38-.32a.21.21,0,0,1,.14.31A6,6,0,0,0,72.73,147.06Z"/><path class="cls-6" d="M74.26,144.2a3.13,3.13,0,0,0-.43,2.61c-.47-.07-.31-.48-.31-.72C73.53,145.38,73.5,144.63,74.26,144.2Z"/><path class="cls-6" d="M82.45,134.1a1.28,1.28,0,0,1,.59-.47,1.21,1.21,0,0,0,.78-1.37c.59.44.21.89-.08,1.19A1.86,1.86,0,0,1,82.45,134.1Z"/><path class="cls-6" d="M75.8,142l-1.4,2c0-.59.4-1,.7-1.39C75.27,142.32,75.37,141.93,75.8,142Z"/><path class="cls-6" d="M73,150.1a2.15,2.15,0,0,0,.52-1.61.55.55,0,0,1,.29.82,2.65,2.65,0,0,0-.33.73C73.37,150.31,73.17,150.45,73,150.1Z"/><path class="cls-6" d="M146.5,169.88a7.85,7.85,0,0,1-1.56-1.43A2.57,2.57,0,0,1,146.5,169.88Z"/><path class="cls-6" d="M123.81,136.16a7.75,7.75,0,0,1-1.55-1.42A2.81,2.81,0,0,1,123.81,136.16Z"/><path class="cls-6" d="M79.11,138.39a9,9,0,0,1-1.45,1.44A2.57,2.57,0,0,1,79.11,138.39Z"/><path class="cls-6" d="M131.67,146.3a4.31,4.31,0,0,0-.59-2.1A1.92,1.92,0,0,1,131.67,146.3Z"/><path class="cls-6" d="M130.28,150.56a3.48,3.48,0,0,1-1.16,1.16A2.13,2.13,0,0,1,130.28,150.56Z"/><path class="cls-6" d="M127.55,139.7a5.74,5.74,0,0,1-1.18-1.18A1.87,1.87,0,0,1,127.55,139.7Z"/><path class="cls-6" d="M101,127.71a3.73,3.73,0,0,1-1.56.11A1.72,1.72,0,0,1,101,127.71Z"/><path class="cls-6" d="M108.52,128a4.88,4.88,0,0,1-1.57-.11A1.71,1.71,0,0,1,108.52,128Z"/><path class="cls-6" d="M144.94,168.45a4.61,4.61,0,0,1-1.17-1A1.52,1.52,0,0,1,144.94,168.45Z"/><path class="cls-6" d="M143.77,167.42a4.65,4.65,0,0,1-1.17-1A1.53,1.53,0,0,1,143.77,167.42Z"/><path class="cls-6" d="M125.37,152a3.8,3.8,0,0,1-.88-1.29A1.91,1.91,0,0,1,125.37,152Z"/><path class="cls-6" d="M105.79,127.81a3.15,3.15,0,0,1-1.43-.1A1.54,1.54,0,0,1,105.79,127.81Z"/><path class="cls-6" d="M98.38,127.84a4,4,0,0,1-1.43.1A1.52,1.52,0,0,1,98.38,127.84Z"/><path class="cls-6" d="M126.39,151.87c.34.53.7.2,1,0a.55.55,0,0,1-.63.49C126.5,152.37,126.36,152.18,126.39,151.87Z"/><path class="cls-6" d="M93.07,128.36a3.87,3.87,0,0,1-1.3.23A1.28,1.28,0,0,1,93.07,128.36Z"/><path class="cls-6" d="M124.44,150.59a2.88,2.88,0,0,1-.74-1.2A1.68,1.68,0,0,1,124.44,150.59Z"/><path class="cls-6" d="M112.8,128.46a4.45,4.45,0,0,1-1.31-.23A1.3,1.3,0,0,1,112.8,128.46Z"/><path class="cls-6" d="M76.47,138.12c.28.18,0,.78.53.78,0,.28-.23.35-.36.13S76.22,138.47,76.47,138.12Z"/><path class="cls-6" d="M131.69,152.94a3.54,3.54,0,0,1-.42-1.36A1.74,1.74,0,0,1,131.69,152.94Z"/><path class="cls-6" d="M96.18,128a1.78,1.78,0,0,1-.91.11C95.54,127.74,95.85,127.82,96.18,128Z"/><path class="cls-6" d="M110.07,128.08a1.77,1.77,0,0,1-.91-.11C109.49,127.82,109.8,127.74,110.07,128.08Z"/><path class="cls-6" d="M76.69,134a3.45,3.45,0,0,1-.35,1A1,1,0,0,1,76.69,134Z"/><path class="cls-6" d="M129,135a3.45,3.45,0,0,1-.35-1A1,1,0,0,1,129,135Z"/><path class="cls-6" d="M111.24,128.21a1.23,1.23,0,0,1-.78-.1C110.74,128,111,127.86,111.24,128.21Z"/><path class="cls-6" d="M69.24,146.55a1.87,1.87,0,0,1-.68.63A.57.57,0,0,1,69.24,146.55Z"/><path class="cls-6" d="M75.82,140.18c.22-.3-.09-.51-.14-.76C76.21,139.65,76.25,139.84,75.82,140.18Z"/><path class="cls-6" d="M129.66,139.42c-.06.25-.35.46-.14.76C129.09,139.84,129.13,139.65,129.66,139.42Z"/><path class="cls-6" d="M79.24,136.7a1.21,1.21,0,0,1,.6-.54A.55.55,0,0,1,79.24,136.7Z"/><path class="cls-6" d="M129.06,137.09a1,1,0,0,1,.07-.66C129.31,136.67,129.36,136.9,129.06,137.09Z"/><path class="cls-6" d="M76.21,136.43a1,1,0,0,1,.07.66C76,136.9,76,136.67,76.21,136.43Z"/><path class="cls-6" d="M128.34,138.9c.29.14.25-.2.39-.27.22.23,0,.39-.12.49S128.34,139.08,128.34,138.9Z"/><path class="cls-6" d="M76.29,135.38a1,1,0,0,1-.08.66C76,135.79,76,135.56,76.29,135.38Z"/><path class="cls-6" d="M80.92,136.7a1.14,1.14,0,0,1-.56.5A.52.52,0,0,1,80.92,136.7Z"/><path class="cls-6" d="M125,137.2a1.14,1.14,0,0,1-.56-.5A.52.52,0,0,1,125,137.2Z"/><path class="cls-6" d="M94.89,128.11a1,1,0,0,1-.66.09C94.41,127.88,94.64,127.94,94.89,128.11Z"/><path class="cls-6" d="M129.48,141.92a1.08,1.08,0,0,1-.48-.57C129.32,141.41,129.51,141.58,129.48,141.92Z"/><path class="cls-6" d="M131,144.13a1.11,1.11,0,0,1-.34-.58C131,143.63,131.06,143.86,131,144.13Z"/><path class="cls-6" d="M128.83,152a.67.67,0,0,1-.49.37C128.36,152,128.56,152,128.83,152Z"/><path class="cls-6" d="M124.86,149.63a.77.77,0,0,1,.35.55C124.9,150.11,124.85,149.89,124.86,149.63Z"/><path class="cls-6" d="M72.41,144.26a1,1,0,0,1-.6.33C71.89,144.26,72.11,144.2,72.41,144.26Z"/><path class="cls-6" d="M74.66,141.61a.78.78,0,0,1,.39-.51C75.07,141.38,75,141.59,74.66,141.61Z"/><path class="cls-6" d="M73.89,142.65a.78.78,0,0,1,.38-.52C74.3,142.42,74.22,142.63,73.89,142.65Z"/><path class="cls-6" d="M93.85,128.23a.67.67,0,0,1-.53.09C93.45,128.05,93.64,128.07,93.85,128.23Z"/><path class="cls-6" d="M129.13,136a.66.66,0,0,1-.06-.53C129.33,135.66,129.31,135.84,129.13,136Z"/><path class="cls-6" d="M124.46,135.26a.74.74,0,0,1,.48.4C124.66,135.67,124.47,135.58,124.46,135.26Z"/><path class="cls-6" d="M126.15,153a.74.74,0,0,1-.38-.5C126.09,152.52,126.17,152.72,126.15,153Z"/><path class="cls-6" d="M113.57,128.59a.64.64,0,0,1-.52-.1C113.26,128.34,113.45,128.31,113.57,128.59Z"/><path class="cls-6" d="M130.29,141.1a.75.75,0,0,1,.39.51C130.35,141.59,130.27,141.38,130.29,141.1Z"/><path class="cls-6" d="M127.52,151.83a.67.67,0,0,1,.44-.35C127.94,151.75,127.8,151.88,127.52,151.83Z"/><path class="cls-6" d="M129,150.44a.57.57,0,0,1,.36-.42A.34.34,0,0,1,129,150.44Z"/><path class="cls-6" d="M80.45,135.62a.62.62,0,0,1,.44-.36C80.87,135.54,80.73,135.66,80.45,135.62Z"/><path class="cls-6" d="M150,187.52a.73.73,0,0,1,.34-.46A.35.35,0,0,1,150,187.52Z"/><path class="cls-6" d="M76.34,141.35a.68.68,0,0,1-.36.43A.34.34,0,0,1,76.34,141.35Z"/><path class="cls-6" d="M128.71,141a.65.65,0,0,1-.36-.43A.34.34,0,0,1,128.71,141Z"/><path class="cls-6" d="M70.8,145.26a.62.62,0,0,1-.43.34C70.36,145.29,70.53,145.21,70.8,145.26Z"/><path class="cls-6" d="M131.1,150.81a.43.43,0,0,1-.1-.39C131.24,150.5,131.26,150.64,131.1,150.81Z"/><path class="cls-6" d="M131,150.16c-.09-.11-.2-.06-.31,0,0-.19.12-.28.29-.2S131.07,150.08,131,150.16Z"/><path class="cls-6" d="M128.92,137.86a.4.4,0,0,1,.09-.39C129.18,137.65,129.17,137.79,128.92,137.86Z"/><path class="cls-6" d="M91.51,128.63a.39.39,0,0,1-.39.09C91.2,128.47,91.33,128.46,91.51,128.63Z"/><path class="cls-6" d="M68.17,147.57a.63.63,0,0,1-.37.41C67.75,147.69,67.87,147.55,68.17,147.57Z"/><path class="cls-6" d="M132.1,142.65a.42.42,0,0,1,.28-.36C132.39,142.49,132.36,142.66,132.1,142.65Z"/><path class="cls-6" d="M75.16,141a.45.45,0,0,1,.29-.36C75.46,140.8,75.42,141,75.16,141Z"/><path class="cls-6" d="M73,142.29a.42.42,0,0,1,.28.36C73,142.66,73,142.49,73,142.29Z"/><path class="cls-6" d="M71.56,140.16a.5.5,0,0,1,.25.42C71.53,140.56,71.53,140.37,71.56,140.16Z"/><path class="cls-6" d="M66.9,149c-.05.16-.07.33-.29.33C66.62,149.15,66.65,149,66.9,149Z"/><path class="cls-6" d="M70.08,145.83a.55.55,0,0,1-.36.3C69.73,145.89,69.78,145.71,70.08,145.83Z"/><path class="cls-6" d="M129.89,140.6a.42.42,0,0,1,.29.35C129.92,141,129.88,140.8,129.89,140.6Z"/><path class="cls-6" d="M72.2,141.22c.15.09.28.2.25.4C72.19,141.59,72.18,141.42,72.2,141.22Z"/><path class="cls-6" d="M73.49,148.49a.45.45,0,0,1-.25-.4C73.51,148.11,73.52,148.29,73.49,148.49Z"/><path class="cls-6" d="M74.27,142.13a.44.44,0,0,1,.27-.37C74.56,142,74.53,142.13,74.27,142.13Z"/><path class="cls-6" d="M125.5,136.16a.32.32,0,0,1,.28.25C125.59,136.44,125.49,136.36,125.5,136.16Z"/><path class="cls-6" d="M76.35,137.59a.22.22,0,0,1,.08.27C76.23,137.82,76.17,137.74,76.35,137.59Z"/><path class="cls-6" d="M134.74,138a.22.22,0,0,1,.1-.26C135,137.89,134.93,138,134.74,138Z"/><path class="cls-6" d="M128.79,138.38a.22.22,0,0,1,.08-.26C129,138.27,129,138.34,128.79,138.38Z"/><path class="cls-6" d="M77,140.57a.33.33,0,0,1-.24.29C76.72,140.67,76.8,140.57,77,140.57Z"/><path class="cls-6" d="M129.89,142.42a.34.34,0,0,1-.24-.29C129.84,142.13,129.91,142.24,129.89,142.42Z"/><path class="cls-6" d="M129.66,149.66a.33.33,0,0,1,.23-.29C129.92,149.55,129.85,149.65,129.66,149.66Z"/><path class="cls-6" d="M130.27,142.94a.31.31,0,0,1-.22-.3C130.24,142.66,130.31,142.76,130.27,142.94Z"/><path class="cls-6" d="M130.65,143.48a.33.33,0,0,1-.22-.31C130.63,143.18,130.7,143.29,130.65,143.48Z"/><path class="cls-6" d="M125.61,152.27a.28.28,0,0,1-.23-.29C125.58,152,125.64,152.09,125.61,152.27Z"/><path class="cls-6" d="M126.16,151.57a.29.29,0,0,1,.22.3C126.19,151.86,126.12,151.75,126.16,151.57Z"/><path class="cls-6" d="M131.22,151.33a.22.22,0,0,1-.07-.27C131.32,151.11,131.38,151.19,131.22,151.33Z"/><path class="cls-6" d="M79.24,130.75A.34.34,0,0,1,79,131C79,130.79,79.05,130.71,79.24,130.75Z"/><path class="cls-6" d="M150.4,187a.39.39,0,0,1,.22-.31C150.66,186.86,150.6,187,150.4,187Z"/><path class="cls-6" d="M125.26,150.26a.3.3,0,0,1,.21.31C125.27,150.55,125.21,150.44,125.26,150.26Z"/><path class="cls-6" d="M83.67,131.72a.42.42,0,0,1-.16-.35C83.72,131.41,83.75,131.54,83.67,131.72Z"/><path class="cls-6" d="M73.1,147.84a.21.21,0,0,1-.13-.26C73.14,147.6,73.31,147.62,73.1,147.84Z"/><path class="cls-6" d="M125.65,150.9a.42.42,0,0,1,.22.31C125.67,151.2,125.6,151.09,125.65,150.9Z"/><path class="cls-7" d="M62.27,195a.68.68,0,0,1-.51-.43,1,1,0,0,1-.18-.73.13.13,0,0,1,.21-.07c.3.29.73.49.8,1C62.61,194.91,62.45,195,62.27,195Z"/><path class="cls-7" d="M65.14,181.81c.19,0,.32.13.3.34a.29.29,0,0,1-.35.28.28.28,0,0,1-.27-.3C64.82,181.93,64.94,181.83,65.14,181.81Z"/><path class="cls-7" d="M143.05,195a.3.3,0,0,1-.29-.22c-.08-.26.12-.4.28-.54s.35-.51.7-.51c0,0,.11.07.12.12C143.93,194.1,143.26,195,143.05,195Z"/><path class="cls-7" d="M140.22,181.81a.31.31,0,0,1,.3.34.31.31,0,0,1-.62,0C139.89,181.93,140,181.83,140.22,181.81Z"/><path class="cls-7" d="M146,191.74c.07.06.21,0,.22.17s0,.07-.07.07-.11-.15-.17-.22Z"/><polygon class="cls-6" points="83.14 145.26 83.17 145.26 83.16 145.2 83.14 145.26"/><path class="cls-7" d="M92.26,163a10.11,10.11,0,0,1-.48,3.35,5,5,0,0,1-.48,1,1.8,1.8,0,0,1-3.16,0,6.57,6.57,0,0,1-.84-2.9,12.79,12.79,0,0,1,.33-4.81c.32-1.23,1.08-2,2-2.06s1.64.58,2.11,1.87A10.83,10.83,0,0,1,92.26,163Z"/><path class="cls-7" d="M107.09,174.76l-.26,0c-.21-.38-.48-.08-.51,0a15.25,15.25,0,0,1-.95,2.05l0,0a18.29,18.29,0,0,0-1.92,1.1l-.38.07a.64.64,0,0,0-.77,0l-.37-.07c-.83-.66-.83-.66-.15-1a4.83,4.83,0,0,0,2.47-.26c.21,0,.39,0,.38-.26l.54-.51c.21,0,.27-.13.21-.32a.05.05,0,0,1,0-.07c.44-.38.53-.69.32-1.06l-.71-.31c-.06-.21-.19-.22-.35-.14a4.06,4.06,0,0,0-3.5-.18,14.77,14.77,0,0,1-1.45.53c-.29-.06-.44.33-.71.23a2.73,2.73,0,0,0-1.27,0,2.23,2.23,0,0,1-2.16-1.24c-.06-.2-.12-.48.12-.58s.24.23.31.37a1.6,1.6,0,0,0,2,.62l.26,0a1.89,1.89,0,0,0,1.56-.47l.31-.12c.16.07.29.05.34-.15a4.8,4.8,0,0,1,2.34-.75,2.1,2.1,0,0,1,1.14.35.43.43,0,0,0,.61.27l.29.13c0,.2.18.22.35.15l.3.12c0,.17.11.25.27.09a3,3,0,0,1,1,.32c.06.17.15.22.27.06h1.06c.12.17.19.1.26-.05a1.58,1.58,0,0,0,.84-.75c.31,0,.06-.57.4-.42s.32.42.2.73a2.69,2.69,0,0,1-.31.55c-.31.49-.93.49-1.29.89l-.25,0A.86.86,0,0,0,107.09,174.76Z"/><path class="cls-6" d="M98,173.81a1.6,1.6,0,0,1-2-.62c-.07-.14,0-.49-.31-.37s-.18.38-.12.58a2.23,2.23,0,0,0,2.16,1.24,2.73,2.73,0,0,1,1.27,0c.27.1.42-.29.71-.23a.9.9,0,0,0,.1.8,3.43,3.43,0,0,0,1.94,1.78c-.68.29-.68.29.15,1A3.72,3.72,0,0,1,99,175.33c-.16-.49-.37-.57-.82-.52a2.67,2.67,0,0,1-2.53-.81,1.48,1.48,0,0,1-.4-1.25c.07-.35.27-.62.66-.58s.27.34.25.6c0,.5.31.72.71.89A5.39,5.39,0,0,0,98,173.81Z"/><path class="cls-6" d="M108.23,174.75c.36-.4,1-.4,1.29-.89a2.69,2.69,0,0,0,.31-.55c.12-.31.07-.62-.2-.73s-.09.43-.4.42c0-.26-.21-.55,0-.78s.33-.07.48,0a.8.8,0,0,1,.35.84A2.07,2.07,0,0,1,108.23,174.75Z"/><path class="cls-6" d="M105.37,176.84a15.25,15.25,0,0,0,.95-2.05c0-.13.3-.43.51,0-.29,0-.35.22-.43.46A2.9,2.9,0,0,1,105.37,176.84Z"/><path class="cls-6" d="M103.43,178a18.29,18.29,0,0,1,1.92-1.1A2.93,2.93,0,0,1,103.43,178Z"/><path class="cls-6" d="M99.83,173.32a1.89,1.89,0,0,1-1.56.47A6.53,6.53,0,0,1,99.83,173.32Z"/><path class="cls-6" d="M107.09,174.76a.86.86,0,0,1,.89,0A1.06,1.06,0,0,1,107.09,174.76Z"/><path class="cls-6" d="M102.28,178a.64.64,0,0,1,.77,0A1.19,1.19,0,0,1,102.28,178Z"/><path class="cls-6" d="M104.57,172.92a.43.43,0,0,1-.61-.27A1.4,1.4,0,0,1,104.57,172.92Z"/><path class="cls-6" d="M100.48,173.05c0,.2-.18.22-.34.15A.32.32,0,0,1,100.48,173.05Z"/><path class="cls-6" d="M105.21,173.2c-.17.07-.3.05-.35-.15A.4.4,0,0,1,105.21,173.2Z"/><path class="cls-6" d="M105.78,173.41c-.16.16-.23.08-.27-.09A.28.28,0,0,1,105.78,173.41Z"/><path class="cls-6" d="M107.07,173.79c-.12.16-.21.11-.27-.06A.23.23,0,0,1,107.07,173.79Z"/><path class="cls-6" d="M108.39,173.75c-.07.15-.14.22-.26.05A.23.23,0,0,1,108.39,173.75Z"/><path class="cls-6" d="M105.41,175.59l.32-1.06C105.94,174.9,105.85,175.21,105.41,175.59Z"/><path class="cls-6" d="M104.23,176.75a.46.46,0,0,1,.38-.26C104.62,176.76,104.44,176.78,104.23,176.75Z"/><path class="cls-6" d="M105.15,176a.34.34,0,0,1,.21-.32C105.42,175.85,105.36,176,105.15,176Z"/><path class="cls-6" d="M105,174.22a.36.36,0,0,1-.35-.14C104.83,174,105,174,105,174.22Z"/><path class="cls-4" d="M-9.62,54.48a28.07,28.07,0,0,1,7.54.5A24.08,24.08,0,0,1,14.16,67.64a30.7,30.7,0,0,1,3.38,20.45,25.72,25.72,0,0,1-12.4,18c-1,.61-2,1.24-3,1.79a.76.76,0,0,0-.49.62,139.06,139.06,0,0,1-3.4,15.89c-1.74,6.78-3.53,13.54-5.31,20.31-.13.52-.35,1-.51,1.53-.26.82-1,1-1.67,1.32a.09.09,0,0,1-.14-.05c-.14-.5-.32-.5-.57-.07-.07.12-.19,0-.28,0A2.33,2.33,0,0,1-12,145.52c-.85-2.76-1.53-5.58-2.24-8.38-1.65-6.45-3.44-12.85-4.92-19.34a88.8,88.8,0,0,1-1.78-9.28.79.79,0,0,0-.54-.66,45,45,0,0,1-4.28-2.67A25.14,25.14,0,0,1-37,86.89a30.08,30.08,0,0,1,6.14-23.17,23,23,0,0,1,19.68-9.24C-10.66,54.49-10.14,54.48-9.62,54.48Zm-25,27.19A26.56,26.56,0,0,0-32.15,94c2.4,5.1,6.51,8.45,11.27,11.16a.62.62,0,0,0,.43.11c1-.17,1.16-.06,1.35.88,1.16,5.94,2.69,11.79,4.15,17.65,1.64,6.56,3.36,13.09,5,19.64,0,.11.08.23.17.24s.23-.1.27-.22.15-.45.21-.68c1-3.77,1.94-7.53,2.93-11.29,2-7.49,3.83-15,5.59-22.57.23-1,.38-2,.6-3,.11-.5.38-1,1-.78a1.15,1.15,0,0,0,1.12-.2c.57-.36,1.14-.72,1.71-1.06A23.08,23.08,0,0,0,14.94,87.52a28,28,0,0,0-4.15-20.35A20.75,20.75,0,0,0-4.14,57.32a11.45,11.45,0,0,0-3.65,0,31,31,0,0,1-3.74.05.6.6,0,0,1-.31-.08A2.47,2.47,0,0,0-13,57.11a20.74,20.74,0,0,0-15.88,8.33A28,28,0,0,0-34.64,81.67Z"/><path class="cls-5" d="M8.25,88.37a1.2,1.2,0,0,1-.42.5c-.25,0-.37.21-.52.36-2.09,2-4.86,1.41-6.25-1.11a9.28,9.28,0,0,1,.75-8.67,3.54,3.54,0,0,1,5.09-.67,5.5,5.5,0,0,1,2.15,3,8,8,0,0,1,.08,4.44C8.93,87,8.43,87.62,8.25,88.37Z"/><path class="cls-4" d="M8.25,88.37c.18-.75.68-1.35.88-2.11a8,8,0,0,0-.08-4.44,5.5,5.5,0,0,0-2.15-3,3.54,3.54,0,0,0-5.09.67,9.28,9.28,0,0,0-.75,8.67c1.39,2.52,4.16,3.08,6.25,1.11.15-.15.27-.35.52-.36A3.93,3.93,0,0,1,1.39,89,6.78,6.78,0,0,1,.11,85.4a10.52,10.52,0,0,1,.62-4.51,4.58,4.58,0,0,1,.33-.71c1.6-3,4.88-3.32,7-.67a7.66,7.66,0,0,1,1.22,7.34A2.85,2.85,0,0,1,8.25,88.37Z"/></pattern></defs><rect class="cls-8" x="0.5" y="0.5" width="2000" height="2000"/></svg>