<?xml version="1.0" encoding="utf-8"?>
<!-- Generator: Adobe Illustrator 26.2.1, SVG Export Plug-In . SVG Version: 6.00 Build 0)  -->
<svg version="1.1" xmlns="http://www.w3.org/2000/svg" xmlns:xlink="http://www.w3.org/1999/xlink" x="0px" y="0px"
	 viewBox="0 0 1016.4 209" style="enable-background:new 0 0 1016.4 209;" xml:space="preserve">
<style type="text/css">
	.st0{display:none;}
	.st1{display:inline;fill:#F295B7;}
	.st2{display:inline;fill:#020202;stroke:#000000;stroke-miterlimit:10;}
	.st3{fill:#1D1D1B;stroke:#FFFFFF;stroke-width:10;stroke-linecap:round;stroke-linejoin:round;stroke-miterlimit:10;}
	.st4{fill:#DF1859;stroke:#FFFFFF;stroke-width:4;stroke-linejoin:round;stroke-miterlimit:10;}
	.st5{fill:#FEFCFD;stroke:#FFFFFF;stroke-width:4;stroke-linejoin:round;stroke-miterlimit:10;}
	.st6{fill:#DF1859;}
	.st7{fill:#FEFCFD;}
	.st8{fill:#E00353;}
</style>
<g id="Capa_2" class="st0">
	<rect x="-10" y="-102" class="st1" width="1052" height="438"/>
</g>
<g id="Capa_1">
	<g id="Capa_2_00000176727736181201395440000008561853595708625842_" class="st0">
		<rect x="79.9" y="-92.9" class="st2" width="857.5" height="394.8"/>
	</g>
	<g>
		<g>
			<path class="st3" d="M89.2,190.5c-8.1-0.4-16.2-1-24.2-2.5c-4.5-0.9-7.9-3-10-7.6c-3.9-8.9-7.9-17.7-11.4-26.7
				c-2.3-5.9-4.6-11.7-6.2-17.9c-0.2-0.6-0.5-1-1.1-1.2c-4.7-1.4-6.5-5.4-7.7-9.5c-3.4-12.1-0.4-22.6,8.5-31.4
				c1.4-1.4,3.2-2.4,4.9-3.4c0.5-0.3,1-0.6,0.4-1.2c-4.6-4.7-4.6-10.4-3.3-16.2c1.6-7.7,6.5-13,13.2-16.7c3.9-2.2,7.9-4.1,11.8-6.1
				c3.6-1.8,5.3-4.6,5.3-8.7c-0.1-3.9,0.4-7.7,1.2-11.6c1.3-6.1,4.8-10.5,10-13.7c8.9-5.5,18.7-8.8,28.9-11.1c0.6-0.1,1.3-0.1,1.9,0
				c0.6,0.1,1.2,0.5,1.3,1.2c0.1,0.7-0.4,1-1,1.4c-5.1,3.2-8.9,7.7-10.7,13.5c-0.9,2.9,0.1,5.4,2.4,7.4c3.5,3.1,7.7,5.1,11.7,7.5
				c7.6,4.5,14.8,9.7,20.2,16.9c4.2,5.7,6.4,12,6.6,19.2c0.2,6.2-2.1,11.3-4.8,16.5c-0.7,1.3-0.5,1.9,0.7,2.6
				c7.4,4.5,11.2,11.4,12.8,19.7c1.2,6.4,0.7,12.7-2.7,18.5c-1.3,2.2-2.6,4.4-5.4,5c-0.8,0.2-1.2,0.8-1.4,1.6
				c-2.6,9.3-6.2,18.2-10,27.1c-2.5,5.9-5.2,11.7-7.7,17.5c-1.7,3.9-4.5,6-8.4,7c-4.2,1.1-8.5,1.6-12.8,1.9
				C97.8,189.9,93.6,190.8,89.2,190.5z M49,154.1c-0.1-0.2-0.2-0.5-0.5-0.3c-0.2,0.2-0.1,0.4,0.2,0.6c0.2,0.5,0.3,1.1,0.5,1.6
				c2.1,4.9,4.3,9.8,6.5,14.7c1.3,2.8,2.6,5.5,3.9,8.3c0.3,0.6,0.7,1.4,1.6,0.5c2.5-2.4,5.1-4.8,7.7-7.1c0.6-0.6,0.6-1,0-1.5
				C62.3,165.3,55.7,159.7,49,154.1z M60.3,88.3c-0.9,0.8-1.9,1.1-2.9,1.4c-3.7,1.1-7.4,1.7-11,3.1c-12.6,4.8-18.3,21.6-13.4,33.3
				c1,2.4,2.3,5,5,5.7c5,1.5,10.3,2.3,15.5,2.9c14.8,1.7,29.5,2.6,44.4,2c13.4-0.5,26.6-1.5,39.7-4.1c3.1-0.6,5.5-2.1,6.9-5
				c2.5-5,3.2-10.2,2-15.7c-2.2-10.1-7.5-17.3-17.9-20.2c-3-0.8-5.9-1.6-8.9-2.5c-0.6-0.2-1.6-0.3-1.5-1.1c0.1-0.6,1-0.6,1.6-0.6
				c3.7-0.4,7.4-0.4,11,0.8c1.7,0.6,2.6,0.2,3.2-1.5c0.6-1.7,1.4-3.2,2-4.9c3.7-10.3,2.2-19.6-4.7-28.2
				c-5.3-6.6-12.1-11.2-19.2-15.4c-3.9-2.3-7.9-4.3-11.3-7.4c-3.3-3.1-4.5-6.8-3.1-11.2c1.2-3.8,3.6-6.8,6.3-9.7
				c0.7-0.7,1.6-1.3,2-2.4c-0.3,0-0.5-0.1-0.6,0c-7.9,3.6-16,6.8-23.4,11.4c-5,3.1-7.7,7.6-8.6,13.5c-0.5,3.6-0.5,7.2-0.8,10.9
				c-0.3,3.8-2,6.5-5.1,8.5c-1.3,0.8-2.6,1.6-3.9,2.3c-3.9,2-8,3.6-11.6,6.1C45.4,64.7,41.5,71,41.6,79.3c0,3,0.6,5.9,3,8
				c0.8,0.7,1.7,1.3,2.9,0.9c3.2-1.1,6.4-1.1,9.7-0.9C58.2,87.5,59.3,87.5,60.3,88.3z M107.3,169.7c0.3-0.2,0.6-0.5,0.9-0.7
				c7.2-6.1,14.5-12.2,21.6-18.3c1-0.8,2.3-1.5,2.8-2.8c1.5-3.5,2.9-7.1,4.2-10.6c0.3-0.9,0.2-1.3-0.9-1.1c-8.4,2-17,2.9-25.7,3.4
				c-0.9,0-1.6,0.3-2.2,0.9c-5.2,5-10.7,9.6-16.3,14.2c-0.9,0.8-0.9,1.2,0,2c4.7,4.1,9.5,8.2,14.2,12.3
				C106.4,169.3,106.6,169.7,107.3,169.7z M87.6,156.2c-0.3-1-0.8-1.3-1.2-1.7c-5.4-4.5-10.7-9.1-15.8-13.8c-0.6-0.6-1.2-1-2.1-1.1
				c-8.7-0.4-17.3-1.4-25.9-3.4c-1.2-0.3-1.2,0.3-0.9,1.1c0.5,1.4,1.1,2.7,1.6,4c1.6,4.1,3.4,7.8,7,10.8
				c6.8,5.6,13.6,11.3,20.2,17.1c0.7,0.6,1.2,0.6,1.9,0c4.8-4.3,9.7-8.5,14.6-12.7C87.2,156.3,87.5,156.2,87.6,156.2z M89.3,183.7
				c0.3-0.2,0.5-0.3,0.7-0.4c5.2-3.5,10-7.5,14.8-11.4c0.7-0.6,0.5-1-0.1-1.5c-4.9-4.3-9.8-8.5-14.7-12.8c-0.5-0.5-0.9-0.5-1.4,0
				c-4.9,4.3-9.8,8.5-14.7,12.8c-0.6,0.5-0.8,1,0,1.6c4.8,3.7,9.4,7.7,14.4,11.1C88.6,183.3,88.9,183.5,89.3,183.7z M71.5,139.9
				c0.4,0.5,0.5,0.7,0.7,0.8c5.6,4.2,11,8.6,16.3,13.2c0.9,0.8,1.3,0.2,1.9-0.3c4.1-3.4,8.3-6.7,12.3-10.1c1.3-1.1,3-1.9,4.2-3.6
				C95,139.9,83.5,139.9,71.5,139.9z M130.3,153.6c-0.5,0.2-0.7,0.3-0.8,0.4c-6.6,5.6-13.2,11.2-19.8,16.7c-0.9,0.8-0.8,1.2,0,1.9
				c2.1,1.9,4.3,3.9,6.4,5.8c2.1,2,2.2,2.1,3.5-0.6c1.9-3.9,3.7-7.8,5.5-11.7C126.8,162.1,128.5,158,130.3,153.6z M87.4,184.8
				c-1.2-0.8-2.5-1.6-3.7-2.5c-3.8-2.7-7.5-5.4-11-8.5c-1.2-1.1-2-0.9-3.1,0.1c-2.2,2.1-4.5,4-6.7,6c-0.5,0.4-1.4,0.8-1.1,1.5
				c0.2,0.6,1.1,0.7,1.8,0.9c4.1,1,8.2,1.6,12.4,2C79.7,184.7,83.4,185.3,87.4,184.8z M90.8,185.1c3.5,0.4,6.4-0.3,9.4-0.5
				c5.1-0.4,10.2-1,15.2-2.3c0.6-0.1,1.4-0.2,1.5-0.9c0.1-0.6-0.6-0.9-1-1.3c-2.5-2.2-5-4.4-7.4-6.6c-0.6-0.5-1-0.9-1.9-0.2
				C101.7,177.5,96.6,181.4,90.8,185.1z"/>
			<path class="st3" d="M35.2,34.6c1.1,0,2.8,0.9,3.7,0c1-1-0.1-2.6-0.2-3.9c-0.2-2.6-0.5-5.1-0.7-7.7c0-0.6-0.4-1.5,0.4-1.9
				c0.6-0.3,1.1,0.4,1.6,0.7c2.8,2.1,5.4,4.5,7.8,7c1.1,1.1,1.6,0.9,2.2-0.3c0.4-0.8,0.9-1.5,1.4-2.2c1.6-2.6,3.2-2.6,4.6,0.1
				c1.1,2.2,2,4.4,2.9,6.7c1.3,3.4,2.5,6.9,3.7,10.4c0.1,0.2,0.2,0.3,0.2,0.5c0.9,2.6,0.8,3-1.8,4c-5.1,2-9.9,4.5-14.5,7.4
				c-1.4,0.9-2.1,0.5-2.9-0.6c-1.1-1.5-2.4-2.9-3.4-4.5c-2.6-4-5.5-7.8-7.7-12C31.1,35.6,31.8,34.4,35.2,34.6z"/>
			<path class="st3" d="M60.3,88.3c-1.1-0.8-2.1-0.8-3.2-0.9c-3.3-0.2-6.5-0.2-9.7,0.9c-1.2,0.4-2.1-0.2-2.9-0.9c-2.4-2.2-3-5.1-3-8
				c-0.1-8.3,3.8-14.6,10.6-19.1c3.7-2.4,7.8-4.1,11.6-6.1c1.3-0.7,2.6-1.4,3.9-2.3c3.1-2,4.8-4.7,5.1-8.5c0.2-3.6,0.2-7.2,0.8-10.9
				c0.9-5.8,3.6-10.3,8.6-13.5c7.4-4.6,15.5-7.9,23.4-11.4c0.1-0.1,0.4,0,0.6,0c-0.4,1.1-1.3,1.7-2,2.4c-2.7,2.9-5.1,5.9-6.3,9.7
				c-1.4,4.4-0.3,8.1,3.1,11.2c3.3,3.1,7.4,5.1,11.3,7.4c7.1,4.2,13.9,8.9,19.2,15.4c6.9,8.6,8.4,17.9,4.7,28.2
				c-0.6,1.6-1.4,3.2-2,4.9c-0.6,1.7-1.5,2.1-3.2,1.5c-3.6-1.3-7.3-1.2-11-0.8c-0.6,0.1-1.5,0-1.6,0.6c-0.1,0.8,0.9,0.9,1.5,1.1
				c2.9,0.9,5.9,1.7,8.9,2.5c10.4,2.8,15.7,10.1,17.9,20.2c1.2,5.5,0.5,10.7-2,15.7c-1.4,2.9-3.8,4.4-6.9,5
				c-13.1,2.7-26.4,3.6-39.7,4.1c-14.9,0.6-29.7-0.3-44.4-2c-5.2-0.6-10.4-1.4-15.5-2.9c-2.7-0.8-4-3.3-5-5.7
				c-4.9-11.8,0.8-28.5,13.4-33.3c3.6-1.4,7.4-2,11-3.1C58.5,89.4,59.4,89.1,60.3,88.3z M88.7,125.5c9-0.2,14.2-5.5,13.9-13.1
				c-0.1-3-1.3-4-4.3-3.8c-1.8,0.2-3.6,0.5-5.4,0.4c-4.6-0.3-9.1,0.2-13.7-0.3c-2-0.2-3.1,1-3.3,3c-0.3,2.6,0.1,5.1,1.4,7.4
				C80.2,124.1,84.6,125.9,88.7,125.5z M116.7,104.7c0-0.8,0-1.6,0-2.4c-0.1-2-0.2-4-1.5-5.7c-1.4-1.9-3.6-1.8-4.7,0.3
				c-0.3,0.6-0.6,1.3-0.6,1.9c-0.4,3.9-0.6,7.7,1,11.4c0.5,1.2,1,2.3,2.6,2.3c1.7,0,2.4-1.2,2.8-2.6
				C116.7,108.2,116.8,106.5,116.7,104.7z M61.9,103.1c-0.1,2.9-0.1,5.1,0.6,7.1c0.3,1.1,1,2,2.3,2.2c1.1,0.1,2-0.2,2.5-1.2
				c2-4.4,2.1-9.1,1.1-13.7c-0.3-1.2-1.1-2.1-2.5-2.2c-1.5-0.1-2.3,0.8-2.9,1.9C61.8,99.3,62,101.7,61.9,103.1z"/>
			<path class="st3" d="M107.3,169.7c-0.6,0-0.9-0.4-1.2-0.7c-4.7-4.1-9.4-8.2-14.2-12.3c-0.9-0.8-1-1.2,0-2
				c5.5-4.6,11-9.2,16.3-14.2c0.6-0.6,1.3-0.9,2.2-0.9c8.6-0.5,17.2-1.4,25.7-3.4c1.1-0.3,1.3,0.2,0.9,1.1
				c-1.4,3.5-2.8,7.1-4.2,10.6c-0.5,1.3-1.8,1.9-2.8,2.8c-7.2,6.1-14.4,12.2-21.6,18.3C107.9,169.3,107.5,169.5,107.3,169.7z"/>
			<path class="st3" d="M87.6,156.2c-0.1,0-0.4,0.1-0.7,0.3c-4.9,4.2-9.7,8.5-14.6,12.7c-0.7,0.6-1.2,0.6-1.9,0
				c-6.7-5.8-13.4-11.5-20.2-17.1c-3.7-3-5.5-6.7-7-10.8c-0.5-1.3-1.1-2.7-1.6-4c-0.3-0.8-0.3-1.4,0.9-1.1c8.5,2,17.1,2.9,25.9,3.4
				c0.9,0,1.5,0.5,2.1,1.1c5.1,4.8,10.5,9.3,15.8,13.8C86.8,154.9,87.3,155.1,87.6,156.2z"/>
			<path class="st3" d="M89.3,183.7c-0.4-0.2-0.7-0.4-1.1-0.7c-5-3.4-9.6-7.3-14.4-11.1c-0.8-0.6-0.6-1.1,0-1.6
				c4.9-4.2,9.8-8.5,14.7-12.8c0.5-0.5,0.9-0.4,1.4,0c4.9,4.3,9.8,8.5,14.7,12.8c0.6,0.5,0.8,0.9,0.1,1.5
				c-4.9,3.9-9.7,7.9-14.8,11.4C89.8,183.4,89.6,183.5,89.3,183.7z"/>
			<path class="st3" d="M71.5,139.9c11.9,0,23.5,0,35.4,0c-1.2,1.7-2.9,2.5-4.2,3.6c-4.1,3.4-8.2,6.7-12.3,10.1
				c-0.6,0.5-1,1-1.9,0.3c-5.3-4.6-10.8-8.9-16.3-13.2C72.1,140.6,72,140.4,71.5,139.9z"/>
			<path class="st3" d="M130.3,153.6c-1.8,4.4-3.5,8.4-5.3,12.5c-1.8,3.9-3.6,7.8-5.5,11.7c-1.3,2.7-1.3,2.6-3.5,0.6
				c-2.1-2-4.2-3.9-6.4-5.8c-0.8-0.7-0.9-1.1,0-1.9c6.6-5.5,13.2-11.1,19.8-16.7C129.6,153.9,129.8,153.9,130.3,153.6z"/>
			<path class="st3" d="M49,154.1c6.7,5.6,13.3,11.2,20,16.7c0.6,0.5,0.6,1,0,1.5c-2.6,2.4-5.2,4.7-7.7,7.1
				c-0.9,0.9-1.3,0.1-1.6-0.5c-1.3-2.7-2.7-5.5-3.9-8.3c-2.2-4.9-4.3-9.8-6.5-14.7c-0.2-0.5-0.3-1.1-0.5-1.6
				C48.8,154.3,48.9,154.2,49,154.1z"/>
			<path class="st3" d="M87.4,184.8c-3.9,0.5-7.7-0.1-11.5-0.4c-4.2-0.4-8.3-1-12.4-2c-0.7-0.2-1.6-0.2-1.8-0.9
				c-0.3-0.8,0.7-1.1,1.1-1.5c2.2-2,4.5-4,6.7-6c1.1-1,1.9-1.2,3.1-0.1c3.5,3.1,7.2,5.8,11,8.5C84.8,183.2,86.1,184,87.4,184.8z"/>
			<path class="st3" d="M90.8,185.1c5.8-3.7,10.9-7.6,15.8-11.8c0.8-0.7,1.3-0.3,1.9,0.2c2.5,2.2,5,4.4,7.4,6.6
				c0.4,0.4,1.1,0.6,1,1.3c-0.1,0.7-1,0.7-1.5,0.9c-5,1.3-10.1,2-15.2,2.3C97.2,184.8,94.2,185.5,90.8,185.1z"/>
			<path class="st3" d="M48.7,154.4c-0.3-0.1-0.4-0.4-0.2-0.6c0.3-0.2,0.3,0.2,0.5,0.3C48.9,154.2,48.8,154.3,48.7,154.4z"/>
			<path class="st3" d="M88.7,125.5c-4.1,0.3-8.6-1.4-11.4-6.5c-1.3-2.3-1.7-4.8-1.4-7.4c0.2-2,1.4-3.2,3.3-3
				c4.6,0.6,9.1,0.1,13.7,0.3c1.8,0.1,3.6-0.2,5.4-0.4c3-0.3,4.2,0.8,4.3,3.8C102.9,120,97.8,125.4,88.7,125.5z"/>
			<path class="st3" d="M116.7,104.7c0,1.8,0,3.5-0.5,5.2c-0.4,1.4-1.1,2.5-2.8,2.6c-1.6,0-2-1-2.6-2.3c-1.5-3.7-1.4-7.6-1-11.4
				c0.1-0.7,0.3-1.4,0.6-1.9c1.1-2,3.3-2.1,4.7-0.3c1.2,1.7,1.4,3.7,1.5,5.7C116.8,103.1,116.7,103.9,116.7,104.7z"/>
			<path class="st3" d="M61.9,103.1c0.1-1.5-0.1-3.8,1.1-6c0.6-1.2,1.4-2.1,2.9-1.9c1.4,0.1,2.2,1.1,2.5,2.2c1,4.7,1,9.3-1.1,13.7
				c-0.5,1-1.4,1.4-2.5,1.2c-1.3-0.2-2-1.1-2.3-2.2C61.8,108.2,61.8,106.1,61.9,103.1z"/>
		</g>
		<g>
			<path class="st3" d="M89.2,190.5c-8.1-0.4-16.2-1-24.2-2.5c-4.5-0.9-7.9-3-10-7.6c-3.9-8.9-7.9-17.7-11.4-26.7
				c-2.3-5.9-4.6-11.7-6.2-17.9c-0.2-0.6-0.5-1-1.1-1.2c-4.7-1.4-6.5-5.4-7.7-9.5c-3.4-12.1-0.4-22.6,8.5-31.4
				c1.4-1.4,3.2-2.4,4.9-3.4c0.5-0.3,1-0.6,0.4-1.2c-4.6-4.7-4.6-10.4-3.3-16.2c1.6-7.7,6.5-13,13.2-16.7c3.9-2.2,7.9-4.1,11.8-6.1
				c3.6-1.8,5.3-4.6,5.3-8.7c-0.1-3.9,0.4-7.7,1.2-11.6c1.3-6.1,4.8-10.5,10-13.7c8.9-5.5,18.7-8.8,28.9-11.1c0.6-0.1,1.3-0.1,1.9,0
				c0.6,0.1,1.2,0.5,1.3,1.2c0.1,0.7-0.4,1-1,1.4c-5.1,3.2-8.9,7.7-10.7,13.5c-0.9,2.9,0.1,5.4,2.4,7.4c3.5,3.1,7.7,5.1,11.7,7.5
				c7.6,4.5,14.8,9.7,20.2,16.9c4.2,5.7,6.4,12,6.6,19.2c0.2,6.2-2.1,11.3-4.8,16.5c-0.7,1.3-0.5,1.9,0.7,2.6
				c7.4,4.5,11.2,11.4,12.8,19.7c1.2,6.4,0.7,12.7-2.7,18.5c-1.3,2.2-2.6,4.4-5.4,5c-0.8,0.2-1.2,0.8-1.4,1.6
				c-2.6,9.3-6.2,18.2-10,27.1c-2.5,5.9-5.2,11.7-7.7,17.5c-1.7,3.9-4.5,6-8.4,7c-4.2,1.1-8.5,1.6-12.8,1.9
				C97.8,189.9,93.6,190.8,89.2,190.5z M49,154.1c-0.1-0.2-0.2-0.5-0.5-0.3c-0.2,0.2-0.1,0.4,0.2,0.6c0.2,0.5,0.3,1.1,0.5,1.6
				c2.1,4.9,4.3,9.8,6.5,14.7c1.3,2.8,2.6,5.5,3.9,8.3c0.3,0.6,0.7,1.4,1.6,0.5c2.5-2.4,5.1-4.8,7.7-7.1c0.6-0.6,0.6-1,0-1.5
				C62.3,165.3,55.7,159.7,49,154.1z M60.3,88.3c-0.9,0.8-1.9,1.1-2.9,1.4c-3.7,1.1-7.4,1.7-11,3.1c-12.6,4.8-18.3,21.6-13.4,33.3
				c1,2.4,2.3,5,5,5.7c5,1.5,10.3,2.3,15.5,2.9c14.8,1.7,29.5,2.6,44.4,2c13.4-0.5,26.6-1.5,39.7-4.1c3.1-0.6,5.5-2.1,6.9-5
				c2.5-5,3.2-10.2,2-15.7c-2.2-10.1-7.5-17.3-17.9-20.2c-3-0.8-5.9-1.6-8.9-2.5c-0.6-0.2-1.6-0.3-1.5-1.1c0.1-0.6,1-0.6,1.6-0.6
				c3.7-0.4,7.4-0.4,11,0.8c1.7,0.6,2.6,0.2,3.2-1.5c0.6-1.7,1.4-3.2,2-4.9c3.7-10.3,2.2-19.6-4.7-28.2
				c-5.3-6.6-12.1-11.2-19.2-15.4c-3.9-2.3-7.9-4.3-11.3-7.4c-3.3-3.1-4.5-6.8-3.1-11.2c1.2-3.8,3.6-6.8,6.3-9.7
				c0.7-0.7,1.6-1.3,2-2.4c-0.3,0-0.5-0.1-0.6,0c-7.9,3.6-16,6.8-23.4,11.4c-5,3.1-7.7,7.6-8.6,13.5c-0.5,3.6-0.5,7.2-0.8,10.9
				c-0.3,3.8-2,6.5-5.1,8.5c-1.3,0.8-2.6,1.6-3.9,2.3c-3.9,2-8,3.6-11.6,6.1C45.4,64.7,41.5,71,41.6,79.3c0,3,0.6,5.9,3,8
				c0.8,0.7,1.7,1.3,2.9,0.9c3.2-1.1,6.4-1.1,9.7-0.9C58.2,87.5,59.3,87.5,60.3,88.3z M107.3,169.7c0.3-0.2,0.6-0.5,0.9-0.7
				c7.2-6.1,14.5-12.2,21.6-18.3c1-0.8,2.3-1.5,2.8-2.8c1.5-3.5,2.9-7.1,4.2-10.6c0.3-0.9,0.2-1.3-0.9-1.1c-8.4,2-17,2.9-25.7,3.4
				c-0.9,0-1.6,0.3-2.2,0.9c-5.2,5-10.7,9.6-16.3,14.2c-0.9,0.8-0.9,1.2,0,2c4.7,4.1,9.5,8.2,14.2,12.3
				C106.4,169.3,106.6,169.7,107.3,169.7z M87.6,156.2c-0.3-1-0.8-1.3-1.2-1.7c-5.4-4.5-10.7-9.1-15.8-13.8c-0.6-0.6-1.2-1-2.1-1.1
				c-8.7-0.4-17.3-1.4-25.9-3.4c-1.2-0.3-1.2,0.3-0.9,1.1c0.5,1.4,1.1,2.7,1.6,4c1.6,4.1,3.4,7.8,7,10.8
				c6.8,5.6,13.6,11.3,20.2,17.1c0.7,0.6,1.2,0.6,1.9,0c4.8-4.3,9.7-8.5,14.6-12.7C87.2,156.3,87.5,156.2,87.6,156.2z M89.3,183.7
				c0.3-0.2,0.5-0.3,0.7-0.4c5.2-3.5,10-7.5,14.8-11.4c0.7-0.6,0.5-1-0.1-1.5c-4.9-4.3-9.8-8.5-14.7-12.8c-0.5-0.5-0.9-0.5-1.4,0
				c-4.9,4.3-9.8,8.5-14.7,12.8c-0.6,0.5-0.8,1,0,1.6c4.8,3.7,9.4,7.7,14.4,11.1C88.6,183.3,88.9,183.5,89.3,183.7z M71.5,139.9
				c0.4,0.5,0.5,0.7,0.7,0.8c5.6,4.2,11,8.6,16.3,13.2c0.9,0.8,1.3,0.2,1.9-0.3c4.1-3.4,8.3-6.7,12.3-10.1c1.3-1.1,3-1.9,4.2-3.6
				C95,139.9,83.5,139.9,71.5,139.9z M130.3,153.6c-0.5,0.2-0.7,0.3-0.8,0.4c-6.6,5.6-13.2,11.2-19.8,16.7c-0.9,0.8-0.8,1.2,0,1.9
				c2.1,1.9,4.3,3.9,6.4,5.8c2.1,2,2.2,2.1,3.5-0.6c1.9-3.9,3.7-7.8,5.5-11.7C126.8,162.1,128.5,158,130.3,153.6z M87.4,184.8
				c-1.2-0.8-2.5-1.6-3.7-2.5c-3.8-2.7-7.5-5.4-11-8.5c-1.2-1.1-2-0.9-3.1,0.1c-2.2,2.1-4.5,4-6.7,6c-0.5,0.4-1.4,0.8-1.1,1.5
				c0.2,0.6,1.1,0.7,1.8,0.9c4.1,1,8.2,1.6,12.4,2C79.7,184.7,83.4,185.3,87.4,184.8z M90.8,185.1c3.5,0.4,6.4-0.3,9.4-0.5
				c5.1-0.4,10.2-1,15.2-2.3c0.6-0.1,1.4-0.2,1.5-0.9c0.1-0.6-0.6-0.9-1-1.3c-2.5-2.2-5-4.4-7.4-6.6c-0.6-0.5-1-0.9-1.9-0.2
				C101.7,177.5,96.6,181.4,90.8,185.1z"/>
			<path class="st3" d="M35.2,34.6c1.1,0,2.8,0.9,3.7,0c1-1-0.1-2.6-0.2-3.9c-0.2-2.6-0.5-5.1-0.7-7.7c0-0.6-0.4-1.5,0.4-1.9
				c0.6-0.3,1.1,0.4,1.6,0.7c2.8,2.1,5.4,4.5,7.8,7c1.1,1.1,1.6,0.9,2.2-0.3c0.4-0.8,0.9-1.5,1.4-2.2c1.6-2.6,3.2-2.6,4.6,0.1
				c1.1,2.2,2,4.4,2.9,6.7c1.3,3.4,2.5,6.9,3.7,10.4c0.1,0.2,0.2,0.3,0.2,0.5c0.9,2.6,0.8,3-1.8,4c-5.1,2-9.9,4.5-14.5,7.4
				c-1.4,0.9-2.1,0.5-2.9-0.6c-1.1-1.5-2.4-2.9-3.4-4.5c-2.6-4-5.5-7.8-7.7-12C31.1,35.6,31.8,34.4,35.2,34.6z"/>
			<path class="st3" d="M60.3,88.3c-1.1-0.8-2.1-0.8-3.2-0.9c-3.3-0.2-6.5-0.2-9.7,0.9c-1.2,0.4-2.1-0.2-2.9-0.9c-2.4-2.2-3-5.1-3-8
				c-0.1-8.3,3.8-14.6,10.6-19.1c3.7-2.4,7.8-4.1,11.6-6.1c1.3-0.7,2.6-1.4,3.9-2.3c3.1-2,4.8-4.7,5.1-8.5c0.2-3.6,0.2-7.2,0.8-10.9
				c0.9-5.8,3.6-10.3,8.6-13.5c7.4-4.6,15.5-7.9,23.4-11.4c0.1-0.1,0.4,0,0.6,0c-0.4,1.1-1.3,1.7-2,2.4c-2.7,2.9-5.1,5.9-6.3,9.7
				c-1.4,4.4-0.3,8.1,3.1,11.2c3.3,3.1,7.4,5.1,11.3,7.4c7.1,4.2,13.9,8.9,19.2,15.4c6.9,8.6,8.4,17.9,4.7,28.2
				c-0.6,1.6-1.4,3.2-2,4.9c-0.6,1.7-1.5,2.1-3.2,1.5c-3.6-1.3-7.3-1.2-11-0.8c-0.6,0.1-1.5,0-1.6,0.6c-0.1,0.8,0.9,0.9,1.5,1.1
				c2.9,0.9,5.9,1.7,8.9,2.5c10.4,2.8,15.7,10.1,17.9,20.2c1.2,5.5,0.5,10.7-2,15.7c-1.4,2.9-3.8,4.4-6.9,5
				c-13.1,2.7-26.4,3.6-39.7,4.1c-14.9,0.6-29.7-0.3-44.4-2c-5.2-0.6-10.4-1.4-15.5-2.9c-2.7-0.8-4-3.3-5-5.7
				c-4.9-11.8,0.8-28.5,13.4-33.3c3.6-1.4,7.4-2,11-3.1C58.5,89.4,59.4,89.1,60.3,88.3z M88.7,125.5c9-0.2,14.2-5.5,13.9-13.1
				c-0.1-3-1.3-4-4.3-3.8c-1.8,0.2-3.6,0.5-5.4,0.4c-4.6-0.3-9.1,0.2-13.7-0.3c-2-0.2-3.1,1-3.3,3c-0.3,2.6,0.1,5.1,1.4,7.4
				C80.2,124.1,84.6,125.9,88.7,125.5z M116.7,104.7c0-0.8,0-1.6,0-2.4c-0.1-2-0.2-4-1.5-5.7c-1.4-1.9-3.6-1.8-4.7,0.3
				c-0.3,0.6-0.6,1.3-0.6,1.9c-0.4,3.9-0.6,7.7,1,11.4c0.5,1.2,1,2.3,2.6,2.3c1.7,0,2.4-1.2,2.8-2.6
				C116.7,108.2,116.8,106.5,116.7,104.7z M61.9,103.1c-0.1,2.9-0.1,5.1,0.6,7.1c0.3,1.1,1,2,2.3,2.2c1.1,0.1,2-0.2,2.5-1.2
				c2-4.4,2.1-9.1,1.1-13.7c-0.3-1.2-1.1-2.1-2.5-2.2c-1.5-0.1-2.3,0.8-2.9,1.9C61.8,99.3,62,101.7,61.9,103.1z"/>
			<path class="st3" d="M107.3,169.7c-0.6,0-0.9-0.4-1.2-0.7c-4.7-4.1-9.4-8.2-14.2-12.3c-0.9-0.8-1-1.2,0-2
				c5.5-4.6,11-9.2,16.3-14.2c0.6-0.6,1.3-0.9,2.2-0.9c8.6-0.5,17.2-1.4,25.7-3.4c1.1-0.3,1.3,0.2,0.9,1.1
				c-1.4,3.5-2.8,7.1-4.2,10.6c-0.5,1.3-1.8,1.9-2.8,2.8c-7.2,6.1-14.4,12.2-21.6,18.3C107.9,169.3,107.5,169.5,107.3,169.7z"/>
			<path class="st3" d="M87.6,156.2c-0.1,0-0.4,0.1-0.7,0.3c-4.9,4.2-9.7,8.5-14.6,12.7c-0.7,0.6-1.2,0.6-1.9,0
				c-6.7-5.8-13.4-11.5-20.2-17.1c-3.7-3-5.5-6.7-7-10.8c-0.5-1.3-1.1-2.7-1.6-4c-0.3-0.8-0.3-1.4,0.9-1.1c8.5,2,17.1,2.9,25.9,3.4
				c0.9,0,1.5,0.5,2.1,1.1c5.1,4.8,10.5,9.3,15.8,13.8C86.8,154.9,87.3,155.1,87.6,156.2z"/>
			<path class="st3" d="M89.3,183.7c-0.4-0.2-0.7-0.4-1.1-0.7c-5-3.4-9.6-7.3-14.4-11.1c-0.8-0.6-0.6-1.1,0-1.6
				c4.9-4.2,9.8-8.5,14.7-12.8c0.5-0.5,0.9-0.4,1.4,0c4.9,4.3,9.8,8.5,14.7,12.8c0.6,0.5,0.8,0.9,0.1,1.5
				c-4.9,3.9-9.7,7.9-14.8,11.4C89.8,183.4,89.6,183.5,89.3,183.7z"/>
			<path class="st3" d="M71.5,139.9c11.9,0,23.5,0,35.4,0c-1.2,1.7-2.9,2.5-4.2,3.6c-4.1,3.4-8.2,6.7-12.3,10.1
				c-0.6,0.5-1,1-1.9,0.3c-5.3-4.6-10.8-8.9-16.3-13.2C72.1,140.6,72,140.4,71.5,139.9z"/>
			<path class="st3" d="M130.3,153.6c-1.8,4.4-3.5,8.4-5.3,12.5c-1.8,3.9-3.6,7.8-5.5,11.7c-1.3,2.7-1.3,2.6-3.5,0.6
				c-2.1-2-4.2-3.9-6.4-5.8c-0.8-0.7-0.9-1.1,0-1.9c6.6-5.5,13.2-11.1,19.8-16.7C129.6,153.9,129.8,153.9,130.3,153.6z"/>
			<path class="st3" d="M49,154.1c6.7,5.6,13.3,11.2,20,16.7c0.6,0.5,0.6,1,0,1.5c-2.6,2.4-5.2,4.7-7.7,7.1
				c-0.9,0.9-1.3,0.1-1.6-0.5c-1.3-2.7-2.7-5.5-3.9-8.3c-2.2-4.9-4.3-9.8-6.5-14.7c-0.2-0.5-0.3-1.1-0.5-1.6
				C48.8,154.3,48.9,154.2,49,154.1z"/>
			<path class="st3" d="M87.4,184.8c-3.9,0.5-7.7-0.1-11.5-0.4c-4.2-0.4-8.3-1-12.4-2c-0.7-0.2-1.6-0.2-1.8-0.9
				c-0.3-0.8,0.7-1.1,1.1-1.5c2.2-2,4.5-4,6.7-6c1.1-1,1.9-1.2,3.1-0.1c3.5,3.1,7.2,5.8,11,8.5C84.8,183.2,86.1,184,87.4,184.8z"/>
			<path class="st3" d="M90.8,185.1c5.8-3.7,10.9-7.6,15.8-11.8c0.8-0.7,1.3-0.3,1.9,0.2c2.5,2.2,5,4.4,7.4,6.6
				c0.4,0.4,1.1,0.6,1,1.3c-0.1,0.7-1,0.7-1.5,0.9c-5,1.3-10.1,2-15.2,2.3C97.2,184.8,94.2,185.5,90.8,185.1z"/>
			<path class="st3" d="M48.7,154.4c-0.3-0.1-0.4-0.4-0.2-0.6c0.3-0.2,0.3,0.2,0.5,0.3C48.9,154.2,48.8,154.3,48.7,154.4z"/>
			<path class="st3" d="M88.7,125.5c-4.1,0.3-8.6-1.4-11.4-6.5c-1.3-2.3-1.7-4.8-1.4-7.4c0.2-2,1.4-3.2,3.3-3
				c4.6,0.6,9.1,0.1,13.7,0.3c1.8,0.1,3.6-0.2,5.4-0.4c3-0.3,4.2,0.8,4.3,3.8C102.9,120,97.8,125.4,88.7,125.5z"/>
			<path class="st3" d="M116.7,104.7c0,1.8,0,3.5-0.5,5.2c-0.4,1.4-1.1,2.5-2.8,2.6c-1.6,0-2-1-2.6-2.3c-1.5-3.7-1.4-7.6-1-11.4
				c0.1-0.7,0.3-1.4,0.6-1.9c1.1-2,3.3-2.1,4.7-0.3c1.2,1.7,1.4,3.7,1.5,5.7C116.8,103.1,116.7,103.9,116.7,104.7z"/>
			<path class="st3" d="M61.9,103.1c0.1-1.5-0.1-3.8,1.1-6c0.6-1.2,1.4-2.1,2.9-1.9c1.4,0.1,2.2,1.1,2.5,2.2c1,4.7,1,9.3-1.1,13.7
				c-0.5,1-1.4,1.4-2.5,1.2c-1.3-0.2-2-1.1-2.3-2.2C61.8,108.2,61.8,106.1,61.9,103.1z"/>
		</g>
	</g>
	<g>
		<g>
			<path class="st3" d="M161,123.2v-7.6l11.6-3.1l-2.1,3.1V45.2l2.6,3.2L161,45.4v-7.6l34.2-0.6v7.6l-11.9,3.6l2.3-3.3v31.4
				l-2.5-2.5h42.7l-2.3,2.5V45.2l2.3,3.2L214,45.4v-7.6l34.1-0.6v7.6l-11.6,3.6l2.1-3.3v70.6l-2.1-3.1l11.6,3.1v7.6H214v-7.6
				l11.5-3.1l-2,3.1V82.4l2.3,2.5h-42.7l2.5-2.5v33.2l-2-3.1l11.5,3.1v7.6H161z"/>
			<path class="st3" d="M312.3,101.2h8.9l-0.1,22.1h-63.3v-7.6l11.6-3.1l-2.1,3.1V45.2l2.1,3.1l-11.6-2.8v-7.6l24.4-0.6h37.5v21.2
				h-9.1l-2.3-12.5l2.9,2.2h-31.3l2.5-2.5v30.9l-2.5-2.5h30.3v10.5h-30.3l2.5-2.7v32.9l-2.5-2.5h32.7l-2.9,2.5L312.3,101.2z"/>
			<path class="st3" d="M384.5,98.6h8.9v24.6H333v-7.6l11.4-2.9l-1.8,2.9V45.2l1.8,2.9L333,45.4v-7.6l35.2-0.6v7.6L356,48.1l1.7-2.9
				v69.6l-2.5-2.5H384l-2.2,2.5L384.5,98.6z"/>
			<path class="st3" d="M476.2,116l-4-3.6l10.9,3.2v7.6H449v-7.6l11.4-2.9l-1.5,2.2l-5.5-17.2l2.5,2h-34.1l2-1.8l-5.9,16.8l-0.5-1.6
				l10.7,2.6v7.6h-31.4v-7.6l10.5-3.1l-3.4,3.1l29.3-78.2l15.3-0.5L476.2,116z M425.7,91.2l-1.1-2.1h28.7l-1.5,2.5L438,45.4l3.4,0.1
				L425.7,91.2z"/>
			<path class="st3" d="M526.5,37.2c5.8,0,11.1,0.9,15.9,2.6c4.8,1.7,8.9,4.3,12.3,7.8c3.4,3.5,6.1,7.8,8,13
				c1.9,5.2,2.8,11.3,2.8,18.2c0,9.7-1.7,17.9-5.2,24.5c-3.5,6.6-8.3,11.6-14.5,15c-6.2,3.4-13.4,5.1-21.7,5.1h-35.6v-7.6l11.8-3.1
				l-2.2,3.1V45.2l2.3,3.2l-11.9-2.9v-7.6l26.2-0.6H526.5z M524.8,112.3c3,0,6-0.5,8.8-1.4c2.9-0.9,5.5-2.6,7.8-4.9
				c2.4-2.3,4.3-5.6,5.7-9.9c1.4-4.2,2.1-9.7,2.1-16.4c0-6.5-0.7-11.9-2-16c-1.3-4.1-3.1-7.3-5.4-9.6c-2.2-2.2-4.7-3.8-7.5-4.7
				c-2.7-0.9-5.5-1.3-8.4-1.3h-15.3l2.5-2.5v69.1l-2.5-2.5H524.8z"/>
			<path class="st3" d="M614.6,124.6c-7.5,0-14.1-1.6-19.7-4.9c-5.6-3.3-10-8.1-13.2-14.6c-3.1-6.5-4.7-14.4-4.7-23.9
				c0-7.5,1-14.1,2.9-19.8c2-5.7,4.7-10.4,8.3-14.2c3.6-3.8,7.8-6.6,12.7-8.5c4.9-1.9,10.2-2.8,16.1-2.8c5.7,0,10.9,0.9,15.6,2.8
				s8.7,4.6,12.1,8.2c3.4,3.6,6,8.1,8,13.4c1.9,5.3,2.9,11.5,2.9,18.5c0,9.6-1.7,17.9-5.2,24.7c-3.5,6.8-8.3,12.1-14.4,15.8
				S622.8,124.6,614.6,124.6z M615.7,112.9c4.4,0,8.4-1.1,12-3.3c3.6-2.2,6.4-5.8,8.6-10.7c2.2-4.9,3.2-11.4,3.2-19.6
				c0-7.6-1-13.7-3-18.4c-2-4.7-4.7-8.1-8.2-10.2c-3.4-2.1-7.4-3.2-12-3.2c-4.3,0-8.3,1.1-11.8,3.2c-3.6,2.1-6.3,5.6-8.3,10.5
				c-2,4.9-3,11.4-3,19.6c0,7.6,0.9,13.8,2.8,18.5c1.9,4.7,4.5,8.2,7.9,10.4C607.3,111.8,611.2,112.9,615.7,112.9z"/>
			<path class="st3" d="M689.1,123.2v-7.6l11.6-3.1l-2.1,3.1V45.2l2.8,3.3l-12.4-3.1v-7.6l25.3-0.6h12.7c9.6,0,16.8,2,21.7,6
				c4.9,4,7.4,9.8,7.4,17.3c0,6.9-2.1,12.5-6.3,16.9c-4.2,4.4-10.7,7.1-19.6,8v-1.7c3.2,0.2,5.8,0.7,7.8,1.7c2,1,3.7,2.3,5.1,4
				c1.3,1.7,2.6,3.7,3.9,6.1l9.9,19.5l-4.3-2.7l10.9,3.4v7.6h-18.4l-11.2-23.8c-1.5-3.3-2.8-5.8-4-7.5c-1.2-1.8-2.7-3-4.4-3.7
				c-1.8-0.7-4.2-1-7.4-0.9h-7.1l2.6-2.2v30.5l-2.1-3.1l13,3.1v7.6H689.1z M713.8,80.6l-2.6-3.8h10.7c6.2,0,10.9-1.3,14.2-3.9
				c3.2-2.6,4.8-6.4,4.8-11.3c0-4.3-1.3-7.7-3.9-10.1c-2.6-2.4-6.5-3.6-11.8-3.6h-14l2.6-2.3V80.6z"/>
			<path class="st3" d="M825,101.2h8.9l-0.1,22.1h-63.3v-7.6l11.6-3.1l-2.1,3.1V45.2l2.1,3.1l-11.6-2.8v-7.6l24.4-0.6h37.5v21.2
				h-9.1L821,45.9l2.9,2.2h-31.3l2.5-2.5v30.9l-2.5-2.5H823v10.5h-30.3l2.5-2.7v32.9l-2.5-2.5h32.7l-2.9,2.5L825,101.2z"/>
			<path class="st3" d="M920.7,116l-4-3.6l10.9,3.2v7.6h-34.1v-7.6l11.4-2.9l-1.5,2.2l-5.5-17.2l2.5,2h-34.1l2-1.8l-5.9,16.8
				l-0.5-1.6l10.7,2.6v7.6h-31.4v-7.6l10.5-3.1l-3.4,3.1l29.3-78.2l15.3-0.5L920.7,116z M870.2,91.2l-1.1-2.1h28.7l-1.5,2.5
				l-13.9-46.2l3.4,0.1L870.2,91.2z"/>
			<path class="st3" d="M984.5,98.6h8.9v24.6H933v-7.6l11.4-2.9l-1.8,2.9V45.2l1.8,2.9L933,45.4v-7.6l35.2-0.6v7.6l-12.3,3.3
				l1.7-2.9v69.6l-2.5-2.5H984l-2.2,2.5L984.5,98.6z"/>
		</g>
	</g>
	<g>
		<g>
			<path class="st3" d="M191.3,177.2l-1.7-1.6l4.6,1.4v3.4h-14.4V177l4.8-1.3l-0.6,1l-2.3-7.8l1,0.9h-14.4l0.8-0.8l-2.5,7.6
				l-0.2-0.7l4.5,1.2v3.4h-13.3V177l4.5-1.4l-1.5,1.4l12.4-35.4l6.5-0.2L191.3,177.2z M169.9,166l-0.5-0.9h12.1l-0.6,1.1l-5.9-20.9
				l1.5,0.1L169.9,166z"/>
			<path class="st3" d="M217.4,141.8l14.4-0.3v3.4l-4.8,1.6l0.7-1.7v20.6c0,1.7-0.1,3.3-0.4,4.9c-0.3,1.6-0.8,3-1.4,4.3
				c-0.7,1.3-1.6,2.4-2.6,3.4c-1.1,1-2.5,1.7-4.1,2.2c-1.6,0.5-3.6,0.8-5.8,0.8c-2.8,0-5-0.4-6.8-1.1s-3.1-1.7-4.1-2.9
				s-1.7-2.5-2.1-3.8c-0.4-1.4-0.7-2.7-0.8-3.9c-0.1-1.3-0.1-2.3-0.1-3.2v-21.3l0.7,1.7l-4.8-1.2v-3.4l14.4-0.3v3.4l-4.7,1.6
				l0.7-1.7v21.3c0,1,0,1.9,0.1,2.9c0.1,0.9,0.3,1.8,0.5,2.6c0.3,0.8,0.7,1.5,1.2,2.2c0.6,0.6,1.3,1.1,2.2,1.5
				c0.9,0.4,2.1,0.5,3.6,0.5c1.5,0,2.7-0.2,3.7-0.6c0.9-0.4,1.7-0.9,2.3-1.6c0.6-0.7,1-1.5,1.3-2.4c0.3-0.9,0.5-1.8,0.5-2.8
				c0.1-1,0.1-2,0.1-3v-20.6l0.6,1.6l-4.7-1.1V141.8z"/>
			<path class="st3" d="M240.7,180.4V177l5.9-1.4l-1.2,1.7v-31.9l1.3,1.1h-9l1.4-1.3l-1.2,7H234v-10.6H263v10.6h-3.8l-1.2-6.8
				l1.4,1.1h-9l1.3-1.1v31.9l-1.1-1.7l5.8,1.4v3.4H240.7z"/>
			<path class="st3" d="M289.2,170.5h3.8l-0.1,10h-26.7V177l4.9-1.4l-0.9,1.4v-31.9l0.9,1.4l-4.9-1.3v-3.4l10.3-0.3h15.8v9.6h-3.8
				l-1-5.7l1.2,1h-13.2l1-1.1v14l-1-1.1h12.8v4.8h-12.8l1-1.2v14.9l-1-1.1h13.8l-1.2,1.1L289.2,170.5z"/>
			<path class="st3" d="M321.4,141.8l13.4-0.3v3.4l-5,1.6l0.9-1.5v35.4h-7.3l-17-31.7l0.9-0.1V177l-1-1.4l5,1.4v3.4h-13.4V177l5-1.4
				l-1,1.4v-31.9l0.7,1.3l-4.7-1.2v-3.4l11.6-0.3l16.8,31.2h-0.9v-27.6l1,1.4l-5-1.3V141.8z"/>
			<path class="st3" d="M344,180.4V177l5.9-1.4l-1.2,1.7v-31.9l1.3,1.1h-9l1.4-1.3l-1.2,7h-3.8v-10.6h28.9v10.6h-3.8l-1.2-6.8
				l1.4,1.1h-9l1.3-1.1v31.9l-1.1-1.7l5.8,1.4v3.4H344z"/>
			<path class="st3" d="M384,145l-4.8,1.6l0.7-1.1v31.3l-0.7-1l4.8,1.3v3.4h-14.4V177l4.7-1.3l-0.7,1v-31.3l0.9,1.1l-4.9-1.3v-3.4
				l14.4-0.3V145z"/>
			<path class="st3" d="M403.8,181c-2.8,0-5.4-0.7-7.7-2.2s-4.2-3.7-5.6-6.7c-1.4-3-2.1-6.6-2.1-10.9c0-4.2,0.7-7.9,2-10.9
				c1.4-3,3.3-5.4,5.8-7c2.5-1.6,5.4-2.4,8.7-2.4c1.8,0,3.6,0.2,5.5,0.7c1.9,0.5,3.9,1.2,6,2.1l-0.4,9.6h-3.8l-1.1-6.7l1.1,1.2
				c-1.3-0.6-2.5-1-3.7-1.2s-2.3-0.4-3.3-0.4c-2.1,0-3.9,0.6-5.4,1.7c-1.5,1.1-2.6,2.8-3.4,4.9c-0.8,2.1-1.2,4.6-1.2,7.6
				c0,3.4,0.4,6.2,1.3,8.4c0.9,2.3,2.1,3.9,3.6,5.1c1.5,1.1,3.3,1.7,5.2,1.7c1.4,0,2.9-0.3,4.5-1c1.6-0.6,3.2-1.7,4.7-3l2.4,4
				c-2.1,1.8-4.3,3.2-6.6,4.2C408.2,180.6,406,181,403.8,181z"/>
			<path class="st3" d="M437.4,181c-3.2,0-6-0.7-8.3-2.2c-2.4-1.5-4.2-3.7-5.6-6.6s-2-6.5-2-10.8c0-3.4,0.4-6.4,1.2-9s2-4.7,3.5-6.4
				c1.5-1.7,3.3-3,5.4-3.9c2.1-0.8,4.3-1.3,6.8-1.3c2.4,0,4.6,0.4,6.6,1.2c2,0.8,3.7,2.1,5.1,3.7c1.4,1.6,2.6,3.6,3.4,6
				c0.8,2.4,1.2,5.2,1.2,8.4c0,4.4-0.7,8.1-2.2,11.2c-1.5,3.1-3.5,5.5-6.1,7.1C443.9,180.2,440.9,181,437.4,181z M437.9,175.8
				c1.9,0,3.5-0.5,5-1.5c1.5-1,2.7-2.6,3.6-4.8c0.9-2.2,1.4-5.2,1.4-8.9c0-3.4-0.4-6.2-1.3-8.3c-0.8-2.1-2-3.7-3.4-4.6
				s-3.1-1.4-5.1-1.4c-1.8,0-3.5,0.5-5,1.4s-2.7,2.5-3.5,4.7c-0.8,2.2-1.3,5.1-1.3,8.8c0,3.4,0.4,6.2,1.2,8.4
				c0.8,2.1,1.9,3.7,3.3,4.7C434.3,175.3,436,175.8,437.9,175.8z"/>
			<path class="st3" d="M468.9,180.4V177l4.9-1.4l-0.9,1.4v-31.9l1.1,1.4l-5.1-1.3v-3.4l14.4-0.3v3.4l-5,1.6l1-1.5v14.2l-1-1.1h18
				l-1,1.1v-14.1l1,1.4l-5-1.3v-3.4l14.4-0.3v3.4l-4.9,1.6l0.9-1.5V177l-0.9-1.4l4.9,1.4v3.4h-14.4V177l4.9-1.4l-0.8,1.4v-15l1,1.1
				h-18l1-1.1v15l-0.8-1.4l4.9,1.4v3.4H468.9z"/>
			<path class="st3" d="M532.8,170.5h3.8l-0.1,10h-26.7V177l4.9-1.4l-0.9,1.4v-31.9l0.9,1.4l-4.9-1.3v-3.4l10.3-0.3H536v9.6h-3.8
				l-1-5.7l1.2,1h-13.2l1-1.1v14l-1-1.1H532v4.8h-12.8l1-1.2v14.9l-1-1.1H533l-1.2,1.1L532.8,170.5z"/>
			<path class="st3" d="M563.3,169.3h3.8v11.1h-25.5V177l4.8-1.3l-0.8,1.3v-31.9l0.8,1.3l-4.8-1.2v-3.4l14.9-0.3v3.4l-5.2,1.5
				l0.7-1.3v31.5l-1-1.1h12.2l-0.9,1.1L563.3,169.3z"/>
			<path class="st3" d="M602,177.2l-1.7-1.6l4.6,1.4v3.4h-14.4V177l4.8-1.3l-0.6,1l-2.3-7.8l1,0.9H579l0.8-0.8l-2.5,7.6l-0.2-0.7
				l4.5,1.2v3.4h-13.3V177l4.5-1.4l-1.5,1.4l12.4-35.4l6.5-0.2L602,177.2z M580.7,166l-0.5-0.9h12.1l-0.6,1.1l-5.9-20.9l1.4,0.1
				L580.7,166z"/>
			<path class="st3" d="M623.3,141.5c2.5,0,4.7,0.4,6.7,1.2c2,0.8,3.8,2,5.2,3.5c1.5,1.6,2.6,3.5,3.4,5.9c0.8,2.3,1.2,5.1,1.2,8.2
				c0,4.4-0.7,8.1-2.2,11.1c-1.5,3-3.5,5.2-6.1,6.8s-5.7,2.3-9.2,2.3h-15V177l5-1.4l-0.9,1.4v-31.9l1,1.4l-5-1.3v-3.4l11.1-0.3
				H623.3z M622.5,175.5c1.3,0,2.5-0.2,3.7-0.6c1.2-0.4,2.3-1.2,3.3-2.2s1.8-2.5,2.4-4.5c0.6-1.9,0.9-4.4,0.9-7.4
				c0-3-0.3-5.4-0.9-7.2c-0.6-1.9-1.3-3.3-2.3-4.3s-2-1.7-3.2-2.1c-1.2-0.4-2.3-0.6-3.5-0.6h-6.5l1-1.1v31.3l-1-1.1H622.5z"/>
			<path class="st3" d="M660.5,181c-3.2,0-6-0.7-8.3-2.2c-2.4-1.5-4.2-3.7-5.6-6.6s-2-6.5-2-10.8c0-3.4,0.4-6.4,1.2-9s2-4.7,3.5-6.4
				c1.5-1.7,3.3-3,5.4-3.9c2.1-0.8,4.3-1.3,6.8-1.3c2.4,0,4.6,0.4,6.6,1.2c2,0.8,3.7,2.1,5.1,3.7c1.4,1.6,2.6,3.6,3.4,6
				c0.8,2.4,1.2,5.2,1.2,8.4c0,4.4-0.7,8.1-2.2,11.2c-1.5,3.1-3.5,5.5-6.1,7.1C667,180.2,664,181,660.5,181z M661,175.8
				c1.9,0,3.5-0.5,5-1.5s2.7-2.6,3.6-4.8c0.9-2.2,1.4-5.2,1.4-8.9c0-3.4-0.4-6.2-1.3-8.3s-2-3.7-3.4-4.6c-1.5-1-3.1-1.4-5.1-1.4
				c-1.8,0-3.5,0.5-5,1.4s-2.7,2.5-3.5,4.7c-0.8,2.2-1.3,5.1-1.3,8.8c0,3.4,0.4,6.2,1.2,8.4c0.8,2.1,1.9,3.7,3.3,4.7
				C657.4,175.3,659.1,175.8,661,175.8z"/>
			<path class="st3" d="M723.7,177.2l-1.7-1.6l4.6,1.4v3.4h-14.4V177l4.8-1.3l-0.6,1l-2.3-7.8l1,0.9h-14.4l0.8-0.8l-2.5,7.6
				l-0.2-0.7l4.5,1.2v3.4h-13.3V177l4.5-1.4l-1.5,1.4l12.4-35.4l6.5-0.2L723.7,177.2z M702.4,166l-0.5-0.9H714l-0.6,1.1l-5.9-20.9
				l1.4,0.1L702.4,166z"/>
			<path class="st3" d="M728.9,180.4V177l4.9-1.4l-0.9,1.4v-31.9l1.2,1.5l-5.2-1.4v-3.4l10.7-0.3h5.4c4,0,7.1,0.9,9.2,2.7
				c2.1,1.8,3.1,4.4,3.1,7.8c0,3.1-0.9,5.7-2.7,7.7c-1.8,2-4.5,3.2-8.3,3.6v-0.8c1.3,0.1,2.5,0.3,3.3,0.8c0.9,0.4,1.6,1,2.1,1.8
				c0.6,0.8,1.1,1.7,1.6,2.7l4.2,8.8l-1.8-1.2l4.6,1.6v3.4h-7.8l-4.7-10.8c-0.6-1.5-1.2-2.6-1.7-3.4c-0.5-0.8-1.1-1.3-1.9-1.7
				c-0.7-0.3-1.8-0.5-3.1-0.4h-3l1.1-1V177l-0.9-1.4l5.5,1.4v3.4H728.9z M739.3,161.1l-1.1-1.7h4.5c2.6,0,4.6-0.6,6-1.7
				c1.4-1.2,2-2.9,2-5.1c0-2-0.5-3.5-1.6-4.5c-1.1-1.1-2.8-1.6-5-1.6h-5.9l1.1-1.1V161.1z"/>
			<path class="st3" d="M769,180.4V177l5.9-1.4l-1.2,1.7v-31.9l1.3,1.1h-9l1.4-1.3l-1.2,7h-3.8v-10.6h29v10.6h-3.8l-1.2-6.8l1.4,1.1
				h-9l1.3-1.1v31.9l-1.1-1.7l5.8,1.4v3.4H769z"/>
			<path class="st3" d="M817.5,170.5h3.8l-0.1,10h-26.7V177l4.9-1.4l-0.9,1.4v-31.9l0.9,1.4l-4.9-1.3v-3.4l10.3-0.3h15.8v9.6h-3.8
				l-1-5.7l1.2,1h-13.2l1-1.1v14l-1-1.1h12.8v4.8h-12.8l1-1.2v14.9l-1-1.1h13.8l-1.2,1.1L817.5,170.5z"/>
			<path class="st3" d="M833.6,151.2c0,1.2,0.3,2.2,1,2.9c0.7,0.8,1.6,1.4,2.7,1.9s2.4,1,3.7,1.5c1.4,0.5,2.7,1,4,1.5
				s2.6,1.3,3.7,2.1c1.1,0.9,2,1.9,2.7,3.2c0.7,1.3,1,2.9,1,4.9c0,2.7-0.6,4.9-1.9,6.7c-1.3,1.7-3,3-5.2,3.9
				c-2.2,0.9-4.5,1.3-7.1,1.3c-1.8,0-3.6-0.2-5.5-0.6c-1.9-0.4-3.7-1-5.5-1.7l0.3-10.1h3.7l1,6.9l-0.6-1.2c1.1,0.6,2.3,1,3.5,1.2
				c1.2,0.3,2.4,0.4,3.5,0.4c1.4,0,2.7-0.2,3.9-0.6c1.2-0.4,2.1-1.1,2.8-1.9c0.7-0.9,1-1.9,1-3.2c0-1.3-0.3-2.3-1-3.1
				c-0.7-0.8-1.6-1.5-2.7-2c-1.1-0.5-2.4-1-3.7-1.4s-2.7-0.9-4-1.4c-1.3-0.5-2.6-1.2-3.7-2.1c-1.1-0.8-2-1.9-2.7-3.2
				c-0.7-1.3-1-2.9-1-4.9c0-2.5,0.6-4.6,1.7-6.2c1.1-1.6,2.7-2.9,4.7-3.7s4.2-1.2,6.6-1.2c1.7,0,3.5,0.2,5.4,0.6
				c1.9,0.4,3.8,1,5.6,1.8l-0.5,9.4h-3.8l-1-6.3l0.8,0.8c-0.9-0.4-1.9-0.7-3-0.9c-1.1-0.2-2.1-0.3-3.2-0.3c-1.2,0-2.4,0.2-3.5,0.5
				c-1.1,0.4-2,0.9-2.6,1.7C834,148.9,833.6,150,833.6,151.2z"/>
			<path class="st3" d="M889,177.2l-1.7-1.6l4.6,1.4v3.4h-14.4V177l4.8-1.3l-0.6,1l-2.3-7.8l1,0.9h-14.4l0.8-0.8l-2.5,7.6l-0.2-0.7
				l4.5,1.2v3.4h-13.3V177l4.5-1.4l-1.5,1.4l12.4-35.4l6.5-0.2L889,177.2z M867.7,166l-0.5-0.9h12.1l-0.6,1.1l-5.9-20.9l1.4,0.1
				L867.7,166z"/>
			<path class="st3" d="M917.7,141.8l13.4-0.3v3.4l-5,1.6l0.9-1.5v35.4h-7.3l-17-31.7l0.9-0.1V177l-1-1.4l5,1.4v3.4h-13.4V177l5-1.4
				l-1,1.4v-31.9l0.7,1.3l-4.7-1.2v-3.4l11.6-0.3l16.8,31.2h-0.9v-27.6l1,1.4l-5-1.3V141.8z"/>
			<path class="st3" d="M966.3,177.2l-1.7-1.6l4.6,1.4v3.4h-14.4V177l4.8-1.3l-0.6,1l-2.3-7.8l1,0.9h-14.4l0.8-0.8l-2.5,7.6
				l-0.2-0.7l4.5,1.2v3.4h-13.3V177l4.5-1.4l-1.5,1.4l12.4-35.4l6.5-0.2L966.3,177.2z M944.9,166l-0.5-0.9h12.1l-0.6,1.1l-5.9-20.9
				l1.4,0.1L944.9,166z"/>
			<path class="st3" d="M993.2,169.3h3.8v11.1h-25.5V177l4.8-1.3l-0.8,1.3v-31.9l0.8,1.3l-4.8-1.2v-3.4l14.9-0.3v3.4l-5.2,1.5
				l0.7-1.3v31.5l-1-1.1H993l-0.9,1.1L993.2,169.3z"/>
		</g>
	</g>
	<g>
		<g>
			<path class="st4" d="M89.2,190.5c-8.1-0.4-16.2-1-24.2-2.5c-4.5-0.9-7.9-3-10-7.6c-3.9-8.9-7.9-17.7-11.4-26.7
				c-2.3-5.9-4.6-11.7-6.2-17.9c-0.2-0.6-0.5-1-1.1-1.2c-4.7-1.4-6.5-5.4-7.7-9.5c-3.4-12.1-0.4-22.6,8.5-31.4
				c1.4-1.4,3.2-2.4,4.9-3.4c0.5-0.3,1-0.6,0.4-1.2c-4.6-4.7-4.6-10.4-3.3-16.2c1.6-7.7,6.5-13,13.2-16.7c3.9-2.2,7.9-4.1,11.8-6.1
				c3.6-1.8,5.3-4.6,5.3-8.7c-0.1-3.9,0.4-7.7,1.2-11.6c1.3-6.1,4.8-10.5,10-13.7c8.9-5.5,18.7-8.8,28.9-11.1c0.6-0.1,1.3-0.1,1.9,0
				c0.6,0.1,1.2,0.5,1.3,1.2c0.1,0.7-0.4,1-1,1.4c-5.1,3.2-8.9,7.7-10.7,13.5c-0.9,2.9,0.1,5.4,2.4,7.4c3.5,3.1,7.7,5.1,11.7,7.5
				c7.6,4.5,14.8,9.7,20.2,16.9c4.2,5.7,6.4,12,6.6,19.2c0.2,6.2-2.1,11.3-4.8,16.5c-0.7,1.3-0.5,1.9,0.7,2.6
				c7.4,4.5,11.2,11.4,12.8,19.7c1.2,6.4,0.7,12.7-2.7,18.5c-1.3,2.2-2.6,4.4-5.4,5c-0.8,0.2-1.2,0.8-1.4,1.6
				c-2.6,9.3-6.2,18.2-10,27.1c-2.5,5.9-5.2,11.7-7.7,17.5c-1.7,3.9-4.5,6-8.4,7c-4.2,1.1-8.5,1.6-12.8,1.9
				C97.8,189.9,93.6,190.8,89.2,190.5z M49,154.1c-0.1-0.2-0.2-0.5-0.5-0.3c-0.2,0.2-0.1,0.4,0.2,0.6c0.2,0.5,0.3,1.1,0.5,1.6
				c2.1,4.9,4.3,9.8,6.5,14.7c1.3,2.8,2.6,5.5,3.9,8.3c0.3,0.6,0.7,1.4,1.6,0.5c2.5-2.4,5.1-4.8,7.7-7.1c0.6-0.6,0.6-1,0-1.5
				C62.3,165.3,55.7,159.7,49,154.1z M60.3,88.3c-0.9,0.8-1.9,1.1-2.9,1.4c-3.7,1.1-7.4,1.7-11,3.1c-12.6,4.8-18.3,21.6-13.4,33.3
				c1,2.4,2.3,5,5,5.7c5,1.5,10.3,2.3,15.5,2.9c14.8,1.7,29.5,2.6,44.4,2c13.4-0.5,26.6-1.5,39.7-4.1c3.1-0.6,5.5-2.1,6.9-5
				c2.5-5,3.2-10.2,2-15.7c-2.2-10.1-7.5-17.3-17.9-20.2c-3-0.8-5.9-1.6-8.9-2.5c-0.6-0.2-1.6-0.3-1.5-1.1c0.1-0.6,1-0.6,1.6-0.6
				c3.7-0.4,7.4-0.4,11,0.8c1.7,0.6,2.6,0.2,3.2-1.5c0.6-1.7,1.4-3.2,2-4.9c3.7-10.3,2.2-19.6-4.7-28.2
				c-5.3-6.6-12.1-11.2-19.2-15.4c-3.9-2.3-7.9-4.3-11.3-7.4c-3.3-3.1-4.5-6.8-3.1-11.2c1.2-3.8,3.6-6.8,6.3-9.7
				c0.7-0.7,1.6-1.3,2-2.4c-0.3,0-0.5-0.1-0.6,0c-7.9,3.6-16,6.8-23.4,11.4c-5,3.1-7.7,7.6-8.6,13.5c-0.5,3.6-0.5,7.2-0.8,10.9
				c-0.3,3.8-2,6.5-5.1,8.5c-1.3,0.8-2.6,1.6-3.9,2.3c-3.9,2-8,3.6-11.6,6.1C45.4,64.7,41.5,71,41.6,79.3c0,3,0.6,5.9,3,8
				c0.8,0.7,1.7,1.3,2.9,0.9c3.2-1.1,6.4-1.1,9.7-0.9C58.2,87.5,59.3,87.5,60.3,88.3z M107.3,169.7c0.3-0.2,0.6-0.5,0.9-0.7
				c7.2-6.1,14.5-12.2,21.6-18.3c1-0.8,2.3-1.5,2.8-2.8c1.5-3.5,2.9-7.1,4.2-10.6c0.3-0.9,0.2-1.3-0.9-1.1c-8.4,2-17,2.9-25.7,3.4
				c-0.9,0-1.6,0.3-2.2,0.9c-5.2,5-10.7,9.6-16.3,14.2c-0.9,0.8-0.9,1.2,0,2c4.7,4.1,9.5,8.2,14.2,12.3
				C106.4,169.3,106.6,169.7,107.3,169.7z M87.6,156.2c-0.3-1-0.8-1.3-1.2-1.7c-5.4-4.5-10.7-9.1-15.8-13.8c-0.6-0.6-1.2-1-2.1-1.1
				c-8.7-0.4-17.3-1.4-25.9-3.4c-1.2-0.3-1.2,0.3-0.9,1.1c0.5,1.4,1.1,2.7,1.6,4c1.6,4.1,3.4,7.8,7,10.8
				c6.8,5.6,13.6,11.3,20.2,17.1c0.7,0.6,1.2,0.6,1.9,0c4.8-4.3,9.7-8.5,14.6-12.7C87.2,156.3,87.5,156.2,87.6,156.2z M89.3,183.7
				c0.3-0.2,0.5-0.3,0.7-0.4c5.2-3.5,10-7.5,14.8-11.4c0.7-0.6,0.5-1-0.1-1.5c-4.9-4.3-9.8-8.5-14.7-12.8c-0.5-0.5-0.9-0.5-1.4,0
				c-4.9,4.3-9.8,8.5-14.7,12.8c-0.6,0.5-0.8,1,0,1.6c4.8,3.7,9.4,7.7,14.4,11.1C88.6,183.3,88.9,183.5,89.3,183.7z M71.5,139.9
				c0.4,0.5,0.5,0.7,0.7,0.8c5.6,4.2,11,8.6,16.3,13.2c0.9,0.8,1.3,0.2,1.9-0.3c4.1-3.4,8.3-6.7,12.3-10.1c1.3-1.1,3-1.9,4.2-3.6
				C95,139.9,83.5,139.9,71.5,139.9z M130.3,153.6c-0.5,0.2-0.7,0.3-0.8,0.4c-6.6,5.6-13.2,11.2-19.8,16.7c-0.9,0.8-0.8,1.2,0,1.9
				c2.1,1.9,4.3,3.9,6.4,5.8c2.1,2,2.2,2.1,3.5-0.6c1.9-3.9,3.7-7.8,5.5-11.7C126.8,162.1,128.5,158,130.3,153.6z M87.4,184.8
				c-1.2-0.8-2.5-1.6-3.7-2.5c-3.8-2.7-7.5-5.4-11-8.5c-1.2-1.1-2-0.9-3.1,0.1c-2.2,2.1-4.5,4-6.7,6c-0.5,0.4-1.4,0.8-1.1,1.5
				c0.2,0.6,1.1,0.7,1.8,0.9c4.1,1,8.2,1.6,12.4,2C79.7,184.7,83.4,185.3,87.4,184.8z M90.8,185.1c3.5,0.4,6.4-0.3,9.4-0.5
				c5.1-0.4,10.2-1,15.2-2.3c0.6-0.1,1.4-0.2,1.5-0.9c0.1-0.6-0.6-0.9-1-1.3c-2.5-2.2-5-4.4-7.4-6.6c-0.6-0.5-1-0.9-1.9-0.2
				C101.7,177.5,96.6,181.4,90.8,185.1z"/>
			<path class="st4" d="M35.2,34.6c1.1,0,2.8,0.9,3.7,0c1-1-0.1-2.6-0.2-3.9c-0.2-2.6-0.5-5.1-0.7-7.7c0-0.6-0.4-1.5,0.4-1.9
				c0.6-0.3,1.1,0.4,1.6,0.7c2.8,2.1,5.4,4.5,7.8,7c1.1,1.1,1.6,0.9,2.2-0.3c0.4-0.8,0.9-1.5,1.4-2.2c1.6-2.6,3.2-2.6,4.6,0.1
				c1.1,2.2,2,4.4,2.9,6.7c1.3,3.4,2.5,6.9,3.7,10.4c0.1,0.2,0.2,0.3,0.2,0.5c0.9,2.6,0.8,3-1.8,4c-5.1,2-9.9,4.5-14.5,7.4
				c-1.4,0.9-2.1,0.5-2.9-0.6c-1.1-1.5-2.4-2.9-3.4-4.5c-2.6-4-5.5-7.8-7.7-12C31.1,35.6,31.8,34.4,35.2,34.6z"/>
			<path class="st5" d="M60.3,88.3c-1.1-0.8-2.1-0.8-3.2-0.9c-3.3-0.2-6.5-0.2-9.7,0.9c-1.2,0.4-2.1-0.2-2.9-0.9c-2.4-2.2-3-5.1-3-8
				c-0.1-8.3,3.8-14.6,10.6-19.1c3.7-2.4,7.8-4.1,11.6-6.1c1.3-0.7,2.6-1.4,3.9-2.3c3.1-2,4.8-4.7,5.1-8.5c0.2-3.6,0.2-7.2,0.8-10.9
				c0.9-5.8,3.6-10.3,8.6-13.5c7.4-4.6,15.5-7.9,23.4-11.4c0.1-0.1,0.4,0,0.6,0c-0.4,1.1-1.3,1.7-2,2.4c-2.7,2.9-5.1,5.9-6.3,9.7
				c-1.4,4.4-0.3,8.1,3.1,11.2c3.3,3.1,7.4,5.1,11.3,7.4c7.1,4.2,13.9,8.9,19.2,15.4c6.9,8.6,8.4,17.9,4.7,28.2
				c-0.6,1.6-1.4,3.2-2,4.9c-0.6,1.7-1.5,2.1-3.2,1.5c-3.6-1.3-7.3-1.2-11-0.8c-0.6,0.1-1.5,0-1.6,0.6c-0.1,0.8,0.9,0.9,1.5,1.1
				c2.9,0.9,5.9,1.7,8.9,2.5c10.4,2.8,15.7,10.1,17.9,20.2c1.2,5.5,0.5,10.7-2,15.7c-1.4,2.9-3.8,4.4-6.9,5
				c-13.1,2.7-26.4,3.6-39.7,4.1c-14.9,0.6-29.7-0.3-44.4-2c-5.2-0.6-10.4-1.4-15.5-2.9c-2.7-0.8-4-3.3-5-5.7
				c-4.9-11.8,0.8-28.5,13.4-33.3c3.6-1.4,7.4-2,11-3.1C58.5,89.4,59.4,89.1,60.3,88.3z M88.7,125.5c9-0.2,14.2-5.5,13.9-13.1
				c-0.1-3-1.3-4-4.3-3.8c-1.8,0.2-3.6,0.5-5.4,0.4c-4.6-0.3-9.1,0.2-13.7-0.3c-2-0.2-3.1,1-3.3,3c-0.3,2.6,0.1,5.1,1.4,7.4
				C80.2,124.1,84.6,125.9,88.7,125.5z M116.7,104.7c0-0.8,0-1.6,0-2.4c-0.1-2-0.2-4-1.5-5.7c-1.4-1.9-3.6-1.8-4.7,0.3
				c-0.3,0.6-0.6,1.3-0.6,1.9c-0.4,3.9-0.6,7.7,1,11.4c0.5,1.2,1,2.3,2.6,2.3c1.7,0,2.4-1.2,2.8-2.6
				C116.7,108.2,116.8,106.5,116.7,104.7z M61.9,103.1c-0.1,2.9-0.1,5.1,0.6,7.1c0.3,1.1,1,2,2.3,2.2c1.1,0.1,2-0.2,2.5-1.2
				c2-4.4,2.1-9.1,1.1-13.7c-0.3-1.2-1.1-2.1-2.5-2.2c-1.5-0.1-2.3,0.8-2.9,1.9C61.8,99.3,62,101.7,61.9,103.1z"/>
			<path class="st5" d="M107.3,169.7c-0.6,0-0.9-0.4-1.2-0.7c-4.7-4.1-9.4-8.2-14.2-12.3c-0.9-0.8-1-1.2,0-2
				c5.5-4.6,11-9.2,16.3-14.2c0.6-0.6,1.3-0.9,2.2-0.9c8.6-0.5,17.2-1.4,25.7-3.4c1.1-0.3,1.3,0.2,0.9,1.1
				c-1.4,3.5-2.8,7.1-4.2,10.6c-0.5,1.3-1.8,1.9-2.8,2.8c-7.2,6.1-14.4,12.2-21.6,18.3C107.9,169.3,107.5,169.5,107.3,169.7z"/>
			<path class="st5" d="M87.6,156.2c-0.1,0-0.4,0.1-0.7,0.3c-4.9,4.2-9.7,8.5-14.6,12.7c-0.7,0.6-1.2,0.6-1.9,0
				c-6.7-5.8-13.4-11.5-20.2-17.1c-3.7-3-5.5-6.7-7-10.8c-0.5-1.3-1.1-2.7-1.6-4c-0.3-0.8-0.3-1.4,0.9-1.1c8.5,2,17.1,2.9,25.9,3.4
				c0.9,0,1.5,0.5,2.1,1.1c5.1,4.8,10.5,9.3,15.8,13.8C86.8,154.9,87.3,155.1,87.6,156.2z"/>
			<path class="st5" d="M89.3,183.7c-0.4-0.2-0.7-0.4-1.1-0.7c-5-3.4-9.6-7.3-14.4-11.1c-0.8-0.6-0.6-1.1,0-1.6
				c4.9-4.2,9.8-8.5,14.7-12.8c0.5-0.5,0.9-0.4,1.4,0c4.9,4.3,9.8,8.5,14.7,12.8c0.6,0.5,0.8,0.9,0.1,1.5
				c-4.9,3.9-9.7,7.9-14.8,11.4C89.8,183.4,89.6,183.5,89.3,183.7z"/>
			<path class="st5" d="M71.5,139.9c11.9,0,23.5,0,35.4,0c-1.2,1.7-2.9,2.5-4.2,3.6c-4.1,3.4-8.2,6.7-12.3,10.1
				c-0.6,0.5-1,1-1.9,0.3c-5.3-4.6-10.8-8.9-16.3-13.2C72.1,140.6,72,140.4,71.5,139.9z"/>
			<path class="st5" d="M130.3,153.6c-1.8,4.4-3.5,8.4-5.3,12.5c-1.8,3.9-3.6,7.8-5.5,11.7c-1.3,2.7-1.3,2.6-3.5,0.6
				c-2.1-2-4.2-3.9-6.4-5.8c-0.8-0.7-0.9-1.1,0-1.9c6.6-5.5,13.2-11.1,19.8-16.7C129.6,153.9,129.8,153.9,130.3,153.6z"/>
			<path class="st5" d="M49,154.1c6.7,5.6,13.3,11.2,20,16.7c0.6,0.5,0.6,1,0,1.5c-2.6,2.4-5.2,4.7-7.7,7.1
				c-0.9,0.9-1.3,0.1-1.6-0.5c-1.3-2.7-2.7-5.5-3.9-8.3c-2.2-4.9-4.3-9.8-6.5-14.7c-0.2-0.5-0.3-1.1-0.5-1.6
				C48.8,154.3,48.9,154.2,49,154.1z"/>
			<path class="st5" d="M87.4,184.8c-3.9,0.5-7.7-0.1-11.5-0.4c-4.2-0.4-8.3-1-12.4-2c-0.7-0.2-1.6-0.2-1.8-0.9
				c-0.3-0.8,0.7-1.1,1.1-1.5c2.2-2,4.5-4,6.7-6c1.1-1,1.9-1.2,3.1-0.1c3.5,3.1,7.2,5.8,11,8.5C84.8,183.2,86.1,184,87.4,184.8z"/>
			<path class="st5" d="M90.8,185.1c5.8-3.7,10.9-7.6,15.8-11.8c0.8-0.7,1.3-0.3,1.9,0.2c2.5,2.2,5,4.4,7.4,6.6
				c0.4,0.4,1.1,0.6,1,1.3c-0.1,0.7-1,0.7-1.5,0.9c-5,1.3-10.1,2-15.2,2.3C97.2,184.8,94.2,185.5,90.8,185.1z"/>
			<path class="st5" d="M48.7,154.4c-0.3-0.1-0.4-0.4-0.2-0.6c0.3-0.2,0.3,0.2,0.5,0.3C48.9,154.2,48.8,154.3,48.7,154.4z"/>
			<path class="st4" d="M88.7,125.5c-4.1,0.3-8.6-1.4-11.4-6.5c-1.3-2.3-1.7-4.8-1.4-7.4c0.2-2,1.4-3.2,3.3-3
				c4.6,0.6,9.1,0.1,13.7,0.3c1.8,0.1,3.6-0.2,5.4-0.4c3-0.3,4.2,0.8,4.3,3.8C102.9,120,97.8,125.4,88.7,125.5z"/>
			<path class="st4" d="M116.7,104.7c0,1.8,0,3.5-0.5,5.2c-0.4,1.4-1.1,2.5-2.8,2.6c-1.6,0-2-1-2.6-2.3c-1.5-3.7-1.4-7.6-1-11.4
				c0.1-0.7,0.3-1.4,0.6-1.9c1.1-2,3.3-2.1,4.7-0.3c1.2,1.7,1.4,3.7,1.5,5.7C116.8,103.1,116.7,103.9,116.7,104.7z"/>
			<path class="st4" d="M61.9,103.1c0.1-1.5-0.1-3.8,1.1-6c0.6-1.2,1.4-2.1,2.9-1.9c1.4,0.1,2.2,1.1,2.5,2.2c1,4.7,1,9.3-1.1,13.7
				c-0.5,1-1.4,1.4-2.5,1.2c-1.3-0.2-2-1.1-2.3-2.2C61.8,108.2,61.8,106.1,61.9,103.1z"/>
		</g>
		<g>
			<path class="st6" d="M89.2,190.5c-8.1-0.4-16.2-1-24.2-2.5c-4.5-0.9-7.9-3-10-7.6c-3.9-8.9-7.9-17.7-11.4-26.7
				c-2.3-5.9-4.6-11.7-6.2-17.9c-0.2-0.6-0.5-1-1.1-1.2c-4.7-1.4-6.5-5.4-7.7-9.5c-3.4-12.1-0.4-22.6,8.5-31.4
				c1.4-1.4,3.2-2.4,4.9-3.4c0.5-0.3,1-0.6,0.4-1.2c-4.6-4.7-4.6-10.4-3.3-16.2c1.6-7.7,6.5-13,13.2-16.7c3.9-2.2,7.9-4.1,11.8-6.1
				c3.6-1.8,5.3-4.6,5.3-8.7c-0.1-3.9,0.4-7.7,1.2-11.6c1.3-6.1,4.8-10.5,10-13.7c8.9-5.5,18.7-8.8,28.9-11.1c0.6-0.1,1.3-0.1,1.9,0
				c0.6,0.1,1.2,0.5,1.3,1.2c0.1,0.7-0.4,1-1,1.4c-5.1,3.2-8.9,7.7-10.7,13.5c-0.9,2.9,0.1,5.4,2.4,7.4c3.5,3.1,7.7,5.1,11.7,7.5
				c7.6,4.5,14.8,9.7,20.2,16.9c4.2,5.7,6.4,12,6.6,19.2c0.2,6.2-2.1,11.3-4.8,16.5c-0.7,1.3-0.5,1.9,0.7,2.6
				c7.4,4.5,11.2,11.4,12.8,19.7c1.2,6.4,0.7,12.7-2.7,18.5c-1.3,2.2-2.6,4.4-5.4,5c-0.8,0.2-1.2,0.8-1.4,1.6
				c-2.6,9.3-6.2,18.2-10,27.1c-2.5,5.9-5.2,11.7-7.7,17.5c-1.7,3.9-4.5,6-8.4,7c-4.2,1.1-8.5,1.6-12.8,1.9
				C97.8,189.9,93.6,190.8,89.2,190.5z M49,154.1c-0.1-0.2-0.2-0.5-0.5-0.3c-0.2,0.2-0.1,0.4,0.2,0.6c0.2,0.5,0.3,1.1,0.5,1.6
				c2.1,4.9,4.3,9.8,6.5,14.7c1.3,2.8,2.6,5.5,3.9,8.3c0.3,0.6,0.7,1.4,1.6,0.5c2.5-2.4,5.1-4.8,7.7-7.1c0.6-0.6,0.6-1,0-1.5
				C62.3,165.3,55.7,159.7,49,154.1z M60.3,88.3c-0.9,0.8-1.9,1.1-2.9,1.4c-3.7,1.1-7.4,1.7-11,3.1c-12.6,4.8-18.3,21.6-13.4,33.3
				c1,2.4,2.3,5,5,5.7c5,1.5,10.3,2.3,15.5,2.9c14.8,1.7,29.5,2.6,44.4,2c13.4-0.5,26.6-1.5,39.7-4.1c3.1-0.6,5.5-2.1,6.9-5
				c2.5-5,3.2-10.2,2-15.7c-2.2-10.1-7.5-17.3-17.9-20.2c-3-0.8-5.9-1.6-8.9-2.5c-0.6-0.2-1.6-0.3-1.5-1.1c0.1-0.6,1-0.6,1.6-0.6
				c3.7-0.4,7.4-0.4,11,0.8c1.7,0.6,2.6,0.2,3.2-1.5c0.6-1.7,1.4-3.2,2-4.9c3.7-10.3,2.2-19.6-4.7-28.2
				c-5.3-6.6-12.1-11.2-19.2-15.4c-3.9-2.3-7.9-4.3-11.3-7.4c-3.3-3.1-4.5-6.8-3.1-11.2c1.2-3.8,3.6-6.8,6.3-9.7
				c0.7-0.7,1.6-1.3,2-2.4c-0.3,0-0.5-0.1-0.6,0c-7.9,3.6-16,6.8-23.4,11.4c-5,3.1-7.7,7.6-8.6,13.5c-0.5,3.6-0.5,7.2-0.8,10.9
				c-0.3,3.8-2,6.5-5.1,8.5c-1.3,0.8-2.6,1.6-3.9,2.3c-3.9,2-8,3.6-11.6,6.1C45.4,64.7,41.5,71,41.6,79.3c0,3,0.6,5.9,3,8
				c0.8,0.7,1.7,1.3,2.9,0.9c3.2-1.1,6.4-1.1,9.7-0.9C58.2,87.5,59.3,87.5,60.3,88.3z M107.3,169.7c0.3-0.2,0.6-0.5,0.9-0.7
				c7.2-6.1,14.5-12.2,21.6-18.3c1-0.8,2.3-1.5,2.8-2.8c1.5-3.5,2.9-7.1,4.2-10.6c0.3-0.9,0.2-1.3-0.9-1.1c-8.4,2-17,2.9-25.7,3.4
				c-0.9,0-1.6,0.3-2.2,0.9c-5.2,5-10.7,9.6-16.3,14.2c-0.9,0.8-0.9,1.2,0,2c4.7,4.1,9.5,8.2,14.2,12.3
				C106.4,169.3,106.6,169.7,107.3,169.7z M87.6,156.2c-0.3-1-0.8-1.3-1.2-1.7c-5.4-4.5-10.7-9.1-15.8-13.8c-0.6-0.6-1.2-1-2.1-1.1
				c-8.7-0.4-17.3-1.4-25.9-3.4c-1.2-0.3-1.2,0.3-0.9,1.1c0.5,1.4,1.1,2.7,1.6,4c1.6,4.1,3.4,7.8,7,10.8
				c6.8,5.6,13.6,11.3,20.2,17.1c0.7,0.6,1.2,0.6,1.9,0c4.8-4.3,9.7-8.5,14.6-12.7C87.2,156.3,87.5,156.2,87.6,156.2z M89.3,183.7
				c0.3-0.2,0.5-0.3,0.7-0.4c5.2-3.5,10-7.5,14.8-11.4c0.7-0.6,0.5-1-0.1-1.5c-4.9-4.3-9.8-8.5-14.7-12.8c-0.5-0.5-0.9-0.5-1.4,0
				c-4.9,4.3-9.8,8.5-14.7,12.8c-0.6,0.5-0.8,1,0,1.6c4.8,3.7,9.4,7.7,14.4,11.1C88.6,183.3,88.9,183.5,89.3,183.7z M71.5,139.9
				c0.4,0.5,0.5,0.7,0.7,0.8c5.6,4.2,11,8.6,16.3,13.2c0.9,0.8,1.3,0.2,1.9-0.3c4.1-3.4,8.3-6.7,12.3-10.1c1.3-1.1,3-1.9,4.2-3.6
				C95,139.9,83.5,139.9,71.5,139.9z M130.3,153.6c-0.5,0.2-0.7,0.3-0.8,0.4c-6.6,5.6-13.2,11.2-19.8,16.7c-0.9,0.8-0.8,1.2,0,1.9
				c2.1,1.9,4.3,3.9,6.4,5.8c2.1,2,2.2,2.1,3.5-0.6c1.9-3.9,3.7-7.8,5.5-11.7C126.8,162.1,128.5,158,130.3,153.6z M87.4,184.8
				c-1.2-0.8-2.5-1.6-3.7-2.5c-3.8-2.7-7.5-5.4-11-8.5c-1.2-1.1-2-0.9-3.1,0.1c-2.2,2.1-4.5,4-6.7,6c-0.5,0.4-1.4,0.8-1.1,1.5
				c0.2,0.6,1.1,0.7,1.8,0.9c4.1,1,8.2,1.6,12.4,2C79.7,184.7,83.4,185.3,87.4,184.8z M90.8,185.1c3.5,0.4,6.4-0.3,9.4-0.5
				c5.1-0.4,10.2-1,15.2-2.3c0.6-0.1,1.4-0.2,1.5-0.9c0.1-0.6-0.6-0.9-1-1.3c-2.5-2.2-5-4.4-7.4-6.6c-0.6-0.5-1-0.9-1.9-0.2
				C101.7,177.5,96.6,181.4,90.8,185.1z"/>
			<path class="st6" d="M35.2,34.6c1.1,0,2.8,0.9,3.7,0c1-1-0.1-2.6-0.2-3.9c-0.2-2.6-0.5-5.1-0.7-7.7c0-0.6-0.4-1.5,0.4-1.9
				c0.6-0.3,1.1,0.4,1.6,0.7c2.8,2.1,5.4,4.5,7.8,7c1.1,1.1,1.6,0.9,2.2-0.3c0.4-0.8,0.9-1.5,1.4-2.2c1.6-2.6,3.2-2.6,4.6,0.1
				c1.1,2.2,2,4.4,2.9,6.7c1.3,3.4,2.5,6.9,3.7,10.4c0.1,0.2,0.2,0.3,0.2,0.5c0.9,2.6,0.8,3-1.8,4c-5.1,2-9.9,4.5-14.5,7.4
				c-1.4,0.9-2.1,0.5-2.9-0.6c-1.1-1.5-2.4-2.9-3.4-4.5c-2.6-4-5.5-7.8-7.7-12C31.1,35.6,31.8,34.4,35.2,34.6z"/>
			<path class="st7" d="M60.3,88.3c-1.1-0.8-2.1-0.8-3.2-0.9c-3.3-0.2-6.5-0.2-9.7,0.9c-1.2,0.4-2.1-0.2-2.9-0.9c-2.4-2.2-3-5.1-3-8
				c-0.1-8.3,3.8-14.6,10.6-19.1c3.7-2.4,7.8-4.1,11.6-6.1c1.3-0.7,2.6-1.4,3.9-2.3c3.1-2,4.8-4.7,5.1-8.5c0.2-3.6,0.2-7.2,0.8-10.9
				c0.9-5.8,3.6-10.3,8.6-13.5c7.4-4.6,15.5-7.9,23.4-11.4c0.1-0.1,0.4,0,0.6,0c-0.4,1.1-1.3,1.7-2,2.4c-2.7,2.9-5.1,5.9-6.3,9.7
				c-1.4,4.4-0.3,8.1,3.1,11.2c3.3,3.1,7.4,5.1,11.3,7.4c7.1,4.2,13.9,8.9,19.2,15.4c6.9,8.6,8.4,17.9,4.7,28.2
				c-0.6,1.6-1.4,3.2-2,4.9c-0.6,1.7-1.5,2.1-3.2,1.5c-3.6-1.3-7.3-1.2-11-0.8c-0.6,0.1-1.5,0-1.6,0.6c-0.1,0.8,0.9,0.9,1.5,1.1
				c2.9,0.9,5.9,1.7,8.9,2.5c10.4,2.8,15.7,10.1,17.9,20.2c1.2,5.5,0.5,10.7-2,15.7c-1.4,2.9-3.8,4.4-6.9,5
				c-13.1,2.7-26.4,3.6-39.7,4.1c-14.9,0.6-29.7-0.3-44.4-2c-5.2-0.6-10.4-1.4-15.5-2.9c-2.7-0.8-4-3.3-5-5.7
				c-4.9-11.8,0.8-28.5,13.4-33.3c3.6-1.4,7.4-2,11-3.1C58.5,89.4,59.4,89.1,60.3,88.3z M88.7,125.5c9-0.2,14.2-5.5,13.9-13.1
				c-0.1-3-1.3-4-4.3-3.8c-1.8,0.2-3.6,0.5-5.4,0.4c-4.6-0.3-9.1,0.2-13.7-0.3c-2-0.2-3.1,1-3.3,3c-0.3,2.6,0.1,5.1,1.4,7.4
				C80.2,124.1,84.6,125.9,88.7,125.5z M116.7,104.7c0-0.8,0-1.6,0-2.4c-0.1-2-0.2-4-1.5-5.7c-1.4-1.9-3.6-1.8-4.7,0.3
				c-0.3,0.6-0.6,1.3-0.6,1.9c-0.4,3.9-0.6,7.7,1,11.4c0.5,1.2,1,2.3,2.6,2.3c1.7,0,2.4-1.2,2.8-2.6
				C116.7,108.2,116.8,106.5,116.7,104.7z M61.9,103.1c-0.1,2.9-0.1,5.1,0.6,7.1c0.3,1.1,1,2,2.3,2.2c1.1,0.1,2-0.2,2.5-1.2
				c2-4.4,2.1-9.1,1.1-13.7c-0.3-1.2-1.1-2.1-2.5-2.2c-1.5-0.1-2.3,0.8-2.9,1.9C61.8,99.3,62,101.7,61.9,103.1z"/>
			<path class="st7" d="M107.3,169.7c-0.6,0-0.9-0.4-1.2-0.7c-4.7-4.1-9.4-8.2-14.2-12.3c-0.9-0.8-1-1.2,0-2
				c5.5-4.6,11-9.2,16.3-14.2c0.6-0.6,1.3-0.9,2.2-0.9c8.6-0.5,17.2-1.4,25.7-3.4c1.1-0.3,1.3,0.2,0.9,1.1
				c-1.4,3.5-2.8,7.1-4.2,10.6c-0.5,1.3-1.8,1.9-2.8,2.8c-7.2,6.1-14.4,12.2-21.6,18.3C107.9,169.3,107.5,169.5,107.3,169.7z"/>
			<path class="st7" d="M87.6,156.2c-0.1,0-0.4,0.1-0.7,0.3c-4.9,4.2-9.7,8.5-14.6,12.7c-0.7,0.6-1.2,0.6-1.9,0
				c-6.7-5.8-13.4-11.5-20.2-17.1c-3.7-3-5.5-6.7-7-10.8c-0.5-1.3-1.1-2.7-1.6-4c-0.3-0.8-0.3-1.4,0.9-1.1c8.5,2,17.1,2.9,25.9,3.4
				c0.9,0,1.5,0.5,2.1,1.1c5.1,4.8,10.5,9.3,15.8,13.8C86.8,154.9,87.3,155.1,87.6,156.2z"/>
			<path class="st7" d="M89.3,183.7c-0.4-0.2-0.7-0.4-1.1-0.7c-5-3.4-9.6-7.3-14.4-11.1c-0.8-0.6-0.6-1.1,0-1.6
				c4.9-4.2,9.8-8.5,14.7-12.8c0.5-0.5,0.9-0.4,1.4,0c4.9,4.3,9.8,8.5,14.7,12.8c0.6,0.5,0.8,0.9,0.1,1.5
				c-4.9,3.9-9.7,7.9-14.8,11.4C89.8,183.4,89.6,183.5,89.3,183.7z"/>
			<path class="st7" d="M71.5,139.9c11.9,0,23.5,0,35.4,0c-1.2,1.7-2.9,2.5-4.2,3.6c-4.1,3.4-8.2,6.7-12.3,10.1
				c-0.6,0.5-1,1-1.9,0.3c-5.3-4.6-10.8-8.9-16.3-13.2C72.1,140.6,72,140.4,71.5,139.9z"/>
			<path class="st7" d="M130.3,153.6c-1.8,4.4-3.5,8.4-5.3,12.5c-1.8,3.9-3.6,7.8-5.5,11.7c-1.3,2.7-1.3,2.6-3.5,0.6
				c-2.1-2-4.2-3.9-6.4-5.8c-0.8-0.7-0.9-1.1,0-1.9c6.6-5.5,13.2-11.1,19.8-16.7C129.6,153.9,129.8,153.9,130.3,153.6z"/>
			<path class="st7" d="M49,154.1c6.7,5.6,13.3,11.2,20,16.7c0.6,0.5,0.6,1,0,1.5c-2.6,2.4-5.2,4.7-7.7,7.1
				c-0.9,0.9-1.3,0.1-1.6-0.5c-1.3-2.7-2.7-5.5-3.9-8.3c-2.2-4.9-4.3-9.8-6.5-14.7c-0.2-0.5-0.3-1.1-0.5-1.6
				C48.8,154.3,48.9,154.2,49,154.1z"/>
			<path class="st7" d="M87.4,184.8c-3.9,0.5-7.7-0.1-11.5-0.4c-4.2-0.4-8.3-1-12.4-2c-0.7-0.2-1.6-0.2-1.8-0.9
				c-0.3-0.8,0.7-1.1,1.1-1.5c2.2-2,4.5-4,6.7-6c1.1-1,1.9-1.2,3.1-0.1c3.5,3.1,7.2,5.8,11,8.5C84.8,183.2,86.1,184,87.4,184.8z"/>
			<path class="st7" d="M90.8,185.1c5.8-3.7,10.9-7.6,15.8-11.8c0.8-0.7,1.3-0.3,1.9,0.2c2.5,2.2,5,4.4,7.4,6.6
				c0.4,0.4,1.1,0.6,1,1.3c-0.1,0.7-1,0.7-1.5,0.9c-5,1.3-10.1,2-15.2,2.3C97.2,184.8,94.2,185.5,90.8,185.1z"/>
			<path class="st7" d="M48.7,154.4c-0.3-0.1-0.4-0.4-0.2-0.6c0.3-0.2,0.3,0.2,0.5,0.3C48.9,154.2,48.8,154.3,48.7,154.4z"/>
			<path class="st6" d="M88.7,125.5c-4.1,0.3-8.6-1.4-11.4-6.5c-1.3-2.3-1.7-4.8-1.4-7.4c0.2-2,1.4-3.2,3.3-3
				c4.6,0.6,9.1,0.1,13.7,0.3c1.8,0.1,3.6-0.2,5.4-0.4c3-0.3,4.2,0.8,4.3,3.8C102.9,120,97.8,125.4,88.7,125.5z"/>
			<path class="st6" d="M116.7,104.7c0,1.8,0,3.5-0.5,5.2c-0.4,1.4-1.1,2.5-2.8,2.6c-1.6,0-2-1-2.6-2.3c-1.5-3.7-1.4-7.6-1-11.4
				c0.1-0.7,0.3-1.4,0.6-1.9c1.1-2,3.3-2.1,4.7-0.3c1.2,1.7,1.4,3.7,1.5,5.7C116.8,103.1,116.7,103.9,116.7,104.7z"/>
			<path class="st6" d="M61.9,103.1c0.1-1.5-0.1-3.8,1.1-6c0.6-1.2,1.4-2.1,2.9-1.9c1.4,0.1,2.2,1.1,2.5,2.2c1,4.7,1,9.3-1.1,13.7
				c-0.5,1-1.4,1.4-2.5,1.2c-1.3-0.2-2-1.1-2.3-2.2C61.8,108.2,61.8,106.1,61.9,103.1z"/>
		</g>
	</g>
	<g>
		<g>
			<path class="st8" d="M161,123.2v-7.6l11.6-3.1l-2.1,3.1V45.2l2.6,3.2L161,45.4v-7.6l34.2-0.6v7.6l-11.9,3.6l2.3-3.3v31.4
				l-2.5-2.5h42.7l-2.3,2.5V45.2l2.3,3.2L214,45.4v-7.6l34.1-0.6v7.6l-11.6,3.6l2.1-3.3v70.6l-2.1-3.1l11.6,3.1v7.6H214v-7.6
				l11.5-3.1l-2,3.1V82.4l2.3,2.5h-42.7l2.5-2.5v33.2l-2-3.1l11.5,3.1v7.6H161z"/>
			<path class="st8" d="M312.3,101.2h8.9l-0.1,22.1h-63.3v-7.6l11.6-3.1l-2.1,3.1V45.2l2.1,3.1l-11.6-2.8v-7.6l24.4-0.6h37.5v21.2
				h-9.1l-2.3-12.5l2.9,2.2h-31.3l2.5-2.5v30.9l-2.5-2.5h30.3v10.5h-30.3l2.5-2.7v32.9l-2.5-2.5h32.7l-2.9,2.5L312.3,101.2z"/>
			<path class="st8" d="M384.5,98.6h8.9v24.6H333v-7.6l11.4-2.9l-1.8,2.9V45.2l1.8,2.9L333,45.4v-7.6l35.2-0.6v7.6L356,48.1l1.7-2.9
				v69.6l-2.5-2.5H384l-2.2,2.5L384.5,98.6z"/>
			<path class="st8" d="M476.2,116l-4-3.6l10.9,3.2v7.6H449v-7.6l11.4-2.9l-1.5,2.2l-5.5-17.2l2.5,2h-34.1l2-1.8l-5.9,16.8l-0.5-1.6
				l10.7,2.6v7.6h-31.4v-7.6l10.5-3.1l-3.4,3.1l29.3-78.2l15.3-0.5L476.2,116z M425.7,91.2l-1.1-2.1h28.7l-1.5,2.5L438,45.4l3.4,0.1
				L425.7,91.2z"/>
			<path class="st8" d="M526.5,37.2c5.8,0,11.1,0.9,15.9,2.6c4.8,1.7,8.9,4.3,12.3,7.8c3.4,3.5,6.1,7.8,8,13
				c1.9,5.2,2.8,11.3,2.8,18.2c0,9.7-1.7,17.9-5.2,24.5c-3.5,6.6-8.3,11.6-14.5,15c-6.2,3.4-13.4,5.1-21.7,5.1h-35.6v-7.6l11.8-3.1
				l-2.2,3.1V45.2l2.3,3.2l-11.9-2.9v-7.6l26.2-0.6H526.5z M524.8,112.3c3,0,6-0.5,8.8-1.4c2.9-0.9,5.5-2.6,7.8-4.9
				c2.4-2.3,4.3-5.6,5.7-9.9c1.4-4.2,2.1-9.7,2.1-16.4c0-6.5-0.7-11.9-2-16c-1.3-4.1-3.1-7.3-5.4-9.6c-2.2-2.2-4.7-3.8-7.5-4.7
				c-2.7-0.9-5.5-1.3-8.4-1.3h-15.3l2.5-2.5v69.1l-2.5-2.5H524.8z"/>
			<path class="st8" d="M614.6,124.6c-7.5,0-14.1-1.6-19.7-4.9c-5.6-3.3-10-8.1-13.2-14.6c-3.1-6.5-4.7-14.4-4.7-23.9
				c0-7.5,1-14.1,2.9-19.8c2-5.7,4.7-10.4,8.3-14.2c3.6-3.8,7.8-6.6,12.7-8.5c4.9-1.9,10.2-2.8,16.1-2.8c5.7,0,10.9,0.9,15.6,2.8
				s8.7,4.6,12.1,8.2c3.4,3.6,6,8.1,8,13.4c1.9,5.3,2.9,11.5,2.9,18.5c0,9.6-1.7,17.9-5.2,24.7c-3.5,6.8-8.3,12.1-14.4,15.8
				S622.8,124.6,614.6,124.6z M615.7,112.9c4.4,0,8.4-1.1,12-3.3c3.6-2.2,6.4-5.8,8.6-10.7c2.2-4.9,3.2-11.4,3.2-19.6
				c0-7.6-1-13.7-3-18.4c-2-4.7-4.7-8.1-8.2-10.2c-3.4-2.1-7.4-3.2-12-3.2c-4.3,0-8.3,1.1-11.8,3.2c-3.6,2.1-6.3,5.6-8.3,10.5
				c-2,4.9-3,11.4-3,19.6c0,7.6,0.9,13.8,2.8,18.5c1.9,4.7,4.5,8.2,7.9,10.4C607.3,111.8,611.2,112.9,615.7,112.9z"/>
			<path class="st8" d="M689.1,123.2v-7.6l11.6-3.1l-2.1,3.1V45.2l2.8,3.3l-12.4-3.1v-7.6l25.3-0.6h12.7c9.6,0,16.8,2,21.7,6
				c4.9,4,7.4,9.8,7.4,17.3c0,6.9-2.1,12.5-6.3,16.9c-4.2,4.4-10.7,7.1-19.6,8v-1.7c3.2,0.2,5.8,0.7,7.8,1.7c2,1,3.7,2.3,5.1,4
				c1.3,1.7,2.6,3.7,3.9,6.1l9.9,19.5l-4.3-2.7l10.9,3.4v7.6h-18.4l-11.2-23.8c-1.5-3.3-2.8-5.8-4-7.5c-1.2-1.8-2.7-3-4.4-3.7
				c-1.8-0.7-4.2-1-7.4-0.9h-7.1l2.6-2.2v30.5l-2.1-3.1l13,3.1v7.6H689.1z M713.8,80.6l-2.6-3.8h10.7c6.2,0,10.9-1.3,14.2-3.9
				c3.2-2.6,4.8-6.4,4.8-11.3c0-4.3-1.3-7.7-3.9-10.1c-2.6-2.4-6.5-3.6-11.8-3.6h-14l2.6-2.3V80.6z"/>
			<path class="st8" d="M825,101.2h8.9l-0.1,22.1h-63.3v-7.6l11.6-3.1l-2.1,3.1V45.2l2.1,3.1l-11.6-2.8v-7.6l24.4-0.6h37.5v21.2
				h-9.1L821,45.9l2.9,2.2h-31.3l2.5-2.5v30.9l-2.5-2.5H823v10.5h-30.3l2.5-2.7v32.9l-2.5-2.5h32.7l-2.9,2.5L825,101.2z"/>
			<path class="st8" d="M920.7,116l-4-3.6l10.9,3.2v7.6h-34.1v-7.6l11.4-2.9l-1.5,2.2l-5.5-17.2l2.5,2h-34.1l2-1.8l-5.9,16.8
				l-0.5-1.6l10.7,2.6v7.6h-31.4v-7.6l10.5-3.1l-3.4,3.1l29.3-78.2l15.3-0.5L920.7,116z M870.2,91.2l-1.1-2.1h28.7l-1.5,2.5
				l-13.9-46.2l3.4,0.1L870.2,91.2z"/>
			<path class="st8" d="M984.5,98.6h8.9v24.6H933v-7.6l11.4-2.9l-1.8,2.9V45.2l1.8,2.9L933,45.4v-7.6l35.2-0.6v7.6l-12.3,3.3
				l1.7-2.9v69.6l-2.5-2.5H984l-2.2,2.5L984.5,98.6z"/>
		</g>
	</g>
	<g>
		<g>
			<path class="st8" d="M191.3,177.2l-1.7-1.6l4.6,1.4v3.4h-14.4V177l4.8-1.3l-0.6,1l-2.3-7.8l1,0.9h-14.4l0.8-0.8l-2.5,7.6
				l-0.2-0.7l4.5,1.2v3.4h-13.3V177l4.5-1.4l-1.5,1.4l12.4-35.4l6.5-0.2L191.3,177.2z M169.9,166l-0.5-0.9h12.1l-0.6,1.1l-5.9-20.9
				l1.5,0.1L169.9,166z"/>
			<path class="st8" d="M217.4,141.8l14.4-0.3v3.4l-4.8,1.6l0.7-1.7v20.6c0,1.7-0.1,3.3-0.4,4.9c-0.3,1.6-0.8,3-1.4,4.3
				c-0.7,1.3-1.6,2.4-2.6,3.4c-1.1,1-2.5,1.7-4.1,2.2c-1.6,0.5-3.6,0.8-5.8,0.8c-2.8,0-5-0.4-6.8-1.1s-3.1-1.7-4.1-2.9
				s-1.7-2.5-2.1-3.8c-0.4-1.4-0.7-2.7-0.8-3.9c-0.1-1.3-0.1-2.3-0.1-3.2v-21.3l0.7,1.7l-4.8-1.2v-3.4l14.4-0.3v3.4l-4.7,1.6
				l0.7-1.7v21.3c0,1,0,1.9,0.1,2.9c0.1,0.9,0.3,1.8,0.5,2.6c0.3,0.8,0.7,1.5,1.2,2.2c0.6,0.6,1.3,1.1,2.2,1.5
				c0.9,0.4,2.1,0.5,3.6,0.5c1.5,0,2.7-0.2,3.7-0.6c0.9-0.4,1.7-0.9,2.3-1.6c0.6-0.7,1-1.5,1.3-2.4c0.3-0.9,0.5-1.8,0.5-2.8
				c0.1-1,0.1-2,0.1-3v-20.6l0.6,1.6l-4.7-1.1V141.8z"/>
			<path class="st8" d="M240.7,180.4V177l5.9-1.4l-1.2,1.7v-31.9l1.3,1.1h-9l1.4-1.3l-1.2,7H234v-10.6H263v10.6h-3.8l-1.2-6.8
				l1.4,1.1h-9l1.3-1.1v31.9l-1.1-1.7l5.8,1.4v3.4H240.7z"/>
			<path class="st8" d="M289.2,170.5h3.8l-0.1,10h-26.7V177l4.9-1.4l-0.9,1.4v-31.9l0.9,1.4l-4.9-1.3v-3.4l10.3-0.3h15.8v9.6h-3.8
				l-1-5.7l1.2,1h-13.2l1-1.1v14l-1-1.1h12.8v4.8h-12.8l1-1.2v14.9l-1-1.1h13.8l-1.2,1.1L289.2,170.5z"/>
			<path class="st8" d="M321.4,141.8l13.4-0.3v3.4l-5,1.6l0.9-1.5v35.4h-7.3l-17-31.7l0.9-0.1V177l-1-1.4l5,1.4v3.4h-13.4V177l5-1.4
				l-1,1.4v-31.9l0.7,1.3l-4.7-1.2v-3.4l11.6-0.3l16.8,31.2h-0.9v-27.6l1,1.4l-5-1.3V141.8z"/>
			<path class="st8" d="M344,180.4V177l5.9-1.4l-1.2,1.7v-31.9l1.3,1.1h-9l1.4-1.3l-1.2,7h-3.8v-10.6h28.9v10.6h-3.8l-1.2-6.8
				l1.4,1.1h-9l1.3-1.1v31.9l-1.1-1.7l5.8,1.4v3.4H344z"/>
			<path class="st8" d="M384,145l-4.8,1.6l0.7-1.1v31.3l-0.7-1l4.8,1.3v3.4h-14.4V177l4.7-1.3l-0.7,1v-31.3l0.9,1.1l-4.9-1.3v-3.4
				l14.4-0.3V145z"/>
			<path class="st8" d="M403.8,181c-2.8,0-5.4-0.7-7.7-2.2s-4.2-3.7-5.6-6.7c-1.4-3-2.1-6.6-2.1-10.9c0-4.2,0.7-7.9,2-10.9
				c1.4-3,3.3-5.4,5.8-7c2.5-1.6,5.4-2.4,8.7-2.4c1.8,0,3.6,0.2,5.5,0.7c1.9,0.5,3.9,1.2,6,2.1l-0.4,9.6h-3.8l-1.1-6.7l1.1,1.2
				c-1.3-0.6-2.5-1-3.7-1.2s-2.3-0.4-3.3-0.4c-2.1,0-3.9,0.6-5.4,1.7c-1.5,1.1-2.6,2.8-3.4,4.9c-0.8,2.1-1.2,4.6-1.2,7.6
				c0,3.4,0.4,6.2,1.3,8.4c0.9,2.3,2.1,3.9,3.6,5.1c1.5,1.1,3.3,1.7,5.2,1.7c1.4,0,2.9-0.3,4.5-1c1.6-0.6,3.2-1.7,4.7-3l2.4,4
				c-2.1,1.8-4.3,3.2-6.6,4.2C408.2,180.6,406,181,403.8,181z"/>
			<path class="st8" d="M437.4,181c-3.2,0-6-0.7-8.3-2.2c-2.4-1.5-4.2-3.7-5.6-6.6s-2-6.5-2-10.8c0-3.4,0.4-6.4,1.2-9s2-4.7,3.5-6.4
				c1.5-1.7,3.3-3,5.4-3.9c2.1-0.8,4.3-1.3,6.8-1.3c2.4,0,4.6,0.4,6.6,1.2c2,0.8,3.7,2.1,5.1,3.7c1.4,1.6,2.6,3.6,3.4,6
				c0.8,2.4,1.2,5.2,1.2,8.4c0,4.4-0.7,8.1-2.2,11.2c-1.5,3.1-3.5,5.5-6.1,7.1C443.9,180.2,440.9,181,437.4,181z M437.9,175.8
				c1.9,0,3.5-0.5,5-1.5c1.5-1,2.7-2.6,3.6-4.8c0.9-2.2,1.4-5.2,1.4-8.9c0-3.4-0.4-6.2-1.3-8.3c-0.8-2.1-2-3.7-3.4-4.6
				s-3.1-1.4-5.1-1.4c-1.8,0-3.5,0.5-5,1.4s-2.7,2.5-3.5,4.7c-0.8,2.2-1.3,5.1-1.3,8.8c0,3.4,0.4,6.2,1.2,8.4
				c0.8,2.1,1.9,3.7,3.3,4.7C434.3,175.3,436,175.8,437.9,175.8z"/>
			<path class="st8" d="M468.9,180.4V177l4.9-1.4l-0.9,1.4v-31.9l1.1,1.4l-5.1-1.3v-3.4l14.4-0.3v3.4l-5,1.6l1-1.5v14.2l-1-1.1h18
				l-1,1.1v-14.1l1,1.4l-5-1.3v-3.4l14.4-0.3v3.4l-4.9,1.6l0.9-1.5V177l-0.9-1.4l4.9,1.4v3.4h-14.4V177l4.9-1.4l-0.8,1.4v-15l1,1.1
				h-18l1-1.1v15l-0.8-1.4l4.9,1.4v3.4H468.9z"/>
			<path class="st8" d="M532.8,170.5h3.8l-0.1,10h-26.7V177l4.9-1.4l-0.9,1.4v-31.9l0.9,1.4l-4.9-1.3v-3.4l10.3-0.3H536v9.6h-3.8
				l-1-5.7l1.2,1h-13.2l1-1.1v14l-1-1.1H532v4.8h-12.8l1-1.2v14.9l-1-1.1H533l-1.2,1.1L532.8,170.5z"/>
			<path class="st8" d="M563.3,169.3h3.8v11.1h-25.5V177l4.8-1.3l-0.8,1.3v-31.9l0.8,1.3l-4.8-1.2v-3.4l14.9-0.3v3.4l-5.2,1.5
				l0.7-1.3v31.5l-1-1.1h12.2l-0.9,1.1L563.3,169.3z"/>
			<path class="st8" d="M602,177.2l-1.7-1.6l4.6,1.4v3.4h-14.4V177l4.8-1.3l-0.6,1l-2.3-7.8l1,0.9H579l0.8-0.8l-2.5,7.6l-0.2-0.7
				l4.5,1.2v3.4h-13.3V177l4.5-1.4l-1.5,1.4l12.4-35.4l6.5-0.2L602,177.2z M580.7,166l-0.5-0.9h12.1l-0.6,1.1l-5.9-20.9l1.4,0.1
				L580.7,166z"/>
			<path class="st8" d="M623.3,141.5c2.5,0,4.7,0.4,6.7,1.2c2,0.8,3.8,2,5.2,3.5c1.5,1.6,2.6,3.5,3.4,5.9c0.8,2.3,1.2,5.1,1.2,8.2
				c0,4.4-0.7,8.1-2.2,11.1c-1.5,3-3.5,5.2-6.1,6.8s-5.7,2.3-9.2,2.3h-15V177l5-1.4l-0.9,1.4v-31.9l1,1.4l-5-1.3v-3.4l11.1-0.3
				H623.3z M622.5,175.5c1.3,0,2.5-0.2,3.7-0.6c1.2-0.4,2.3-1.2,3.3-2.2s1.8-2.5,2.4-4.5c0.6-1.9,0.9-4.4,0.9-7.4
				c0-3-0.3-5.4-0.9-7.2c-0.6-1.9-1.3-3.3-2.3-4.3s-2-1.7-3.2-2.1c-1.2-0.4-2.3-0.6-3.5-0.6h-6.5l1-1.1v31.3l-1-1.1H622.5z"/>
			<path class="st8" d="M660.5,181c-3.2,0-6-0.7-8.3-2.2c-2.4-1.5-4.2-3.7-5.6-6.6s-2-6.5-2-10.8c0-3.4,0.4-6.4,1.2-9s2-4.7,3.5-6.4
				c1.5-1.7,3.3-3,5.4-3.9c2.1-0.8,4.3-1.3,6.8-1.3c2.4,0,4.6,0.4,6.6,1.2c2,0.8,3.7,2.1,5.1,3.7c1.4,1.6,2.6,3.6,3.4,6
				c0.8,2.4,1.2,5.2,1.2,8.4c0,4.4-0.7,8.1-2.2,11.2c-1.5,3.1-3.5,5.5-6.1,7.1C667,180.2,664,181,660.5,181z M661,175.8
				c1.9,0,3.5-0.5,5-1.5s2.7-2.6,3.6-4.8c0.9-2.2,1.4-5.2,1.4-8.9c0-3.4-0.4-6.2-1.3-8.3s-2-3.7-3.4-4.6c-1.5-1-3.1-1.4-5.1-1.4
				c-1.8,0-3.5,0.5-5,1.4s-2.7,2.5-3.5,4.7c-0.8,2.2-1.3,5.1-1.3,8.8c0,3.4,0.4,6.2,1.2,8.4c0.8,2.1,1.9,3.7,3.3,4.7
				C657.4,175.3,659.1,175.8,661,175.8z"/>
			<path class="st8" d="M723.7,177.2l-1.7-1.6l4.6,1.4v3.4h-14.4V177l4.8-1.3l-0.6,1l-2.3-7.8l1,0.9h-14.4l0.8-0.8l-2.5,7.6
				l-0.2-0.7l4.5,1.2v3.4h-13.3V177l4.5-1.4l-1.5,1.4l12.4-35.4l6.5-0.2L723.7,177.2z M702.4,166l-0.5-0.9H714l-0.6,1.1l-5.9-20.9
				l1.4,0.1L702.4,166z"/>
			<path class="st8" d="M728.9,180.4V177l4.9-1.4l-0.9,1.4v-31.9l1.2,1.5l-5.2-1.4v-3.4l10.7-0.3h5.4c4,0,7.1,0.9,9.2,2.7
				c2.1,1.8,3.1,4.4,3.1,7.8c0,3.1-0.9,5.7-2.7,7.7c-1.8,2-4.5,3.2-8.3,3.6v-0.8c1.3,0.1,2.5,0.3,3.3,0.8c0.9,0.4,1.6,1,2.1,1.8
				c0.6,0.8,1.1,1.7,1.6,2.7l4.2,8.8l-1.8-1.2l4.6,1.6v3.4h-7.8l-4.7-10.8c-0.6-1.5-1.2-2.6-1.7-3.4c-0.5-0.8-1.1-1.3-1.9-1.7
				c-0.7-0.3-1.8-0.5-3.1-0.4h-3l1.1-1V177l-0.9-1.4l5.5,1.4v3.4H728.9z M739.3,161.1l-1.1-1.7h4.5c2.6,0,4.6-0.6,6-1.7
				c1.4-1.2,2-2.9,2-5.1c0-2-0.5-3.5-1.6-4.5c-1.1-1.1-2.8-1.6-5-1.6h-5.9l1.1-1.1V161.1z"/>
			<path class="st8" d="M769,180.4V177l5.9-1.4l-1.2,1.7v-31.9l1.3,1.1h-9l1.4-1.3l-1.2,7h-3.8v-10.6h29v10.6h-3.8l-1.2-6.8l1.4,1.1
				h-9l1.3-1.1v31.9l-1.1-1.7l5.8,1.4v3.4H769z"/>
			<path class="st8" d="M817.5,170.5h3.8l-0.1,10h-26.7V177l4.9-1.4l-0.9,1.4v-31.9l0.9,1.4l-4.9-1.3v-3.4l10.3-0.3h15.8v9.6h-3.8
				l-1-5.7l1.2,1h-13.2l1-1.1v14l-1-1.1h12.8v4.8h-12.8l1-1.2v14.9l-1-1.1h13.8l-1.2,1.1L817.5,170.5z"/>
			<path class="st8" d="M833.6,151.2c0,1.2,0.3,2.2,1,2.9c0.7,0.8,1.6,1.4,2.7,1.9s2.4,1,3.7,1.5c1.4,0.5,2.7,1,4,1.5
				s2.6,1.3,3.7,2.1c1.1,0.9,2,1.9,2.7,3.2c0.7,1.3,1,2.9,1,4.9c0,2.7-0.6,4.9-1.9,6.7c-1.3,1.7-3,3-5.2,3.9
				c-2.2,0.9-4.5,1.3-7.1,1.3c-1.8,0-3.6-0.2-5.5-0.6c-1.9-0.4-3.7-1-5.5-1.7l0.3-10.1h3.7l1,6.9l-0.6-1.2c1.1,0.6,2.3,1,3.5,1.2
				c1.2,0.3,2.4,0.4,3.5,0.4c1.4,0,2.7-0.2,3.9-0.6c1.2-0.4,2.1-1.1,2.8-1.9c0.7-0.9,1-1.9,1-3.2c0-1.3-0.3-2.3-1-3.1
				c-0.7-0.8-1.6-1.5-2.7-2c-1.1-0.5-2.4-1-3.7-1.4s-2.7-0.9-4-1.4c-1.3-0.5-2.6-1.2-3.7-2.1c-1.1-0.8-2-1.9-2.7-3.2
				c-0.7-1.3-1-2.9-1-4.9c0-2.5,0.6-4.6,1.7-6.2c1.1-1.6,2.7-2.9,4.7-3.7s4.2-1.2,6.6-1.2c1.7,0,3.5,0.2,5.4,0.6
				c1.9,0.4,3.8,1,5.6,1.8l-0.5,9.4h-3.8l-1-6.3l0.8,0.8c-0.9-0.4-1.9-0.7-3-0.9c-1.1-0.2-2.1-0.3-3.2-0.3c-1.2,0-2.4,0.2-3.5,0.5
				c-1.1,0.4-2,0.9-2.6,1.7C834,148.9,833.6,150,833.6,151.2z"/>
			<path class="st8" d="M889,177.2l-1.7-1.6l4.6,1.4v3.4h-14.4V177l4.8-1.3l-0.6,1l-2.3-7.8l1,0.9h-14.4l0.8-0.8l-2.5,7.6l-0.2-0.7
				l4.5,1.2v3.4h-13.3V177l4.5-1.4l-1.5,1.4l12.4-35.4l6.5-0.2L889,177.2z M867.7,166l-0.5-0.9h12.1l-0.6,1.1l-5.9-20.9l1.4,0.1
				L867.7,166z"/>
			<path class="st8" d="M917.7,141.8l13.4-0.3v3.4l-5,1.6l0.9-1.5v35.4h-7.3l-17-31.7l0.9-0.1V177l-1-1.4l5,1.4v3.4h-13.4V177l5-1.4
				l-1,1.4v-31.9l0.7,1.3l-4.7-1.2v-3.4l11.6-0.3l16.8,31.2h-0.9v-27.6l1,1.4l-5-1.3V141.8z"/>
			<path class="st8" d="M966.3,177.2l-1.7-1.6l4.6,1.4v3.4h-14.4V177l4.8-1.3l-0.6,1l-2.3-7.8l1,0.9h-14.4l0.8-0.8l-2.5,7.6
				l-0.2-0.7l4.5,1.2v3.4h-13.3V177l4.5-1.4l-1.5,1.4l12.4-35.4l6.5-0.2L966.3,177.2z M944.9,166l-0.5-0.9h12.1l-0.6,1.1l-5.9-20.9
				l1.4,0.1L944.9,166z"/>
			<path class="st8" d="M993.2,169.3h3.8v11.1h-25.5V177l4.8-1.3l-0.8,1.3v-31.9l0.8,1.3l-4.8-1.2v-3.4l14.9-0.3v3.4l-5.2,1.5
				l0.7-1.3v31.5l-1-1.1H993l-0.9,1.1L993.2,169.3z"/>
		</g>
	</g>
</g>
</svg>
