<?xml version="1.0" encoding="utf-8"?>
<!-- Generator: Adobe Illustrator 26.2.1, SVG Export Plug-In . SVG Version: 6.00 Build 0)  -->
<svg version="1.1" xmlns="http://www.w3.org/2000/svg" xmlns:xlink="http://www.w3.org/1999/xlink" x="0px" y="0px"
	 viewBox="0 0 165 209" style="enable-background:new 0 0 165 209;" xml:space="preserve">
<style type="text/css">
	.st0{display:none;}
	.st1{display:inline;fill:#F295B7;}
	.st2{display:inline;fill:#020202;stroke:#000000;stroke-miterlimit:10;}
	.st3{fill:#1D1D1B;stroke:#FFFFFF;stroke-width:10;stroke-linecap:round;stroke-linejoin:round;stroke-miterlimit:10;}
	.st4{fill:#DF1859;stroke:#FFFFFF;stroke-width:4;stroke-linejoin:round;stroke-miterlimit:10;}
	.st5{fill:#FEFCFD;stroke:#FFFFFF;stroke-width:4;stroke-linejoin:round;stroke-miterlimit:10;}
	.st6{fill:#DF1859;}
	.st7{fill:#FEFCFD;}
</style>
<g id="Capa_2" class="st0">
	<rect x="-10" y="-102" class="st1" width="1052" height="438"/>
</g>
<g id="Capa_1">
	<g id="Capa_2_00000176727736181201395440000008561853595708625842_" class="st0">
		<rect x="79.9" y="-92.9" class="st2" width="857.5" height="394.8"/>
	</g>
	<g>
		<g>
			<path class="st3" d="M82.5,196.6c-8.1-0.4-16.2-1-24.2-2.5c-4.5-0.9-7.9-3-10-7.6c-3.9-8.9-7.9-17.7-11.4-26.7
				c-2.3-5.9-4.6-11.7-6.2-17.9c-0.2-0.6-0.5-1-1.1-1.2c-4.7-1.4-6.5-5.4-7.7-9.5c-3.4-12.1-0.4-22.6,8.5-31.4
				c1.4-1.4,3.2-2.4,4.9-3.4c0.5-0.3,1-0.6,0.4-1.2c-4.6-4.7-4.6-10.4-3.3-16.2c1.6-7.7,6.5-13,13.2-16.7c3.9-2.2,7.9-4.1,11.8-6.1
				c3.6-1.8,5.3-4.6,5.3-8.7c-0.1-3.9,0.4-7.7,1.2-11.6c1.3-6.1,4.8-10.5,10-13.7c8.9-5.5,18.7-8.8,28.9-11.1c0.6-0.1,1.3-0.1,1.9,0
				c0.6,0.1,1.2,0.5,1.3,1.2c0.1,0.7-0.4,1-1,1.4c-5.1,3.2-8.9,7.7-10.7,13.5c-0.9,2.9,0.1,5.4,2.4,7.4c3.5,3.1,7.7,5.1,11.7,7.5
				c7.6,4.5,14.8,9.7,20.2,16.9c4.2,5.7,6.4,12,6.6,19.2c0.2,6.2-2.1,11.3-4.8,16.5c-0.7,1.3-0.5,1.9,0.7,2.6
				c7.4,4.5,11.2,11.4,12.8,19.7c1.2,6.4,0.7,12.7-2.7,18.5c-1.3,2.2-2.6,4.4-5.4,5c-0.8,0.2-1.2,0.8-1.4,1.6
				c-2.6,9.3-6.2,18.2-10,27.1c-2.5,5.9-5.2,11.7-7.7,17.5c-1.7,3.9-4.5,6-8.4,7c-4.2,1.1-8.5,1.6-12.8,1.9
				C91.1,196,86.8,196.9,82.5,196.6z M42.2,160.3c-0.1-0.2-0.2-0.5-0.5-0.3c-0.2,0.2-0.1,0.4,0.2,0.6c0.2,0.5,0.3,1.1,0.5,1.6
				c2.1,4.9,4.3,9.8,6.5,14.7c1.3,2.8,2.6,5.5,3.9,8.3c0.3,0.6,0.7,1.4,1.6,0.5c2.5-2.4,5.1-4.8,7.7-7.1c0.6-0.6,0.6-1,0-1.5
				C55.6,171.5,48.9,165.9,42.2,160.3z M53.6,94.5c-0.9,0.8-1.9,1.1-2.9,1.4c-3.7,1.1-7.4,1.7-11,3.1c-12.6,4.8-18.3,21.6-13.4,33.3
				c1,2.4,2.3,5,5,5.7c5,1.5,10.3,2.3,15.5,2.9c14.8,1.7,29.5,2.6,44.4,2c13.4-0.5,26.6-1.5,39.7-4.1c3.1-0.6,5.5-2.1,6.9-5
				c2.5-5,3.2-10.2,2-15.7c-2.2-10.1-7.5-17.3-17.9-20.2c-3-0.8-5.9-1.6-8.9-2.5c-0.6-0.2-1.6-0.3-1.5-1.1c0.1-0.6,1-0.6,1.6-0.6
				c3.7-0.4,7.4-0.4,11,0.8c1.7,0.6,2.6,0.2,3.2-1.5c0.6-1.7,1.4-3.2,2-4.9c3.7-10.3,2.2-19.6-4.7-28.2
				c-5.3-6.6-12.1-11.2-19.2-15.4c-3.9-2.3-7.9-4.3-11.3-7.4c-3.3-3.1-4.5-6.8-3.1-11.2c1.2-3.8,3.6-6.8,6.3-9.7
				c0.7-0.7,1.6-1.3,2-2.4c-0.3,0-0.5-0.1-0.6,0c-7.9,3.6-16,6.8-23.4,11.4c-5,3.1-7.7,7.6-8.6,13.5c-0.5,3.6-0.5,7.2-0.8,10.9
				c-0.3,3.8-2,6.5-5.1,8.5c-1.3,0.8-2.6,1.6-3.9,2.3c-3.9,2-8,3.6-11.6,6.1c-6.8,4.5-10.7,10.8-10.6,19.1c0,3,0.6,5.9,3,8
				c0.8,0.7,1.7,1.3,2.9,0.9c3.2-1.1,6.4-1.1,9.7-0.9C51.4,93.7,52.5,93.7,53.6,94.5z M100.5,175.9c0.3-0.2,0.6-0.5,0.9-0.7
				c7.2-6.1,14.5-12.2,21.6-18.3c1-0.8,2.3-1.5,2.8-2.8c1.5-3.5,2.9-7.1,4.2-10.6c0.3-0.9,0.2-1.3-0.9-1.1c-8.4,2-17,2.9-25.7,3.4
				c-0.9,0-1.6,0.3-2.2,0.9c-5.2,5-10.7,9.6-16.3,14.2c-0.9,0.8-0.9,1.2,0,2c4.7,4.1,9.5,8.2,14.2,12.3
				C99.6,175.5,99.9,175.9,100.5,175.9z M80.8,162.3c-0.3-1-0.8-1.3-1.2-1.7c-5.4-4.5-10.7-9.1-15.8-13.8c-0.6-0.6-1.2-1-2.1-1.1
				c-8.7-0.4-17.3-1.4-25.9-3.4c-1.2-0.3-1.2,0.3-0.9,1.1c0.5,1.4,1.1,2.7,1.6,4c1.6,4.1,3.4,7.8,7,10.8
				c6.8,5.6,13.6,11.3,20.2,17.1c0.7,0.6,1.2,0.6,1.9,0c4.8-4.3,9.7-8.5,14.6-12.7C80.4,162.4,80.8,162.4,80.8,162.3z M82.5,189.9
				c0.3-0.2,0.5-0.3,0.7-0.4c5.2-3.5,10-7.5,14.8-11.4c0.7-0.6,0.5-1-0.1-1.5c-4.9-4.3-9.8-8.5-14.7-12.8c-0.5-0.5-0.9-0.5-1.4,0
				c-4.9,4.3-9.8,8.5-14.7,12.8c-0.6,0.5-0.8,1,0,1.6c4.8,3.7,9.4,7.7,14.4,11.1C81.8,189.4,82.2,189.6,82.5,189.9z M64.8,146
				c0.4,0.5,0.5,0.7,0.7,0.8c5.6,4.2,11,8.6,16.3,13.2c0.9,0.8,1.3,0.2,1.9-0.3c4.1-3.4,8.3-6.7,12.3-10.1c1.3-1.1,3-1.9,4.2-3.6
				C88.3,146,76.7,146,64.8,146z M123.6,159.8c-0.5,0.2-0.7,0.3-0.8,0.4c-6.6,5.6-13.2,11.2-19.8,16.7c-0.9,0.8-0.8,1.2,0,1.9
				c2.1,1.9,4.3,3.9,6.4,5.8c2.1,2,2.2,2.1,3.5-0.6c1.9-3.9,3.7-7.8,5.5-11.7C120,168.2,121.7,164.2,123.6,159.8z M80.6,191
				c-1.2-0.8-2.5-1.6-3.7-2.5c-3.8-2.7-7.5-5.4-11-8.5c-1.2-1.1-2-0.9-3.1,0.1c-2.2,2.1-4.5,4-6.7,6c-0.5,0.4-1.4,0.8-1.1,1.5
				c0.2,0.6,1.1,0.7,1.8,0.9c4.1,1,8.2,1.6,12.4,2C72.9,190.9,76.7,191.5,80.6,191z M84,191.3c3.5,0.4,6.4-0.3,9.4-0.5
				c5.1-0.4,10.2-1,15.2-2.3c0.6-0.1,1.4-0.2,1.5-0.9c0.1-0.6-0.6-0.9-1-1.3c-2.5-2.2-5-4.4-7.4-6.6c-0.6-0.5-1-0.9-1.9-0.2
				C94.9,183.7,89.8,187.5,84,191.3z"/>
			<path class="st3" d="M28.4,40.7c1.1,0,2.8,0.9,3.7,0c1-1-0.1-2.6-0.2-3.9c-0.2-2.6-0.5-5.1-0.7-7.7c0-0.6-0.4-1.5,0.4-1.9
				c0.6-0.3,1.1,0.4,1.6,0.7c2.8,2.1,5.4,4.5,7.8,7c1.1,1.1,1.6,0.9,2.2-0.3c0.4-0.8,0.9-1.5,1.4-2.2c1.6-2.6,3.2-2.6,4.6,0.1
				c1.1,2.2,2,4.4,2.9,6.7c1.3,3.4,2.5,6.9,3.7,10.4c0.1,0.2,0.2,0.3,0.2,0.5c0.9,2.6,0.8,3-1.8,4c-5.1,2-9.9,4.5-14.5,7.4
				c-1.4,0.9-2.1,0.5-2.9-0.6c-1.1-1.5-2.4-2.9-3.4-4.5c-2.6-4-5.5-7.8-7.7-12C24.3,41.8,25,40.6,28.4,40.7z"/>
			<path class="st3" d="M53.6,94.5c-1.1-0.8-2.1-0.8-3.2-0.9c-3.3-0.2-6.5-0.2-9.7,0.9c-1.2,0.4-2.1-0.2-2.9-0.9c-2.4-2.2-3-5.1-3-8
				c-0.1-8.3,3.8-14.6,10.6-19.1c3.7-2.4,7.8-4.1,11.6-6.1c1.3-0.7,2.6-1.4,3.9-2.3c3.1-2,4.8-4.7,5.1-8.5c0.2-3.6,0.2-7.2,0.8-10.9
				c0.9-5.8,3.6-10.3,8.6-13.5c7.4-4.6,15.5-7.9,23.4-11.4c0.1-0.1,0.4,0,0.6,0c-0.4,1.1-1.3,1.7-2,2.4c-2.7,2.9-5.1,5.9-6.3,9.7
				c-1.4,4.4-0.3,8.1,3.1,11.2c3.3,3.1,7.4,5.1,11.3,7.4c7.1,4.2,13.9,8.9,19.2,15.4c6.9,8.6,8.4,17.9,4.7,28.2
				c-0.6,1.6-1.4,3.2-2,4.9c-0.6,1.7-1.5,2.1-3.2,1.5c-3.6-1.3-7.3-1.2-11-0.8c-0.6,0.1-1.5,0-1.6,0.6c-0.1,0.8,0.9,0.9,1.5,1.1
				c2.9,0.9,5.9,1.7,8.9,2.5c10.4,2.8,15.7,10.1,17.9,20.2c1.2,5.5,0.5,10.7-2,15.7c-1.4,2.9-3.8,4.4-6.9,5
				c-13.1,2.7-26.4,3.6-39.7,4.1c-14.9,0.6-29.7-0.3-44.4-2c-5.2-0.6-10.4-1.4-15.5-2.9c-2.7-0.8-4-3.3-5-5.7
				c-4.9-11.8,0.8-28.5,13.4-33.3c3.6-1.4,7.4-2,11-3.1C51.7,95.6,52.7,95.3,53.6,94.5z M82,131.7c9-0.2,14.2-5.5,13.9-13.1
				c-0.1-3-1.3-4-4.3-3.8c-1.8,0.2-3.6,0.5-5.4,0.4c-4.6-0.3-9.1,0.2-13.7-0.3c-2-0.2-3.1,1-3.3,3c-0.3,2.6,0.1,5.1,1.4,7.4
				C73.4,130.3,77.8,132,82,131.7z M110,110.9c0-0.8,0-1.6,0-2.4c-0.1-2-0.2-4-1.5-5.7c-1.4-1.9-3.6-1.8-4.7,0.3
				c-0.3,0.6-0.6,1.3-0.6,1.9c-0.4,3.9-0.6,7.7,1,11.4c0.5,1.2,1,2.3,2.6,2.3c1.7,0,2.4-1.2,2.8-2.6C110,114.4,110,112.6,110,110.9z
				 M55.1,109.3c-0.1,2.9-0.1,5.1,0.6,7.1c0.3,1.1,1,2,2.3,2.2c1.1,0.1,2-0.2,2.5-1.2c2-4.4,2.1-9.1,1.1-13.7
				c-0.3-1.2-1.1-2.1-2.5-2.2c-1.5-0.1-2.3,0.8-2.9,1.9C55,105.5,55.2,107.8,55.1,109.3z"/>
			<path class="st3" d="M100.5,175.9c-0.6,0-0.9-0.4-1.2-0.7c-4.7-4.1-9.4-8.2-14.2-12.3c-0.9-0.8-1-1.2,0-2
				c5.5-4.6,11-9.2,16.3-14.2c0.6-0.6,1.3-0.9,2.2-0.9c8.6-0.5,17.2-1.4,25.7-3.4c1.1-0.3,1.3,0.2,0.9,1.1
				c-1.4,3.5-2.8,7.1-4.2,10.6c-0.5,1.3-1.8,1.9-2.8,2.8c-7.2,6.1-14.4,12.2-21.6,18.3C101.1,175.4,100.8,175.7,100.5,175.9z"/>
			<path class="st3" d="M80.8,162.3c-0.1,0-0.4,0.1-0.7,0.3c-4.9,4.2-9.7,8.5-14.6,12.7c-0.7,0.6-1.2,0.6-1.9,0
				c-6.7-5.8-13.4-11.5-20.2-17.1c-3.7-3-5.5-6.7-7-10.8c-0.5-1.3-1.1-2.7-1.6-4c-0.3-0.8-0.3-1.4,0.9-1.1c8.5,2,17.1,2.9,25.9,3.4
				c0.9,0,1.5,0.5,2.1,1.1c5.1,4.8,10.5,9.3,15.8,13.8C80,161,80.6,161.3,80.8,162.3z"/>
			<path class="st3" d="M82.5,189.9c-0.4-0.2-0.7-0.4-1.1-0.7c-5-3.4-9.6-7.3-14.4-11.1c-0.8-0.6-0.6-1.1,0-1.6
				c4.9-4.2,9.8-8.5,14.7-12.8c0.5-0.5,0.9-0.4,1.4,0c4.9,4.3,9.8,8.5,14.7,12.8c0.6,0.5,0.8,0.9,0.1,1.5
				c-4.9,3.9-9.7,7.9-14.8,11.4C83,189.6,82.8,189.7,82.5,189.9z"/>
			<path class="st3" d="M64.8,146c11.9,0,23.5,0,35.4,0c-1.2,1.7-2.9,2.5-4.2,3.6c-4.1,3.4-8.2,6.7-12.3,10.1c-0.6,0.5-1,1-1.9,0.3
				c-5.3-4.6-10.8-8.9-16.3-13.2C65.3,146.8,65.2,146.6,64.8,146z"/>
			<path class="st3" d="M123.6,159.8c-1.8,4.4-3.5,8.4-5.3,12.5c-1.8,3.9-3.6,7.8-5.5,11.7c-1.3,2.7-1.3,2.6-3.5,0.6
				c-2.1-2-4.2-3.9-6.4-5.8c-0.8-0.7-0.9-1.1,0-1.9c6.6-5.5,13.2-11.1,19.8-16.7C122.9,160.1,123.1,160,123.6,159.8z"/>
			<path class="st3" d="M42.2,160.3c6.7,5.6,13.3,11.2,20,16.7c0.6,0.5,0.6,1,0,1.5c-2.6,2.4-5.2,4.7-7.7,7.1
				c-0.9,0.9-1.3,0.1-1.6-0.5c-1.3-2.7-2.7-5.5-3.9-8.3c-2.2-4.9-4.3-9.8-6.5-14.7c-0.2-0.5-0.3-1.1-0.5-1.6
				C42.1,160.5,42.1,160.4,42.2,160.3z"/>
			<path class="st3" d="M80.6,191c-3.9,0.5-7.7-0.1-11.5-0.4c-4.2-0.4-8.3-1-12.4-2c-0.7-0.2-1.6-0.2-1.8-0.9
				c-0.3-0.8,0.7-1.1,1.1-1.5c2.2-2,4.5-4,6.7-6c1.1-1,1.9-1.2,3.1-0.1c3.5,3.1,7.2,5.8,11,8.5C78.1,189.4,79.4,190.2,80.6,191z"/>
			<path class="st3" d="M84,191.3c5.8-3.7,10.9-7.6,15.8-11.8c0.8-0.7,1.3-0.3,1.9,0.2c2.5,2.2,5,4.4,7.4,6.6c0.4,0.4,1.1,0.6,1,1.3
				c-0.1,0.7-1,0.7-1.5,0.9c-5,1.3-10.1,2-15.2,2.3C90.4,191,87.5,191.6,84,191.3z"/>
			<path class="st3" d="M42,160.5c-0.3-0.1-0.4-0.4-0.2-0.6c0.3-0.2,0.3,0.2,0.5,0.3C42.1,160.4,42.1,160.5,42,160.5z"/>
			<path class="st3" d="M82,131.7c-4.1,0.3-8.6-1.4-11.4-6.5c-1.3-2.3-1.7-4.8-1.4-7.4c0.2-2,1.4-3.2,3.3-3
				c4.6,0.6,9.1,0.1,13.7,0.3c1.8,0.1,3.6-0.2,5.4-0.4c3-0.3,4.2,0.8,4.3,3.8C96.1,126.2,91,131.5,82,131.7z"/>
			<path class="st3" d="M110,110.9c0,1.8,0,3.5-0.5,5.2c-0.4,1.4-1.1,2.5-2.8,2.6c-1.6,0-2-1-2.6-2.3c-1.5-3.7-1.4-7.6-1-11.4
				c0.1-0.7,0.3-1.4,0.6-1.9c1.1-2,3.3-2.1,4.7-0.3c1.2,1.7,1.4,3.7,1.5,5.7C110,109.3,110,110.1,110,110.9z"/>
			<path class="st3" d="M55.1,109.3c0.1-1.5-0.1-3.8,1.1-6c0.6-1.2,1.4-2.1,2.9-1.9c1.4,0.1,2.2,1.1,2.5,2.2c1,4.7,1,9.3-1.1,13.7
				c-0.5,1-1.4,1.4-2.5,1.2c-1.3-0.2-2-1.1-2.3-2.2C55.1,114.4,55.1,112.3,55.1,109.3z"/>
		</g>
		<g>
			<path class="st3" d="M82.5,196.6c-8.1-0.4-16.2-1-24.2-2.5c-4.5-0.9-7.9-3-10-7.6c-3.9-8.9-7.9-17.7-11.4-26.7
				c-2.3-5.9-4.6-11.7-6.2-17.9c-0.2-0.6-0.5-1-1.1-1.2c-4.7-1.4-6.5-5.4-7.7-9.5c-3.4-12.1-0.4-22.6,8.5-31.4
				c1.4-1.4,3.2-2.4,4.9-3.4c0.5-0.3,1-0.6,0.4-1.2c-4.6-4.7-4.6-10.4-3.3-16.2c1.6-7.7,6.5-13,13.2-16.7c3.9-2.2,7.9-4.1,11.8-6.1
				c3.6-1.8,5.3-4.6,5.3-8.7c-0.1-3.9,0.4-7.7,1.2-11.6c1.3-6.1,4.8-10.5,10-13.7c8.9-5.5,18.7-8.8,28.9-11.1c0.6-0.1,1.3-0.1,1.9,0
				c0.6,0.1,1.2,0.5,1.3,1.2c0.1,0.7-0.4,1-1,1.4c-5.1,3.2-8.9,7.7-10.7,13.5c-0.9,2.9,0.1,5.4,2.4,7.4c3.5,3.1,7.7,5.1,11.7,7.5
				c7.6,4.5,14.8,9.7,20.2,16.9c4.2,5.7,6.4,12,6.6,19.2c0.2,6.2-2.1,11.3-4.8,16.5c-0.7,1.3-0.5,1.9,0.7,2.6
				c7.4,4.5,11.2,11.4,12.8,19.7c1.2,6.4,0.7,12.7-2.7,18.5c-1.3,2.2-2.6,4.4-5.4,5c-0.8,0.2-1.2,0.8-1.4,1.6
				c-2.6,9.3-6.2,18.2-10,27.1c-2.5,5.9-5.2,11.7-7.7,17.5c-1.7,3.9-4.5,6-8.4,7c-4.2,1.1-8.5,1.6-12.8,1.9
				C91.1,196,86.8,196.9,82.5,196.6z M42.2,160.3c-0.1-0.2-0.2-0.5-0.5-0.3c-0.2,0.2-0.1,0.4,0.2,0.6c0.2,0.5,0.3,1.1,0.5,1.6
				c2.1,4.9,4.3,9.8,6.5,14.7c1.3,2.8,2.6,5.5,3.9,8.3c0.3,0.6,0.7,1.4,1.6,0.5c2.5-2.4,5.1-4.8,7.7-7.1c0.6-0.6,0.6-1,0-1.5
				C55.6,171.5,48.9,165.9,42.2,160.3z M53.6,94.5c-0.9,0.8-1.9,1.1-2.9,1.4c-3.7,1.1-7.4,1.7-11,3.1c-12.6,4.8-18.3,21.6-13.4,33.3
				c1,2.4,2.3,5,5,5.7c5,1.5,10.3,2.3,15.5,2.9c14.8,1.7,29.5,2.6,44.4,2c13.4-0.5,26.6-1.5,39.7-4.1c3.1-0.6,5.5-2.1,6.9-5
				c2.5-5,3.2-10.2,2-15.7c-2.2-10.1-7.5-17.3-17.9-20.2c-3-0.8-5.9-1.6-8.9-2.5c-0.6-0.2-1.6-0.3-1.5-1.1c0.1-0.6,1-0.6,1.6-0.6
				c3.7-0.4,7.4-0.4,11,0.8c1.7,0.6,2.6,0.2,3.2-1.5c0.6-1.7,1.4-3.2,2-4.9c3.7-10.3,2.2-19.6-4.7-28.2
				c-5.3-6.6-12.1-11.2-19.2-15.4c-3.9-2.3-7.9-4.3-11.3-7.4c-3.3-3.1-4.5-6.8-3.1-11.2c1.2-3.8,3.6-6.8,6.3-9.7
				c0.7-0.7,1.6-1.3,2-2.4c-0.3,0-0.5-0.1-0.6,0c-7.9,3.6-16,6.8-23.4,11.4c-5,3.1-7.7,7.6-8.6,13.5c-0.5,3.6-0.5,7.2-0.8,10.9
				c-0.3,3.8-2,6.5-5.1,8.5c-1.3,0.8-2.6,1.6-3.9,2.3c-3.9,2-8,3.6-11.6,6.1c-6.8,4.5-10.7,10.8-10.6,19.1c0,3,0.6,5.9,3,8
				c0.8,0.7,1.7,1.3,2.9,0.9c3.2-1.1,6.4-1.1,9.7-0.9C51.4,93.7,52.5,93.7,53.6,94.5z M100.5,175.9c0.3-0.2,0.6-0.5,0.9-0.7
				c7.2-6.1,14.5-12.2,21.6-18.3c1-0.8,2.3-1.5,2.8-2.8c1.5-3.5,2.9-7.1,4.2-10.6c0.3-0.9,0.2-1.3-0.9-1.1c-8.4,2-17,2.9-25.7,3.4
				c-0.9,0-1.6,0.3-2.2,0.9c-5.2,5-10.7,9.6-16.3,14.2c-0.9,0.8-0.9,1.2,0,2c4.7,4.1,9.5,8.2,14.2,12.3
				C99.6,175.5,99.9,175.9,100.5,175.9z M80.8,162.3c-0.3-1-0.8-1.3-1.2-1.7c-5.4-4.5-10.7-9.1-15.8-13.8c-0.6-0.6-1.2-1-2.1-1.1
				c-8.7-0.4-17.3-1.4-25.9-3.4c-1.2-0.3-1.2,0.3-0.9,1.1c0.5,1.4,1.1,2.7,1.6,4c1.6,4.1,3.4,7.8,7,10.8
				c6.8,5.6,13.6,11.3,20.2,17.1c0.7,0.6,1.2,0.6,1.9,0c4.8-4.3,9.7-8.5,14.6-12.7C80.4,162.4,80.8,162.4,80.8,162.3z M82.5,189.9
				c0.3-0.2,0.5-0.3,0.7-0.4c5.2-3.5,10-7.5,14.8-11.4c0.7-0.6,0.5-1-0.1-1.5c-4.9-4.3-9.8-8.5-14.7-12.8c-0.5-0.5-0.9-0.5-1.4,0
				c-4.9,4.3-9.8,8.5-14.7,12.8c-0.6,0.5-0.8,1,0,1.6c4.8,3.7,9.4,7.7,14.4,11.1C81.8,189.4,82.2,189.6,82.5,189.9z M64.8,146
				c0.4,0.5,0.5,0.7,0.7,0.8c5.6,4.2,11,8.6,16.3,13.2c0.9,0.8,1.3,0.2,1.9-0.3c4.1-3.4,8.3-6.7,12.3-10.1c1.3-1.1,3-1.9,4.2-3.6
				C88.3,146,76.7,146,64.8,146z M123.6,159.8c-0.5,0.2-0.7,0.3-0.8,0.4c-6.6,5.6-13.2,11.2-19.8,16.7c-0.9,0.8-0.8,1.2,0,1.9
				c2.1,1.9,4.3,3.9,6.4,5.8c2.1,2,2.2,2.1,3.5-0.6c1.9-3.9,3.7-7.8,5.5-11.7C120,168.2,121.7,164.2,123.6,159.8z M80.6,191
				c-1.2-0.8-2.5-1.6-3.7-2.5c-3.8-2.7-7.5-5.4-11-8.5c-1.2-1.1-2-0.9-3.1,0.1c-2.2,2.1-4.5,4-6.7,6c-0.5,0.4-1.4,0.8-1.1,1.5
				c0.2,0.6,1.1,0.7,1.8,0.9c4.1,1,8.2,1.6,12.4,2C72.9,190.9,76.7,191.5,80.6,191z M84,191.3c3.5,0.4,6.4-0.3,9.4-0.5
				c5.1-0.4,10.2-1,15.2-2.3c0.6-0.1,1.4-0.2,1.5-0.9c0.1-0.6-0.6-0.9-1-1.3c-2.5-2.2-5-4.4-7.4-6.6c-0.6-0.5-1-0.9-1.9-0.2
				C94.9,183.7,89.8,187.5,84,191.3z"/>
			<path class="st3" d="M28.4,40.7c1.1,0,2.8,0.9,3.7,0c1-1-0.1-2.6-0.2-3.9c-0.2-2.6-0.5-5.1-0.7-7.7c0-0.6-0.4-1.5,0.4-1.9
				c0.6-0.3,1.1,0.4,1.6,0.7c2.8,2.1,5.4,4.5,7.8,7c1.1,1.1,1.6,0.9,2.2-0.3c0.4-0.8,0.9-1.5,1.4-2.2c1.6-2.6,3.2-2.6,4.6,0.1
				c1.1,2.2,2,4.4,2.9,6.7c1.3,3.4,2.5,6.9,3.7,10.4c0.1,0.2,0.2,0.3,0.2,0.5c0.9,2.6,0.8,3-1.8,4c-5.1,2-9.9,4.5-14.5,7.4
				c-1.4,0.9-2.1,0.5-2.9-0.6c-1.1-1.5-2.4-2.9-3.4-4.5c-2.6-4-5.5-7.8-7.7-12C24.3,41.8,25,40.6,28.4,40.7z"/>
			<path class="st3" d="M53.6,94.5c-1.1-0.8-2.1-0.8-3.2-0.9c-3.3-0.2-6.5-0.2-9.7,0.9c-1.2,0.4-2.1-0.2-2.9-0.9c-2.4-2.2-3-5.1-3-8
				c-0.1-8.3,3.8-14.6,10.6-19.1c3.7-2.4,7.8-4.1,11.6-6.1c1.3-0.7,2.6-1.4,3.9-2.3c3.1-2,4.8-4.7,5.1-8.5c0.2-3.6,0.2-7.2,0.8-10.9
				c0.9-5.8,3.6-10.3,8.6-13.5c7.4-4.6,15.5-7.9,23.4-11.4c0.1-0.1,0.4,0,0.6,0c-0.4,1.1-1.3,1.7-2,2.4c-2.7,2.9-5.1,5.9-6.3,9.7
				c-1.4,4.4-0.3,8.1,3.1,11.2c3.3,3.1,7.4,5.1,11.3,7.4c7.1,4.2,13.9,8.9,19.2,15.4c6.9,8.6,8.4,17.9,4.7,28.2
				c-0.6,1.6-1.4,3.2-2,4.9c-0.6,1.7-1.5,2.1-3.2,1.5c-3.6-1.3-7.3-1.2-11-0.8c-0.6,0.1-1.5,0-1.6,0.6c-0.1,0.8,0.9,0.9,1.5,1.1
				c2.9,0.9,5.9,1.7,8.9,2.5c10.4,2.8,15.7,10.1,17.9,20.2c1.2,5.5,0.5,10.7-2,15.7c-1.4,2.9-3.8,4.4-6.9,5
				c-13.1,2.7-26.4,3.6-39.7,4.1c-14.9,0.6-29.7-0.3-44.4-2c-5.2-0.6-10.4-1.4-15.5-2.9c-2.7-0.8-4-3.3-5-5.7
				c-4.9-11.8,0.8-28.5,13.4-33.3c3.6-1.4,7.4-2,11-3.1C51.7,95.6,52.7,95.3,53.6,94.5z M82,131.7c9-0.2,14.2-5.5,13.9-13.1
				c-0.1-3-1.3-4-4.3-3.8c-1.8,0.2-3.6,0.5-5.4,0.4c-4.6-0.3-9.1,0.2-13.7-0.3c-2-0.2-3.1,1-3.3,3c-0.3,2.6,0.1,5.1,1.4,7.4
				C73.4,130.3,77.8,132,82,131.7z M110,110.9c0-0.8,0-1.6,0-2.4c-0.1-2-0.2-4-1.5-5.7c-1.4-1.9-3.6-1.8-4.7,0.3
				c-0.3,0.6-0.6,1.3-0.6,1.9c-0.4,3.9-0.6,7.7,1,11.4c0.5,1.2,1,2.3,2.6,2.3c1.7,0,2.4-1.2,2.8-2.6C110,114.4,110,112.6,110,110.9z
				 M55.1,109.3c-0.1,2.9-0.1,5.1,0.6,7.1c0.3,1.1,1,2,2.3,2.2c1.1,0.1,2-0.2,2.5-1.2c2-4.4,2.1-9.1,1.1-13.7
				c-0.3-1.2-1.1-2.1-2.5-2.2c-1.5-0.1-2.3,0.8-2.9,1.9C55,105.5,55.2,107.8,55.1,109.3z"/>
			<path class="st3" d="M100.5,175.9c-0.6,0-0.9-0.4-1.2-0.7c-4.7-4.1-9.4-8.2-14.2-12.3c-0.9-0.8-1-1.2,0-2
				c5.5-4.6,11-9.2,16.3-14.2c0.6-0.6,1.3-0.9,2.2-0.9c8.6-0.5,17.2-1.4,25.7-3.4c1.1-0.3,1.3,0.2,0.9,1.1
				c-1.4,3.5-2.8,7.1-4.2,10.6c-0.5,1.3-1.8,1.9-2.8,2.8c-7.2,6.1-14.4,12.2-21.6,18.3C101.1,175.4,100.8,175.7,100.5,175.9z"/>
			<path class="st3" d="M80.8,162.3c-0.1,0-0.4,0.1-0.7,0.3c-4.9,4.2-9.7,8.5-14.6,12.7c-0.7,0.6-1.2,0.6-1.9,0
				c-6.7-5.8-13.4-11.5-20.2-17.1c-3.7-3-5.5-6.7-7-10.8c-0.5-1.3-1.1-2.7-1.6-4c-0.3-0.8-0.3-1.4,0.9-1.1c8.5,2,17.1,2.9,25.9,3.4
				c0.9,0,1.5,0.5,2.1,1.1c5.1,4.8,10.5,9.3,15.8,13.8C80,161,80.6,161.3,80.8,162.3z"/>
			<path class="st3" d="M82.5,189.9c-0.4-0.2-0.7-0.4-1.1-0.7c-5-3.4-9.6-7.3-14.4-11.1c-0.8-0.6-0.6-1.1,0-1.6
				c4.9-4.2,9.8-8.5,14.7-12.8c0.5-0.5,0.9-0.4,1.4,0c4.9,4.3,9.8,8.5,14.7,12.8c0.6,0.5,0.8,0.9,0.1,1.5
				c-4.9,3.9-9.7,7.9-14.8,11.4C83,189.6,82.8,189.7,82.5,189.9z"/>
			<path class="st3" d="M64.8,146c11.9,0,23.5,0,35.4,0c-1.2,1.7-2.9,2.5-4.2,3.6c-4.1,3.4-8.2,6.7-12.3,10.1c-0.6,0.5-1,1-1.9,0.3
				c-5.3-4.6-10.8-8.9-16.3-13.2C65.3,146.8,65.2,146.6,64.8,146z"/>
			<path class="st3" d="M123.6,159.8c-1.8,4.4-3.5,8.4-5.3,12.5c-1.8,3.9-3.6,7.8-5.5,11.7c-1.3,2.7-1.3,2.6-3.5,0.6
				c-2.1-2-4.2-3.9-6.4-5.8c-0.8-0.7-0.9-1.1,0-1.9c6.6-5.5,13.2-11.1,19.8-16.7C122.9,160.1,123.1,160,123.6,159.8z"/>
			<path class="st3" d="M42.2,160.3c6.7,5.6,13.3,11.2,20,16.7c0.6,0.5,0.6,1,0,1.5c-2.6,2.4-5.2,4.7-7.7,7.1
				c-0.9,0.9-1.3,0.1-1.6-0.5c-1.3-2.7-2.7-5.5-3.9-8.3c-2.2-4.9-4.3-9.8-6.5-14.7c-0.2-0.5-0.3-1.1-0.5-1.6
				C42.1,160.5,42.1,160.4,42.2,160.3z"/>
			<path class="st3" d="M80.6,191c-3.9,0.5-7.7-0.1-11.5-0.4c-4.2-0.4-8.3-1-12.4-2c-0.7-0.2-1.6-0.2-1.8-0.9
				c-0.3-0.8,0.7-1.1,1.1-1.5c2.2-2,4.5-4,6.7-6c1.1-1,1.9-1.2,3.1-0.1c3.5,3.1,7.2,5.8,11,8.5C78.1,189.4,79.4,190.2,80.6,191z"/>
			<path class="st3" d="M84,191.3c5.8-3.7,10.9-7.6,15.8-11.8c0.8-0.7,1.3-0.3,1.9,0.2c2.5,2.2,5,4.4,7.4,6.6c0.4,0.4,1.1,0.6,1,1.3
				c-0.1,0.7-1,0.7-1.5,0.9c-5,1.3-10.1,2-15.2,2.3C90.4,191,87.5,191.6,84,191.3z"/>
			<path class="st3" d="M42,160.5c-0.3-0.1-0.4-0.4-0.2-0.6c0.3-0.2,0.3,0.2,0.5,0.3C42.1,160.4,42.1,160.5,42,160.5z"/>
			<path class="st3" d="M82,131.7c-4.1,0.3-8.6-1.4-11.4-6.5c-1.3-2.3-1.7-4.8-1.4-7.4c0.2-2,1.4-3.2,3.3-3
				c4.6,0.6,9.1,0.1,13.7,0.3c1.8,0.1,3.6-0.2,5.4-0.4c3-0.3,4.2,0.8,4.3,3.8C96.1,126.2,91,131.5,82,131.7z"/>
			<path class="st3" d="M110,110.9c0,1.8,0,3.5-0.5,5.2c-0.4,1.4-1.1,2.5-2.8,2.6c-1.6,0-2-1-2.6-2.3c-1.5-3.7-1.4-7.6-1-11.4
				c0.1-0.7,0.3-1.4,0.6-1.9c1.1-2,3.3-2.1,4.7-0.3c1.2,1.7,1.4,3.7,1.5,5.7C110,109.3,110,110.1,110,110.9z"/>
			<path class="st3" d="M55.1,109.3c0.1-1.5-0.1-3.8,1.1-6c0.6-1.2,1.4-2.1,2.9-1.9c1.4,0.1,2.2,1.1,2.5,2.2c1,4.7,1,9.3-1.1,13.7
				c-0.5,1-1.4,1.4-2.5,1.2c-1.3-0.2-2-1.1-2.3-2.2C55.1,114.4,55.1,112.3,55.1,109.3z"/>
		</g>
	</g>
	<g>
		<g>
			<path class="st4" d="M82.5,196.6c-8.1-0.4-16.2-1-24.2-2.5c-4.5-0.9-7.9-3-10-7.6c-3.9-8.9-7.9-17.7-11.4-26.7
				c-2.3-5.9-4.6-11.7-6.2-17.9c-0.2-0.6-0.5-1-1.1-1.2c-4.7-1.4-6.5-5.4-7.7-9.5c-3.4-12.1-0.4-22.6,8.5-31.4
				c1.4-1.4,3.2-2.4,4.9-3.4c0.5-0.3,1-0.6,0.4-1.2c-4.6-4.7-4.6-10.4-3.3-16.2c1.6-7.7,6.5-13,13.2-16.7c3.9-2.2,7.9-4.1,11.8-6.1
				c3.6-1.8,5.3-4.6,5.3-8.7c-0.1-3.9,0.4-7.7,1.2-11.6c1.3-6.1,4.8-10.5,10-13.7c8.9-5.5,18.7-8.8,28.9-11.1c0.6-0.1,1.3-0.1,1.9,0
				c0.6,0.1,1.2,0.5,1.3,1.2c0.1,0.7-0.4,1-1,1.4c-5.1,3.2-8.9,7.7-10.7,13.5c-0.9,2.9,0.1,5.4,2.4,7.4c3.5,3.1,7.7,5.1,11.7,7.5
				c7.6,4.5,14.8,9.7,20.2,16.9c4.2,5.7,6.4,12,6.6,19.2c0.2,6.2-2.1,11.3-4.8,16.5c-0.7,1.3-0.5,1.9,0.7,2.6
				c7.4,4.5,11.2,11.4,12.8,19.7c1.2,6.4,0.7,12.7-2.7,18.5c-1.3,2.2-2.6,4.4-5.4,5c-0.8,0.2-1.2,0.8-1.4,1.6
				c-2.6,9.3-6.2,18.2-10,27.1c-2.5,5.9-5.2,11.7-7.7,17.5c-1.7,3.9-4.5,6-8.4,7c-4.2,1.1-8.5,1.6-12.8,1.9
				C91.1,196,86.8,196.9,82.5,196.6z M42.2,160.3c-0.1-0.2-0.2-0.5-0.5-0.3c-0.2,0.2-0.1,0.4,0.2,0.6c0.2,0.5,0.3,1.1,0.5,1.6
				c2.1,4.9,4.3,9.8,6.5,14.7c1.3,2.8,2.6,5.5,3.9,8.3c0.3,0.6,0.7,1.4,1.6,0.5c2.5-2.4,5.1-4.8,7.7-7.1c0.6-0.6,0.6-1,0-1.5
				C55.6,171.5,48.9,165.9,42.2,160.3z M53.6,94.5c-0.9,0.8-1.9,1.1-2.9,1.4c-3.7,1.1-7.4,1.7-11,3.1c-12.6,4.8-18.3,21.6-13.4,33.3
				c1,2.4,2.3,5,5,5.7c5,1.5,10.3,2.3,15.5,2.9c14.8,1.7,29.5,2.6,44.4,2c13.4-0.5,26.6-1.5,39.7-4.1c3.1-0.6,5.5-2.1,6.9-5
				c2.5-5,3.2-10.2,2-15.7c-2.2-10.1-7.5-17.3-17.9-20.2c-3-0.8-5.9-1.6-8.9-2.5c-0.6-0.2-1.6-0.3-1.5-1.1c0.1-0.6,1-0.6,1.6-0.6
				c3.7-0.4,7.4-0.4,11,0.8c1.7,0.6,2.6,0.2,3.2-1.5c0.6-1.7,1.4-3.2,2-4.9c3.7-10.3,2.2-19.6-4.7-28.2
				c-5.3-6.6-12.1-11.2-19.2-15.4c-3.9-2.3-7.9-4.3-11.3-7.4c-3.3-3.1-4.5-6.8-3.1-11.2c1.2-3.8,3.6-6.8,6.3-9.7
				c0.7-0.7,1.6-1.3,2-2.4c-0.3,0-0.5-0.1-0.6,0c-7.9,3.6-16,6.8-23.4,11.4c-5,3.1-7.7,7.6-8.6,13.5c-0.5,3.6-0.5,7.2-0.8,10.9
				c-0.3,3.8-2,6.5-5.1,8.5c-1.3,0.8-2.6,1.6-3.9,2.3c-3.9,2-8,3.6-11.6,6.1c-6.8,4.5-10.7,10.8-10.6,19.1c0,3,0.6,5.9,3,8
				c0.8,0.7,1.7,1.3,2.9,0.9c3.2-1.1,6.4-1.1,9.7-0.9C51.4,93.7,52.5,93.7,53.6,94.5z M100.5,175.9c0.3-0.2,0.6-0.5,0.9-0.7
				c7.2-6.1,14.5-12.2,21.6-18.3c1-0.8,2.3-1.5,2.8-2.8c1.5-3.5,2.9-7.1,4.2-10.6c0.3-0.9,0.2-1.3-0.9-1.1c-8.4,2-17,2.9-25.7,3.4
				c-0.9,0-1.6,0.3-2.2,0.9c-5.2,5-10.7,9.6-16.3,14.2c-0.9,0.8-0.9,1.2,0,2c4.7,4.1,9.5,8.2,14.2,12.3
				C99.6,175.5,99.9,175.9,100.5,175.9z M80.8,162.3c-0.3-1-0.8-1.3-1.2-1.7c-5.4-4.5-10.7-9.1-15.8-13.8c-0.6-0.6-1.2-1-2.1-1.1
				c-8.7-0.4-17.3-1.4-25.9-3.4c-1.2-0.3-1.2,0.3-0.9,1.1c0.5,1.4,1.1,2.7,1.6,4c1.6,4.1,3.4,7.8,7,10.8
				c6.8,5.6,13.6,11.3,20.2,17.1c0.7,0.6,1.2,0.6,1.9,0c4.8-4.3,9.7-8.5,14.6-12.7C80.4,162.4,80.8,162.4,80.8,162.3z M82.5,189.9
				c0.3-0.2,0.5-0.3,0.7-0.4c5.2-3.5,10-7.5,14.8-11.4c0.7-0.6,0.5-1-0.1-1.5c-4.9-4.3-9.8-8.5-14.7-12.8c-0.5-0.5-0.9-0.5-1.4,0
				c-4.9,4.3-9.8,8.5-14.7,12.8c-0.6,0.5-0.8,1,0,1.6c4.8,3.7,9.4,7.7,14.4,11.1C81.8,189.4,82.2,189.6,82.5,189.9z M64.8,146
				c0.4,0.5,0.5,0.7,0.7,0.8c5.6,4.2,11,8.6,16.3,13.2c0.9,0.8,1.3,0.2,1.9-0.3c4.1-3.4,8.3-6.7,12.3-10.1c1.3-1.1,3-1.9,4.2-3.6
				C88.3,146,76.7,146,64.8,146z M123.6,159.8c-0.5,0.2-0.7,0.3-0.8,0.4c-6.6,5.6-13.2,11.2-19.8,16.7c-0.9,0.8-0.8,1.2,0,1.9
				c2.1,1.9,4.3,3.9,6.4,5.8c2.1,2,2.2,2.1,3.5-0.6c1.9-3.9,3.7-7.8,5.5-11.7C120,168.2,121.7,164.2,123.6,159.8z M80.6,191
				c-1.2-0.8-2.5-1.6-3.7-2.5c-3.8-2.7-7.5-5.4-11-8.5c-1.2-1.1-2-0.9-3.1,0.1c-2.2,2.1-4.5,4-6.7,6c-0.5,0.4-1.4,0.8-1.1,1.5
				c0.2,0.6,1.1,0.7,1.8,0.9c4.1,1,8.2,1.6,12.4,2C72.9,190.9,76.7,191.5,80.6,191z M84,191.3c3.5,0.4,6.4-0.3,9.4-0.5
				c5.1-0.4,10.2-1,15.2-2.3c0.6-0.1,1.4-0.2,1.5-0.9c0.1-0.6-0.6-0.9-1-1.3c-2.5-2.2-5-4.4-7.4-6.6c-0.6-0.5-1-0.9-1.9-0.2
				C94.9,183.7,89.8,187.5,84,191.3z"/>
			<path class="st4" d="M28.4,40.7c1.1,0,2.8,0.9,3.7,0c1-1-0.1-2.6-0.2-3.9c-0.2-2.6-0.5-5.1-0.7-7.7c0-0.6-0.4-1.5,0.4-1.9
				c0.6-0.3,1.1,0.4,1.6,0.7c2.8,2.1,5.4,4.5,7.8,7c1.1,1.1,1.6,0.9,2.2-0.3c0.4-0.8,0.9-1.5,1.4-2.2c1.6-2.6,3.2-2.6,4.6,0.1
				c1.1,2.2,2,4.4,2.9,6.7c1.3,3.4,2.5,6.9,3.7,10.4c0.1,0.2,0.2,0.3,0.2,0.5c0.9,2.6,0.8,3-1.8,4c-5.1,2-9.9,4.5-14.5,7.4
				c-1.4,0.9-2.1,0.5-2.9-0.6c-1.1-1.5-2.4-2.9-3.4-4.5c-2.6-4-5.5-7.8-7.7-12C24.3,41.8,25,40.6,28.4,40.7z"/>
			<path class="st5" d="M53.6,94.5c-1.1-0.8-2.1-0.8-3.2-0.9c-3.3-0.2-6.5-0.2-9.7,0.9c-1.2,0.4-2.1-0.2-2.9-0.9c-2.4-2.2-3-5.1-3-8
				c-0.1-8.3,3.8-14.6,10.6-19.1c3.7-2.4,7.8-4.1,11.6-6.1c1.3-0.7,2.6-1.4,3.9-2.3c3.1-2,4.8-4.7,5.1-8.5c0.2-3.6,0.2-7.2,0.8-10.9
				c0.9-5.8,3.6-10.3,8.6-13.5c7.4-4.6,15.5-7.9,23.4-11.4c0.1-0.1,0.4,0,0.6,0c-0.4,1.1-1.3,1.7-2,2.4c-2.7,2.9-5.1,5.9-6.3,9.7
				c-1.4,4.4-0.3,8.1,3.1,11.2c3.3,3.1,7.4,5.1,11.3,7.4c7.1,4.2,13.9,8.9,19.2,15.4c6.9,8.6,8.4,17.9,4.7,28.2
				c-0.6,1.6-1.4,3.2-2,4.9c-0.6,1.7-1.5,2.1-3.2,1.5c-3.6-1.3-7.3-1.2-11-0.8c-0.6,0.1-1.5,0-1.6,0.6c-0.1,0.8,0.9,0.9,1.5,1.1
				c2.9,0.9,5.9,1.7,8.9,2.5c10.4,2.8,15.7,10.1,17.9,20.2c1.2,5.5,0.5,10.7-2,15.7c-1.4,2.9-3.8,4.4-6.9,5
				c-13.1,2.7-26.4,3.6-39.7,4.1c-14.9,0.6-29.7-0.3-44.4-2c-5.2-0.6-10.4-1.4-15.5-2.9c-2.7-0.8-4-3.3-5-5.7
				c-4.9-11.8,0.8-28.5,13.4-33.3c3.6-1.4,7.4-2,11-3.1C51.7,95.6,52.7,95.3,53.6,94.5z M82,131.7c9-0.2,14.2-5.5,13.9-13.1
				c-0.1-3-1.3-4-4.3-3.8c-1.8,0.2-3.6,0.5-5.4,0.4c-4.6-0.3-9.1,0.2-13.7-0.3c-2-0.2-3.1,1-3.3,3c-0.3,2.6,0.1,5.1,1.4,7.4
				C73.4,130.3,77.8,132,82,131.7z M110,110.9c0-0.8,0-1.6,0-2.4c-0.1-2-0.2-4-1.5-5.7c-1.4-1.9-3.6-1.8-4.7,0.3
				c-0.3,0.6-0.6,1.3-0.6,1.9c-0.4,3.9-0.6,7.7,1,11.4c0.5,1.2,1,2.3,2.6,2.3c1.7,0,2.4-1.2,2.8-2.6C110,114.4,110,112.6,110,110.9z
				 M55.1,109.3c-0.1,2.9-0.1,5.1,0.6,7.1c0.3,1.1,1,2,2.3,2.2c1.1,0.1,2-0.2,2.5-1.2c2-4.4,2.1-9.1,1.1-13.7
				c-0.3-1.2-1.1-2.1-2.5-2.2c-1.5-0.1-2.3,0.8-2.9,1.9C55,105.5,55.2,107.8,55.1,109.3z"/>
			<path class="st5" d="M100.5,175.9c-0.6,0-0.9-0.4-1.2-0.7c-4.7-4.1-9.4-8.2-14.2-12.3c-0.9-0.8-1-1.2,0-2
				c5.5-4.6,11-9.2,16.3-14.2c0.6-0.6,1.3-0.9,2.2-0.9c8.6-0.5,17.2-1.4,25.7-3.4c1.1-0.3,1.3,0.2,0.9,1.1
				c-1.4,3.5-2.8,7.1-4.2,10.6c-0.5,1.3-1.8,1.9-2.8,2.8c-7.2,6.1-14.4,12.2-21.6,18.3C101.1,175.4,100.8,175.7,100.5,175.9z"/>
			<path class="st5" d="M80.8,162.3c-0.1,0-0.4,0.1-0.7,0.3c-4.9,4.2-9.7,8.5-14.6,12.7c-0.7,0.6-1.2,0.6-1.9,0
				c-6.7-5.8-13.4-11.5-20.2-17.1c-3.7-3-5.5-6.7-7-10.8c-0.5-1.3-1.1-2.7-1.6-4c-0.3-0.8-0.3-1.4,0.9-1.1c8.5,2,17.1,2.9,25.9,3.4
				c0.9,0,1.5,0.5,2.1,1.1c5.1,4.8,10.5,9.3,15.8,13.8C80,161,80.6,161.3,80.8,162.3z"/>
			<path class="st5" d="M82.5,189.9c-0.4-0.2-0.7-0.4-1.1-0.7c-5-3.4-9.6-7.3-14.4-11.1c-0.8-0.6-0.6-1.1,0-1.6
				c4.9-4.2,9.8-8.5,14.7-12.8c0.5-0.5,0.9-0.4,1.4,0c4.9,4.3,9.8,8.5,14.7,12.8c0.6,0.5,0.8,0.9,0.1,1.5
				c-4.9,3.9-9.7,7.9-14.8,11.4C83,189.6,82.8,189.7,82.5,189.9z"/>
			<path class="st5" d="M64.8,146c11.9,0,23.5,0,35.4,0c-1.2,1.7-2.9,2.5-4.2,3.6c-4.1,3.4-8.2,6.7-12.3,10.1c-0.6,0.5-1,1-1.9,0.3
				c-5.3-4.6-10.8-8.9-16.3-13.2C65.3,146.8,65.2,146.6,64.8,146z"/>
			<path class="st5" d="M123.6,159.8c-1.8,4.4-3.5,8.4-5.3,12.5c-1.8,3.9-3.6,7.8-5.5,11.7c-1.3,2.7-1.3,2.6-3.5,0.6
				c-2.1-2-4.2-3.9-6.4-5.8c-0.8-0.7-0.9-1.1,0-1.9c6.6-5.5,13.2-11.1,19.8-16.7C122.9,160.1,123.1,160,123.6,159.8z"/>
			<path class="st5" d="M42.2,160.3c6.7,5.6,13.3,11.2,20,16.7c0.6,0.5,0.6,1,0,1.5c-2.6,2.4-5.2,4.7-7.7,7.1
				c-0.9,0.9-1.3,0.1-1.6-0.5c-1.3-2.7-2.7-5.5-3.9-8.3c-2.2-4.9-4.3-9.8-6.5-14.7c-0.2-0.5-0.3-1.1-0.5-1.6
				C42.1,160.5,42.1,160.4,42.2,160.3z"/>
			<path class="st5" d="M80.6,191c-3.9,0.5-7.7-0.1-11.5-0.4c-4.2-0.4-8.3-1-12.4-2c-0.7-0.2-1.6-0.2-1.8-0.9
				c-0.3-0.8,0.7-1.1,1.1-1.5c2.2-2,4.5-4,6.7-6c1.1-1,1.9-1.2,3.1-0.1c3.5,3.1,7.2,5.8,11,8.5C78.1,189.4,79.4,190.2,80.6,191z"/>
			<path class="st5" d="M84,191.3c5.8-3.7,10.9-7.6,15.8-11.8c0.8-0.7,1.3-0.3,1.9,0.2c2.5,2.2,5,4.4,7.4,6.6c0.4,0.4,1.1,0.6,1,1.3
				c-0.1,0.7-1,0.7-1.5,0.9c-5,1.3-10.1,2-15.2,2.3C90.4,191,87.5,191.6,84,191.3z"/>
			<path class="st5" d="M42,160.5c-0.3-0.1-0.4-0.4-0.2-0.6c0.3-0.2,0.3,0.2,0.5,0.3C42.1,160.4,42.1,160.5,42,160.5z"/>
			<path class="st4" d="M82,131.7c-4.1,0.3-8.6-1.4-11.4-6.5c-1.3-2.3-1.7-4.8-1.4-7.4c0.2-2,1.4-3.2,3.3-3
				c4.6,0.6,9.1,0.1,13.7,0.3c1.8,0.1,3.6-0.2,5.4-0.4c3-0.3,4.2,0.8,4.3,3.8C96.1,126.2,91,131.5,82,131.7z"/>
			<path class="st4" d="M110,110.9c0,1.8,0,3.5-0.5,5.2c-0.4,1.4-1.1,2.5-2.8,2.6c-1.6,0-2-1-2.6-2.3c-1.5-3.7-1.4-7.6-1-11.4
				c0.1-0.7,0.3-1.4,0.6-1.9c1.1-2,3.3-2.1,4.7-0.3c1.2,1.7,1.4,3.7,1.5,5.7C110,109.3,110,110.1,110,110.9z"/>
			<path class="st4" d="M55.1,109.3c0.1-1.5-0.1-3.8,1.1-6c0.6-1.2,1.4-2.1,2.9-1.9c1.4,0.1,2.2,1.1,2.5,2.2c1,4.7,1,9.3-1.1,13.7
				c-0.5,1-1.4,1.4-2.5,1.2c-1.3-0.2-2-1.1-2.3-2.2C55.1,114.4,55.1,112.3,55.1,109.3z"/>
		</g>
		<g>
			<path class="st6" d="M82.5,196.6c-8.1-0.4-16.2-1-24.2-2.5c-4.5-0.9-7.9-3-10-7.6c-3.9-8.9-7.9-17.7-11.4-26.7
				c-2.3-5.9-4.6-11.7-6.2-17.9c-0.2-0.6-0.5-1-1.1-1.2c-4.7-1.4-6.5-5.4-7.7-9.5c-3.4-12.1-0.4-22.6,8.5-31.4
				c1.4-1.4,3.2-2.4,4.9-3.4c0.5-0.3,1-0.6,0.4-1.2c-4.6-4.7-4.6-10.4-3.3-16.2c1.6-7.7,6.5-13,13.2-16.7c3.9-2.2,7.9-4.1,11.8-6.1
				c3.6-1.8,5.3-4.6,5.3-8.7c-0.1-3.9,0.4-7.7,1.2-11.6c1.3-6.1,4.8-10.5,10-13.7c8.9-5.5,18.7-8.8,28.9-11.1c0.6-0.1,1.3-0.1,1.9,0
				c0.6,0.1,1.2,0.5,1.3,1.2c0.1,0.7-0.4,1-1,1.4c-5.1,3.2-8.9,7.7-10.7,13.5c-0.9,2.9,0.1,5.4,2.4,7.4c3.5,3.1,7.7,5.1,11.7,7.5
				c7.6,4.5,14.8,9.7,20.2,16.9c4.2,5.7,6.4,12,6.6,19.2c0.2,6.2-2.1,11.3-4.8,16.5c-0.7,1.3-0.5,1.9,0.7,2.6
				c7.4,4.5,11.2,11.4,12.8,19.7c1.2,6.4,0.7,12.7-2.7,18.5c-1.3,2.2-2.6,4.4-5.4,5c-0.8,0.2-1.2,0.8-1.4,1.6
				c-2.6,9.3-6.2,18.2-10,27.1c-2.5,5.9-5.2,11.7-7.7,17.5c-1.7,3.9-4.5,6-8.4,7c-4.2,1.1-8.5,1.6-12.8,1.9
				C91.1,196,86.8,196.9,82.5,196.6z M42.2,160.3c-0.1-0.2-0.2-0.5-0.5-0.3c-0.2,0.2-0.1,0.4,0.2,0.6c0.2,0.5,0.3,1.1,0.5,1.6
				c2.1,4.9,4.3,9.8,6.5,14.7c1.3,2.8,2.6,5.5,3.9,8.3c0.3,0.6,0.7,1.4,1.6,0.5c2.5-2.4,5.1-4.8,7.7-7.1c0.6-0.6,0.6-1,0-1.5
				C55.6,171.5,48.9,165.9,42.2,160.3z M53.6,94.5c-0.9,0.8-1.9,1.1-2.9,1.4c-3.7,1.1-7.4,1.7-11,3.1c-12.6,4.8-18.3,21.6-13.4,33.3
				c1,2.4,2.3,5,5,5.7c5,1.5,10.3,2.3,15.5,2.9c14.8,1.7,29.5,2.6,44.4,2c13.4-0.5,26.6-1.5,39.7-4.1c3.1-0.6,5.5-2.1,6.9-5
				c2.5-5,3.2-10.2,2-15.7c-2.2-10.1-7.5-17.3-17.9-20.2c-3-0.8-5.9-1.6-8.9-2.5c-0.6-0.2-1.6-0.3-1.5-1.1c0.1-0.6,1-0.6,1.6-0.6
				c3.7-0.4,7.4-0.4,11,0.8c1.7,0.6,2.6,0.2,3.2-1.5c0.6-1.7,1.4-3.2,2-4.9c3.7-10.3,2.2-19.6-4.7-28.2
				c-5.3-6.6-12.1-11.2-19.2-15.4c-3.9-2.3-7.9-4.3-11.3-7.4c-3.3-3.1-4.5-6.8-3.1-11.2c1.2-3.8,3.6-6.8,6.3-9.7
				c0.7-0.7,1.6-1.3,2-2.4c-0.3,0-0.5-0.1-0.6,0c-7.9,3.6-16,6.8-23.4,11.4c-5,3.1-7.7,7.6-8.6,13.5c-0.5,3.6-0.5,7.2-0.8,10.9
				c-0.3,3.8-2,6.5-5.1,8.5c-1.3,0.8-2.6,1.6-3.9,2.3c-3.9,2-8,3.6-11.6,6.1c-6.8,4.5-10.7,10.8-10.6,19.1c0,3,0.6,5.9,3,8
				c0.8,0.7,1.7,1.3,2.9,0.9c3.2-1.1,6.4-1.1,9.7-0.9C51.4,93.7,52.5,93.7,53.6,94.5z M100.5,175.9c0.3-0.2,0.6-0.5,0.9-0.7
				c7.2-6.1,14.5-12.2,21.6-18.3c1-0.8,2.3-1.5,2.8-2.8c1.5-3.5,2.9-7.1,4.2-10.6c0.3-0.9,0.2-1.3-0.9-1.1c-8.4,2-17,2.9-25.7,3.4
				c-0.9,0-1.6,0.3-2.2,0.9c-5.2,5-10.7,9.6-16.3,14.2c-0.9,0.8-0.9,1.2,0,2c4.7,4.1,9.5,8.2,14.2,12.3
				C99.6,175.5,99.9,175.9,100.5,175.9z M80.8,162.3c-0.3-1-0.8-1.3-1.2-1.7c-5.4-4.5-10.7-9.1-15.8-13.8c-0.6-0.6-1.2-1-2.1-1.1
				c-8.7-0.4-17.3-1.4-25.9-3.4c-1.2-0.3-1.2,0.3-0.9,1.1c0.5,1.4,1.1,2.7,1.6,4c1.6,4.1,3.4,7.8,7,10.8
				c6.8,5.6,13.6,11.3,20.2,17.1c0.7,0.6,1.2,0.6,1.9,0c4.8-4.3,9.7-8.5,14.6-12.7C80.4,162.4,80.8,162.4,80.8,162.3z M82.5,189.9
				c0.3-0.2,0.5-0.3,0.7-0.4c5.2-3.5,10-7.5,14.8-11.4c0.7-0.6,0.5-1-0.1-1.5c-4.9-4.3-9.8-8.5-14.7-12.8c-0.5-0.5-0.9-0.5-1.4,0
				c-4.9,4.3-9.8,8.5-14.7,12.8c-0.6,0.5-0.8,1,0,1.6c4.8,3.7,9.4,7.7,14.4,11.1C81.8,189.4,82.2,189.6,82.5,189.9z M64.8,146
				c0.4,0.5,0.5,0.7,0.7,0.8c5.6,4.2,11,8.6,16.3,13.2c0.9,0.8,1.3,0.2,1.9-0.3c4.1-3.4,8.3-6.7,12.3-10.1c1.3-1.1,3-1.9,4.2-3.6
				C88.3,146,76.7,146,64.8,146z M123.6,159.8c-0.5,0.2-0.7,0.3-0.8,0.4c-6.6,5.6-13.2,11.2-19.8,16.7c-0.9,0.8-0.8,1.2,0,1.9
				c2.1,1.9,4.3,3.9,6.4,5.8c2.1,2,2.2,2.1,3.5-0.6c1.9-3.9,3.7-7.8,5.5-11.7C120,168.2,121.7,164.2,123.6,159.8z M80.6,191
				c-1.2-0.8-2.5-1.6-3.7-2.5c-3.8-2.7-7.5-5.4-11-8.5c-1.2-1.1-2-0.9-3.1,0.1c-2.2,2.1-4.5,4-6.7,6c-0.5,0.4-1.4,0.8-1.1,1.5
				c0.2,0.6,1.1,0.7,1.8,0.9c4.1,1,8.2,1.6,12.4,2C72.9,190.9,76.7,191.5,80.6,191z M84,191.3c3.5,0.4,6.4-0.3,9.4-0.5
				c5.1-0.4,10.2-1,15.2-2.3c0.6-0.1,1.4-0.2,1.5-0.9c0.1-0.6-0.6-0.9-1-1.3c-2.5-2.2-5-4.4-7.4-6.6c-0.6-0.5-1-0.9-1.9-0.2
				C94.9,183.7,89.8,187.5,84,191.3z"/>
			<path class="st6" d="M28.4,40.7c1.1,0,2.8,0.9,3.7,0c1-1-0.1-2.6-0.2-3.9c-0.2-2.6-0.5-5.1-0.7-7.7c0-0.6-0.4-1.5,0.4-1.9
				c0.6-0.3,1.1,0.4,1.6,0.7c2.8,2.1,5.4,4.5,7.8,7c1.1,1.1,1.6,0.9,2.2-0.3c0.4-0.8,0.9-1.5,1.4-2.2c1.6-2.6,3.2-2.6,4.6,0.1
				c1.1,2.2,2,4.4,2.9,6.7c1.3,3.4,2.5,6.9,3.7,10.4c0.1,0.2,0.2,0.3,0.2,0.5c0.9,2.6,0.8,3-1.8,4c-5.1,2-9.9,4.5-14.5,7.4
				c-1.4,0.9-2.1,0.5-2.9-0.6c-1.1-1.5-2.4-2.9-3.4-4.5c-2.6-4-5.5-7.8-7.7-12C24.3,41.8,25,40.6,28.4,40.7z"/>
			<path class="st7" d="M53.6,94.5c-1.1-0.8-2.1-0.8-3.2-0.9c-3.3-0.2-6.5-0.2-9.7,0.9c-1.2,0.4-2.1-0.2-2.9-0.9c-2.4-2.2-3-5.1-3-8
				c-0.1-8.3,3.8-14.6,10.6-19.1c3.7-2.4,7.8-4.1,11.6-6.1c1.3-0.7,2.6-1.4,3.9-2.3c3.1-2,4.8-4.7,5.1-8.5c0.2-3.6,0.2-7.2,0.8-10.9
				c0.9-5.8,3.6-10.3,8.6-13.5c7.4-4.6,15.5-7.9,23.4-11.4c0.1-0.1,0.4,0,0.6,0c-0.4,1.1-1.3,1.7-2,2.4c-2.7,2.9-5.1,5.9-6.3,9.7
				c-1.4,4.4-0.3,8.1,3.1,11.2c3.3,3.1,7.4,5.1,11.3,7.4c7.1,4.2,13.9,8.9,19.2,15.4c6.9,8.6,8.4,17.9,4.7,28.2
				c-0.6,1.6-1.4,3.2-2,4.9c-0.6,1.7-1.5,2.1-3.2,1.5c-3.6-1.3-7.3-1.2-11-0.8c-0.6,0.1-1.5,0-1.6,0.6c-0.1,0.8,0.9,0.9,1.5,1.1
				c2.9,0.9,5.9,1.7,8.9,2.5c10.4,2.8,15.7,10.1,17.9,20.2c1.2,5.5,0.5,10.7-2,15.7c-1.4,2.9-3.8,4.4-6.9,5
				c-13.1,2.7-26.4,3.6-39.7,4.1c-14.9,0.6-29.7-0.3-44.4-2c-5.2-0.6-10.4-1.4-15.5-2.9c-2.7-0.8-4-3.3-5-5.7
				c-4.9-11.8,0.8-28.5,13.4-33.3c3.6-1.4,7.4-2,11-3.1C51.7,95.6,52.7,95.3,53.6,94.5z M82,131.7c9-0.2,14.2-5.5,13.9-13.1
				c-0.1-3-1.3-4-4.3-3.8c-1.8,0.2-3.6,0.5-5.4,0.4c-4.6-0.3-9.1,0.2-13.7-0.3c-2-0.2-3.1,1-3.3,3c-0.3,2.6,0.1,5.1,1.4,7.4
				C73.4,130.3,77.8,132,82,131.7z M110,110.9c0-0.8,0-1.6,0-2.4c-0.1-2-0.2-4-1.5-5.7c-1.4-1.9-3.6-1.8-4.7,0.3
				c-0.3,0.6-0.6,1.3-0.6,1.9c-0.4,3.9-0.6,7.7,1,11.4c0.5,1.2,1,2.3,2.6,2.3c1.7,0,2.4-1.2,2.8-2.6C110,114.4,110,112.6,110,110.9z
				 M55.1,109.3c-0.1,2.9-0.1,5.1,0.6,7.1c0.3,1.1,1,2,2.3,2.2c1.1,0.1,2-0.2,2.5-1.2c2-4.4,2.1-9.1,1.1-13.7
				c-0.3-1.2-1.1-2.1-2.5-2.2c-1.5-0.1-2.3,0.8-2.9,1.9C55,105.5,55.2,107.8,55.1,109.3z"/>
			<path class="st7" d="M100.5,175.9c-0.6,0-0.9-0.4-1.2-0.7c-4.7-4.1-9.4-8.2-14.2-12.3c-0.9-0.8-1-1.2,0-2
				c5.5-4.6,11-9.2,16.3-14.2c0.6-0.6,1.3-0.9,2.2-0.9c8.6-0.5,17.2-1.4,25.7-3.4c1.1-0.3,1.3,0.2,0.9,1.1
				c-1.4,3.5-2.8,7.1-4.2,10.6c-0.5,1.3-1.8,1.9-2.8,2.8c-7.2,6.1-14.4,12.2-21.6,18.3C101.1,175.4,100.8,175.7,100.5,175.9z"/>
			<path class="st7" d="M80.8,162.3c-0.1,0-0.4,0.1-0.7,0.3c-4.9,4.2-9.7,8.5-14.6,12.7c-0.7,0.6-1.2,0.6-1.9,0
				c-6.7-5.8-13.4-11.5-20.2-17.1c-3.7-3-5.5-6.7-7-10.8c-0.5-1.3-1.1-2.7-1.6-4c-0.3-0.8-0.3-1.4,0.9-1.1c8.5,2,17.1,2.9,25.9,3.4
				c0.9,0,1.5,0.5,2.1,1.1c5.1,4.8,10.5,9.3,15.8,13.8C80,161,80.6,161.3,80.8,162.3z"/>
			<path class="st7" d="M82.5,189.9c-0.4-0.2-0.7-0.4-1.1-0.7c-5-3.4-9.6-7.3-14.4-11.1c-0.8-0.6-0.6-1.1,0-1.6
				c4.9-4.2,9.8-8.5,14.7-12.8c0.5-0.5,0.9-0.4,1.4,0c4.9,4.3,9.8,8.5,14.7,12.8c0.6,0.5,0.8,0.9,0.1,1.5
				c-4.9,3.9-9.7,7.9-14.8,11.4C83,189.6,82.8,189.7,82.5,189.9z"/>
			<path class="st7" d="M64.8,146c11.9,0,23.5,0,35.4,0c-1.2,1.7-2.9,2.5-4.2,3.6c-4.1,3.4-8.2,6.7-12.3,10.1c-0.6,0.5-1,1-1.9,0.3
				c-5.3-4.6-10.8-8.9-16.3-13.2C65.3,146.8,65.2,146.6,64.8,146z"/>
			<path class="st7" d="M123.6,159.8c-1.8,4.4-3.5,8.4-5.3,12.5c-1.8,3.9-3.6,7.8-5.5,11.7c-1.3,2.7-1.3,2.6-3.5,0.6
				c-2.1-2-4.2-3.9-6.4-5.8c-0.8-0.7-0.9-1.1,0-1.9c6.6-5.5,13.2-11.1,19.8-16.7C122.9,160.1,123.1,160,123.6,159.8z"/>
			<path class="st7" d="M42.2,160.3c6.7,5.6,13.3,11.2,20,16.7c0.6,0.5,0.6,1,0,1.5c-2.6,2.4-5.2,4.7-7.7,7.1
				c-0.9,0.9-1.3,0.1-1.6-0.5c-1.3-2.7-2.7-5.5-3.9-8.3c-2.2-4.9-4.3-9.8-6.5-14.7c-0.2-0.5-0.3-1.1-0.5-1.6
				C42.1,160.5,42.1,160.4,42.2,160.3z"/>
			<path class="st7" d="M80.6,191c-3.9,0.5-7.7-0.1-11.5-0.4c-4.2-0.4-8.3-1-12.4-2c-0.7-0.2-1.6-0.2-1.8-0.9
				c-0.3-0.8,0.7-1.1,1.1-1.5c2.2-2,4.5-4,6.7-6c1.1-1,1.9-1.2,3.1-0.1c3.5,3.1,7.2,5.8,11,8.5C78.1,189.4,79.4,190.2,80.6,191z"/>
			<path class="st7" d="M84,191.3c5.8-3.7,10.9-7.6,15.8-11.8c0.8-0.7,1.3-0.3,1.9,0.2c2.5,2.2,5,4.4,7.4,6.6c0.4,0.4,1.1,0.6,1,1.3
				c-0.1,0.7-1,0.7-1.5,0.9c-5,1.3-10.1,2-15.2,2.3C90.4,191,87.5,191.6,84,191.3z"/>
			<path class="st7" d="M42,160.5c-0.3-0.1-0.4-0.4-0.2-0.6c0.3-0.2,0.3,0.2,0.5,0.3C42.1,160.4,42.1,160.5,42,160.5z"/>
			<path class="st6" d="M82,131.7c-4.1,0.3-8.6-1.4-11.4-6.5c-1.3-2.3-1.7-4.8-1.4-7.4c0.2-2,1.4-3.2,3.3-3
				c4.6,0.6,9.1,0.1,13.7,0.3c1.8,0.1,3.6-0.2,5.4-0.4c3-0.3,4.2,0.8,4.3,3.8C96.1,126.2,91,131.5,82,131.7z"/>
			<path class="st6" d="M110,110.9c0,1.8,0,3.5-0.5,5.2c-0.4,1.4-1.1,2.5-2.8,2.6c-1.6,0-2-1-2.6-2.3c-1.5-3.7-1.4-7.6-1-11.4
				c0.1-0.7,0.3-1.4,0.6-1.9c1.1-2,3.3-2.1,4.7-0.3c1.2,1.7,1.4,3.7,1.5,5.7C110,109.3,110,110.1,110,110.9z"/>
			<path class="st6" d="M55.1,109.3c0.1-1.5-0.1-3.8,1.1-6c0.6-1.2,1.4-2.1,2.9-1.9c1.4,0.1,2.2,1.1,2.5,2.2c1,4.7,1,9.3-1.1,13.7
				c-0.5,1-1.4,1.4-2.5,1.2c-1.3-0.2-2-1.1-2.3-2.2C55.1,114.4,55.1,112.3,55.1,109.3z"/>
		</g>
	</g>
</g>
</svg>
