<?xml version="1.0" encoding="utf-8"?>
<!-- Generator: Adobe Illustrator 26.2.1, SVG Export Plug-In . SVG Version: 6.00 Build 0)  -->
<svg version="1.1" xmlns="http://www.w3.org/2000/svg" xmlns:xlink="http://www.w3.org/1999/xlink" x="0px" y="0px"
	 viewBox="0 0 1000 1000" style="enable-background:new 0 0 1000 1000;" xml:space="preserve">
<style type="text/css">
	.st0{fill:none;}
	.st1{fill:#FE0101;}
	.st2{fill:#FD0404;}
	.st3{fill:#F6F5F5;}
	.st4{display:none;}
	.st5{display:inline;fill:#7B6A58;}
	.st6{display:inline;}
	.st7{fill:url(#Nueva_muestra_de_motivo_2);}
</style>
<pattern  width="124.7" height="119.1" patternUnits="userSpaceOnUse" id="Nueva_muestra_de_motivo_2" viewBox="0.2 -119.1 124.7 119.1" style="overflow:visible;">
	<g>
		<rect x="0.2" y="-119.1" class="st0" width="124.7" height="119.1"/>
		<path class="st1" d="M117.5-11.4c-1.3-2.6,1.3-5.2-0.1-7.8c-0.9-2.2,2.2-3.9,0.6-6.2c-0.8-1.2,0.5-2.5,0-3.7c-1.1-2.6-1-6.2-0.6-9
			c0.4-1.2,0-2.4-0.9-3.3c-3.2-1.6-0.9-5.4-2.6-7.5c-0.6-0.4-0.9-1-1.1-1.6c-0.7-1.8,0.6-4.2-1.1-5.6c-1.1-0.9-0.6-2.5-1.9-3.3
			c-1.7-1.3,2.2-3.2-0.3-4.5c-2.5-1.6-1.7-5.7-5.9-4.8c-3.3-0.6-1.7-3-6.4-2.7c-1.4-0.4-0.6-2.5-2.2-2.6c-1.4-0.1-4.4-0.5-1.7-1.8
			c2.4-1.7,2.4,0.4,4.3,0.7c1.9-1,3.1,2.3,4.7,0.8c1.5-2.2,3.7,0.8,5.4-0.9c1.4-1.5,3.3,0.8,4.6-0.7c1.4-2.5,4.6-1.3,6-3.6
			c0.7-1,1.4-2.1,2.7-2.2c5.3-1.2,4.9-5.8,0.6-8.3c-1.8-0.9-1.1-3.5-2.9-4.2c-0.7-0.2-1.2-0.6-1.4-1.2c-0.6-2.4-3.4-3-4.5-4.9
			c-0.4-2.3-2.6-1.2-4.2-1.9c-0.3-0.1-0.5-0.2-0.7-0.5c-0.5-1.1-1.9-0.8-2.9-0.9c-0.6,0-1.1-0.3-1.2-0.9c-0.2-2.2-6.2,0.2-9.1-2.8
			c-2.9-2.3,3.5-3.7,2.6-6.4c-0.3-0.9,1.1-1.6,0.3-2.5c-0.3-0.4-0.7-0.8-1.3-0.5c-2.1,0.9-2.6-2.5-4.8-1.7c-1.4,0-3.3,0.6-4.5-0.3
			c-0.6-0.8-1.1-0.5-1.7,0.1c-1.6,1.6-3.8,1-5.6,0.3c-2.6-0.5-3.7,2.4-6.6,0.3c-1.3-0.5-1.6-0.4-2.4,0.7c-0.6,0.9-1.3,1.2-2.4,1.2
			c-3.8-0.1-7.7,0.8-10.7,3.2c-5.3,4.5-3.2,12.1-4.8,18.2C52-89.6,47.9-83.7,42-85c-5.6-2.2-8.3-8.6-12.2-13c-1.5-1.9-2.8-4-2.8-6.5
			c-0.1-0.5-0.4-0.6-0.7-0.2c-0.7,1.6-4.1,3.2-3.2,4.9c7.6,8.1,15.6,16.1,23,24.3c-2.6,0.4-5.6,0-8.4,0.2c-0.3,0-0.6-0.1-0.6,0.4
			c0,0.4,0.2,0.5,0.6,0.5c1.5,0.1,3.3,0.5,3.6,2.3c0.4,8.2,0.1,16.5,0.1,24.8c0,2.9-0.7,3.6-3.7,4c-0.3,0-0.7,0-0.7,0.5
			c8,1.2,17.7,0,26.3,0.4c1.9-1.3,1.5-5.3,2.6-7.5c0.5-0.8-0.2-1.1-0.9-0.9c-2.8,7.1-10.7,7.1-17.3,6.2c-2.7-1.4-0.5-10.4-1.2-13.6
			c2.1-1.5,6.5-0.1,9.3-0.5c2.6-0.1,3.5,1.9,3.8,4.2c2.3,2.5,0.6-4.8,1.4-5.6c6.7,7.1,13.5,14.2,20.3,21.3c-1.5,0.7-5.1-0.7-6,0.6
			c0,0.5,0.3,0.5,0.7,0.5c2.3,0.1,3.3,2.3,4.1,4.1c4.5,9.3,8.1,19.7,13.2,28.4c9.8-19.7,0.1-19,24.9,5.1
			C117.8-3.9,118.8-7.6,117.5-11.4z M48.6-73c1.3,2.2,11.3,10,9.5,11.4c-3.4,1.6-7.4,0.5-11.1,0.8c-1.4-0.9-0.2-4.4-0.6-6.1
			c0,0,0,0,0,0C46.8-68.5,45.2-75.1,48.6-73z M85.1-34.3c4.2,3.6,7.8,8.2,11.9,12.2c1,1.4-2,6.7-2.8,8.4
			C91.2-20.6,88.1-27.4,85.1-34.3z"/>
		<path class="st2" d="M45.7-37.8c2.7,0.6,4.3,0.7,4.2,4c0,7.7,0,15.4,0,23.1c0,3.1-0.6,3.7-3.6,4.1c-0.4,0.1-0.6,0.2-0.6,0.6
			c3.8,1,9,0,13.3,0.4c0.6,0.2,0.7-1,0.1-0.9c-2.4-0.1-4.1-0.8-4-3.4c-0.1-3,0-6.1,0-9.1c0-1.7,0-1.7,1.8-1.8
			c5.2,3.1,8.1,10.3,12.5,14.8c2.1,1.4,5.4,0.2,7.9,0.6c0.6,0.3,0.8-1,0.1-1c-6.3-2.2-9.1-10-13.8-14.4c-0.3-0.4-0.3-0.5,0.2-0.6
			c7.7-0.2,11.2-10.1,5.8-14.2c-4.2-3.2-10.4-2.7-15.1-2.8C52.2-38.1,45.7-39.7,45.7-37.8z M56.7-36.7c9.7-2.1,14.5,10.4,4.5,13.4
			c-7.7,1.5-6.2,1.1-6.3-5.9C55.5-31.5,53.4-36.4,56.7-36.7z"/>
		<path class="st2" d="M7.2-69c0,7.2-0.1,14.5,0.1,21.7c0.3,2.7,1.2,3.7,3.9,3.9c0.3,0,0.7,0,0.7,0.5c-2.9,1.3-7.7,0-11.2,0.5
			c-0.6,0.1-0.6-1,0-1c0.4,0,0.7-0.1,1.1-0.1C8.1-43.9,3.9-65.4,5-70.9c-0.3-2-2.4-3.5-4.4-3.5c-0.4,0-0.4-0.2-0.4-0.5
			c0-0.9,8.6-0.7,8.9,0.1c6.2,7.8,12.4,15.7,18.7,23.4c0.2-6.5,0.3-13.2-0.1-19.7c-0.4-4.2-3.6-2.2-4.6-3.8c3-1.1,7.7,0,11.2-0.4
			c0.3,0,0.5,0.1,0.5,0.4c0,0.8-1.2,0.5-1.7,0.7c-3.2,0.5-2.9,4.2-3,6.7C30.2-27.3,33.5-40.4,7.2-69z"/>
		<path class="st3" d="M46.5-66.7c0.4-1.8-1.3-8.3,2.1-6.2c1.3,2.3,11.3,9.9,9.5,11.4c-3.4,1.6-7.4,0.5-11.1,0.8
			C45.6-61.6,46.8-65.1,46.5-66.7C46.5-66.7,46.5-66.7,46.5-66.7z"/>
		<path class="st3" d="M94.2-13.8c-3-6.8-6.2-13.6-9.1-20.6c4.2,3.6,7.8,8.2,11.9,12.2C98-20.8,95-15.5,94.2-13.8z"/>
		<path class="st3" d="M54.9-29.2c0.5-2.3-1.5-7.2,1.7-7.5c5.8-1,12,3.2,9.4,9.5c-1.7,4.2-6.8,4.3-10.7,4.5
			C54.2-23.5,55.3-27.6,54.9-29.2z"/>
	</g>
</pattern>
<g id="Capa_2_copia" class="st4">
	<rect x="-73.1" y="-49.6" class="st5" width="1156.7" height="1177"/>
</g>
<g id="Capa_1" class="st4">
	<g class="st6">
		<path class="st1" d="M192.7,191.3c-24.8-24.1-15.1-24.8-24.9-5.1c-5-8.7-8.6-19.1-13.2-28.4c-0.8-1.8-1.9-4-4.1-4.1
			c-0.3,0-0.7,0-0.7-0.5c0.9-1.2,4.4,0.1,6-0.6c-6.8-7.1-13.5-14.2-20.3-21.3c-0.8,0.8,0.9,8.1-1.4,5.6c-0.3-2.4-1.2-4.3-3.8-4.2
			c-2.8,0.4-7.2-1-9.3,0.5c0.7,3.2-1.5,12.2,1.2,13.6c6.6,0.9,14.5,0.9,17.3-6.2c0.8-0.2,1.4,0.1,0.9,0.9c-1,2.2-0.7,6.1-2.6,7.5
			c-8.6-0.4-18.3,0.8-26.3-0.4c0-0.5,0.3-0.5,0.7-0.5c2.9-0.3,3.6-1,3.7-4c-0.1-8.3,0.3-16.5-0.1-24.8c-0.2-1.7-2.1-2.2-3.6-2.3
			c-0.3,0-0.6-0.1-0.6-0.5c0-0.5,0.3-0.4,0.6-0.4c2.7-0.1,5.8,0.3,8.4-0.2c-7.4-8.2-15.4-16.2-23-24.3c-0.9-1.7,2.5-3.3,3.2-4.9
			c0.3-0.5,0.6-0.4,0.7,0.2c0,2.6,1.3,4.6,2.8,6.5c3.9,4.3,6.6,10.7,12.2,13c5.9,1.3,10-4.6,10.8-9.8c1.6-6.1-0.5-13.6,4.8-18.2
			c3-2.4,6.9-3.3,10.7-3.2c1,0,1.8-0.3,2.4-1.2c0.8-1.1,1.2-1.2,2.4-0.7c3,2.1,4.1-0.8,6.6-0.3c1.9,0.7,4,1.4,5.6-0.3
			c0.6-0.5,1.1-0.8,1.7-0.1c1.2,0.8,3.1,0.3,4.5,0.3c2.2-0.7,2.7,2.7,4.8,1.7c0.6-0.2,1,0.1,1.3,0.5c0.7,0.8-0.6,1.5-0.3,2.5
			c0.8,2.7-5.5,4.1-2.6,6.4c3,3,8.9,0.6,9.1,2.8c0.1,0.6,0.6,0.8,1.2,0.9c1,0.1,2.3-0.2,2.9,0.9c0.1,0.3,0.4,0.4,0.7,0.5
			c1.5,0.7,3.7-0.4,4.2,1.9c1.1,1.9,3.8,2.5,4.5,4.9c0.2,0.6,0.8,1.1,1.4,1.2c1.8,0.7,1.1,3.3,2.9,4.2c4.3,2.5,4.7,7.1-0.6,8.3
			c-1.3,0.1-2,1.2-2.7,2.2c-1.4,2.3-4.6,1-6,3.6c-1.3,1.6-3.2-0.8-4.6,0.7c-1.7,1.7-3.9-1.3-5.4,0.9c-1.6,1.4-2.8-1.8-4.7-0.8
			c-1.9-0.4-1.9-2.5-4.3-0.7c-2.7,1.3,0.4,1.8,1.7,1.8c1.6,0.1,0.7,2.2,2.2,2.6c4.7-0.3,3.1,2.1,6.4,2.7c4.2-0.9,3.3,3.3,5.9,4.8
			c2.5,1.3-1.4,3.2,0.3,4.5c1.3,0.8,0.8,2.4,1.9,3.3c1.8,1.4,0.4,3.8,1.1,5.6c0.2,0.7,0.6,1.2,1.1,1.6c1.7,2.2-0.6,5.9,2.6,7.5
			c0.9,0.9,1.3,2.1,0.9,3.3c-0.4,2.9-0.5,6.4,0.6,9c0.5,1.2-0.9,2.5,0,3.7c1.6,2.3-1.5,4-0.6,6.2c1.4,2.6-1.2,5.2,0.1,7.8
			C193.3,183.7,192.3,187.4,192.7,191.3z M121.1,124.6C121,124.6,121,124.6,121.1,124.6c0.3,1.7-0.9,5.2,0.5,6.1
			c3.6-0.4,7.7,0.8,11.1-0.8c1.8-1.5-8.2-9.2-9.5-11.4C119.7,116.3,121.4,122.8,121.1,124.6z M168.8,177.5c0.7-1.7,3.8-7,2.8-8.4
			c-4-3.9-7.7-8.5-11.9-12.2C162.6,163.9,165.8,170.7,168.8,177.5z"/>
		<path class="st2" d="M128.9,152.7c4.7,0,10.9-0.5,15.1,2.8c5.4,4.1,1.9,13.9-5.8,14.2c-0.5,0.1-0.6,0.2-0.2,0.6
			c4.7,4.4,7.5,12.3,13.8,14.4c0.7,0,0.5,1.2-0.1,1c-2.5-0.4-5.8,0.8-7.9-0.6c-4.3-4.5-7.3-11.7-12.5-14.8c-1.8,0.1-1.8,0.1-1.8,1.8
			c0,3,0,6.1,0,9.1c0,2.7,1.6,3.3,4,3.4c0.7,0,0.6,1.2-0.1,0.9c-4.3-0.3-9.5,0.7-13.3-0.4c0-0.4,0.2-0.6,0.6-0.6
			c3.1-0.4,3.6-1,3.6-4.1c0-7.7,0-15.4,0-23.1c0.1-3.3-1.5-3.4-4.2-4C120.3,151.6,126.8,153.2,128.9,152.7z M129.5,162.1
			c0.1,6.9-1.4,7.4,6.3,5.9c10-3,5.1-15.4-4.5-13.4C128,154.9,130.1,159.9,129.5,162.1z"/>
		<path class="st2" d="M81.8,122.3c0,7.2-0.1,14.5,0.1,21.7c0.3,2.7,1.2,3.7,3.9,3.9c0.3,0,0.7,0,0.7,0.5c-2.9,1.3-7.7,0-11.2,0.5
			c-0.6,0.1-0.6-1,0-1c0.4,0,0.7-0.1,1.1-0.1c6.4-0.4,2.2-21.9,3.4-27.4c-0.3-2-2.4-3.5-4.4-3.5c-0.4,0-0.4-0.2-0.4-0.5
			c0-0.9,8.6-0.7,8.9,0.1c6.2,7.8,12.4,15.7,18.7,23.4c0.2-6.5,0.3-13.2-0.1-19.7c-0.4-4.2-3.6-2.2-4.6-3.8c3-1.1,7.7,0,11.2-0.4
			c0.3,0,0.5,0.1,0.5,0.4c0,0.8-1.2,0.5-1.7,0.7c-3.2,0.5-2.9,4.2-3,6.7C104.8,164,108,151,81.8,122.3z"/>
		<path class="st3" d="M121.1,124.6c0.4-1.8-1.3-8.3,2.1-6.2c1.3,2.3,11.3,9.9,9.5,11.4c-3.4,1.6-7.4,0.5-11.1,0.8
			C120.2,129.8,121.4,126.3,121.1,124.6C121,124.6,121,124.6,121.1,124.6z"/>
		<path class="st3" d="M168.8,177.5c-3-6.8-6.2-13.6-9.1-20.6c4.2,3.6,7.8,8.2,11.9,12.2C172.6,170.6,169.6,175.8,168.8,177.5z"/>
		<path class="st3" d="M129.5,162.1c0.5-2.3-1.5-7.2,1.7-7.5c5.8-1,12,3.2,9.4,9.5c-1.7,4.2-6.8,4.3-10.7,4.5
			C128.8,167.8,129.8,163.7,129.5,162.1z"/>
	</g>
</g>
<g id="Capa_2">
	<rect x="-73.1" y="-49.6" class="st7" width="1156.7" height="1177"/>
</g>
<g id="Capa_3">
</g>
</svg>
