<?xml version="1.0" encoding="utf-8"?>
<!-- Generator: Adobe Illustrator 26.2.1, SVG Export Plug-In . SVG Version: 6.00 Build 0)  -->
<svg version="1.1" xmlns="http://www.w3.org/2000/svg" xmlns:xlink="http://www.w3.org/1999/xlink" x="0px" y="0px"
	 viewBox="0 0 1000 1000" style="enable-background:new 0 0 1000 1000;" xml:space="preserve">
<style type="text/css">
	.st0{display:none;}
	.st1{display:inline;}
	.st2{fill:#DA2128;}
	.st3{fill:#322E2F;}
</style>
<g id="Capa_2" class="st0">
	<rect x="128" y="278" class="st1" width="664" height="386"/>
</g>
<g id="Capa_1">
	<g>
		<path class="st2" d="M258.7,525.86c-13.92,14.82-27.81,26.43-44.36,34.6c-19.93,9.84-40.85,14.06-63.02,12.08
			c-32.18-2.87-53.96-30.79-49.58-62.96c3.79-27.84,13.01-54.06,22.65-80.21c6.21-16.84,12.23-33.74,16.45-51.22
			c2.75-11.4-1.31-17.25-13.18-17.67c-12.69-0.45-25.41-0.17-38.11-0.17c-6.46,0-9.32-2.05-6.5-9.07c3.12-7.74,5.88-15.66,8.09-23.7
			c1.61-5.85,4.71-7.75,10.64-7.73c42.76,0.19,85.53,0.2,128.29-0.01c6.23-0.03,7.11,1.54,5.48,7.44
			c-11.14,40.28-26.21,79.29-38.45,119.2c-3.17,10.35-6.55,20.66-9.15,31.16c-4.94,19.92,9.79,33.9,29.51,28.07
			c13.27-3.93,23.66-12,31-23.77c20.51-32.89,32.66-69.26,44.06-105.94c5.14-16.54,10.39-33.05,15.27-49.66
			c1.47-5.01,3.92-6.65,9.21-6.57c21.69,0.33,43.39,0.41,65.07-0.01c7.6-0.15,7.63,2.16,5.84,8.53
			c-15.19,53.93-34.59,106.49-51.59,159.83c-2.04,6.41-5.9,13.98,2.24,18.15c8.2,4.2,13.59-2.32,18.81-7.9
			c4.53-4.85,4.66-13.75,14.05-14.45c2.54-0.19,1.81-4.9,2.09-7.54c7.36-70.57,46.59-118.7,108.24-149.24
			c41.2-20.41,84.07-21.63,126.3-0.9c7.83,3.84,14.79,4.38,20.52-3.51c0.85-1.16,2.21-2.76,3.35-2.77
			c12.39-0.19,24.81-0.57,37.16,0.13c5.11,0.29,2.26,4.72,1.38,7.28c-9.17,26.6-18.45,53.16-27.65,79.75
			c-0.13,0.36,0.32,0.92,0.55,1.55c4.24-0.45,4.66-4.52,6.35-7.1c27.15-41.2,62.05-72.14,111.19-84.32
			c29.55-7.32,58.3-5.56,86.15,7.42c9.79,4.56,19.85,8.83,27.93-3.19c1.42-2.11,3.83-1.68,5.98-1.68
			c10.54-0.01,21.07,0.03,31.61-0.03c4.64-0.03,6.75,0.71,4.81,6.44c-9.96,29.28-19.63,58.67-28.97,88.15
			c-1.81,5.7-4.25,7.97-10.35,7.76c-13-0.44-26.03-0.38-39.04-0.02c-5.95,0.16-6.76-2.02-5.19-7.07c3.31-10.65,6.19-21.4,5.68-32.76
			c-0.51-11.35-5.79-19.28-16.26-23.78c-17.02-7.32-33.9-6.04-48.8,4.15c-39.08,26.72-60.52,64.55-65.73,111.32
			c-1.85,16.64,3.21,31.46,18.45,40.83c15.8,9.71,31.43,7.1,46.56-1.8c15.56-9.16,27.3-22.3,36.95-37.27
			c3.07-4.77,6.37-6.62,11.99-6.43c12.07,0.4,24.17,0.17,36.25,0.09c4.44-0.03,7.3,0.22,4.66,6.11
			c-26.38,58.69-85.17,105.8-160.58,95.07c-52.56-7.48-84.34-51.15-76.92-104.12c1.59-11.37,4.3-22.46,7.98-33.35
			c3.71-10.97,3.59-11.01-7.61-11.01c-11.16,0-22.32-0.2-33.46,0.09c-5.82,0.15-7.84-1.16-5.81-7.39c2.97-9.12,4.83-18.56,5.42-28.2
			c1.18-19.25-9.81-31.99-29.05-33.57c-14.17-1.17-27.42,2.33-38.64,10.63c-35.98,26.6-58.16,61.87-64.42,106.52
			c-1.17,8.34-0.01,16.75,1.83,24.92c3.94,17.48,22.26,28.78,41.6,26.12c14.81-2.03,26.52-9.86,37.09-19.74
			c8.63-8.06,16.28-17.02,23.06-26.66c2.75-3.91,5.8-5.67,10.77-5.51c11.76,0.38,23.55,0.2,35.32,0.09
			c4.57-0.04,7.19,0.38,4.76,6.17C586.9,542.2,514.27,587.6,440.12,568.19c-23.64-6.19-42.05-19.75-53.76-41.16
			c-4.7-8.59-6.31-6.34-10.86-0.21c-14.99,20.22-32.46,37.51-57.97,44.02c-2.69,0.69-5.43,1.27-8.19,1.57
			c-31.76,3.44-45.74-7.54-49.85-39.1C259.26,531.51,259.11,529.69,258.7,525.86z"/>
		<path class="st3" d="M728.86,664.85c0.01-5.57-0.49-11.21,0.21-16.69c0.39-3.01-3.93-7.67,0.58-8.46
			c3.36-0.59,9.29-6.58,12.01,2.11c0.75,2.38,3.03-0.39,4.37-1.13c8.17-4.48,16.05-5.06,22.78,2.32c2.81,3.08,4.02,0.8,5.83-0.65
			c6.67-5.34,14.03-6.61,21.69-2.73c7.19,3.64,7.77,10.45,7.55,17.59c-0.23,7.42,0.13,14.87-0.15,22.29
			c-0.1,2.54,1.93,6.39-0.46,7.36c-3.21,1.29-7.27,0.72-10.95,0.56c-3.13-0.14-1.45-2.51-1.44-4.06c0.03-8.98,0.01-17.96,0.1-26.93
			c0.07-6.49-2.38-11.32-9.39-11.18c-6.46,0.13-9.85,3.72-9.37,10.91c0.53,8.01-0.43,16.14,0.3,24.13c0.53,5.81-0.61,7.53-6.75,7.53
			c-5.97,0-6.92-1.55-6.43-7.21c0.75-8.6,0.13-17.32,0.2-25.99c0.05-6.08-3-9.49-8.92-9.45c-6.02,0.04-9.78,2.71-9.49,9.72
			c0.38,9.27-0.72,18.67,0.38,27.83c0.9,7.46-3.87,4.59-6.64,4.71c-2.97,0.13-7.77,2.3-6.25-4.95
			C729.79,676.82,728.85,670.74,728.86,664.85z"/>
		<path class="st3" d="M549.25,626.24c-2.95-3.88-5.46-8.13-9.98-5.05c-5.27,3.59-3.55,9.54-3.42,14.6
			c0.13,5.11,4.56,2.57,7.18,3.14c2.18,0.48,5.67-0.91,5.34,3.1c-0.24,3.03-3.21,2.62-5.18,2.28c-7.4-1.28-7.78,2.87-7.58,8.56
			c0.36,9.89-0.62,19.88,0.34,29.69c0.69,7.01-3.57,4.99-6.63,4.86c-2.76-0.12-7.29,2.7-6.55-4.65c1.08-10.73-0.11-21.66,0.42-32.47
			c0.41-8.37-5.35-5.56-9.3-5.84c-4.2-0.3-8.66-1.27-8.21,6.04c0.64,10.49-0.57,21.11,0.43,31.54c0.7,7.27-3.51,5.42-7.08,5.48
			c-3.34,0.05-6.82,1.48-6.14-5.13c1.08-10.41,0.33-21.02,0.26-31.54c-0.02-2.84,1.17-6.26-3.81-6.76c-1.97-0.2-2.61-3.79-0.91-4.16
			c6.44-1.38,4.46-6.11,4.8-10.01c1.01-11.54,12.3-18.15,23.09-13.94c4.64,1.81,3.46,5.06,3.38,9.28c-3.71-2.31-6.6-8.22-11.24-3.23
			c-4.04,4.34-3.92,10.54-1.94,14.89c2.17,4.76,8.31,1.34,12.65,1.95c4.38,0.61,3.74-2.75,3.94-5.52
			c0.98-13.65,7.05-19.35,18.84-18.24C548,615.66,551.17,618.11,549.25,626.24z"/>
		<path class="st3" d="M158.03,631.1c-7.19-6.95-15.12-11.12-25.17-9.94c-16.83,1.97-26.8,16.65-24.12,35.44
			c2.54,17.78,15.47,28.05,32.21,25.89c6.44-0.83,10.55-3.05,9.43-10.54c-0.41-2.72,0.55-5.73-0.18-8.31
			c-2.14-7.54,1.86-7.56,7.58-7.65c5.53-0.09,7.99,0.88,6.22,6.86c-0.51,1.71-0.09,3.69-0.09,5.55c-0.01,14.97,0,15.02-14.57,18.29
			c-14.35,3.22-28.34,3.32-40.85-5.92c-21.63-15.98-18.75-48.77,5.3-60.83c13.64-6.84,27.49-5.89,41.45-0.97
			C162.23,621.41,157.36,626.77,158.03,631.1z"/>
		<path class="st3" d="M316.76,639.14c0-5.85,0.93-11.28-0.26-16.21c-1.19-4.95-0.03-5.59,4.47-6.73c7.4-1.87,8.63,0.44,8.67,7.44
			c0.1,19.68-1.44,39.39,0.78,59.04c0.36,3.2-9.92,6.68-12.98,3.7c-1.92-1.87-2.41-1.52-4.07-0.62c-8.59,4.63-16.89,4.19-23.65-3.06
			c-7.6-8.15-8.93-18.2-5.5-28.52C288.62,640.96,300.43,635.44,316.76,639.14z M316.79,662.64c0-3.71,0.11-7.42-0.02-11.12
			c-0.28-8.09-6.12-11.11-13.21-6.9c-10.91,6.48-10.69,29.05,0.35,35.28c7.09,4,12.71,0.93,12.87-7.07
			C316.84,669.44,316.78,666.04,316.79,662.64z"/>
		<path class="st3" d="M426.45,634.82c-12.75-15.47-29.64-18.15-41.82-7.46c-12.05,10.57-12.92,33.78-1.75,46.55
			c10.82,12.37,27.36,11.45,42.89-2.39c2.9,8.85-1.24,12.82-9.52,14.85c-9.51,2.33-18.9,3.26-28.42,0.6
			c-17.7-4.94-28.35-20.3-26.75-38.46c1.56-17.67,15.29-30.96,34.48-33.17c5.55-0.64,11.08-0.34,16.62,0.84
			C426.06,619.14,426.08,619.05,426.45,634.82z"/>
		<path class="st3" d="M673.69,670.17c4.02,5.93,8.22,11.19,15.55,12.55c6.77,1.26,12.61-0.7,15.34-7.32
			c2.73-6.6,0.55-12.13-5.95-15.54c-4.1-2.15-8.39-3.96-12.4-6.25c-11.05-6.34-15.25-14.74-12.37-24.23
			c2.68-8.83,13.43-15.05,24.63-14.26c11.99,0.85,13.77,2.81,13.78,16c-4.44-3.19-6.89-8.2-12.24-9.54
			c-6.33-1.58-12.04-1.24-15.07,5.2c-2.99,6.35,0.58,10.61,6.11,13.47c4.93,2.56,9.96,4.93,14.92,7.42
			c8.64,4.32,12.98,11.18,12.07,20.96c-0.82,8.84-7.49,16.19-16.78,18.89c-8.14,2.36-15.96,0.87-23.56-2.07
			C669.83,682.4,674.75,675.44,673.69,670.17z"/>
		<path class="st3" d="M433.64,663.11c0.19-14.96,10.39-25.65,24.56-25.71c14.42-0.07,24.58,10.56,24.42,25.54
			c-0.16,14.68-10.73,25.73-24.65,25.76C443.47,688.73,433.46,678.2,433.64,663.11z M469.78,664.06c-0.19-4.94-0.35-9.91-2.69-14.43
			c-2.07-4.01-4.79-7.3-9.9-7.05c-5.07,0.25-7.6,3.72-9.29,7.89c-1.78,4.38-1.76,9.06-1.61,13.69c0.39,11.56,5.22,19.23,12.02,19.28
			C465.19,683.5,469.73,675.81,469.78,664.06z"/>
		<path class="st3" d="M252.5,637.39c14.34,0.09,24.57,10.99,24.25,25.84c-0.31,14.54-11.21,25.61-25.08,25.47
			c-14.37-0.15-24.48-11.01-24.14-25.9C227.87,648.02,238.4,637.31,252.5,637.39z M240.2,661.96c0.04,4.34,0.17,8.67,1.99,12.72
			c2.12,4.7,4.85,9.08,10.73,8.65c5.68-0.42,8.66-4.61,9.71-9.76c0.85-4.19,1.34-8.6,1.05-12.85c-0.79-11.67-5.4-18.21-12.11-18.15
			C244.49,642.64,240.23,649.9,240.2,661.96z"/>
		<path class="st3" d="M172.65,662.53c0.53-15.04,10.9-25.39,25.14-25.13c14.26,0.27,24.46,11.36,23.99,26.1
			c-0.47,14.5-11.55,25.52-25.35,25.19C181.91,688.34,172.12,677.57,172.65,662.53z M208.79,664.14c0.17-5.33-0.52-10.51-3.1-15.25
			c-2.01-3.7-4.73-6.51-9.42-6.32c-4.67,0.19-7.32,3.15-8.96,7c-2.08,4.9-2.63,10.14-2.22,15.46c0.84,10.9,5.78,18.36,12.18,18.43
			C204.26,683.53,208.78,675.97,208.79,664.14z"/>
		<path class="st3" d="M642.15,678.71c-6.05,8.88-14.23,11.78-24.26,9.01c-13.62-3.77-21-18-16.83-32.41
			c3.87-13.37,17.51-20.85,30.56-16.83c4.61,1.42,8.37,3.94,10.88,8.11c2.27,3.76,4.69,8.25,2.91,12.14
			c-1.72,3.75-6.65,1.49-10.14,1.69c-5.55,0.31-11.13,0.28-16.68,0.03c-5.37-0.25-6.12,2.02-5.05,6.77
			c2.65,11.82,11.62,16.85,22.83,12.29C638.01,678.84,639.43,677.39,642.15,678.71z M623.71,656.35c2.37-3.52,8.87,2.99,9.13-4.2
			c0.2-5.36-3.17-9.54-9.22-9.49c-5.97,0.05-9.5,4.37-9.48,9.5C614.18,659.16,620.5,653.55,623.71,656.35z"/>
		<path class="st3" d="M590.08,677.76c-0.57,5.92-4.5,7.36-7.91,8.91c-9.89,4.47-21.77,1.4-28.38-7.08
			c-7.24-9.3-7.27-23.28-0.07-32.78c6.47-8.54,18.43-11.78,28.29-7.65c3.5,1.47,6.46,3.66,8.47,6.91c2.46,3.98,5.19,8.66,2.98,12.88
			c-1.81,3.44-6.78,1.26-10.32,1.48c-4.31,0.27-8.65,0.05-12.97,0.07c-9.29,0.04-10.66,2.17-7.05,10.88
			C567.19,681.22,574.57,683.2,590.08,677.76z M571.44,656.07c2.95-2.66,9.57,3.14,9.65-4.36c0.05-5.25-3.33-9.3-9.36-9.07
			c-5.88,0.22-9.29,4.55-9.34,9.51C562.33,658.99,568.56,653.65,571.44,656.07z"/>
		<path class="st3" d="M909.64,678.53c-6.1,9.14-15.17,12.25-25.65,8.9c-13.26-4.24-20.06-19.07-15.28-33.31
			c4.32-12.86,17.72-19.63,30.53-15.54c4.32,1.38,7.84,3.81,10.21,7.6c2.46,3.93,5.43,8.63,3.16,12.87
			c-1.78,3.34-6.81,1.19-10.38,1.38c-4.94,0.26-9.94,0.44-14.86-0.02c-7.78-0.74-8.1,2.96-6.17,8.86
			c3.49,10.66,12.14,14.63,22.62,10.12C905.47,678.69,906.8,676.96,909.64,678.53z M890.27,655.99c2.92-2.72,9.59,3.29,9.86-4.02
			c0.19-5.12-3.27-9.5-9.39-9.31c-6.45,0.2-9.96,5.18-9.69,10.37C881.33,658.24,887.13,653.99,890.27,655.99z"/>
		<path class="st3" d="M857.34,652c0.01,10.22-0.62,20.49,0.21,30.64c0.65,8.03-4.75,4.3-7.71,4.78c-3.02,0.49-5.57,1.19-5.54-4.67
			c0.11-20.95,1.33-41.92-0.56-62.9c-0.51-5.64,6.13-2.63,9.29-4.02c4.11-1.8,4.33,1.56,4.32,4.59
			C857.31,630.94,857.33,641.47,857.34,652z"/>
		<path class="st3" d="M817.65,662.34c0-5.25,1.05-10.78-0.23-15.7c-2.27-8.68,3.76-7.93,8.45-8.46c7.83-0.89,4.04,5.42,4.16,8.25
			c0.51,12.34-0.23,24.74,0.56,37.05c0.45,7.13-4.27,3.81-6.51,3.82c-2.35,0.01-7.26,3.13-6.79-3.67
			c0.48-7.07,0.11-14.19,0.11-21.29C817.47,662.34,817.56,662.34,817.65,662.34z"/>
		<path class="st3" d="M830.17,622.94c-0.5,4-2.8,6.54-6.63,6.47c-3.8-0.07-6.47-2.66-6.44-6.56c0.03-3.91,2.66-6.3,6.6-6.29
			C827.71,616.56,829.79,619.06,830.17,622.94z"/>
	</g>
</g>
</svg>
