<?xml version="1.0" encoding="utf-8"?>
<!-- Generator: Adobe Illustrator 26.2.1, SVG Export Plug-In . SVG Version: 6.00 Build 0)  -->
<svg version="1.1" xmlns="http://www.w3.org/2000/svg" xmlns:xlink="http://www.w3.org/1999/xlink" x="0px" y="0px"
	 viewBox="0 0 858.4 394.8" style="enable-background:new 0 0 858.4 394.8;" xml:space="preserve">
<style type="text/css">
	.st0{display:none;}
	.st1{display:inline;fill:#020202;stroke:#000000;stroke-miterlimit:10;}
	.st2{display:inline;}
	.st3{fill:#DA2128;}
	.st4{fill:#322E2F;}
	.st5{fill:#FFFFFF;}
</style>
<g id="Capa_2" class="st0">
	<rect x="0.9" y="0" class="st1" width="857.5" height="394.8"/>
</g>
<g id="Capa_1">
	<g id="Capa_2_00000036230676202127461340000013913929919003496838_" class="st0">
		<rect x="57.2" y="-23.6" class="st2" width="664" height="386"/>
	</g>
	<g id="Capa_1_00000101819542947758327970000000810761016725438393_" class="st0">
		<g class="st2">
			<path class="st3" d="M187.9,224.3c-13.9,14.8-27.8,26.4-44.4,34.6c-19.9,9.8-40.8,14.1-63,12.1c-32.2-2.9-54-30.8-49.6-63
				c3.8-27.8,13-54.1,22.7-80.2c6.2-16.8,12.2-33.7,16.5-51.2c2.8-11.4-1.3-17.2-13.2-17.7c-12.7-0.5-25.4-0.2-38.1-0.2
				c-6.5,0-9.3-2-6.5-9.1c3.1-7.7,5.9-15.7,8.1-23.7c1.6-5.9,4.7-7.8,10.6-7.7c42.8,0.2,85.5,0.2,128.3,0c6.2,0,7.1,1.5,5.5,7.4
				C153.6,66,138.6,105,126.3,144.9c-3.2,10.4-6.6,20.7-9.1,31.2c-4.9,19.9,9.8,33.9,29.5,28.1c13.3-3.9,23.7-12,31-23.8
				c20.5-32.9,32.7-69.3,44.1-105.9c5.1-16.5,10.4-33,15.3-49.7c1.5-5,3.9-6.6,9.2-6.6c21.7,0.3,43.4,0.4,65.1,0
				c7.6-0.1,7.6,2.2,5.8,8.5c-15.2,53.9-34.6,106.5-51.6,159.8c-2,6.4-5.9,14,2.2,18.1c8.2,4.2,13.6-2.3,18.8-7.9
				c4.5-4.9,4.7-13.8,14-14.5c2.5-0.2,1.8-4.9,2.1-7.5c7.4-70.6,46.6-118.7,108.2-149.2C452.2,5.1,495,3.9,537.3,24.6
				c7.8,3.8,14.8,4.4,20.5-3.5c0.8-1.2,2.2-2.8,3.3-2.8c12.4-0.2,24.8-0.6,37.2,0.1c5.1,0.3,2.3,4.7,1.4,7.3
				c-9.2,26.6-18.5,53.2-27.7,79.8c-0.1,0.4,0.3,0.9,0.5,1.5c4.2-0.5,4.7-4.5,6.3-7.1c27.2-41.2,62-72.1,111.2-84.3
				c29.5-7.3,58.3-5.6,86.2,7.4c9.8,4.6,19.8,8.8,27.9-3.2c1.4-2.1,3.8-1.7,6-1.7c10.5,0,21.1,0,31.6,0c4.6,0,6.8,0.7,4.8,6.4
				c-10,29.3-19.6,58.7-29,88.1c-1.8,5.7-4.2,8-10.3,7.8c-13-0.4-26-0.4-39,0c-6,0.2-6.8-2-5.2-7.1c3.3-10.6,6.2-21.4,5.7-32.8
				c-0.5-11.4-5.8-19.3-16.3-23.8c-17-7.3-33.9-6-48.8,4.1c-39.1,26.7-60.5,64.5-65.7,111.3c-1.8,16.6,3.2,31.5,18.5,40.8
				c15.8,9.7,31.4,7.1,46.6-1.8c15.6-9.2,27.3-22.3,37-37.3c3.1-4.8,6.4-6.6,12-6.4c12.1,0.4,24.2,0.2,36.2,0.1
				c4.4,0,7.3,0.2,4.7,6.1c-26.4,58.7-85.2,105.8-160.6,95.1c-52.6-7.5-84.3-51.2-76.9-104.1c1.6-11.4,4.3-22.5,8-33.4
				c3.7-11,3.6-11-7.6-11c-11.2,0-22.3-0.2-33.5,0.1c-5.8,0.1-7.8-1.2-5.8-7.4c3-9.1,4.8-18.6,5.4-28.2c1.2-19.2-9.8-32-29.1-33.6
				c-14.2-1.2-27.4,2.3-38.6,10.6c-36,26.6-58.2,61.9-64.4,106.5c-1.2,8.3,0,16.8,1.8,24.9c3.9,17.5,22.3,28.8,41.6,26.1
				c14.8-2,26.5-9.9,37.1-19.7c8.6-8.1,16.3-17,23.1-26.7c2.8-3.9,5.8-5.7,10.8-5.5c11.8,0.4,23.6,0.2,35.3,0.1
				c4.6,0,7.2,0.4,4.8,6.2c-28,66.7-100.6,112.1-174.8,92.7c-23.6-6.2-42-19.8-53.8-41.2c-4.7-8.6-6.3-6.3-10.9-0.2
				c-15,20.2-32.5,37.5-58,44c-2.7,0.7-5.4,1.3-8.2,1.6c-31.8,3.4-45.7-7.5-49.9-39.1C188.5,229.9,188.3,228.1,187.9,224.3z"/>
			<path class="st4" d="M658.1,363.3c0-5.6-0.5-11.2,0.2-16.7c0.4-3-3.9-7.7,0.6-8.5c3.4-0.6,9.3-6.6,12,2.1c0.8,2.4,3-0.4,4.4-1.1
				c8.2-4.5,16-5.1,22.8,2.3c2.8,3.1,4,0.8,5.8-0.7c6.7-5.3,14-6.6,21.7-2.7c7.2,3.6,7.8,10.5,7.5,17.6c-0.2,7.4,0.1,14.9-0.2,22.3
				c-0.1,2.5,1.9,6.4-0.5,7.4c-3.2,1.3-7.3,0.7-11,0.6c-3.1-0.1-1.5-2.5-1.4-4.1c0-9,0-18,0.1-26.9c0.1-6.5-2.4-11.3-9.4-11.2
				c-6.5,0.1-9.8,3.7-9.4,10.9c0.5,8-0.4,16.1,0.3,24.1c0.5,5.8-0.6,7.5-6.8,7.5c-6,0-6.9-1.5-6.4-7.2c0.8-8.6,0.1-17.3,0.2-26
				c0-6.1-3-9.5-8.9-9.5c-6,0-9.8,2.7-9.5,9.7c0.4,9.3-0.7,18.7,0.4,27.8c0.9,7.5-3.9,4.6-6.6,4.7c-3,0.1-7.8,2.3-6.2-5
				C659,375.3,658.1,369.2,658.1,363.3z"/>
			<path class="st4" d="M478.5,324.7c-3-3.9-5.5-8.1-10-5c-5.3,3.6-3.5,9.5-3.4,14.6c0.1,5.1,4.6,2.6,7.2,3.1
				c2.2,0.5,5.7-0.9,5.3,3.1c-0.2,3-3.2,2.6-5.2,2.3c-7.4-1.3-7.8,2.9-7.6,8.6c0.4,9.9-0.6,19.9,0.3,29.7c0.7,7-3.6,5-6.6,4.9
				c-2.8-0.1-7.3,2.7-6.5-4.7c1.1-10.7-0.1-21.7,0.4-32.5c0.4-8.4-5.3-5.6-9.3-5.8c-4.2-0.3-8.7-1.3-8.2,6
				c0.6,10.5-0.6,21.1,0.4,31.5c0.7,7.3-3.5,5.4-7.1,5.5c-3.3,0-6.8,1.5-6.1-5.1c1.1-10.4,0.3-21,0.3-31.5c0-2.8,1.2-6.3-3.8-6.8
				c-2-0.2-2.6-3.8-0.9-4.2c6.4-1.4,4.5-6.1,4.8-10c1-11.5,12.3-18.2,23.1-13.9c4.6,1.8,3.5,5.1,3.4,9.3c-3.7-2.3-6.6-8.2-11.2-3.2
				c-4,4.3-3.9,10.5-1.9,14.9c2.2,4.8,8.3,1.3,12.7,2c4.4,0.6,3.7-2.8,3.9-5.5c1-13.7,7-19.3,18.8-18.2
				C477.2,314.1,480.4,316.5,478.5,324.7z"/>
			<path class="st4" d="M87.2,329.5c-7.2-7-15.1-11.1-25.2-9.9c-16.8,2-26.8,16.7-24.1,35.4c2.5,17.8,15.5,28,32.2,25.9
				c6.4-0.8,10.6-3,9.4-10.5c-0.4-2.7,0.6-5.7-0.2-8.3c-2.1-7.5,1.9-7.6,7.6-7.7c5.5-0.1,8,0.9,6.2,6.9c-0.5,1.7-0.1,3.7-0.1,5.5
				c0,15,0,15-14.6,18.3c-14.4,3.2-28.3,3.3-40.8-5.9c-21.6-16-18.8-48.8,5.3-60.8c13.6-6.8,27.5-5.9,41.5-1
				C91.4,319.8,86.6,325.2,87.2,329.5z"/>
			<path class="st4" d="M246,337.6c0-5.8,0.9-11.3-0.3-16.2c-1.2-5,0-5.6,4.5-6.7c7.4-1.9,8.6,0.4,8.7,7.4c0.1,19.7-1.4,39.4,0.8,59
				c0.4,3.2-9.9,6.7-13,3.7c-1.9-1.9-2.4-1.5-4.1-0.6c-8.6,4.6-16.9,4.2-23.6-3.1c-7.6-8.2-8.9-18.2-5.5-28.5
				C217.8,339.4,229.6,333.9,246,337.6z M246,361.1c0-3.7,0.1-7.4,0-11.1c-0.3-8.1-6.1-11.1-13.2-6.9c-10.9,6.5-10.7,29,0.4,35.3
				c7.1,4,12.7,0.9,12.9-7.1C246.1,367.9,246,364.5,246,361.1z"/>
			<path class="st4" d="M355.7,333.3c-12.8-15.5-29.6-18.2-41.8-7.5c-12,10.6-12.9,33.8-1.8,46.5c10.8,12.4,27.4,11.5,42.9-2.4
				c2.9,8.8-1.2,12.8-9.5,14.8c-9.5,2.3-18.9,3.3-28.4,0.6c-17.7-4.9-28.4-20.3-26.8-38.5c1.6-17.7,15.3-31,34.5-33.2
				c5.5-0.6,11.1-0.3,16.6,0.8C355.3,317.6,355.3,317.5,355.7,333.3z"/>
			<path class="st4" d="M602.9,368.6c4,5.9,8.2,11.2,15.5,12.5c6.8,1.3,12.6-0.7,15.3-7.3c2.7-6.6,0.5-12.1-6-15.5
				c-4.1-2.2-8.4-4-12.4-6.2c-11-6.3-15.2-14.7-12.4-24.2c2.7-8.8,13.4-15,24.6-14.3c12,0.8,13.8,2.8,13.8,16
				c-4.4-3.2-6.9-8.2-12.2-9.5c-6.3-1.6-12-1.2-15.1,5.2c-3,6.3,0.6,10.6,6.1,13.5c4.9,2.6,10,4.9,14.9,7.4c8.6,4.3,13,11.2,12.1,21
				c-0.8,8.8-7.5,16.2-16.8,18.9c-8.1,2.4-16,0.9-23.6-2.1C599,380.8,604,373.9,602.9,368.6z"/>
			<path class="st4" d="M362.9,361.5c0.2-15,10.4-25.7,24.6-25.7c14.4-0.1,24.6,10.6,24.4,25.5c-0.2,14.7-10.7,25.7-24.6,25.8
				C372.7,387.2,362.7,376.6,362.9,361.5z M399,362.5c-0.2-4.9-0.4-9.9-2.7-14.4c-2.1-4-4.8-7.3-9.9-7c-5.1,0.2-7.6,3.7-9.3,7.9
				c-1.8,4.4-1.8,9.1-1.6,13.7c0.4,11.6,5.2,19.2,12,19.3C394.4,381.9,398.9,374.2,399,362.5z"/>
			<path class="st4" d="M181.7,335.8c14.3,0.1,24.6,11,24.2,25.8c-0.3,14.5-11.2,25.6-25.1,25.5c-14.4-0.2-24.5-11-24.1-25.9
				C157.1,346.5,167.6,335.7,181.7,335.8z M169.4,360.4c0,4.3,0.2,8.7,2,12.7c2.1,4.7,4.9,9.1,10.7,8.7c5.7-0.4,8.7-4.6,9.7-9.8
				c0.9-4.2,1.3-8.6,1-12.8c-0.8-11.7-5.4-18.2-12.1-18.2C173.7,341.1,169.4,348.3,169.4,360.4z"/>
			<path class="st4" d="M101.9,361c0.5-15,10.9-25.4,25.1-25.1c14.3,0.3,24.5,11.4,24,26.1c-0.5,14.5-11.6,25.5-25.4,25.2
				C111.1,386.8,101.3,376,101.9,361z M138,362.6c0.2-5.3-0.5-10.5-3.1-15.2c-2-3.7-4.7-6.5-9.4-6.3c-4.7,0.2-7.3,3.2-9,7
				c-2.1,4.9-2.6,10.1-2.2,15.5c0.8,10.9,5.8,18.4,12.2,18.4C133.5,382,138,374.4,138,362.6z"/>
			<path class="st4" d="M571.4,377.1c-6,8.9-14.2,11.8-24.3,9c-13.6-3.8-21-18-16.8-32.4c3.9-13.4,17.5-20.8,30.6-16.8
				c4.6,1.4,8.4,3.9,10.9,8.1c2.3,3.8,4.7,8.2,2.9,12.1c-1.7,3.8-6.7,1.5-10.1,1.7c-5.5,0.3-11.1,0.3-16.7,0c-5.4-0.2-6.1,2-5,6.8
				c2.7,11.8,11.6,16.8,22.8,12.3C567.2,377.3,568.6,375.8,571.4,377.1z M552.9,354.8c2.4-3.5,8.9,3,9.1-4.2
				c0.2-5.4-3.2-9.5-9.2-9.5c-6,0-9.5,4.4-9.5,9.5C543.4,357.6,549.7,352,552.9,354.8z"/>
			<path class="st4" d="M519.3,376.2c-0.6,5.9-4.5,7.4-7.9,8.9c-9.9,4.5-21.8,1.4-28.4-7.1c-7.2-9.3-7.3-23.3-0.1-32.8
				c6.5-8.5,18.4-11.8,28.3-7.7c3.5,1.5,6.5,3.7,8.5,6.9c2.5,4,5.2,8.7,3,12.9c-1.8,3.4-6.8,1.3-10.3,1.5c-4.3,0.3-8.7,0-13,0.1
				c-9.3,0-10.7,2.2-7,10.9C496.4,379.7,503.8,381.6,519.3,376.2z M500.7,354.5c3-2.7,9.6,3.1,9.7-4.4c0-5.2-3.3-9.3-9.4-9.1
				c-5.9,0.2-9.3,4.5-9.3,9.5C491.5,357.4,497.8,352.1,500.7,354.5z"/>
			<path class="st4" d="M838.9,377c-6.1,9.1-15.2,12.2-25.7,8.9c-13.3-4.2-20.1-19.1-15.3-33.3c4.3-12.9,17.7-19.6,30.5-15.5
				c4.3,1.4,7.8,3.8,10.2,7.6c2.5,3.9,5.4,8.6,3.2,12.9c-1.8,3.3-6.8,1.2-10.4,1.4c-4.9,0.3-9.9,0.4-14.9,0c-7.8-0.7-8.1,3-6.2,8.9
				c3.5,10.7,12.1,14.6,22.6,10.1C834.7,377.1,836,375.4,838.9,377z M819.5,354.4c2.9-2.7,9.6,3.3,9.9-4c0.2-5.1-3.3-9.5-9.4-9.3
				c-6.5,0.2-10,5.2-9.7,10.4C810.5,356.7,816.3,352.4,819.5,354.4z"/>
			<path class="st4" d="M786.6,350.4c0,10.2-0.6,20.5,0.2,30.6c0.7,8-4.8,4.3-7.7,4.8c-3,0.5-5.6,1.2-5.5-4.7
				c0.1-21,1.3-41.9-0.6-62.9c-0.5-5.6,6.1-2.6,9.3-4c4.1-1.8,4.3,1.6,4.3,4.6C786.5,329.4,786.5,339.9,786.6,350.4z"/>
			<path class="st4" d="M746.9,360.8c0-5.2,1-10.8-0.2-15.7c-2.3-8.7,3.8-7.9,8.5-8.5c7.8-0.9,4,5.4,4.2,8.2
				c0.5,12.3-0.2,24.7,0.6,37c0.5,7.1-4.3,3.8-6.5,3.8c-2.3,0-7.3,3.1-6.8-3.7c0.5-7.1,0.1-14.2,0.1-21.3
				C746.7,360.8,746.8,360.8,746.9,360.8z"/>
			<path class="st4" d="M759.4,321.4c-0.5,4-2.8,6.5-6.6,6.5c-3.8-0.1-6.5-2.7-6.4-6.6c0-3.9,2.7-6.3,6.6-6.3
				C756.9,315,759,317.5,759.4,321.4z"/>
		</g>
	</g>
	<g id="Capa_3_00000045615012350138824410000009333104446073211837_">
		<g>
			<path class="st3" d="M187.9,224.3c-13.9,14.8-27.8,26.4-44.4,34.6c-19.9,9.8-40.8,14.1-63,12.1c-32.2-2.9-54-30.8-49.6-63
				c3.8-27.8,13-54.1,22.7-80.2c6.2-16.8,12.2-33.7,16.5-51.2c2.8-11.4-1.3-17.2-13.2-17.7c-12.7-0.5-25.4-0.2-38.1-0.2
				c-6.5,0-9.3-2-6.5-9.1c3.1-7.7,5.9-15.7,8.1-23.7c1.6-5.9,4.7-7.8,10.6-7.7c42.8,0.2,85.5,0.2,128.3,0c6.2,0,7.1,1.5,5.5,7.4
				C153.6,66,138.6,105,126.3,144.9c-3.2,10.4-6.6,20.7-9.1,31.2c-4.9,19.9,9.8,33.9,29.5,28.1c13.3-3.9,23.7-12,31-23.8
				c20.5-32.9,32.7-69.3,44.1-105.9c5.1-16.5,10.4-33,15.3-49.7c1.5-5,3.9-6.6,9.2-6.6c21.7,0.3,43.4,0.4,65.1,0
				c7.6-0.1,7.6,2.2,5.8,8.5c-15.2,53.9-34.6,106.5-51.6,159.8c-2,6.4-5.9,14,2.2,18.1c8.2,4.2,13.6-2.3,18.8-7.9
				c4.5-4.9,4.7-13.8,14-14.5c2.5-0.2,1.8-4.9,2.1-7.5c7.4-70.6,46.6-118.7,108.2-149.2C452.2,5.1,495,3.9,537.3,24.6
				c7.8,3.8,14.8,4.4,20.5-3.5c0.8-1.2,2.2-2.8,3.3-2.8c12.4-0.2,24.8-0.6,37.2,0.1c5.1,0.3,2.3,4.7,1.4,7.3
				c-9.2,26.6-18.5,53.2-27.7,79.8c-0.1,0.4,0.3,0.9,0.5,1.5c4.2-0.5,4.7-4.5,6.3-7.1c27.2-41.2,62-72.1,111.2-84.3
				c29.5-7.3,58.3-5.6,86.2,7.4c9.8,4.6,19.8,8.8,27.9-3.2c1.4-2.1,3.8-1.7,6-1.7c10.5,0,21.1,0,31.6,0c4.6,0,6.8,0.7,4.8,6.4
				c-10,29.3-19.6,58.7-29,88.1c-1.8,5.7-4.2,8-10.3,7.8c-13-0.4-26-0.4-39,0c-6,0.2-6.8-2-5.2-7.1c3.3-10.6,6.2-21.4,5.7-32.8
				c-0.5-11.4-5.8-19.3-16.3-23.8c-17-7.3-33.9-6-48.8,4.1c-39.1,26.7-60.5,64.5-65.7,111.3c-1.8,16.6,3.2,31.5,18.5,40.8
				c15.8,9.7,31.4,7.1,46.6-1.8c15.6-9.2,27.3-22.3,37-37.3c3.1-4.8,6.4-6.6,12-6.4c12.1,0.4,24.2,0.2,36.2,0.1
				c4.4,0,7.3,0.2,4.7,6.1c-26.4,58.7-85.2,105.8-160.6,95.1c-52.6-7.5-84.3-51.2-76.9-104.1c1.6-11.4,4.3-22.5,8-33.4
				c3.7-11,3.6-11-7.6-11c-11.2,0-22.3-0.2-33.5,0.1c-5.8,0.1-7.8-1.2-5.8-7.4c3-9.1,4.8-18.6,5.4-28.2c1.2-19.2-9.8-32-29.1-33.6
				c-14.2-1.2-27.4,2.3-38.6,10.6c-36,26.6-58.2,61.9-64.4,106.5c-1.2,8.3,0,16.8,1.8,24.9c3.9,17.5,22.3,28.8,41.6,26.1
				c14.8-2,26.5-9.9,37.1-19.7c8.6-8.1,16.3-17,23.1-26.7c2.8-3.9,5.8-5.7,10.8-5.5c11.8,0.4,23.6,0.2,35.3,0.1
				c4.6,0,7.2,0.4,4.8,6.2c-28,66.7-100.6,112.1-174.8,92.7c-23.6-6.2-42-19.8-53.8-41.2c-4.7-8.6-6.3-6.3-10.9-0.2
				c-15,20.2-32.5,37.5-58,44c-2.7,0.7-5.4,1.3-8.2,1.6c-31.8,3.4-45.7-7.5-49.9-39.1C188.5,229.9,188.3,228.1,187.9,224.3z"/>
			<path class="st5" d="M658.1,363.3c0-5.6-0.5-11.2,0.2-16.7c0.4-3-3.9-7.7,0.6-8.5c3.4-0.6,9.3-6.6,12,2.1c0.8,2.4,3-0.4,4.4-1.1
				c8.2-4.5,16-5.1,22.8,2.3c2.8,3.1,4,0.8,5.8-0.7c6.7-5.3,14-6.6,21.7-2.7c7.2,3.6,7.8,10.5,7.5,17.6c-0.2,7.4,0.1,14.9-0.2,22.3
				c-0.1,2.5,1.9,6.4-0.5,7.4c-3.2,1.3-7.3,0.7-11,0.6c-3.1-0.1-1.5-2.5-1.4-4.1c0-9,0-18,0.1-26.9c0.1-6.5-2.4-11.3-9.4-11.2
				c-6.5,0.1-9.8,3.7-9.4,10.9c0.5,8-0.4,16.1,0.3,24.1c0.5,5.8-0.6,7.5-6.8,7.5c-6,0-6.9-1.5-6.4-7.2c0.8-8.6,0.1-17.3,0.2-26
				c0-6.1-3-9.5-8.9-9.5c-6,0-9.8,2.7-9.5,9.7c0.4,9.3-0.7,18.7,0.4,27.8c0.9,7.5-3.9,4.6-6.6,4.7c-3,0.1-7.8,2.3-6.2-5
				C659,375.3,658.1,369.2,658.1,363.3z"/>
			<path class="st5" d="M478.5,324.7c-3-3.9-5.5-8.1-10-5c-5.3,3.6-3.5,9.5-3.4,14.6c0.1,5.1,4.6,2.6,7.2,3.1
				c2.2,0.5,5.7-0.9,5.3,3.1c-0.2,3-3.2,2.6-5.2,2.3c-7.4-1.3-7.8,2.9-7.6,8.6c0.4,9.9-0.6,19.9,0.3,29.7c0.7,7-3.6,5-6.6,4.9
				c-2.8-0.1-7.3,2.7-6.5-4.7c1.1-10.7-0.1-21.7,0.4-32.5c0.4-8.4-5.3-5.6-9.3-5.8c-4.2-0.3-8.7-1.3-8.2,6
				c0.6,10.5-0.6,21.1,0.4,31.5c0.7,7.3-3.5,5.4-7.1,5.5c-3.3,0-6.8,1.5-6.1-5.1c1.1-10.4,0.3-21,0.3-31.5c0-2.8,1.2-6.3-3.8-6.8
				c-2-0.2-2.6-3.8-0.9-4.2c6.4-1.4,4.5-6.1,4.8-10c1-11.5,12.3-18.2,23.1-13.9c4.6,1.8,3.5,5.1,3.4,9.3c-3.7-2.3-6.6-8.2-11.2-3.2
				c-4,4.3-3.9,10.5-1.9,14.9c2.2,4.8,8.3,1.3,12.7,2c4.4,0.6,3.7-2.8,3.9-5.5c1-13.7,7-19.3,18.8-18.2
				C477.2,314.1,480.4,316.5,478.5,324.7z"/>
			<path class="st5" d="M87.2,329.5c-7.2-7-15.1-11.1-25.2-9.9c-16.8,2-26.8,16.7-24.1,35.4c2.5,17.8,15.5,28,32.2,25.9
				c6.4-0.8,10.6-3,9.4-10.5c-0.4-2.7,0.6-5.7-0.2-8.3c-2.1-7.5,1.9-7.6,7.6-7.7c5.5-0.1,8,0.9,6.2,6.9c-0.5,1.7-0.1,3.7-0.1,5.5
				c0,15,0,15-14.6,18.3c-14.4,3.2-28.3,3.3-40.8-5.9c-21.6-16-18.8-48.8,5.3-60.8c13.6-6.8,27.5-5.9,41.5-1
				C91.4,319.8,86.6,325.2,87.2,329.5z"/>
			<path class="st5" d="M246,337.6c0-5.8,0.9-11.3-0.3-16.2c-1.2-5,0-5.6,4.5-6.7c7.4-1.9,8.6,0.4,8.7,7.4c0.1,19.7-1.4,39.4,0.8,59
				c0.4,3.2-9.9,6.7-13,3.7c-1.9-1.9-2.4-1.5-4.1-0.6c-8.6,4.6-16.9,4.2-23.6-3.1c-7.6-8.2-8.9-18.2-5.5-28.5
				C217.8,339.4,229.6,333.9,246,337.6z M246,361.1c0-3.7,0.1-7.4,0-11.1c-0.3-8.1-6.1-11.1-13.2-6.9c-10.9,6.5-10.7,29,0.4,35.3
				c7.1,4,12.7,0.9,12.9-7.1C246.1,367.9,246,364.5,246,361.1z"/>
			<path class="st5" d="M355.7,333.3c-12.8-15.5-29.6-18.2-41.8-7.5c-12,10.6-12.9,33.8-1.8,46.5c10.8,12.4,27.4,11.5,42.9-2.4
				c2.9,8.8-1.2,12.8-9.5,14.8c-9.5,2.3-18.9,3.3-28.4,0.6c-17.7-4.9-28.4-20.3-26.8-38.5c1.6-17.7,15.3-31,34.5-33.2
				c5.5-0.6,11.1-0.3,16.6,0.8C355.3,317.6,355.3,317.5,355.7,333.3z"/>
			<path class="st5" d="M602.9,368.6c4,5.9,8.2,11.2,15.5,12.5c6.8,1.3,12.6-0.7,15.3-7.3c2.7-6.6,0.5-12.1-6-15.5
				c-4.1-2.2-8.4-4-12.4-6.2c-11-6.3-15.2-14.7-12.4-24.2c2.7-8.8,13.4-15,24.6-14.3c12,0.8,13.8,2.8,13.8,16
				c-4.4-3.2-6.9-8.2-12.2-9.5c-6.3-1.6-12-1.2-15.1,5.2c-3,6.3,0.6,10.6,6.1,13.5c4.9,2.6,10,4.9,14.9,7.4c8.6,4.3,13,11.2,12.1,21
				c-0.8,8.8-7.5,16.2-16.8,18.9c-8.1,2.4-16,0.9-23.6-2.1C599,380.8,604,373.9,602.9,368.6z"/>
			<path class="st5" d="M362.9,361.5c0.2-15,10.4-25.7,24.6-25.7c14.4-0.1,24.6,10.6,24.4,25.5c-0.2,14.7-10.7,25.7-24.6,25.8
				C372.7,387.2,362.7,376.6,362.9,361.5z M399,362.5c-0.2-4.9-0.4-9.9-2.7-14.4c-2.1-4-4.8-7.3-9.9-7c-5.1,0.2-7.6,3.7-9.3,7.9
				c-1.8,4.4-1.8,9.1-1.6,13.7c0.4,11.6,5.2,19.2,12,19.3C394.4,381.9,398.9,374.2,399,362.5z"/>
			<path class="st5" d="M181.7,335.8c14.3,0.1,24.6,11,24.2,25.8c-0.3,14.5-11.2,25.6-25.1,25.5c-14.4-0.2-24.5-11-24.1-25.9
				C157.1,346.5,167.6,335.7,181.7,335.8z M169.4,360.4c0,4.3,0.2,8.7,2,12.7c2.1,4.7,4.9,9.1,10.7,8.7c5.7-0.4,8.7-4.6,9.7-9.8
				c0.9-4.2,1.3-8.6,1-12.8c-0.8-11.7-5.4-18.2-12.1-18.2C173.7,341.1,169.4,348.3,169.4,360.4z"/>
			<path class="st5" d="M101.9,361c0.5-15,10.9-25.4,25.1-25.1c14.3,0.3,24.5,11.4,24,26.1c-0.5,14.5-11.6,25.5-25.4,25.2
				C111.1,386.8,101.3,376,101.9,361z M138,362.6c0.2-5.3-0.5-10.5-3.1-15.2c-2-3.7-4.7-6.5-9.4-6.3c-4.7,0.2-7.3,3.2-9,7
				c-2.1,4.9-2.6,10.1-2.2,15.5c0.8,10.9,5.8,18.4,12.2,18.4C133.5,382,138,374.4,138,362.6z"/>
			<path class="st5" d="M571.4,377.1c-6,8.9-14.2,11.8-24.3,9c-13.6-3.8-21-18-16.8-32.4c3.9-13.4,17.5-20.8,30.6-16.8
				c4.6,1.4,8.4,3.9,10.9,8.1c2.3,3.8,4.7,8.2,2.9,12.1c-1.7,3.8-6.7,1.5-10.1,1.7c-5.5,0.3-11.1,0.3-16.7,0c-5.4-0.2-6.1,2-5,6.8
				c2.7,11.8,11.6,16.8,22.8,12.3C567.2,377.3,568.6,375.8,571.4,377.1z M552.9,354.8c2.4-3.5,8.9,3,9.1-4.2
				c0.2-5.4-3.2-9.5-9.2-9.5c-6,0-9.5,4.4-9.5,9.5C543.4,357.6,549.7,352,552.9,354.8z"/>
			<path class="st5" d="M519.3,376.2c-0.6,5.9-4.5,7.4-7.9,8.9c-9.9,4.5-21.8,1.4-28.4-7.1c-7.2-9.3-7.3-23.3-0.1-32.8
				c6.5-8.5,18.4-11.8,28.3-7.7c3.5,1.5,6.5,3.7,8.5,6.9c2.5,4,5.2,8.7,3,12.9c-1.8,3.4-6.8,1.3-10.3,1.5c-4.3,0.3-8.7,0-13,0.1
				c-9.3,0-10.7,2.2-7,10.9C496.4,379.7,503.8,381.6,519.3,376.2z M500.7,354.5c3-2.7,9.6,3.1,9.7-4.4c0-5.2-3.3-9.3-9.4-9.1
				c-5.9,0.2-9.3,4.5-9.3,9.5C491.5,357.4,497.8,352.1,500.7,354.5z"/>
			<path class="st5" d="M838.9,377c-6.1,9.1-15.2,12.2-25.7,8.9c-13.3-4.2-20.1-19.1-15.3-33.3c4.3-12.9,17.7-19.6,30.5-15.5
				c4.3,1.4,7.8,3.8,10.2,7.6c2.5,3.9,5.4,8.6,3.2,12.9c-1.8,3.3-6.8,1.2-10.4,1.4c-4.9,0.3-9.9,0.4-14.9,0c-7.8-0.7-8.1,3-6.2,8.9
				c3.5,10.7,12.1,14.6,22.6,10.1C834.7,377.1,836,375.4,838.9,377z M819.5,354.4c2.9-2.7,9.6,3.3,9.9-4c0.2-5.1-3.3-9.5-9.4-9.3
				c-6.5,0.2-10,5.2-9.7,10.4C810.5,356.7,816.3,352.4,819.5,354.4z"/>
			<path class="st5" d="M786.6,350.4c0,10.2-0.6,20.5,0.2,30.6c0.7,8-4.8,4.3-7.7,4.8c-3,0.5-5.6,1.2-5.5-4.7
				c0.1-21,1.3-41.9-0.6-62.9c-0.5-5.6,6.1-2.6,9.3-4c4.1-1.8,4.3,1.6,4.3,4.6C786.5,329.4,786.5,339.9,786.6,350.4z"/>
			<path class="st5" d="M746.9,360.8c0-5.2,1-10.8-0.2-15.7c-2.3-8.7,3.8-7.9,8.5-8.5c7.8-0.9,4,5.4,4.2,8.2
				c0.5,12.3-0.2,24.7,0.6,37c0.5,7.1-4.3,3.8-6.5,3.8c-2.3,0-7.3,3.1-6.8-3.7c0.5-7.1,0.1-14.2,0.1-21.3
				C746.7,360.8,746.8,360.8,746.9,360.8z"/>
			<path class="st5" d="M759.4,321.4c-0.5,4-2.8,6.5-6.6,6.5c-3.8-0.1-6.5-2.7-6.4-6.6c0-3.9,2.7-6.3,6.6-6.3
				C756.9,315,759,317.5,759.4,321.4z"/>
		</g>
	</g>
</g>
</svg>
